<?xml version="1.0" encoding="utf-8" standalone="no"?>
<!DOCTYPE svg PUBLIC "-//W3C//DTD SVG 1.1//EN"
  "http://www.w3.org/Graphics/SVG/1.1/DTD/svg11.dtd">
<svg xmlns:xlink="http://www.w3.org/1999/xlink" width="576pt" height="576pt" viewBox="0 0 576 576" xmlns="http://www.w3.org/2000/svg" version="1.1">
 <metadata>
  <rdf:RDF xmlns:dc="http://purl.org/dc/elements/1.1/" xmlns:cc="http://creativecommons.org/ns#" xmlns:rdf="http://www.w3.org/1999/02/22-rdf-syntax-ns#">
   <cc:Work>
    <dc:type rdf:resource="http://purl.org/dc/dcmitype/StillImage"/>
    <dc:date>2025-08-14T13:07:53.263766</dc:date>
    <dc:format>image/svg+xml</dc:format>
    <dc:creator>
     <cc:Agent>
      <dc:title>Matplotlib v3.7.2, https://matplotlib.org/</dc:title>
     </cc:Agent>
    </dc:creator>
   </cc:Work>
  </rdf:RDF>
 </metadata>
 <defs>
  <style type="text/css">*{stroke-linejoin: round; stroke-linecap: butt}</style>
 </defs>
 <g id="figure_1">
  <g id="patch_1">
   <path d="M 0 576 
L 576 576 
L 576 0 
L 0 0 
z
" style="fill: #ffffff"/>
  </g>
  <g id="axes_1">
   <g id="patch_2">
    <path d="M 49.163052 242.793624 
L 284.99976 242.793624 
L 284.99976 6.956916 
L 49.163052 6.956916 
z
" style="fill: #ffffff"/>
   </g>
   <g id="PolyCollection_1">
    <defs>
     <path id="maea8c6e264" d="M 77.290366 -374.114032 
L 77.290366 -349.564426 
L 120.563157 -395.792301 
L 163.835947 -439.9249 
L 207.108737 -482.955031 
L 250.381528 -525.220087 
L 250.381528 -543.096452 
L 250.381528 -543.096452 
L 207.108737 -501.015805 
L 163.835947 -457.169733 
L 120.563157 -414.203444 
L 77.290366 -374.114032 
z
" style="stroke: #029386; stroke-opacity: 0.2"/>
    </defs>
    <g clip-path="url(#p68dd3cf171)">
     <use xlink:href="#maea8c6e264" x="0" y="576" style="fill: #029386; fill-opacity: 0.2; stroke: #029386; stroke-opacity: 0.2"/>
    </g>
   </g>
   <g id="matplotlib.axis_1">
    <g id="xtick_1">
     <g id="line2d_1">
      <defs>
       <path id="m22d4b2e187" d="M 0 0 
L 0 5 
" style="stroke: #000000; stroke-width: 1.6"/>
      </defs>
      <g>
       <use xlink:href="#m22d4b2e187" x="77.290366" y="242.793624" style="stroke: #000000; stroke-width: 1.6"/>
      </g>
     </g>
     <g id="text_1">
      <!-- 0 -->
      <g transform="translate(73.953804 259.989874) scale(0.12 -0.12)">
       <defs>
        <path id="LiberationSans-30" d="M 3309 2203 
Q 3309 1569 3189 1136 
Q 3069 703 2861 436 
Q 2653 169 2372 53 
Q 2091 -63 1772 -63 
Q 1450 -63 1172 53 
Q 894 169 689 434 
Q 484 700 367 1133 
Q 250 1566 250 2203 
Q 250 2869 367 3305 
Q 484 3741 690 4000 
Q 897 4259 1178 4364 
Q 1459 4469 1791 4469 
Q 2106 4469 2382 4364 
Q 2659 4259 2865 4000 
Q 3072 3741 3190 3305 
Q 3309 2869 3309 2203 
z
M 2738 2203 
Q 2738 2728 2675 3076 
Q 2613 3425 2491 3633 
Q 2369 3841 2192 3927 
Q 2016 4013 1791 4013 
Q 1553 4013 1372 3925 
Q 1191 3838 1067 3630 
Q 944 3422 881 3073 
Q 819 2725 819 2203 
Q 819 1697 883 1350 
Q 947 1003 1070 792 
Q 1194 581 1372 489 
Q 1550 397 1778 397 
Q 2000 397 2178 489 
Q 2356 581 2479 792 
Q 2603 1003 2670 1350 
Q 2738 1697 2738 2203 
z
" transform="scale(0.015625)"/>
       </defs>
       <use xlink:href="#LiberationSans-30"/>
      </g>
     </g>
    </g>
    <g id="xtick_2">
     <g id="line2d_2">
      <g>
       <use xlink:href="#m22d4b2e187" x="120.563157" y="242.793624" style="stroke: #000000; stroke-width: 1.6"/>
      </g>
     </g>
     <g id="text_2">
      <!-- 2 -->
      <g transform="translate(117.226594 259.989874) scale(0.12 -0.12)">
       <defs>
        <path id="LiberationSans-32" d="M 322 0 
L 322 397 
Q 481 763 711 1042 
Q 941 1322 1194 1548 
Q 1447 1775 1695 1969 
Q 1944 2163 2144 2356 
Q 2344 2550 2467 2762 
Q 2591 2975 2591 3244 
Q 2591 3431 2534 3573 
Q 2478 3716 2372 3812 
Q 2266 3909 2117 3957 
Q 1969 4006 1788 4006 
Q 1619 4006 1470 3959 
Q 1322 3913 1206 3819 
Q 1091 3725 1017 3586 
Q 944 3447 922 3263 
L 347 3316 
Q 375 3553 478 3762 
Q 581 3972 762 4130 
Q 944 4288 1198 4378 
Q 1453 4469 1788 4469 
Q 2116 4469 2372 4391 
Q 2628 4313 2804 4159 
Q 2981 4006 3075 3781 
Q 3169 3556 3169 3263 
Q 3169 3041 3089 2841 
Q 3009 2641 2876 2459 
Q 2744 2278 2569 2109 
Q 2394 1941 2203 1780 
Q 2013 1619 1819 1461 
Q 1625 1303 1454 1143 
Q 1284 984 1150 820 
Q 1016 656 941 478 
L 3238 478 
L 3238 0 
L 322 0 
z
" transform="scale(0.015625)"/>
       </defs>
       <use xlink:href="#LiberationSans-32"/>
      </g>
     </g>
    </g>
    <g id="xtick_3">
     <g id="line2d_3">
      <g>
       <use xlink:href="#m22d4b2e187" x="163.835947" y="242.793624" style="stroke: #000000; stroke-width: 1.6"/>
      </g>
     </g>
     <g id="text_3">
      <!-- 4 -->
      <g transform="translate(160.499384 259.989874) scale(0.12 -0.12)">
       <defs>
        <path id="LiberationSans-34" d="M 2753 997 
L 2753 0 
L 2222 0 
L 2222 997 
L 147 997 
L 147 1434 
L 2163 4403 
L 2753 4403 
L 2753 1441 
L 3372 1441 
L 3372 997 
L 2753 997 
z
M 2222 3769 
Q 2216 3753 2191 3708 
Q 2166 3663 2134 3606 
Q 2103 3550 2070 3492 
Q 2038 3434 2013 3397 
L 884 1734 
Q 869 1709 839 1668 
Q 809 1628 778 1586 
Q 747 1544 715 1503 
Q 684 1463 666 1441 
L 2222 1441 
L 2222 3769 
z
" transform="scale(0.015625)"/>
       </defs>
       <use xlink:href="#LiberationSans-34"/>
      </g>
     </g>
    </g>
    <g id="xtick_4">
     <g id="line2d_4">
      <g>
       <use xlink:href="#m22d4b2e187" x="207.108737" y="242.793624" style="stroke: #000000; stroke-width: 1.6"/>
      </g>
     </g>
     <g id="text_4">
      <!-- 6 -->
      <g transform="translate(203.772175 259.989874) scale(0.12 -0.12)">
       <defs>
        <path id="LiberationSans-36" d="M 3278 1441 
Q 3278 1109 3186 832 
Q 3094 556 2914 357 
Q 2734 159 2468 48 
Q 2203 -63 1856 -63 
Q 1472 -63 1184 84 
Q 897 231 706 507 
Q 516 784 420 1186 
Q 325 1588 325 2100 
Q 325 2688 433 3131 
Q 541 3575 744 3872 
Q 947 4169 1239 4319 
Q 1531 4469 1900 4469 
Q 2125 4469 2322 4422 
Q 2519 4375 2680 4270 
Q 2841 4166 2962 3994 
Q 3084 3822 3156 3572 
L 2619 3475 
Q 2531 3759 2339 3886 
Q 2147 4013 1894 4013 
Q 1663 4013 1475 3903 
Q 1288 3794 1156 3576 
Q 1025 3359 954 3031 
Q 884 2703 884 2266 
Q 1038 2550 1316 2698 
Q 1594 2847 1953 2847 
Q 2253 2847 2497 2750 
Q 2741 2653 2914 2470 
Q 3088 2288 3183 2027 
Q 3278 1766 3278 1441 
z
M 2706 1416 
Q 2706 1644 2650 1828 
Q 2594 2013 2481 2142 
Q 2369 2272 2203 2342 
Q 2038 2413 1819 2413 
Q 1666 2413 1509 2367 
Q 1353 2322 1226 2220 
Q 1100 2119 1020 1953 
Q 941 1788 941 1550 
Q 941 1306 1003 1095 
Q 1066 884 1183 728 
Q 1300 572 1465 481 
Q 1631 391 1838 391 
Q 2041 391 2202 461 
Q 2363 531 2475 664 
Q 2588 797 2647 987 
Q 2706 1178 2706 1416 
z
" transform="scale(0.015625)"/>
       </defs>
       <use xlink:href="#LiberationSans-36"/>
      </g>
     </g>
    </g>
    <g id="xtick_5">
     <g id="line2d_5">
      <g>
       <use xlink:href="#m22d4b2e187" x="250.381528" y="242.793624" style="stroke: #000000; stroke-width: 1.6"/>
      </g>
     </g>
     <g id="text_5">
      <!-- 8 -->
      <g transform="translate(247.044965 259.989874) scale(0.12 -0.12)">
       <defs>
        <path id="LiberationSans-38" d="M 3281 1228 
Q 3281 947 3192 711 
Q 3103 475 2920 303 
Q 2738 131 2453 34 
Q 2169 -63 1781 -63 
Q 1394 -63 1111 34 
Q 828 131 642 301 
Q 456 472 367 708 
Q 278 944 278 1222 
Q 278 1463 351 1650 
Q 425 1838 548 1973 
Q 672 2109 830 2192 
Q 988 2275 1156 2303 
L 1156 2316 
Q 972 2359 826 2456 
Q 681 2553 582 2689 
Q 484 2825 432 2990 
Q 381 3156 381 3341 
Q 381 3572 470 3776 
Q 559 3981 734 4136 
Q 909 4291 1168 4380 
Q 1428 4469 1769 4469 
Q 2128 4469 2392 4378 
Q 2656 4288 2829 4133 
Q 3003 3978 3087 3772 
Q 3172 3566 3172 3334 
Q 3172 3153 3120 2987 
Q 3069 2822 2970 2686 
Q 2872 2550 2726 2454 
Q 2581 2359 2391 2322 
L 2391 2309 
Q 2581 2278 2743 2195 
Q 2906 2113 3025 1977 
Q 3144 1841 3212 1653 
Q 3281 1466 3281 1228 
z
M 2588 3303 
Q 2588 3469 2545 3606 
Q 2503 3744 2406 3842 
Q 2309 3941 2153 3995 
Q 1997 4050 1769 4050 
Q 1547 4050 1394 3995 
Q 1241 3941 1142 3842 
Q 1044 3744 1000 3606 
Q 956 3469 956 3303 
Q 956 3172 990 3034 
Q 1025 2897 1115 2784 
Q 1206 2672 1365 2600 
Q 1525 2528 1775 2528 
Q 2041 2528 2202 2600 
Q 2363 2672 2448 2784 
Q 2534 2897 2561 3034 
Q 2588 3172 2588 3303 
z
M 2697 1281 
Q 2697 1441 2653 1589 
Q 2609 1738 2503 1852 
Q 2397 1966 2217 2036 
Q 2038 2106 1769 2106 
Q 1522 2106 1348 2036 
Q 1175 1966 1067 1850 
Q 959 1734 909 1582 
Q 859 1431 859 1269 
Q 859 1066 909 898 
Q 959 731 1068 611 
Q 1178 491 1356 425 
Q 1534 359 1788 359 
Q 2044 359 2219 425 
Q 2394 491 2500 611 
Q 2606 731 2651 901 
Q 2697 1072 2697 1281 
z
" transform="scale(0.015625)"/>
       </defs>
       <use xlink:href="#LiberationSans-38"/>
      </g>
     </g>
    </g>
    <g id="text_6">
     <!-- Ground‐truth λ -->
     <g transform="translate(118.731016 280.350186) scale(0.15 -0.15)">
      <defs>
       <path id="LiberationSans-47" d="M 322 2222 
Q 322 2738 461 3153 
Q 600 3569 876 3861 
Q 1153 4153 1562 4311 
Q 1972 4469 2513 4469 
Q 2919 4469 3225 4397 
Q 3531 4325 3756 4190 
Q 3981 4056 4137 3864 
Q 4294 3672 4403 3431 
L 3834 3263 
Q 3753 3425 3639 3558 
Q 3525 3691 3362 3784 
Q 3200 3878 2986 3929 
Q 2772 3981 2497 3981 
Q 2097 3981 1801 3856 
Q 1506 3731 1312 3500 
Q 1119 3269 1023 2944 
Q 928 2619 928 2222 
Q 928 1825 1031 1495 
Q 1134 1166 1337 927 
Q 1541 688 1842 555 
Q 2144 422 2541 422 
Q 2800 422 3019 465 
Q 3238 509 3414 579 
Q 3591 650 3725 736 
Q 3859 822 3950 909 
L 3950 1703 
L 2634 1703 
L 2634 2203 
L 4500 2203 
L 4500 684 
Q 4353 534 4154 398 
Q 3956 263 3709 159 
Q 3463 56 3169 -3 
Q 2875 -63 2541 -63 
Q 1984 -63 1568 107 
Q 1153 278 876 583 
Q 600 888 461 1306 
Q 322 1725 322 2222 
z
" transform="scale(0.015625)"/>
       <path id="LiberationSans-72" d="M 444 0 
L 444 2594 
Q 444 2700 442 2811 
Q 441 2922 437 3025 
Q 434 3128 431 3218 
Q 428 3309 425 3381 
L 956 3381 
Q 959 3309 964 3217 
Q 969 3125 973 3028 
Q 978 2931 979 2842 
Q 981 2753 981 2691 
L 994 2691 
Q 1053 2884 1120 3026 
Q 1188 3169 1278 3261 
Q 1369 3353 1494 3398 
Q 1619 3444 1797 3444 
Q 1866 3444 1928 3433 
Q 1991 3422 2025 3413 
L 2025 2897 
Q 1969 2913 1894 2920 
Q 1819 2928 1725 2928 
Q 1531 2928 1395 2840 
Q 1259 2753 1173 2598 
Q 1088 2444 1047 2230 
Q 1006 2016 1006 1763 
L 1006 0 
L 444 0 
z
" transform="scale(0.015625)"/>
       <path id="LiberationSans-6f" d="M 3291 1694 
Q 3291 806 2900 371 
Q 2509 -63 1766 -63 
Q 1413 -63 1134 43 
Q 856 150 664 369 
Q 472 588 370 917 
Q 269 1247 269 1694 
Q 269 3444 1784 3444 
Q 2178 3444 2464 3334 
Q 2750 3225 2933 3006 
Q 3116 2788 3203 2459 
Q 3291 2131 3291 1694 
z
M 2700 1694 
Q 2700 2088 2639 2344 
Q 2578 2600 2461 2753 
Q 2344 2906 2175 2967 
Q 2006 3028 1794 3028 
Q 1578 3028 1404 2964 
Q 1231 2900 1109 2745 
Q 988 2591 923 2334 
Q 859 2078 859 1694 
Q 859 1300 928 1042 
Q 997 784 1117 631 
Q 1238 478 1402 415 
Q 1566 353 1759 353 
Q 1975 353 2150 414 
Q 2325 475 2447 628 
Q 2569 781 2634 1040 
Q 2700 1300 2700 1694 
z
" transform="scale(0.015625)"/>
       <path id="LiberationSans-75" d="M 981 3381 
L 981 1238 
Q 981 991 1017 825 
Q 1053 659 1134 557 
Q 1216 456 1348 414 
Q 1481 372 1678 372 
Q 1878 372 2039 442 
Q 2200 513 2314 645 
Q 2428 778 2490 973 
Q 2553 1169 2553 1422 
L 2553 3381 
L 3116 3381 
L 3116 722 
Q 3116 616 3117 498 
Q 3119 381 3122 276 
Q 3125 172 3128 97 
Q 3131 22 3134 0 
L 2603 0 
Q 2600 16 2597 84 
Q 2594 153 2589 242 
Q 2584 331 2581 423 
Q 2578 516 2578 578 
L 2569 578 
Q 2488 431 2391 312 
Q 2294 194 2166 111 
Q 2038 28 1872 -17 
Q 1706 -63 1488 -63 
Q 1206 -63 1003 6 
Q 800 75 669 219 
Q 538 363 477 588 
Q 416 813 416 1128 
L 416 3381 
L 981 3381 
z
" transform="scale(0.015625)"/>
       <path id="LiberationSans-6e" d="M 2578 0 
L 2578 2144 
Q 2578 2391 2542 2556 
Q 2506 2722 2425 2823 
Q 2344 2925 2211 2967 
Q 2078 3009 1881 3009 
Q 1681 3009 1520 2939 
Q 1359 2869 1245 2736 
Q 1131 2603 1068 2408 
Q 1006 2213 1006 1959 
L 1006 0 
L 444 0 
L 444 2659 
Q 444 2766 442 2883 
Q 441 3000 437 3104 
Q 434 3209 431 3284 
Q 428 3359 425 3381 
L 956 3381 
Q 959 3366 962 3297 
Q 966 3228 970 3139 
Q 975 3050 978 2958 
Q 981 2866 981 2803 
L 991 2803 
Q 1072 2950 1169 3069 
Q 1266 3188 1394 3270 
Q 1522 3353 1687 3398 
Q 1853 3444 2072 3444 
Q 2353 3444 2556 3375 
Q 2759 3306 2890 3162 
Q 3022 3019 3083 2792 
Q 3144 2566 3144 2253 
L 3144 0 
L 2578 0 
z
" transform="scale(0.015625)"/>
       <path id="LiberationSans-64" d="M 2566 544 
Q 2409 219 2151 78 
Q 1894 -63 1513 -63 
Q 872 -63 570 368 
Q 269 800 269 1675 
Q 269 3444 1513 3444 
Q 1897 3444 2153 3303 
Q 2409 3163 2566 2856 
L 2572 2856 
Q 2572 2888 2570 2955 
Q 2569 3022 2567 3095 
Q 2566 3169 2566 3234 
Q 2566 3300 2566 3328 
L 2566 4638 
L 3128 4638 
L 3128 697 
Q 3128 575 3129 462 
Q 3131 350 3134 256 
Q 3138 163 3141 95 
Q 3144 28 3147 0 
L 2609 0 
Q 2603 31 2598 89 
Q 2594 147 2589 222 
Q 2584 297 2581 380 
Q 2578 463 2578 544 
L 2566 544 
z
M 859 1694 
Q 859 1344 903 1094 
Q 947 844 1044 683 
Q 1141 522 1291 447 
Q 1441 372 1656 372 
Q 1878 372 2048 444 
Q 2219 516 2333 677 
Q 2447 838 2506 1097 
Q 2566 1356 2566 1731 
Q 2566 2091 2506 2339 
Q 2447 2588 2331 2741 
Q 2216 2894 2048 2961 
Q 1881 3028 1663 3028 
Q 1456 3028 1306 2956 
Q 1156 2884 1056 2725 
Q 956 2566 907 2311 
Q 859 2056 859 1694 
z
" transform="scale(0.015625)"/>
       <path id="LiberationSans-2010" d="M 284 1450 
L 284 1950 
L 1847 1950 
L 1847 1450 
L 284 1450 
z
" transform="scale(0.015625)"/>
       <path id="LiberationSans-74" d="M 1731 25 
Q 1603 -9 1470 -29 
Q 1338 -50 1163 -50 
Q 488 -50 488 716 
L 488 2972 
L 97 2972 
L 97 3381 
L 509 3381 
L 675 4138 
L 1050 4138 
L 1050 3381 
L 1675 3381 
L 1675 2972 
L 1050 2972 
L 1050 838 
Q 1050 594 1129 495 
Q 1209 397 1406 397 
Q 1488 397 1564 409 
Q 1641 422 1731 441 
L 1731 25 
z
" transform="scale(0.015625)"/>
       <path id="LiberationSans-68" d="M 991 2803 
Q 1084 2975 1193 3095 
Q 1303 3216 1434 3294 
Q 1566 3372 1722 3408 
Q 1878 3444 2072 3444 
Q 2397 3444 2605 3356 
Q 2813 3269 2933 3111 
Q 3053 2953 3098 2734 
Q 3144 2516 3144 2253 
L 3144 0 
L 2578 0 
L 2578 2144 
Q 2578 2359 2551 2521 
Q 2525 2684 2450 2792 
Q 2375 2900 2237 2954 
Q 2100 3009 1881 3009 
Q 1681 3009 1520 2937 
Q 1359 2866 1245 2734 
Q 1131 2603 1068 2415 
Q 1006 2228 1006 1994 
L 1006 0 
L 444 0 
L 444 4638 
L 1006 4638 
L 1006 3431 
Q 1006 3328 1003 3225 
Q 1000 3122 995 3034 
Q 991 2947 987 2886 
Q 984 2825 981 2803 
L 991 2803 
z
" transform="scale(0.015625)"/>
       <path id="LiberationSans-20" transform="scale(0.015625)"/>
       <path id="LiberationSans-3bb" d="M 1447 3016 
L 1334 3325 
Q 1250 3553 1184 3717 
Q 1119 3881 1048 3986 
Q 978 4091 889 4139 
Q 800 4188 675 4188 
Q 641 4188 591 4177 
Q 541 4166 522 4156 
L 413 4563 
Q 491 4591 603 4614 
Q 716 4638 816 4638 
Q 988 4638 1123 4581 
Q 1259 4525 1373 4398 
Q 1488 4272 1592 4067 
Q 1697 3863 1809 3566 
L 3144 0 
L 2550 0 
L 1903 1803 
Q 1878 1872 1850 1959 
Q 1822 2047 1794 2139 
Q 1766 2231 1741 2318 
Q 1716 2406 1700 2472 
Q 1678 2406 1643 2312 
Q 1609 2219 1570 2122 
Q 1531 2025 1493 1939 
Q 1456 1853 1431 1797 
L 628 0 
L 44 0 
L 1447 3016 
z
" transform="scale(0.015625)"/>
      </defs>
      <use xlink:href="#LiberationSans-47"/>
      <use xlink:href="#LiberationSans-72" x="77.783203"/>
      <use xlink:href="#LiberationSans-6f" x="111.083984"/>
      <use xlink:href="#LiberationSans-75" x="166.699219"/>
      <use xlink:href="#LiberationSans-6e" x="222.314453"/>
      <use xlink:href="#LiberationSans-64" x="277.929688"/>
      <use xlink:href="#LiberationSans-2010" x="333.544922"/>
      <use xlink:href="#LiberationSans-74" x="366.845703"/>
      <use xlink:href="#LiberationSans-72" x="394.628906"/>
      <use xlink:href="#LiberationSans-75" x="427.929688"/>
      <use xlink:href="#LiberationSans-74" x="483.544922"/>
      <use xlink:href="#LiberationSans-68" x="511.328125"/>
      <use xlink:href="#LiberationSans-20" x="566.943359"/>
      <use xlink:href="#LiberationSans-3bb" x="594.726562"/>
     </g>
    </g>
   </g>
   <g id="matplotlib.axis_2">
    <g id="ytick_1">
     <g id="line2d_6">
      <defs>
       <path id="m167222c424" d="M 0 0 
L -5 0 
" style="stroke: #000000; stroke-width: 1.6"/>
      </defs>
      <g>
       <use xlink:href="#m167222c424" x="49.163052" y="214.66631" style="stroke: #000000; stroke-width: 1.6"/>
      </g>
     </g>
     <g id="text_7">
      <!-- 0 -->
      <g transform="translate(33.989928 219.014435) scale(0.12 -0.12)">
       <use xlink:href="#LiberationSans-30"/>
      </g>
     </g>
    </g>
    <g id="ytick_2">
     <g id="line2d_7">
      <g>
       <use xlink:href="#m167222c424" x="49.163052" y="171.39352" style="stroke: #000000; stroke-width: 1.6"/>
      </g>
     </g>
     <g id="text_8">
      <!-- 2 -->
      <g transform="translate(33.989928 175.741645) scale(0.12 -0.12)">
       <use xlink:href="#LiberationSans-32"/>
      </g>
     </g>
    </g>
    <g id="ytick_3">
     <g id="line2d_8">
      <g>
       <use xlink:href="#m167222c424" x="49.163052" y="128.120729" style="stroke: #000000; stroke-width: 1.6"/>
      </g>
     </g>
     <g id="text_9">
      <!-- 4 -->
      <g transform="translate(33.989928 132.468854) scale(0.12 -0.12)">
       <use xlink:href="#LiberationSans-34"/>
      </g>
     </g>
    </g>
    <g id="ytick_4">
     <g id="line2d_9">
      <g>
       <use xlink:href="#m167222c424" x="49.163052" y="84.847939" style="stroke: #000000; stroke-width: 1.6"/>
      </g>
     </g>
     <g id="text_10">
      <!-- 6 -->
      <g transform="translate(33.989928 89.196064) scale(0.12 -0.12)">
       <use xlink:href="#LiberationSans-36"/>
      </g>
     </g>
    </g>
    <g id="ytick_5">
     <g id="line2d_10">
      <g>
       <use xlink:href="#m167222c424" x="49.163052" y="41.575148" style="stroke: #000000; stroke-width: 1.6"/>
      </g>
     </g>
     <g id="text_11">
      <!-- 8 -->
      <g transform="translate(33.989928 45.923273) scale(0.12 -0.12)">
       <use xlink:href="#LiberationSans-38"/>
      </g>
     </g>
    </g>
    <g id="text_12">
     <!-- Fitted λ -->
     <g transform="translate(23.877427 149.464723) rotate(-90) scale(0.15 -0.15)">
      <defs>
       <path id="LiberationSans-46" d="M 1122 3916 
L 1122 2278 
L 3578 2278 
L 3578 1784 
L 1122 1784 
L 1122 0 
L 525 0 
L 525 4403 
L 3653 4403 
L 3653 3916 
L 1122 3916 
z
" transform="scale(0.015625)"/>
       <path id="LiberationSans-69" d="M 428 4100 
L 428 4638 
L 991 4638 
L 991 4100 
L 428 4100 
z
M 428 0 
L 428 3381 
L 991 3381 
L 991 0 
L 428 0 
z
" transform="scale(0.015625)"/>
       <path id="LiberationSans-65" d="M 863 1572 
Q 863 1306 917 1082 
Q 972 859 1086 698 
Q 1200 538 1378 448 
Q 1556 359 1806 359 
Q 2172 359 2392 506 
Q 2613 653 2691 878 
L 3184 738 
Q 3131 597 3036 455 
Q 2941 313 2781 198 
Q 2622 84 2383 10 
Q 2144 -63 1806 -63 
Q 1056 -63 664 384 
Q 272 831 272 1713 
Q 272 2188 390 2517 
Q 509 2847 715 3053 
Q 922 3259 1197 3351 
Q 1472 3444 1784 3444 
Q 2209 3444 2495 3306 
Q 2781 3169 2954 2926 
Q 3128 2684 3201 2356 
Q 3275 2028 3275 1647 
L 3275 1572 
L 863 1572 
z
M 2694 2003 
Q 2647 2538 2422 2783 
Q 2197 3028 1775 3028 
Q 1634 3028 1479 2983 
Q 1325 2938 1194 2822 
Q 1063 2706 972 2507 
Q 881 2309 869 2003 
L 2694 2003 
z
" transform="scale(0.015625)"/>
      </defs>
      <use xlink:href="#LiberationSans-46"/>
      <use xlink:href="#LiberationSans-69" x="61.083984"/>
      <use xlink:href="#LiberationSans-74" x="83.300781"/>
      <use xlink:href="#LiberationSans-74" x="111.083984"/>
      <use xlink:href="#LiberationSans-65" x="138.867188"/>
      <use xlink:href="#LiberationSans-64" x="194.482422"/>
      <use xlink:href="#LiberationSans-20" x="250.097656"/>
      <use xlink:href="#LiberationSans-3bb" x="277.880859"/>
     </g>
    </g>
   </g>
   <g id="line2d_11">
    <path d="M 77.290366 214.160771 
L 120.563157 171.002128 
L 163.835947 127.452683 
L 207.108737 84.014582 
L 250.381528 41.84173 
" clip-path="url(#p68dd3cf171)" style="fill: none; stroke: #029386; stroke-width: 2.5; stroke-linecap: square"/>
    <defs>
     <path id="m45b68c3aed" d="M 0 3 
C 0.795609 3 1.55874 2.683901 2.12132 2.12132 
C 2.683901 1.55874 3 0.795609 3 0 
C 3 -0.795609 2.683901 -1.55874 2.12132 -2.12132 
C 1.55874 -2.683901 0.795609 -3 0 -3 
C -0.795609 -3 -1.55874 -2.683901 -2.12132 -2.12132 
C -2.683901 -1.55874 -3 -0.795609 -3 0 
C -3 0.795609 -2.683901 1.55874 -2.12132 2.12132 
C -1.55874 2.683901 -0.795609 3 0 3 
z
" style="stroke: #029386"/>
    </defs>
    <g clip-path="url(#p68dd3cf171)">
     <use xlink:href="#m45b68c3aed" x="77.290366" y="214.160771" style="fill: #029386; stroke: #029386"/>
     <use xlink:href="#m45b68c3aed" x="120.563157" y="171.002128" style="fill: #029386; stroke: #029386"/>
     <use xlink:href="#m45b68c3aed" x="163.835947" y="127.452683" style="fill: #029386; stroke: #029386"/>
     <use xlink:href="#m45b68c3aed" x="207.108737" y="84.014582" style="fill: #029386; stroke: #029386"/>
     <use xlink:href="#m45b68c3aed" x="250.381528" y="41.84173" style="fill: #029386; stroke: #029386"/>
    </g>
   </g>
   <g id="line2d_12">
    <path d="M 49.163052 242.793624 
L 284.99976 6.956916 
" clip-path="url(#p68dd3cf171)" style="fill: none; stroke-dasharray: 5.55,2.4; stroke-dashoffset: 0; stroke: #808080; stroke-width: 1.5"/>
   </g>
   <g id="patch_3">
    <path d="M 49.163052 242.793624 
L 49.163052 6.956916 
" style="fill: none; stroke: #000000; stroke-width: 1.6; stroke-linejoin: miter; stroke-linecap: square"/>
   </g>
   <g id="patch_4">
    <path d="M 49.163052 242.793624 
L 284.99976 242.793624 
" style="fill: none; stroke: #000000; stroke-width: 1.6; stroke-linejoin: miter; stroke-linecap: square"/>
   </g>
  </g>
  <g id="axes_2">
   <g id="patch_5">
    <path d="M 337.163053 242.793624 
L 572.99976 242.793624 
L 572.99976 6.956916 
L 337.163053 6.956916 
z
" style="fill: #ffffff"/>
   </g>
   <g id="PolyCollection_2">
    <defs>
     <path id="mde08b90382" d="M 365.290366 -386.814212 
L 365.290366 -335.648267 
L 408.563157 -388.893703 
L 451.835947 -433.507693 
L 495.108737 -476.687432 
L 538.381528 -518.456144 
L 538.381528 -551.519854 
L 538.381528 -551.519854 
L 495.108737 -506.093878 
L 451.835947 -466.326335 
L 408.563157 -425.180002 
L 365.290366 -386.814212 
z
" style="stroke: #029386; stroke-opacity: 0.2"/>
    </defs>
    <g clip-path="url(#pfad91a52e1)">
     <use xlink:href="#mde08b90382" x="0" y="576" style="fill: #029386; fill-opacity: 0.2; stroke: #029386; stroke-opacity: 0.2"/>
    </g>
   </g>
   <g id="matplotlib.axis_3">
    <g id="xtick_6">
     <g id="line2d_13">
      <g>
       <use xlink:href="#m22d4b2e187" x="365.290366" y="242.793624" style="stroke: #000000; stroke-width: 1.6"/>
      </g>
     </g>
     <g id="text_13">
      <!-- 0 -->
      <g transform="translate(361.953804 259.989874) scale(0.12 -0.12)">
       <use xlink:href="#LiberationSans-30"/>
      </g>
     </g>
    </g>
    <g id="xtick_7">
     <g id="line2d_14">
      <g>
       <use xlink:href="#m22d4b2e187" x="408.563157" y="242.793624" style="stroke: #000000; stroke-width: 1.6"/>
      </g>
     </g>
     <g id="text_14">
      <!-- 2 -->
      <g transform="translate(405.226594 259.989874) scale(0.12 -0.12)">
       <use xlink:href="#LiberationSans-32"/>
      </g>
     </g>
    </g>
    <g id="xtick_8">
     <g id="line2d_15">
      <g>
       <use xlink:href="#m22d4b2e187" x="451.835947" y="242.793624" style="stroke: #000000; stroke-width: 1.6"/>
      </g>
     </g>
     <g id="text_15">
      <!-- 4 -->
      <g transform="translate(448.499384 259.989874) scale(0.12 -0.12)">
       <use xlink:href="#LiberationSans-34"/>
      </g>
     </g>
    </g>
    <g id="xtick_9">
     <g id="line2d_16">
      <g>
       <use xlink:href="#m22d4b2e187" x="495.108737" y="242.793624" style="stroke: #000000; stroke-width: 1.6"/>
      </g>
     </g>
     <g id="text_16">
      <!-- 6 -->
      <g transform="translate(491.772175 259.989874) scale(0.12 -0.12)">
       <use xlink:href="#LiberationSans-36"/>
      </g>
     </g>
    </g>
    <g id="xtick_10">
     <g id="line2d_17">
      <g>
       <use xlink:href="#m22d4b2e187" x="538.381528" y="242.793624" style="stroke: #000000; stroke-width: 1.6"/>
      </g>
     </g>
     <g id="text_17">
      <!-- 8 -->
      <g transform="translate(535.044965 259.989874) scale(0.12 -0.12)">
       <use xlink:href="#LiberationSans-38"/>
      </g>
     </g>
    </g>
    <g id="text_18">
     <!-- Ground‐truth λ -->
     <g transform="translate(406.731016 280.350186) scale(0.15 -0.15)">
      <use xlink:href="#LiberationSans-47"/>
      <use xlink:href="#LiberationSans-72" x="77.783203"/>
      <use xlink:href="#LiberationSans-6f" x="111.083984"/>
      <use xlink:href="#LiberationSans-75" x="166.699219"/>
      <use xlink:href="#LiberationSans-6e" x="222.314453"/>
      <use xlink:href="#LiberationSans-64" x="277.929688"/>
      <use xlink:href="#LiberationSans-2010" x="333.544922"/>
      <use xlink:href="#LiberationSans-74" x="366.845703"/>
      <use xlink:href="#LiberationSans-72" x="394.628906"/>
      <use xlink:href="#LiberationSans-75" x="427.929688"/>
      <use xlink:href="#LiberationSans-74" x="483.544922"/>
      <use xlink:href="#LiberationSans-68" x="511.328125"/>
      <use xlink:href="#LiberationSans-20" x="566.943359"/>
      <use xlink:href="#LiberationSans-3bb" x="594.726562"/>
     </g>
    </g>
   </g>
   <g id="matplotlib.axis_4">
    <g id="ytick_6">
     <g id="line2d_18">
      <g>
       <use xlink:href="#m167222c424" x="337.163053" y="214.66631" style="stroke: #000000; stroke-width: 1.6"/>
      </g>
     </g>
     <g id="text_19">
      <!-- 0 -->
      <g transform="translate(321.989928 219.014435) scale(0.12 -0.12)">
       <use xlink:href="#LiberationSans-30"/>
      </g>
     </g>
    </g>
    <g id="ytick_7">
     <g id="line2d_19">
      <g>
       <use xlink:href="#m167222c424" x="337.163053" y="171.39352" style="stroke: #000000; stroke-width: 1.6"/>
      </g>
     </g>
     <g id="text_20">
      <!-- 2 -->
      <g transform="translate(321.989928 175.741645) scale(0.12 -0.12)">
       <use xlink:href="#LiberationSans-32"/>
      </g>
     </g>
    </g>
    <g id="ytick_8">
     <g id="line2d_20">
      <g>
       <use xlink:href="#m167222c424" x="337.163053" y="128.120729" style="stroke: #000000; stroke-width: 1.6"/>
      </g>
     </g>
     <g id="text_21">
      <!-- 4 -->
      <g transform="translate(321.989928 132.468854) scale(0.12 -0.12)">
       <use xlink:href="#LiberationSans-34"/>
      </g>
     </g>
    </g>
    <g id="ytick_9">
     <g id="line2d_21">
      <g>
       <use xlink:href="#m167222c424" x="337.163053" y="84.847939" style="stroke: #000000; stroke-width: 1.6"/>
      </g>
     </g>
     <g id="text_22">
      <!-- 6 -->
      <g transform="translate(321.989928 89.196064) scale(0.12 -0.12)">
       <use xlink:href="#LiberationSans-36"/>
      </g>
     </g>
    </g>
    <g id="ytick_10">
     <g id="line2d_22">
      <g>
       <use xlink:href="#m167222c424" x="337.163053" y="41.575148" style="stroke: #000000; stroke-width: 1.6"/>
      </g>
     </g>
     <g id="text_23">
      <!-- 8 -->
      <g transform="translate(321.989928 45.923273) scale(0.12 -0.12)">
       <use xlink:href="#LiberationSans-38"/>
      </g>
     </g>
    </g>
    <g id="text_24">
     <!-- Fitted λ -->
     <g transform="translate(311.877428 149.464723) rotate(-90) scale(0.15 -0.15)">
      <use xlink:href="#LiberationSans-46"/>
      <use xlink:href="#LiberationSans-69" x="61.083984"/>
      <use xlink:href="#LiberationSans-74" x="83.300781"/>
      <use xlink:href="#LiberationSans-74" x="111.083984"/>
      <use xlink:href="#LiberationSans-65" x="138.867188"/>
      <use xlink:href="#LiberationSans-64" x="194.482422"/>
      <use xlink:href="#LiberationSans-20" x="250.097656"/>
      <use xlink:href="#LiberationSans-3bb" x="277.880859"/>
     </g>
    </g>
   </g>
   <g id="line2d_23">
    <path d="M 365.290366 214.768761 
L 408.563157 168.963147 
L 451.835947 126.082986 
L 495.108737 84.609345 
L 538.381528 41.012001 
" clip-path="url(#pfad91a52e1)" style="fill: none; stroke: #029386; stroke-width: 2.5; stroke-linecap: square"/>
    <g clip-path="url(#pfad91a52e1)">
     <use xlink:href="#m45b68c3aed" x="365.290366" y="214.768761" style="fill: #029386; stroke: #029386"/>
     <use xlink:href="#m45b68c3aed" x="408.563157" y="168.963147" style="fill: #029386; stroke: #029386"/>
     <use xlink:href="#m45b68c3aed" x="451.835947" y="126.082986" style="fill: #029386; stroke: #029386"/>
     <use xlink:href="#m45b68c3aed" x="495.108737" y="84.609345" style="fill: #029386; stroke: #029386"/>
     <use xlink:href="#m45b68c3aed" x="538.381528" y="41.012001" style="fill: #029386; stroke: #029386"/>
    </g>
   </g>
   <g id="line2d_24">
    <path d="M 337.163053 242.793624 
L 572.99976 6.956916 
" clip-path="url(#pfad91a52e1)" style="fill: none; stroke-dasharray: 5.55,2.4; stroke-dashoffset: 0; stroke: #808080; stroke-width: 1.5"/>
   </g>
   <g id="patch_6">
    <path d="M 337.163053 242.793624 
L 337.163053 6.956916 
" style="fill: none; stroke: #000000; stroke-width: 1.6; stroke-linejoin: miter; stroke-linecap: square"/>
   </g>
   <g id="patch_7">
    <path d="M 337.163053 242.793624 
L 572.99976 242.793624 
" style="fill: none; stroke: #000000; stroke-width: 1.6; stroke-linejoin: miter; stroke-linecap: square"/>
   </g>
  </g>
  <g id="axes_3">
   <g id="patch_8">
    <path d="M 49.163052 530.793624 
L 284.99976 530.793624 
L 284.99976 294.956916 
L 49.163052 294.956916 
z
" style="fill: #ffffff"/>
   </g>
   <g id="PolyCollection_3">
    <defs>
     <path id="m06b2b3b2cb" d="M 68.816111 -75.276634 
L 68.816111 -53.915612 
L 117.948759 -49.880023 
L 167.081406 -64.427822 
L 216.214054 -98.164389 
L 265.346701 -124.205289 
L 265.346701 -264.177881 
L 265.346701 -264.177881 
L 216.214054 -217.131567 
L 167.081406 -180.299978 
L 117.948759 -130.616885 
L 68.816111 -75.276634 
z
" style="stroke: #029386; stroke-opacity: 0.2"/>
    </defs>
    <g clip-path="url(#p99c35b4693)">
     <use xlink:href="#m06b2b3b2cb" x="0" y="576" style="fill: #029386; fill-opacity: 0.2; stroke: #029386; stroke-opacity: 0.2"/>
    </g>
   </g>
   <g id="matplotlib.axis_5">
    <g id="xtick_11">
     <g id="line2d_25">
      <g>
       <use xlink:href="#m22d4b2e187" x="68.816111" y="530.793624" style="stroke: #000000; stroke-width: 1.6"/>
      </g>
     </g>
     <g id="text_25">
      <!-- 0.1 -->
      <g transform="translate(60.476111 547.989874) scale(0.12 -0.12)">
       <defs>
        <path id="LiberationSans-2e" d="M 584 0 
L 584 684 
L 1194 684 
L 1194 0 
L 584 0 
z
" transform="scale(0.015625)"/>
        <path id="LiberationSans-31" d="M 488 0 
L 488 478 
L 1609 478 
L 1609 3866 
L 616 3156 
L 616 3688 
L 1656 4403 
L 2175 4403 
L 2175 478 
L 3247 478 
L 3247 0 
L 488 0 
z
" transform="scale(0.015625)"/>
       </defs>
       <use xlink:href="#LiberationSans-30"/>
       <use xlink:href="#LiberationSans-2e" x="55.615234"/>
       <use xlink:href="#LiberationSans-31" x="83.398438"/>
      </g>
     </g>
    </g>
    <g id="xtick_12">
     <g id="line2d_26">
      <g>
       <use xlink:href="#m22d4b2e187" x="117.948759" y="530.793624" style="stroke: #000000; stroke-width: 1.6"/>
      </g>
     </g>
     <g id="text_26">
      <!-- 0.2 -->
      <g transform="translate(109.608759 547.989874) scale(0.12 -0.12)">
       <use xlink:href="#LiberationSans-30"/>
       <use xlink:href="#LiberationSans-2e" x="55.615234"/>
       <use xlink:href="#LiberationSans-32" x="83.398438"/>
      </g>
     </g>
    </g>
    <g id="xtick_13">
     <g id="line2d_27">
      <g>
       <use xlink:href="#m22d4b2e187" x="167.081406" y="530.793624" style="stroke: #000000; stroke-width: 1.6"/>
      </g>
     </g>
     <g id="text_27">
      <!-- 0.3 -->
      <g transform="translate(158.741406 547.989874) scale(0.12 -0.12)">
       <defs>
        <path id="LiberationSans-33" d="M 3278 1216 
Q 3278 913 3179 675 
Q 3081 438 2892 273 
Q 2703 109 2423 23 
Q 2144 -63 1784 -63 
Q 1375 -63 1095 39 
Q 816 141 634 308 
Q 453 475 362 689 
Q 272 903 244 1131 
L 825 1184 
Q 850 1009 917 865 
Q 984 722 1100 619 
Q 1216 516 1384 459 
Q 1553 403 1784 403 
Q 2209 403 2451 612 
Q 2694 822 2694 1234 
Q 2694 1478 2586 1626 
Q 2478 1775 2317 1858 
Q 2156 1941 1967 1969 
Q 1778 1997 1619 1997 
L 1300 1997 
L 1300 2484 
L 1606 2484 
Q 1766 2484 1937 2517 
Q 2109 2550 2251 2636 
Q 2394 2722 2486 2869 
Q 2578 3016 2578 3244 
Q 2578 3597 2370 3801 
Q 2163 4006 1753 4006 
Q 1381 4006 1151 3815 
Q 922 3625 884 3278 
L 319 3322 
Q 353 3613 478 3828 
Q 603 4044 795 4186 
Q 988 4328 1234 4398 
Q 1481 4469 1759 4469 
Q 2128 4469 2393 4376 
Q 2659 4284 2828 4126 
Q 2997 3969 3076 3756 
Q 3156 3544 3156 3303 
Q 3156 3109 3103 2940 
Q 3050 2772 2937 2637 
Q 2825 2503 2651 2406 
Q 2478 2309 2234 2259 
L 2234 2247 
Q 2500 2219 2697 2126 
Q 2894 2034 3022 1896 
Q 3150 1759 3214 1584 
Q 3278 1409 3278 1216 
z
" transform="scale(0.015625)"/>
       </defs>
       <use xlink:href="#LiberationSans-30"/>
       <use xlink:href="#LiberationSans-2e" x="55.615234"/>
       <use xlink:href="#LiberationSans-33" x="83.398438"/>
      </g>
     </g>
    </g>
    <g id="xtick_14">
     <g id="line2d_28">
      <g>
       <use xlink:href="#m22d4b2e187" x="216.214054" y="530.793624" style="stroke: #000000; stroke-width: 1.6"/>
      </g>
     </g>
     <g id="text_28">
      <!-- 0.4 -->
      <g transform="translate(207.874054 547.989874) scale(0.12 -0.12)">
       <use xlink:href="#LiberationSans-30"/>
       <use xlink:href="#LiberationSans-2e" x="55.615234"/>
       <use xlink:href="#LiberationSans-34" x="83.398438"/>
      </g>
     </g>
    </g>
    <g id="xtick_15">
     <g id="line2d_29">
      <g>
       <use xlink:href="#m22d4b2e187" x="265.346701" y="530.793624" style="stroke: #000000; stroke-width: 1.6"/>
      </g>
     </g>
     <g id="text_29">
      <!-- 0.5 -->
      <g transform="translate(257.006701 547.989874) scale(0.12 -0.12)">
       <defs>
        <path id="LiberationSans-35" d="M 3291 1434 
Q 3291 1103 3191 828 
Q 3091 553 2894 354 
Q 2697 156 2405 46 
Q 2113 -63 1728 -63 
Q 1381 -63 1123 18 
Q 866 100 687 242 
Q 509 384 404 575 
Q 300 766 256 984 
L 825 1050 
Q 859 925 921 808 
Q 984 691 1092 598 
Q 1200 506 1358 451 
Q 1516 397 1741 397 
Q 1959 397 2137 464 
Q 2316 531 2442 662 
Q 2569 794 2637 984 
Q 2706 1175 2706 1422 
Q 2706 1625 2640 1795 
Q 2575 1966 2453 2089 
Q 2331 2213 2154 2281 
Q 1978 2350 1753 2350 
Q 1613 2350 1494 2325 
Q 1375 2300 1273 2256 
Q 1172 2213 1089 2155 
Q 1006 2097 934 2034 
L 384 2034 
L 531 4403 
L 3034 4403 
L 3034 3925 
L 1044 3925 
L 959 2528 
Q 1109 2644 1334 2726 
Q 1559 2809 1869 2809 
Q 2197 2809 2459 2709 
Q 2722 2609 2906 2426 
Q 3091 2244 3191 1991 
Q 3291 1738 3291 1434 
z
" transform="scale(0.015625)"/>
       </defs>
       <use xlink:href="#LiberationSans-30"/>
       <use xlink:href="#LiberationSans-2e" x="55.615234"/>
       <use xlink:href="#LiberationSans-35" x="83.398438"/>
      </g>
     </g>
    </g>
    <g id="text_30">
     <!-- Ground‐truth σ -->
     <g transform="translate(117.852109 568.350186) scale(0.15 -0.15)">
      <defs>
       <path id="LiberationSans-3c3" d="M 3350 1534 
Q 3350 1184 3254 890 
Q 3159 597 2967 386 
Q 2775 175 2489 56 
Q 2203 -63 1819 -63 
Q 1434 -63 1143 53 
Q 853 169 659 386 
Q 466 603 367 918 
Q 269 1234 269 1638 
Q 269 2088 403 2416 
Q 538 2744 777 2959 
Q 1016 3175 1348 3278 
Q 1681 3381 2075 3381 
L 3853 3381 
L 3853 2972 
L 3338 2972 
Q 3309 2972 3254 2973 
Q 3200 2975 3133 2978 
Q 3066 2981 2997 2984 
Q 2928 2988 2875 2991 
L 2875 2978 
Q 2963 2847 3048 2692 
Q 3134 2538 3201 2358 
Q 3269 2178 3309 1973 
Q 3350 1769 3350 1534 
z
M 2759 1525 
Q 2759 1756 2728 1962 
Q 2697 2169 2644 2350 
Q 2591 2531 2520 2686 
Q 2450 2841 2372 2972 
L 2094 2972 
Q 1834 2972 1611 2894 
Q 1388 2816 1220 2652 
Q 1053 2488 958 2238 
Q 863 1988 863 1644 
Q 863 997 1098 675 
Q 1334 353 1794 353 
Q 2038 353 2220 434 
Q 2403 516 2522 667 
Q 2641 819 2700 1036 
Q 2759 1253 2759 1525 
z
" transform="scale(0.015625)"/>
      </defs>
      <use xlink:href="#LiberationSans-47"/>
      <use xlink:href="#LiberationSans-72" x="77.783203"/>
      <use xlink:href="#LiberationSans-6f" x="111.083984"/>
      <use xlink:href="#LiberationSans-75" x="166.699219"/>
      <use xlink:href="#LiberationSans-6e" x="222.314453"/>
      <use xlink:href="#LiberationSans-64" x="277.929688"/>
      <use xlink:href="#LiberationSans-2010" x="333.544922"/>
      <use xlink:href="#LiberationSans-74" x="366.845703"/>
      <use xlink:href="#LiberationSans-72" x="394.628906"/>
      <use xlink:href="#LiberationSans-75" x="427.929688"/>
      <use xlink:href="#LiberationSans-74" x="483.544922"/>
      <use xlink:href="#LiberationSans-68" x="511.328125"/>
      <use xlink:href="#LiberationSans-20" x="566.943359"/>
      <use xlink:href="#LiberationSans-3c3" x="594.726562"/>
     </g>
    </g>
   </g>
   <g id="matplotlib.axis_6">
    <g id="ytick_11">
     <g id="line2d_30">
      <g>
       <use xlink:href="#m167222c424" x="49.163052" y="515.071176" style="stroke: #000000; stroke-width: 1.6"/>
      </g>
     </g>
     <g id="text_31">
      <!-- 0.1 -->
      <g transform="translate(23.983052 519.419301) scale(0.12 -0.12)">
       <use xlink:href="#LiberationSans-30"/>
       <use xlink:href="#LiberationSans-2e" x="55.615234"/>
       <use xlink:href="#LiberationSans-31" x="83.398438"/>
      </g>
     </g>
    </g>
    <g id="ytick_12">
     <g id="line2d_31">
      <g>
       <use xlink:href="#m167222c424" x="49.163052" y="475.765059" style="stroke: #000000; stroke-width: 1.6"/>
      </g>
     </g>
     <g id="text_32">
      <!-- 0.2 -->
      <g transform="translate(23.983052 480.113184) scale(0.12 -0.12)">
       <use xlink:href="#LiberationSans-30"/>
       <use xlink:href="#LiberationSans-2e" x="55.615234"/>
       <use xlink:href="#LiberationSans-32" x="83.398438"/>
      </g>
     </g>
    </g>
    <g id="ytick_13">
     <g id="line2d_32">
      <g>
       <use xlink:href="#m167222c424" x="49.163052" y="436.458941" style="stroke: #000000; stroke-width: 1.6"/>
      </g>
     </g>
     <g id="text_33">
      <!-- 0.3 -->
      <g transform="translate(23.983052 440.807066) scale(0.12 -0.12)">
       <use xlink:href="#LiberationSans-30"/>
       <use xlink:href="#LiberationSans-2e" x="55.615234"/>
       <use xlink:href="#LiberationSans-33" x="83.398438"/>
      </g>
     </g>
    </g>
    <g id="ytick_14">
     <g id="line2d_33">
      <g>
       <use xlink:href="#m167222c424" x="49.163052" y="397.152823" style="stroke: #000000; stroke-width: 1.6"/>
      </g>
     </g>
     <g id="text_34">
      <!-- 0.4 -->
      <g transform="translate(23.983052 401.500948) scale(0.12 -0.12)">
       <use xlink:href="#LiberationSans-30"/>
       <use xlink:href="#LiberationSans-2e" x="55.615234"/>
       <use xlink:href="#LiberationSans-34" x="83.398438"/>
      </g>
     </g>
    </g>
    <g id="ytick_15">
     <g id="line2d_34">
      <g>
       <use xlink:href="#m167222c424" x="49.163052" y="357.846705" style="stroke: #000000; stroke-width: 1.6"/>
      </g>
     </g>
     <g id="text_35">
      <!-- 0.5 -->
      <g transform="translate(23.983052 362.19483) scale(0.12 -0.12)">
       <use xlink:href="#LiberationSans-30"/>
       <use xlink:href="#LiberationSans-2e" x="55.615234"/>
       <use xlink:href="#LiberationSans-35" x="83.398438"/>
      </g>
     </g>
    </g>
    <g id="text_36">
     <!-- Fitted σ -->
     <g transform="translate(13.870552 438.343629) rotate(-90) scale(0.15 -0.15)">
      <use xlink:href="#LiberationSans-46"/>
      <use xlink:href="#LiberationSans-69" x="61.083984"/>
      <use xlink:href="#LiberationSans-74" x="83.300781"/>
      <use xlink:href="#LiberationSans-74" x="111.083984"/>
      <use xlink:href="#LiberationSans-65" x="138.867188"/>
      <use xlink:href="#LiberationSans-64" x="194.482422"/>
      <use xlink:href="#LiberationSans-20" x="250.097656"/>
      <use xlink:href="#LiberationSans-3c3" x="277.880859"/>
     </g>
    </g>
   </g>
   <g id="line2d_35">
    <path d="M 68.816111 511.403877 
L 117.948759 485.751546 
L 167.081406 453.6361 
L 216.214054 418.352022 
L 265.346701 381.808415 
" clip-path="url(#p99c35b4693)" style="fill: none; stroke: #029386; stroke-width: 2.5; stroke-linecap: square"/>
    <g clip-path="url(#p99c35b4693)">
     <use xlink:href="#m45b68c3aed" x="68.816111" y="511.403877" style="fill: #029386; stroke: #029386"/>
     <use xlink:href="#m45b68c3aed" x="117.948759" y="485.751546" style="fill: #029386; stroke: #029386"/>
     <use xlink:href="#m45b68c3aed" x="167.081406" y="453.6361" style="fill: #029386; stroke: #029386"/>
     <use xlink:href="#m45b68c3aed" x="216.214054" y="418.352022" style="fill: #029386; stroke: #029386"/>
     <use xlink:href="#m45b68c3aed" x="265.346701" y="381.808415" style="fill: #029386; stroke: #029386"/>
    </g>
   </g>
   <g id="line2d_36">
    <path d="M 49.163052 530.793624 
L 284.99976 342.124258 
" clip-path="url(#p99c35b4693)" style="fill: none; stroke-dasharray: 5.55,2.4; stroke-dashoffset: 0; stroke: #808080; stroke-width: 1.5"/>
   </g>
   <g id="patch_9">
    <path d="M 49.163052 530.793624 
L 49.163052 294.956916 
" style="fill: none; stroke: #000000; stroke-width: 1.6; stroke-linejoin: miter; stroke-linecap: square"/>
   </g>
   <g id="patch_10">
    <path d="M 49.163052 530.793624 
L 284.99976 530.793624 
" style="fill: none; stroke: #000000; stroke-width: 1.6; stroke-linejoin: miter; stroke-linecap: square"/>
   </g>
  </g>
  <g id="axes_4">
   <g id="patch_11">
    <path d="M 337.163053 530.793624 
L 572.99976 530.793624 
L 572.99976 294.956916 
L 337.163053 294.956916 
z
" style="fill: #ffffff"/>
   </g>
   <g id="PolyCollection_4">
    <defs>
     <path id="m8c4c71f494" d="M 356.816111 -73.010222 
L 356.816111 -55.614576 
L 405.948759 -49.699123 
L 455.081406 -64.748152 
L 504.214054 -85.586325 
L 553.346701 -116.283868 
L 553.346701 -255.716976 
L 553.346701 -255.716976 
L 504.214054 -208.112756 
L 455.081406 -153.740127 
L 405.948759 -110.250364 
L 356.816111 -73.010222 
z
" style="stroke: #029386; stroke-opacity: 0.2"/>
    </defs>
    <g clip-path="url(#pffc5699f82)">
     <use xlink:href="#m8c4c71f494" x="0" y="576" style="fill: #029386; fill-opacity: 0.2; stroke: #029386; stroke-opacity: 0.2"/>
    </g>
   </g>
   <g id="matplotlib.axis_7">
    <g id="xtick_16">
     <g id="line2d_37">
      <g>
       <use xlink:href="#m22d4b2e187" x="356.816111" y="530.793624" style="stroke: #000000; stroke-width: 1.6"/>
      </g>
     </g>
     <g id="text_37">
      <!-- 0.1 -->
      <g transform="translate(348.476111 547.989874) scale(0.12 -0.12)">
       <use xlink:href="#LiberationSans-30"/>
       <use xlink:href="#LiberationSans-2e" x="55.615234"/>
       <use xlink:href="#LiberationSans-31" x="83.398438"/>
      </g>
     </g>
    </g>
    <g id="xtick_17">
     <g id="line2d_38">
      <g>
       <use xlink:href="#m22d4b2e187" x="405.948759" y="530.793624" style="stroke: #000000; stroke-width: 1.6"/>
      </g>
     </g>
     <g id="text_38">
      <!-- 0.2 -->
      <g transform="translate(397.608759 547.989874) scale(0.12 -0.12)">
       <use xlink:href="#LiberationSans-30"/>
       <use xlink:href="#LiberationSans-2e" x="55.615234"/>
       <use xlink:href="#LiberationSans-32" x="83.398438"/>
      </g>
     </g>
    </g>
    <g id="xtick_18">
     <g id="line2d_39">
      <g>
       <use xlink:href="#m22d4b2e187" x="455.081406" y="530.793624" style="stroke: #000000; stroke-width: 1.6"/>
      </g>
     </g>
     <g id="text_39">
      <!-- 0.3 -->
      <g transform="translate(446.741406 547.989874) scale(0.12 -0.12)">
       <use xlink:href="#LiberationSans-30"/>
       <use xlink:href="#LiberationSans-2e" x="55.615234"/>
       <use xlink:href="#LiberationSans-33" x="83.398438"/>
      </g>
     </g>
    </g>
    <g id="xtick_19">
     <g id="line2d_40">
      <g>
       <use xlink:href="#m22d4b2e187" x="504.214054" y="530.793624" style="stroke: #000000; stroke-width: 1.6"/>
      </g>
     </g>
     <g id="text_40">
      <!-- 0.4 -->
      <g transform="translate(495.874054 547.989874) scale(0.12 -0.12)">
       <use xlink:href="#LiberationSans-30"/>
       <use xlink:href="#LiberationSans-2e" x="55.615234"/>
       <use xlink:href="#LiberationSans-34" x="83.398438"/>
      </g>
     </g>
    </g>
    <g id="xtick_20">
     <g id="line2d_41">
      <g>
       <use xlink:href="#m22d4b2e187" x="553.346701" y="530.793624" style="stroke: #000000; stroke-width: 1.6"/>
      </g>
     </g>
     <g id="text_41">
      <!-- 0.5 -->
      <g transform="translate(545.006701 547.989874) scale(0.12 -0.12)">
       <use xlink:href="#LiberationSans-30"/>
       <use xlink:href="#LiberationSans-2e" x="55.615234"/>
       <use xlink:href="#LiberationSans-35" x="83.398438"/>
      </g>
     </g>
    </g>
    <g id="text_42">
     <!-- Ground‐truth σ -->
     <g transform="translate(405.852109 568.350186) scale(0.15 -0.15)">
      <use xlink:href="#LiberationSans-47"/>
      <use xlink:href="#LiberationSans-72" x="77.783203"/>
      <use xlink:href="#LiberationSans-6f" x="111.083984"/>
      <use xlink:href="#LiberationSans-75" x="166.699219"/>
      <use xlink:href="#LiberationSans-6e" x="222.314453"/>
      <use xlink:href="#LiberationSans-64" x="277.929688"/>
      <use xlink:href="#LiberationSans-2010" x="333.544922"/>
      <use xlink:href="#LiberationSans-74" x="366.845703"/>
      <use xlink:href="#LiberationSans-72" x="394.628906"/>
      <use xlink:href="#LiberationSans-75" x="427.929688"/>
      <use xlink:href="#LiberationSans-74" x="483.544922"/>
      <use xlink:href="#LiberationSans-68" x="511.328125"/>
      <use xlink:href="#LiberationSans-20" x="566.943359"/>
      <use xlink:href="#LiberationSans-3c3" x="594.726562"/>
     </g>
    </g>
   </g>
   <g id="matplotlib.axis_8">
    <g id="ytick_16">
     <g id="line2d_42">
      <g>
       <use xlink:href="#m167222c424" x="337.163053" y="515.071176" style="stroke: #000000; stroke-width: 1.6"/>
      </g>
     </g>
     <g id="text_43">
      <!-- 0.1 -->
      <g transform="translate(311.983053 519.419301) scale(0.12 -0.12)">
       <use xlink:href="#LiberationSans-30"/>
       <use xlink:href="#LiberationSans-2e" x="55.615234"/>
       <use xlink:href="#LiberationSans-31" x="83.398438"/>
      </g>
     </g>
    </g>
    <g id="ytick_17">
     <g id="line2d_43">
      <g>
       <use xlink:href="#m167222c424" x="337.163053" y="475.765059" style="stroke: #000000; stroke-width: 1.6"/>
      </g>
     </g>
     <g id="text_44">
      <!-- 0.2 -->
      <g transform="translate(311.983053 480.113184) scale(0.12 -0.12)">
       <use xlink:href="#LiberationSans-30"/>
       <use xlink:href="#LiberationSans-2e" x="55.615234"/>
       <use xlink:href="#LiberationSans-32" x="83.398438"/>
      </g>
     </g>
    </g>
    <g id="ytick_18">
     <g id="line2d_44">
      <g>
       <use xlink:href="#m167222c424" x="337.163053" y="436.458941" style="stroke: #000000; stroke-width: 1.6"/>
      </g>
     </g>
     <g id="text_45">
      <!-- 0.3 -->
      <g transform="translate(311.983053 440.807066) scale(0.12 -0.12)">
       <use xlink:href="#LiberationSans-30"/>
       <use xlink:href="#LiberationSans-2e" x="55.615234"/>
       <use xlink:href="#LiberationSans-33" x="83.398438"/>
      </g>
     </g>
    </g>
    <g id="ytick_19">
     <g id="line2d_45">
      <g>
       <use xlink:href="#m167222c424" x="337.163053" y="397.152823" style="stroke: #000000; stroke-width: 1.6"/>
      </g>
     </g>
     <g id="text_46">
      <!-- 0.4 -->
      <g transform="translate(311.983053 401.500948) scale(0.12 -0.12)">
       <use xlink:href="#LiberationSans-30"/>
       <use xlink:href="#LiberationSans-2e" x="55.615234"/>
       <use xlink:href="#LiberationSans-34" x="83.398438"/>
      </g>
     </g>
    </g>
    <g id="ytick_20">
     <g id="line2d_46">
      <g>
       <use xlink:href="#m167222c424" x="337.163053" y="357.846705" style="stroke: #000000; stroke-width: 1.6"/>
      </g>
     </g>
     <g id="text_47">
      <!-- 0.5 -->
      <g transform="translate(311.983053 362.19483) scale(0.12 -0.12)">
       <use xlink:href="#LiberationSans-30"/>
       <use xlink:href="#LiberationSans-2e" x="55.615234"/>
       <use xlink:href="#LiberationSans-35" x="83.398438"/>
      </g>
     </g>
    </g>
    <g id="text_48">
     <!-- Fitted σ -->
     <g transform="translate(301.870553 438.343629) rotate(-90) scale(0.15 -0.15)">
      <use xlink:href="#LiberationSans-46"/>
      <use xlink:href="#LiberationSans-69" x="61.083984"/>
      <use xlink:href="#LiberationSans-74" x="83.300781"/>
      <use xlink:href="#LiberationSans-74" x="111.083984"/>
      <use xlink:href="#LiberationSans-65" x="138.867188"/>
      <use xlink:href="#LiberationSans-64" x="194.482422"/>
      <use xlink:href="#LiberationSans-20" x="250.097656"/>
      <use xlink:href="#LiberationSans-3c3" x="277.880859"/>
     </g>
    </g>
   </g>
   <g id="line2d_47">
    <path d="M 356.816111 511.687601 
L 405.948759 496.025257 
L 455.081406 466.755861 
L 504.214054 429.150459 
L 553.346701 389.999578 
" clip-path="url(#pffc5699f82)" style="fill: none; stroke: #029386; stroke-width: 2.5; stroke-linecap: square"/>
    <g clip-path="url(#pffc5699f82)">
     <use xlink:href="#m45b68c3aed" x="356.816111" y="511.687601" style="fill: #029386; stroke: #029386"/>
     <use xlink:href="#m45b68c3aed" x="405.948759" y="496.025257" style="fill: #029386; stroke: #029386"/>
     <use xlink:href="#m45b68c3aed" x="455.081406" y="466.755861" style="fill: #029386; stroke: #029386"/>
     <use xlink:href="#m45b68c3aed" x="504.214054" y="429.150459" style="fill: #029386; stroke: #029386"/>
     <use xlink:href="#m45b68c3aed" x="553.346701" y="389.999578" style="fill: #029386; stroke: #029386"/>
    </g>
   </g>
   <g id="line2d_48">
    <path d="M 337.163053 530.793624 
L 572.99976 342.124258 
" clip-path="url(#pffc5699f82)" style="fill: none; stroke-dasharray: 5.55,2.4; stroke-dashoffset: 0; stroke: #808080; stroke-width: 1.5"/>
   </g>
   <g id="patch_12">
    <path d="M 337.163053 530.793624 
L 337.163053 294.956916 
" style="fill: none; stroke: #000000; stroke-width: 1.6; stroke-linejoin: miter; stroke-linecap: square"/>
   </g>
   <g id="patch_13">
    <path d="M 337.163053 530.793624 
L 572.99976 530.793624 
" style="fill: none; stroke: #000000; stroke-width: 1.6; stroke-linejoin: miter; stroke-linecap: square"/>
   </g>
  </g>
 </g>
 <defs>
  <clipPath id="p68dd3cf171">
   <rect x="49.163052" y="6.956916" width="235.836707" height="235.836707"/>
  </clipPath>
  <clipPath id="pfad91a52e1">
   <rect x="337.163053" y="6.956916" width="235.836707" height="235.836707"/>
  </clipPath>
  <clipPath id="p99c35b4693">
   <rect x="49.163052" y="294.956916" width="235.836707" height="235.836707"/>
  </clipPath>
  <clipPath id="pffc5699f82">
   <rect x="337.163053" y="294.956916" width="235.836707" height="235.836707"/>
  </clipPath>
 </defs>
</svg>
