<?xml version="1.0" encoding="utf-8" standalone="no"?>
<!DOCTYPE svg PUBLIC "-//W3C//DTD SVG 1.1//EN"
  "http://www.w3.org/Graphics/SVG/1.1/DTD/svg11.dtd">
<svg xmlns:xlink="http://www.w3.org/1999/xlink" width="864pt" height="432pt" viewBox="0 0 864 432" xmlns="http://www.w3.org/2000/svg" version="1.1">
 <metadata>
  <rdf:RDF xmlns:dc="http://purl.org/dc/elements/1.1/" xmlns:cc="http://creativecommons.org/ns#" xmlns:rdf="http://www.w3.org/1999/02/22-rdf-syntax-ns#">
   <cc:Work>
    <dc:type rdf:resource="http://purl.org/dc/dcmitype/StillImage"/>
    <dc:date>2025-08-07T12:29:24.933890</dc:date>
    <dc:format>image/svg+xml</dc:format>
    <dc:creator>
     <cc:Agent>
      <dc:title>Matplotlib v3.7.2, https://matplotlib.org/</dc:title>
     </cc:Agent>
    </dc:creator>
   </cc:Work>
  </rdf:RDF>
 </metadata>
 <defs>
  <style type="text/css">*{stroke-linejoin: round; stroke-linecap: butt}</style>
 </defs>
 <g id="figure_1">
  <g id="patch_1">
   <path d="M 0 432 
L 864 432 
L 864 0 
L 0 0 
z
" style="fill: #ffffff"/>
  </g>
  <g id="axes_1">
   <g id="patch_2">
    <path d="M 3.00024 388.330697 
L 195.505432 388.330697 
L 195.505432 112.561448 
L 3.00024 112.561448 
z
" style="fill: #ffffff"/>
   </g>
   <g id="patch_3">
    <path d="M 195.505432 125.096414 
L 12.167154 125.096414 
L 12.167154 177.875218 
L 195.505432 177.875218 
z
" clip-path="url(#p0da511e281)" style="opacity: 0.65"/>
   </g>
   <g id="patch_4">
    <path d="M 195.505432 191.069919 
L 166.278869 191.069919 
L 166.278869 243.848722 
L 195.505432 243.848722 
z
" clip-path="url(#p0da511e281)" style="opacity: 0.65"/>
   </g>
   <g id="patch_5">
    <path d="M 195.505432 257.043423 
L 97.64273 257.043423 
L 97.64273 309.822227 
L 195.505432 309.822227 
z
" clip-path="url(#p0da511e281)" style="opacity: 0.65"/>
   </g>
   <g id="patch_6">
    <path d="M 195.505432 323.016928 
L 12.828388 323.016928 
L 12.828388 375.795732 
L 195.505432 375.795732 
z
" clip-path="url(#p0da511e281)" style="opacity: 0.65"/>
   </g>
   <g id="matplotlib.axis_1">
    <g id="xtick_1">
     <g id="line2d_1">
      <defs>
       <path id="mcc646148c9" d="M 0 0 
L 0 5 
" style="stroke: #000000; stroke-width: 1.6"/>
      </defs>
      <g>
       <use xlink:href="#mcc646148c9" x="195.505432" y="388.330697" style="stroke: #000000; stroke-width: 1.6"/>
      </g>
     </g>
     <g id="text_1">
      <!-- 0 -->
      <g transform="translate(192.16887 405.526948) scale(0.12 -0.12)">
       <defs>
        <path id="LiberationSans-30" d="M 3309 2203 
Q 3309 1569 3189 1136 
Q 3069 703 2861 436 
Q 2653 169 2372 53 
Q 2091 -63 1772 -63 
Q 1450 -63 1172 53 
Q 894 169 689 434 
Q 484 700 367 1133 
Q 250 1566 250 2203 
Q 250 2869 367 3305 
Q 484 3741 690 4000 
Q 897 4259 1178 4364 
Q 1459 4469 1791 4469 
Q 2106 4469 2382 4364 
Q 2659 4259 2865 4000 
Q 3072 3741 3190 3305 
Q 3309 2869 3309 2203 
z
M 2738 2203 
Q 2738 2728 2675 3076 
Q 2613 3425 2491 3633 
Q 2369 3841 2192 3927 
Q 2016 4013 1791 4013 
Q 1553 4013 1372 3925 
Q 1191 3838 1067 3630 
Q 944 3422 881 3073 
Q 819 2725 819 2203 
Q 819 1697 883 1350 
Q 947 1003 1070 792 
Q 1194 581 1372 489 
Q 1550 397 1778 397 
Q 2000 397 2178 489 
Q 2356 581 2479 792 
Q 2603 1003 2670 1350 
Q 2738 1697 2738 2203 
z
" transform="scale(0.015625)"/>
       </defs>
       <use xlink:href="#LiberationSans-30"/>
      </g>
     </g>
    </g>
    <g id="xtick_2">
     <g id="line2d_2">
      <g>
       <use xlink:href="#mcc646148c9" x="136.003146" y="388.330697" style="stroke: #000000; stroke-width: 1.6"/>
      </g>
     </g>
     <g id="text_2">
      <!-- 20 -->
      <g transform="translate(129.330021 405.526948) scale(0.12 -0.12)">
       <defs>
        <path id="LiberationSans-32" d="M 322 0 
L 322 397 
Q 481 763 711 1042 
Q 941 1322 1194 1548 
Q 1447 1775 1695 1969 
Q 1944 2163 2144 2356 
Q 2344 2550 2467 2762 
Q 2591 2975 2591 3244 
Q 2591 3431 2534 3573 
Q 2478 3716 2372 3812 
Q 2266 3909 2117 3957 
Q 1969 4006 1788 4006 
Q 1619 4006 1470 3959 
Q 1322 3913 1206 3819 
Q 1091 3725 1017 3586 
Q 944 3447 922 3263 
L 347 3316 
Q 375 3553 478 3762 
Q 581 3972 762 4130 
Q 944 4288 1198 4378 
Q 1453 4469 1788 4469 
Q 2116 4469 2372 4391 
Q 2628 4313 2804 4159 
Q 2981 4006 3075 3781 
Q 3169 3556 3169 3263 
Q 3169 3041 3089 2841 
Q 3009 2641 2876 2459 
Q 2744 2278 2569 2109 
Q 2394 1941 2203 1780 
Q 2013 1619 1819 1461 
Q 1625 1303 1454 1143 
Q 1284 984 1150 820 
Q 1016 656 941 478 
L 3238 478 
L 3238 0 
L 322 0 
z
" transform="scale(0.015625)"/>
       </defs>
       <use xlink:href="#LiberationSans-32"/>
       <use xlink:href="#LiberationSans-30" x="55.615234"/>
      </g>
     </g>
    </g>
    <g id="xtick_3">
     <g id="line2d_3">
      <g>
       <use xlink:href="#mcc646148c9" x="76.50086" y="388.330697" style="stroke: #000000; stroke-width: 1.6"/>
      </g>
     </g>
     <g id="text_3">
      <!-- 40 -->
      <g transform="translate(69.827735 405.526948) scale(0.12 -0.12)">
       <defs>
        <path id="LiberationSans-34" d="M 2753 997 
L 2753 0 
L 2222 0 
L 2222 997 
L 147 997 
L 147 1434 
L 2163 4403 
L 2753 4403 
L 2753 1441 
L 3372 1441 
L 3372 997 
L 2753 997 
z
M 2222 3769 
Q 2216 3753 2191 3708 
Q 2166 3663 2134 3606 
Q 2103 3550 2070 3492 
Q 2038 3434 2013 3397 
L 884 1734 
Q 869 1709 839 1668 
Q 809 1628 778 1586 
Q 747 1544 715 1503 
Q 684 1463 666 1441 
L 2222 1441 
L 2222 3769 
z
" transform="scale(0.015625)"/>
       </defs>
       <use xlink:href="#LiberationSans-34"/>
       <use xlink:href="#LiberationSans-30" x="55.615234"/>
      </g>
     </g>
    </g>
    <g id="xtick_4">
     <g id="line2d_4">
      <g>
       <use xlink:href="#mcc646148c9" x="16.998574" y="388.330697" style="stroke: #000000; stroke-width: 1.6"/>
      </g>
     </g>
     <g id="text_4">
      <!-- 60 -->
      <g transform="translate(10.325449 405.526948) scale(0.12 -0.12)">
       <defs>
        <path id="LiberationSans-36" d="M 3278 1441 
Q 3278 1109 3186 832 
Q 3094 556 2914 357 
Q 2734 159 2468 48 
Q 2203 -63 1856 -63 
Q 1472 -63 1184 84 
Q 897 231 706 507 
Q 516 784 420 1186 
Q 325 1588 325 2100 
Q 325 2688 433 3131 
Q 541 3575 744 3872 
Q 947 4169 1239 4319 
Q 1531 4469 1900 4469 
Q 2125 4469 2322 4422 
Q 2519 4375 2680 4270 
Q 2841 4166 2962 3994 
Q 3084 3822 3156 3572 
L 2619 3475 
Q 2531 3759 2339 3886 
Q 2147 4013 1894 4013 
Q 1663 4013 1475 3903 
Q 1288 3794 1156 3576 
Q 1025 3359 954 3031 
Q 884 2703 884 2266 
Q 1038 2550 1316 2698 
Q 1594 2847 1953 2847 
Q 2253 2847 2497 2750 
Q 2741 2653 2914 2470 
Q 3088 2288 3183 2027 
Q 3278 1766 3278 1441 
z
M 2706 1416 
Q 2706 1644 2650 1828 
Q 2594 2013 2481 2142 
Q 2369 2272 2203 2342 
Q 2038 2413 1819 2413 
Q 1666 2413 1509 2367 
Q 1353 2322 1226 2220 
Q 1100 2119 1020 1953 
Q 941 1788 941 1550 
Q 941 1306 1003 1095 
Q 1066 884 1183 728 
Q 1300 572 1465 481 
Q 1631 391 1838 391 
Q 2041 391 2202 461 
Q 2363 531 2475 664 
Q 2588 797 2647 987 
Q 2706 1178 2706 1416 
z
" transform="scale(0.015625)"/>
       </defs>
       <use xlink:href="#LiberationSans-36"/>
       <use xlink:href="#LiberationSans-30" x="55.615234"/>
      </g>
     </g>
    </g>
    <g id="text_5">
     <!-- Marginal % of Category -->
     <g transform="translate(20.888383 425.88726) scale(0.15 -0.15)">
      <defs>
       <path id="LiberationSans-4d" d="M 4269 0 
L 4269 2938 
Q 4269 3097 4272 3262 
Q 4275 3428 4281 3566 
Q 4288 3725 4297 3875 
Q 4253 3716 4206 3559 
Q 4166 3425 4117 3273 
Q 4069 3122 4022 3000 
L 2884 0 
L 2466 0 
L 1313 3000 
Q 1294 3047 1273 3109 
Q 1253 3172 1229 3242 
Q 1206 3313 1182 3386 
Q 1159 3459 1138 3531 
Q 1084 3697 1034 3875 
Q 1038 3700 1044 3528 
Q 1050 3381 1053 3220 
Q 1056 3059 1056 2938 
L 1056 0 
L 525 0 
L 525 4403 
L 1309 4403 
L 2481 1350 
Q 2503 1288 2534 1189 
Q 2566 1091 2594 987 
Q 2622 884 2645 792 
Q 2669 700 2678 650 
Q 2688 700 2713 794 
Q 2738 888 2770 991 
Q 2803 1094 2834 1191 
Q 2866 1288 2891 1350 
L 4041 4403 
L 4806 4403 
L 4806 0 
L 4269 0 
z
" transform="scale(0.015625)"/>
       <path id="LiberationSans-61" d="M 1294 -63 
Q 784 -63 528 206 
Q 272 475 272 944 
Q 272 1278 398 1492 
Q 525 1706 729 1828 
Q 934 1950 1196 1997 
Q 1459 2044 1731 2050 
L 2491 2063 
L 2491 2247 
Q 2491 2456 2447 2603 
Q 2403 2750 2312 2840 
Q 2222 2931 2086 2973 
Q 1950 3016 1766 3016 
Q 1603 3016 1472 2992 
Q 1341 2969 1244 2908 
Q 1147 2847 1087 2742 
Q 1028 2638 1009 2478 
L 422 2531 
Q 453 2731 540 2898 
Q 628 3066 789 3187 
Q 950 3309 1192 3376 
Q 1434 3444 1778 3444 
Q 2416 3444 2737 3151 
Q 3059 2859 3059 2306 
L 3059 850 
Q 3059 600 3125 473 
Q 3191 347 3375 347 
Q 3422 347 3469 353 
Q 3516 359 3559 369 
L 3559 19 
Q 3453 -6 3348 -18 
Q 3244 -31 3125 -31 
Q 2966 -31 2852 11 
Q 2738 53 2666 139 
Q 2594 225 2556 351 
Q 2519 478 2509 647 
L 2491 647 
Q 2400 484 2292 353 
Q 2184 222 2040 130 
Q 1897 38 1714 -12 
Q 1531 -63 1294 -63 
z
M 1422 359 
Q 1691 359 1892 457 
Q 2094 556 2226 709 
Q 2359 863 2425 1044 
Q 2491 1225 2491 1391 
L 2491 1669 
L 1875 1656 
Q 1669 1653 1483 1626 
Q 1297 1600 1156 1522 
Q 1016 1444 933 1303 
Q 850 1163 850 934 
Q 850 659 998 509 
Q 1147 359 1422 359 
z
" transform="scale(0.015625)"/>
       <path id="LiberationSans-72" d="M 444 0 
L 444 2594 
Q 444 2700 442 2811 
Q 441 2922 437 3025 
Q 434 3128 431 3218 
Q 428 3309 425 3381 
L 956 3381 
Q 959 3309 964 3217 
Q 969 3125 973 3028 
Q 978 2931 979 2842 
Q 981 2753 981 2691 
L 994 2691 
Q 1053 2884 1120 3026 
Q 1188 3169 1278 3261 
Q 1369 3353 1494 3398 
Q 1619 3444 1797 3444 
Q 1866 3444 1928 3433 
Q 1991 3422 2025 3413 
L 2025 2897 
Q 1969 2913 1894 2920 
Q 1819 2928 1725 2928 
Q 1531 2928 1395 2840 
Q 1259 2753 1173 2598 
Q 1088 2444 1047 2230 
Q 1006 2016 1006 1763 
L 1006 0 
L 444 0 
z
" transform="scale(0.015625)"/>
       <path id="LiberationSans-67" d="M 1713 -1328 
Q 1422 -1328 1197 -1268 
Q 972 -1209 812 -1098 
Q 653 -988 553 -834 
Q 453 -681 409 -494 
L 975 -413 
Q 1031 -647 1223 -773 
Q 1416 -900 1728 -900 
Q 1919 -900 2075 -847 
Q 2231 -794 2340 -676 
Q 2450 -559 2509 -371 
Q 2569 -184 2569 84 
L 2569 628 
L 2563 628 
Q 2500 500 2408 383 
Q 2316 266 2183 175 
Q 2050 84 1875 29 
Q 1700 -25 1475 -25 
Q 1153 -25 923 83 
Q 694 191 548 406 
Q 403 622 336 942 
Q 269 1263 269 1684 
Q 269 2091 336 2416 
Q 403 2741 554 2967 
Q 706 3194 948 3314 
Q 1191 3434 1538 3434 
Q 1897 3434 2161 3270 
Q 2425 3106 2569 2803 
L 2575 2803 
Q 2575 2881 2579 2978 
Q 2584 3075 2589 3161 
Q 2594 3247 2600 3309 
Q 2606 3372 2613 3381 
L 3147 3381 
Q 3144 3353 3141 3286 
Q 3138 3219 3134 3125 
Q 3131 3031 3129 2917 
Q 3128 2803 3128 2681 
L 3128 97 
Q 3128 -613 2779 -970 
Q 2431 -1328 1713 -1328 
z
M 2569 1691 
Q 2569 2044 2492 2295 
Q 2416 2547 2291 2706 
Q 2166 2866 2005 2941 
Q 1844 3016 1675 3016 
Q 1459 3016 1304 2941 
Q 1150 2866 1048 2705 
Q 947 2544 898 2292 
Q 850 2041 850 1691 
Q 850 1325 898 1076 
Q 947 828 1047 675 
Q 1147 522 1300 456 
Q 1453 391 1666 391 
Q 1834 391 1995 462 
Q 2156 534 2284 690 
Q 2413 847 2491 1094 
Q 2569 1341 2569 1691 
z
" transform="scale(0.015625)"/>
       <path id="LiberationSans-69" d="M 428 4100 
L 428 4638 
L 991 4638 
L 991 4100 
L 428 4100 
z
M 428 0 
L 428 3381 
L 991 3381 
L 991 0 
L 428 0 
z
" transform="scale(0.015625)"/>
       <path id="LiberationSans-6e" d="M 2578 0 
L 2578 2144 
Q 2578 2391 2542 2556 
Q 2506 2722 2425 2823 
Q 2344 2925 2211 2967 
Q 2078 3009 1881 3009 
Q 1681 3009 1520 2939 
Q 1359 2869 1245 2736 
Q 1131 2603 1068 2408 
Q 1006 2213 1006 1959 
L 1006 0 
L 444 0 
L 444 2659 
Q 444 2766 442 2883 
Q 441 3000 437 3104 
Q 434 3209 431 3284 
Q 428 3359 425 3381 
L 956 3381 
Q 959 3366 962 3297 
Q 966 3228 970 3139 
Q 975 3050 978 2958 
Q 981 2866 981 2803 
L 991 2803 
Q 1072 2950 1169 3069 
Q 1266 3188 1394 3270 
Q 1522 3353 1687 3398 
Q 1853 3444 2072 3444 
Q 2353 3444 2556 3375 
Q 2759 3306 2890 3162 
Q 3022 3019 3083 2792 
Q 3144 2566 3144 2253 
L 3144 0 
L 2578 0 
z
" transform="scale(0.015625)"/>
       <path id="LiberationSans-6c" d="M 431 0 
L 431 4638 
L 994 4638 
L 994 0 
L 431 0 
z
" transform="scale(0.015625)"/>
       <path id="LiberationSans-20" transform="scale(0.015625)"/>
       <path id="LiberationSans-25" d="M 5463 1356 
Q 5463 966 5383 698 
Q 5303 431 5167 267 
Q 5031 103 4850 32 
Q 4669 -38 4463 -38 
Q 4256 -38 4076 32 
Q 3897 103 3764 265 
Q 3631 428 3554 695 
Q 3478 963 3478 1356 
Q 3478 1772 3553 2044 
Q 3628 2316 3762 2477 
Q 3897 2638 4080 2702 
Q 4263 2766 4475 2766 
Q 4681 2766 4861 2702 
Q 5041 2638 5173 2477 
Q 5306 2316 5384 2044 
Q 5463 1772 5463 1356 
z
M 1647 0 
L 1163 0 
L 4044 4403 
L 4534 4403 
L 1647 0 
z
M 1231 4441 
Q 1431 4441 1609 4377 
Q 1788 4313 1922 4153 
Q 2056 3994 2132 3725 
Q 2209 3456 2209 3047 
Q 2209 2653 2131 2384 
Q 2053 2116 1920 1948 
Q 1788 1781 1606 1709 
Q 1425 1638 1219 1638 
Q 1009 1638 828 1709 
Q 647 1781 514 1947 
Q 381 2113 304 2381 
Q 228 2650 228 3047 
Q 228 3456 304 3725 
Q 381 3994 515 4153 
Q 650 4313 834 4377 
Q 1019 4441 1231 4441 
z
M 5000 1356 
Q 5000 1666 4965 1870 
Q 4931 2075 4864 2197 
Q 4797 2319 4698 2369 
Q 4600 2419 4475 2419 
Q 4344 2419 4244 2367 
Q 4144 2316 4075 2194 
Q 4006 2072 3972 1867 
Q 3938 1663 3938 1356 
Q 3938 1059 3973 859 
Q 4009 659 4076 536 
Q 4144 413 4242 359 
Q 4341 306 4469 306 
Q 4591 306 4689 359 
Q 4788 413 4856 536 
Q 4925 659 4962 859 
Q 5000 1059 5000 1356 
z
M 1750 3047 
Q 1750 3353 1715 3556 
Q 1681 3759 1615 3881 
Q 1550 4003 1453 4053 
Q 1356 4103 1231 4103 
Q 1097 4103 995 4051 
Q 894 4000 825 3878 
Q 756 3756 722 3553 
Q 688 3350 688 3047 
Q 688 2750 723 2547 
Q 759 2344 826 2220 
Q 894 2097 994 2044 
Q 1094 1991 1225 1991 
Q 1344 1991 1441 2044 
Q 1538 2097 1606 2220 
Q 1675 2344 1712 2547 
Q 1750 2750 1750 3047 
z
" transform="scale(0.015625)"/>
       <path id="LiberationSans-6f" d="M 3291 1694 
Q 3291 806 2900 371 
Q 2509 -63 1766 -63 
Q 1413 -63 1134 43 
Q 856 150 664 369 
Q 472 588 370 917 
Q 269 1247 269 1694 
Q 269 3444 1784 3444 
Q 2178 3444 2464 3334 
Q 2750 3225 2933 3006 
Q 3116 2788 3203 2459 
Q 3291 2131 3291 1694 
z
M 2700 1694 
Q 2700 2088 2639 2344 
Q 2578 2600 2461 2753 
Q 2344 2906 2175 2967 
Q 2006 3028 1794 3028 
Q 1578 3028 1404 2964 
Q 1231 2900 1109 2745 
Q 988 2591 923 2334 
Q 859 2078 859 1694 
Q 859 1300 928 1042 
Q 997 784 1117 631 
Q 1238 478 1402 415 
Q 1566 353 1759 353 
Q 1975 353 2150 414 
Q 2325 475 2447 628 
Q 2569 781 2634 1040 
Q 2700 1300 2700 1694 
z
" transform="scale(0.015625)"/>
       <path id="LiberationSans-66" d="M 1128 2972 
L 1128 0 
L 566 0 
L 566 2972 
L 91 2972 
L 91 3381 
L 566 3381 
L 566 3763 
Q 566 3947 600 4105 
Q 634 4263 726 4380 
Q 819 4497 978 4564 
Q 1138 4631 1391 4631 
Q 1491 4631 1598 4622 
Q 1706 4613 1788 4594 
L 1788 4166 
Q 1734 4175 1664 4183 
Q 1594 4191 1538 4191 
Q 1413 4191 1333 4156 
Q 1253 4122 1208 4058 
Q 1163 3994 1145 3900 
Q 1128 3806 1128 3684 
L 1128 3381 
L 1788 3381 
L 1788 2972 
L 1128 2972 
z
" transform="scale(0.015625)"/>
       <path id="LiberationSans-43" d="M 2475 3981 
Q 2100 3981 1811 3856 
Q 1522 3731 1326 3500 
Q 1131 3269 1031 2944 
Q 931 2619 931 2222 
Q 931 1825 1039 1495 
Q 1147 1166 1348 928 
Q 1550 691 1842 559 
Q 2134 428 2500 428 
Q 2756 428 2967 495 
Q 3178 563 3348 684 
Q 3519 806 3653 973 
Q 3788 1141 3891 1344 
L 4378 1100 
Q 4259 853 4084 640 
Q 3909 428 3673 272 
Q 3438 116 3139 26 
Q 2841 -63 2472 -63 
Q 1938 -63 1536 107 
Q 1134 278 864 583 
Q 594 888 459 1306 
Q 325 1725 325 2222 
Q 325 2738 467 3153 
Q 609 3569 882 3861 
Q 1156 4153 1556 4311 
Q 1956 4469 2469 4469 
Q 3172 4469 3644 4194 
Q 4116 3919 4338 3378 
L 3772 3191 
Q 3709 3347 3603 3489 
Q 3497 3631 3337 3740 
Q 3178 3850 2964 3915 
Q 2750 3981 2475 3981 
z
" transform="scale(0.015625)"/>
       <path id="LiberationSans-74" d="M 1731 25 
Q 1603 -9 1470 -29 
Q 1338 -50 1163 -50 
Q 488 -50 488 716 
L 488 2972 
L 97 2972 
L 97 3381 
L 509 3381 
L 675 4138 
L 1050 4138 
L 1050 3381 
L 1675 3381 
L 1675 2972 
L 1050 2972 
L 1050 838 
Q 1050 594 1129 495 
Q 1209 397 1406 397 
Q 1488 397 1564 409 
Q 1641 422 1731 441 
L 1731 25 
z
" transform="scale(0.015625)"/>
       <path id="LiberationSans-65" d="M 863 1572 
Q 863 1306 917 1082 
Q 972 859 1086 698 
Q 1200 538 1378 448 
Q 1556 359 1806 359 
Q 2172 359 2392 506 
Q 2613 653 2691 878 
L 3184 738 
Q 3131 597 3036 455 
Q 2941 313 2781 198 
Q 2622 84 2383 10 
Q 2144 -63 1806 -63 
Q 1056 -63 664 384 
Q 272 831 272 1713 
Q 272 2188 390 2517 
Q 509 2847 715 3053 
Q 922 3259 1197 3351 
Q 1472 3444 1784 3444 
Q 2209 3444 2495 3306 
Q 2781 3169 2954 2926 
Q 3128 2684 3201 2356 
Q 3275 2028 3275 1647 
L 3275 1572 
L 863 1572 
z
M 2694 2003 
Q 2647 2538 2422 2783 
Q 2197 3028 1775 3028 
Q 1634 3028 1479 2983 
Q 1325 2938 1194 2822 
Q 1063 2706 972 2507 
Q 881 2309 869 2003 
L 2694 2003 
z
" transform="scale(0.015625)"/>
       <path id="LiberationSans-79" d="M 1888 0 
Q 1769 -306 1645 -551 
Q 1522 -797 1369 -970 
Q 1216 -1144 1028 -1236 
Q 841 -1328 597 -1328 
Q 491 -1328 400 -1322 
Q 309 -1316 209 -1294 
L 209 -872 
Q 269 -881 344 -886 
Q 419 -891 472 -891 
Q 719 -891 931 -706 
Q 1144 -522 1303 -119 
L 1356 16 
L 16 3381 
L 616 3381 
L 1328 1513 
Q 1359 1428 1407 1287 
Q 1456 1147 1504 1006 
Q 1553 866 1590 753 
Q 1628 641 1634 613 
Q 1644 647 1680 748 
Q 1716 850 1761 975 
Q 1806 1100 1853 1228 
Q 1900 1356 1931 1450 
L 2594 3381 
L 3188 3381 
L 1888 0 
z
" transform="scale(0.015625)"/>
      </defs>
      <use xlink:href="#LiberationSans-4d"/>
      <use xlink:href="#LiberationSans-61" x="83.300781"/>
      <use xlink:href="#LiberationSans-72" x="138.916016"/>
      <use xlink:href="#LiberationSans-67" x="172.216797"/>
      <use xlink:href="#LiberationSans-69" x="227.832031"/>
      <use xlink:href="#LiberationSans-6e" x="250.048828"/>
      <use xlink:href="#LiberationSans-61" x="305.664062"/>
      <use xlink:href="#LiberationSans-6c" x="361.279297"/>
      <use xlink:href="#LiberationSans-20" x="383.496094"/>
      <use xlink:href="#LiberationSans-25" x="411.279297"/>
      <use xlink:href="#LiberationSans-20" x="500.195312"/>
      <use xlink:href="#LiberationSans-6f" x="527.978516"/>
      <use xlink:href="#LiberationSans-66" x="583.59375"/>
      <use xlink:href="#LiberationSans-20" x="611.376953"/>
      <use xlink:href="#LiberationSans-43" x="639.160156"/>
      <use xlink:href="#LiberationSans-61" x="711.376953"/>
      <use xlink:href="#LiberationSans-74" x="766.992188"/>
      <use xlink:href="#LiberationSans-65" x="794.775391"/>
      <use xlink:href="#LiberationSans-67" x="850.390625"/>
      <use xlink:href="#LiberationSans-6f" x="906.005859"/>
      <use xlink:href="#LiberationSans-72" x="961.621094"/>
      <use xlink:href="#LiberationSans-79" x="994.921875"/>
     </g>
    </g>
   </g>
   <g id="matplotlib.axis_2">
    <g id="ytick_1"/>
    <g id="ytick_2"/>
    <g id="ytick_3"/>
    <g id="ytick_4"/>
   </g>
   <g id="patch_7">
    <path d="M 3.00024 388.330697 
L 195.505432 388.330697 
" style="fill: none; stroke: #000000; stroke-width: 1.6; stroke-linejoin: miter; stroke-linecap: square"/>
   </g>
  </g>
  <g id="axes_2">
   <g id="patch_8">
    <path d="M 250.311057 388.330697 
L 827.826635 388.330697 
L 827.826635 112.561448 
L 250.311057 112.561448 
z
" style="fill: #ffffff"/>
   </g>
   <g id="PathCollection_1">
    <defs>
     <path id="C0_0_22f7a338d2" d="M 0 5 
C 1.326016 5 2.597899 4.473168 3.535534 3.535534 
C 4.473168 2.597899 5 1.326016 5 -0 
C 5 -1.326016 4.473168 -2.597899 3.535534 -3.535534 
C 2.597899 -4.473168 1.326016 -5 0 -5 
C -1.326016 -5 -2.597899 -4.473168 -3.535534 -3.535534 
C -4.473168 -2.597899 -5 -1.326016 -5 0 
C -5 1.326016 -4.473168 2.597899 -3.535534 3.535534 
C -2.597899 4.473168 -1.326016 5 0 5 
z
"/>
    </defs>
    <g clip-path="url(#p623b66cfa4)">
     <use xlink:href="#C0_0_22f7a338d2" x="300.426046" y="151.485816" style="fill: none; stroke: #d3d3d3"/>
    </g>
    <g clip-path="url(#p623b66cfa4)">
     <use xlink:href="#C0_0_22f7a338d2" x="300.426046" y="217.45932" style="fill: none; stroke: #d3d3d3"/>
    </g>
    <g clip-path="url(#p623b66cfa4)">
     <use xlink:href="#C0_0_22f7a338d2" x="300.426046" y="283.432825" style="fill: none; stroke: #d3d3d3"/>
    </g>
    <g clip-path="url(#p623b66cfa4)">
     <use xlink:href="#C0_0_22f7a338d2" x="300.426046" y="349.40633" style="fill: none; stroke: #d3d3d3"/>
    </g>
   </g>
   <g id="PathCollection_2">
    <defs>
     <path id="C1_0_681de12c56" d="M 0 5 
C 1.326016 5 2.597899 4.473168 3.535534 3.535534 
C 4.473168 2.597899 5 1.326016 5 -0 
C 5 -1.326016 4.473168 -2.597899 3.535534 -3.535534 
C 2.597899 -4.473168 1.326016 -5 0 -5 
C -1.326016 -5 -2.597899 -4.473168 -3.535534 -3.535534 
C -4.473168 -2.597899 -5 -1.326016 -5 0 
C -5 1.326016 -4.473168 2.597899 -3.535534 3.535534 
C -2.597899 4.473168 -1.326016 5 0 5 
z
"/>
    </defs>
    <g clip-path="url(#p623b66cfa4)">
     <use xlink:href="#C1_0_681de12c56" x="360.086746" y="151.485816" style="fill: none; stroke: #d3d3d3"/>
    </g>
    <g clip-path="url(#p623b66cfa4)">
     <use xlink:href="#C1_0_681de12c56" x="360.086746" y="217.45932" style="fill: none; stroke: #d3d3d3"/>
    </g>
    <g clip-path="url(#p623b66cfa4)">
     <use xlink:href="#C1_0_681de12c56" x="360.086746" y="283.432825" style="fill: none; stroke: #d3d3d3"/>
    </g>
    <g clip-path="url(#p623b66cfa4)">
     <use xlink:href="#C1_0_681de12c56" x="360.086746" y="349.40633" style="fill: none; stroke: #d3d3d3"/>
    </g>
   </g>
   <g id="PathCollection_3">
    <defs>
     <path id="C2_0_0dd460fed1" d="M 0 5 
C 1.326016 5 2.597899 4.473168 3.535534 3.535534 
C 4.473168 2.597899 5 1.326016 5 -0 
C 5 -1.326016 4.473168 -2.597899 3.535534 -3.535534 
C 2.597899 -4.473168 1.326016 -5 0 -5 
C -1.326016 -5 -2.597899 -4.473168 -3.535534 -3.535534 
C -4.473168 -2.597899 -5 -1.326016 -5 0 
C -5 1.326016 -4.473168 2.597899 -3.535534 3.535534 
C -2.597899 4.473168 -1.326016 5 0 5 
z
"/>
    </defs>
    <g clip-path="url(#p623b66cfa4)">
     <use xlink:href="#C2_0_0dd460fed1" x="419.747446" y="151.485816" style="fill: none; stroke: #d3d3d3"/>
    </g>
    <g clip-path="url(#p623b66cfa4)">
     <use xlink:href="#C2_0_0dd460fed1" x="419.747446" y="217.45932" style="fill: none; stroke: #d3d3d3"/>
    </g>
    <g clip-path="url(#p623b66cfa4)">
     <use xlink:href="#C2_0_0dd460fed1" x="419.747446" y="283.432825" style="fill: none; stroke: #d3d3d3"/>
    </g>
    <g clip-path="url(#p623b66cfa4)">
     <use xlink:href="#C2_0_0dd460fed1" x="419.747446" y="349.40633" style="fill: none; stroke: #d3d3d3"/>
    </g>
   </g>
   <g id="PathCollection_4">
    <defs>
     <path id="C3_0_1565a6365e" d="M 0 5 
C 1.326016 5 2.597899 4.473168 3.535534 3.535534 
C 4.473168 2.597899 5 1.326016 5 -0 
C 5 -1.326016 4.473168 -2.597899 3.535534 -3.535534 
C 2.597899 -4.473168 1.326016 -5 0 -5 
C -1.326016 -5 -2.597899 -4.473168 -3.535534 -3.535534 
C -4.473168 -2.597899 -5 -1.326016 -5 0 
C -5 1.326016 -4.473168 2.597899 -3.535534 3.535534 
C -2.597899 4.473168 -1.326016 5 0 5 
z
"/>
    </defs>
    <g clip-path="url(#p623b66cfa4)">
     <use xlink:href="#C3_0_1565a6365e" x="479.408146" y="151.485816" style="fill: none; stroke: #d3d3d3"/>
    </g>
    <g clip-path="url(#p623b66cfa4)">
     <use xlink:href="#C3_0_1565a6365e" x="479.408146" y="217.45932" style="fill: none; stroke: #d3d3d3"/>
    </g>
    <g clip-path="url(#p623b66cfa4)">
     <use xlink:href="#C3_0_1565a6365e" x="479.408146" y="283.432825" style="fill: none; stroke: #d3d3d3"/>
    </g>
    <g clip-path="url(#p623b66cfa4)">
     <use xlink:href="#C3_0_1565a6365e" x="479.408146" y="349.40633" style="fill: none; stroke: #d3d3d3"/>
    </g>
   </g>
   <g id="PathCollection_5">
    <defs>
     <path id="C4_0_af47a7e920" d="M 0 5 
C 1.326016 5 2.597899 4.473168 3.535534 3.535534 
C 4.473168 2.597899 5 1.326016 5 -0 
C 5 -1.326016 4.473168 -2.597899 3.535534 -3.535534 
C 2.597899 -4.473168 1.326016 -5 0 -5 
C -1.326016 -5 -2.597899 -4.473168 -3.535534 -3.535534 
C -4.473168 -2.597899 -5 -1.326016 -5 0 
C -5 1.326016 -4.473168 2.597899 -3.535534 3.535534 
C -2.597899 4.473168 -1.326016 5 0 5 
z
"/>
    </defs>
    <g clip-path="url(#p623b66cfa4)">
     <use xlink:href="#C4_0_af47a7e920" x="539.068846" y="151.485816" style="fill: none; stroke: #d3d3d3"/>
    </g>
    <g clip-path="url(#p623b66cfa4)">
     <use xlink:href="#C4_0_af47a7e920" x="539.068846" y="217.45932" style="fill: none; stroke: #d3d3d3"/>
    </g>
    <g clip-path="url(#p623b66cfa4)">
     <use xlink:href="#C4_0_af47a7e920" x="539.068846" y="283.432825" style="fill: none; stroke: #d3d3d3"/>
    </g>
    <g clip-path="url(#p623b66cfa4)">
     <use xlink:href="#C4_0_af47a7e920" x="539.068846" y="349.40633" style="fill: none; stroke: #d3d3d3"/>
    </g>
   </g>
   <g id="PathCollection_6">
    <defs>
     <path id="C5_0_55f49874f0" d="M 0 5 
C 1.326016 5 2.597899 4.473168 3.535534 3.535534 
C 4.473168 2.597899 5 1.326016 5 -0 
C 5 -1.326016 4.473168 -2.597899 3.535534 -3.535534 
C 2.597899 -4.473168 1.326016 -5 0 -5 
C -1.326016 -5 -2.597899 -4.473168 -3.535534 -3.535534 
C -4.473168 -2.597899 -5 -1.326016 -5 0 
C -5 1.326016 -4.473168 2.597899 -3.535534 3.535534 
C -2.597899 4.473168 -1.326016 5 0 5 
z
"/>
    </defs>
    <g clip-path="url(#p623b66cfa4)">
     <use xlink:href="#C5_0_55f49874f0" x="598.729546" y="151.485816" style="fill: none; stroke: #d3d3d3"/>
    </g>
    <g clip-path="url(#p623b66cfa4)">
     <use xlink:href="#C5_0_55f49874f0" x="598.729546" y="217.45932" style="fill: none; stroke: #d3d3d3"/>
    </g>
    <g clip-path="url(#p623b66cfa4)">
     <use xlink:href="#C5_0_55f49874f0" x="598.729546" y="283.432825" style="fill: none; stroke: #d3d3d3"/>
    </g>
    <g clip-path="url(#p623b66cfa4)">
     <use xlink:href="#C5_0_55f49874f0" x="598.729546" y="349.40633" style="fill: none; stroke: #d3d3d3"/>
    </g>
   </g>
   <g id="PathCollection_7">
    <defs>
     <path id="C6_0_53295147ce" d="M 0 5 
C 1.326016 5 2.597899 4.473168 3.535534 3.535534 
C 4.473168 2.597899 5 1.326016 5 -0 
C 5 -1.326016 4.473168 -2.597899 3.535534 -3.535534 
C 2.597899 -4.473168 1.326016 -5 0 -5 
C -1.326016 -5 -2.597899 -4.473168 -3.535534 -3.535534 
C -4.473168 -2.597899 -5 -1.326016 -5 0 
C -5 1.326016 -4.473168 2.597899 -3.535534 3.535534 
C -2.597899 4.473168 -1.326016 5 0 5 
z
"/>
    </defs>
    <g clip-path="url(#p623b66cfa4)">
     <use xlink:href="#C6_0_53295147ce" x="658.390247" y="151.485816" style="fill: none; stroke: #d3d3d3"/>
    </g>
    <g clip-path="url(#p623b66cfa4)">
     <use xlink:href="#C6_0_53295147ce" x="658.390247" y="217.45932" style="fill: none; stroke: #d3d3d3"/>
    </g>
    <g clip-path="url(#p623b66cfa4)">
     <use xlink:href="#C6_0_53295147ce" x="658.390247" y="283.432825" style="fill: none; stroke: #d3d3d3"/>
    </g>
    <g clip-path="url(#p623b66cfa4)">
     <use xlink:href="#C6_0_53295147ce" x="658.390247" y="349.40633" style="fill: none; stroke: #d3d3d3"/>
    </g>
   </g>
   <g id="PathCollection_8">
    <defs>
     <path id="C7_0_e505360941" d="M 0 5 
C 1.326016 5 2.597899 4.473168 3.535534 3.535534 
C 4.473168 2.597899 5 1.326016 5 -0 
C 5 -1.326016 4.473168 -2.597899 3.535534 -3.535534 
C 2.597899 -4.473168 1.326016 -5 0 -5 
C -1.326016 -5 -2.597899 -4.473168 -3.535534 -3.535534 
C -4.473168 -2.597899 -5 -1.326016 -5 0 
C -5 1.326016 -4.473168 2.597899 -3.535534 3.535534 
C -2.597899 4.473168 -1.326016 5 0 5 
z
"/>
    </defs>
    <g clip-path="url(#p623b66cfa4)">
     <use xlink:href="#C7_0_e505360941" x="718.050947" y="151.485816" style="fill: none; stroke: #d3d3d3"/>
    </g>
    <g clip-path="url(#p623b66cfa4)">
     <use xlink:href="#C7_0_e505360941" x="718.050947" y="217.45932" style="fill: none; stroke: #d3d3d3"/>
    </g>
    <g clip-path="url(#p623b66cfa4)">
     <use xlink:href="#C7_0_e505360941" x="718.050947" y="283.432825" style="fill: none; stroke: #d3d3d3"/>
    </g>
    <g clip-path="url(#p623b66cfa4)">
     <use xlink:href="#C7_0_e505360941" x="718.050947" y="349.40633" style="fill: none; stroke: #d3d3d3"/>
    </g>
   </g>
   <g id="PathCollection_9">
    <defs>
     <path id="C8_0_da811fbcec" d="M 0 5 
C 1.326016 5 2.597899 4.473168 3.535534 3.535534 
C 4.473168 2.597899 5 1.326016 5 -0 
C 5 -1.326016 4.473168 -2.597899 3.535534 -3.535534 
C 2.597899 -4.473168 1.326016 -5 0 -5 
C -1.326016 -5 -2.597899 -4.473168 -3.535534 -3.535534 
C -4.473168 -2.597899 -5 -1.326016 -5 0 
C -5 1.326016 -4.473168 2.597899 -3.535534 3.535534 
C -2.597899 4.473168 -1.326016 5 0 5 
z
"/>
    </defs>
    <g clip-path="url(#p623b66cfa4)">
     <use xlink:href="#C8_0_da811fbcec" x="777.711647" y="151.485816" style="fill: none; stroke: #d3d3d3"/>
    </g>
    <g clip-path="url(#p623b66cfa4)">
     <use xlink:href="#C8_0_da811fbcec" x="777.711647" y="217.45932" style="fill: none; stroke: #d3d3d3"/>
    </g>
    <g clip-path="url(#p623b66cfa4)">
     <use xlink:href="#C8_0_da811fbcec" x="777.711647" y="283.432825" style="fill: none; stroke: #d3d3d3"/>
    </g>
    <g clip-path="url(#p623b66cfa4)">
     <use xlink:href="#C8_0_da811fbcec" x="777.711647" y="349.40633" style="fill: none; stroke: #d3d3d3"/>
    </g>
   </g>
   <g id="matplotlib.axis_3"/>
   <g id="matplotlib.axis_4">
    <g id="ytick_5">
     <g id="text_6">
      <!-- St. -->
      <g transform="translate(836.326635 155.833941) scale(0.12 -0.12)">
       <defs>
        <path id="LiberationSans-53" d="M 3975 1216 
Q 3975 938 3867 703 
Q 3759 469 3534 298 
Q 3309 128 2967 32 
Q 2625 -63 2156 -63 
Q 1334 -63 875 225 
Q 416 513 291 1056 
L 869 1172 
Q 913 1000 1003 859 
Q 1094 719 1248 617 
Q 1403 516 1631 459 
Q 1859 403 2178 403 
Q 2444 403 2666 448 
Q 2888 494 3047 587 
Q 3206 681 3295 829 
Q 3384 978 3384 1184 
Q 3384 1400 3286 1534 
Q 3188 1669 3009 1756 
Q 2831 1844 2584 1903 
Q 2338 1963 2038 2031 
Q 1853 2072 1667 2120 
Q 1481 2169 1311 2236 
Q 1141 2303 991 2393 
Q 841 2484 731 2611 
Q 622 2738 559 2905 
Q 497 3072 497 3291 
Q 497 3603 623 3826 
Q 750 4050 975 4194 
Q 1200 4338 1506 4403 
Q 1813 4469 2169 4469 
Q 2578 4469 2868 4405 
Q 3159 4341 3359 4212 
Q 3559 4084 3679 3895 
Q 3800 3706 3872 3456 
L 3284 3353 
Q 3241 3513 3158 3638 
Q 3075 3763 2940 3847 
Q 2806 3931 2614 3975 
Q 2422 4019 2163 4019 
Q 1856 4019 1648 3964 
Q 1441 3909 1314 3815 
Q 1188 3722 1133 3595 
Q 1078 3469 1078 3322 
Q 1078 3125 1176 2998 
Q 1275 2872 1444 2787 
Q 1613 2703 1834 2647 
Q 2056 2591 2306 2534 
Q 2509 2488 2711 2439 
Q 2913 2391 3097 2323 
Q 3281 2256 3442 2165 
Q 3603 2075 3722 1944 
Q 3841 1813 3908 1634 
Q 3975 1456 3975 1216 
z
" transform="scale(0.015625)"/>
        <path id="LiberationSans-2e" d="M 584 0 
L 584 684 
L 1194 684 
L 1194 0 
L 584 0 
z
" transform="scale(0.015625)"/>
       </defs>
       <use xlink:href="#LiberationSans-53"/>
       <use xlink:href="#LiberationSans-74" x="66.699219"/>
       <use xlink:href="#LiberationSans-2e" x="94.482422"/>
      </g>
     </g>
    </g>
    <g id="ytick_6">
     <g id="text_7">
      <!-- DD. -->
      <g transform="translate(836.326635 221.807445) scale(0.12 -0.12)">
       <defs>
        <path id="LiberationSans-44" d="M 4316 2247 
Q 4316 1697 4150 1276 
Q 3984 856 3696 573 
Q 3409 291 3017 145 
Q 2625 0 2172 0 
L 525 0 
L 525 4403 
L 1981 4403 
Q 2491 4403 2920 4276 
Q 3350 4150 3659 3886 
Q 3969 3622 4142 3215 
Q 4316 2809 4316 2247 
z
M 3716 2247 
Q 3716 2694 3587 3011 
Q 3459 3328 3228 3531 
Q 2997 3734 2675 3829 
Q 2353 3925 1969 3925 
L 1122 3925 
L 1122 478 
L 2103 478 
Q 2450 478 2745 590 
Q 3041 703 3256 925 
Q 3472 1147 3594 1478 
Q 3716 1809 3716 2247 
z
" transform="scale(0.015625)"/>
       </defs>
       <use xlink:href="#LiberationSans-44"/>
       <use xlink:href="#LiberationSans-44" x="72.216797"/>
       <use xlink:href="#LiberationSans-2e" x="144.433594"/>
      </g>
     </g>
    </g>
    <g id="ytick_7">
     <g id="text_8">
      <!-- Uni. -->
      <g transform="translate(836.326635 287.78095) scale(0.12 -0.12)">
       <defs>
        <path id="LiberationSans-55" d="M 2284 -63 
Q 1922 -63 1597 34 
Q 1272 131 1026 336 
Q 781 541 637 855 
Q 494 1169 494 1600 
L 494 4403 
L 1091 4403 
L 1091 1650 
Q 1091 1316 1180 1083 
Q 1269 850 1428 703 
Q 1588 556 1805 489 
Q 2022 422 2281 422 
Q 2538 422 2766 490 
Q 2994 559 3166 709 
Q 3338 859 3436 1101 
Q 3534 1344 3534 1691 
L 3534 4403 
L 4128 4403 
L 4128 1656 
Q 4128 1216 3983 892 
Q 3838 569 3588 356 
Q 3338 144 3002 40 
Q 2666 -63 2284 -63 
z
" transform="scale(0.015625)"/>
       </defs>
       <use xlink:href="#LiberationSans-55"/>
       <use xlink:href="#LiberationSans-6e" x="72.216797"/>
       <use xlink:href="#LiberationSans-69" x="127.832031"/>
       <use xlink:href="#LiberationSans-2e" x="150.048828"/>
      </g>
     </g>
    </g>
    <g id="ytick_8">
     <g id="text_9">
      <!-- Unc. -->
      <g transform="translate(836.326635 353.754455) scale(0.12 -0.12)">
       <defs>
        <path id="LiberationSans-63" d="M 859 1706 
Q 859 1416 901 1172 
Q 944 928 1044 751 
Q 1144 575 1308 478 
Q 1472 381 1713 381 
Q 2013 381 2214 543 
Q 2416 706 2463 1044 
L 3031 1006 
Q 3003 797 2909 603 
Q 2816 409 2655 262 
Q 2494 116 2262 26 
Q 2031 -63 1728 -63 
Q 1331 -63 1053 71 
Q 775 206 601 442 
Q 428 678 350 998 
Q 272 1319 272 1694 
Q 272 2034 328 2295 
Q 384 2556 486 2751 
Q 588 2947 725 3080 
Q 863 3213 1023 3292 
Q 1184 3372 1362 3408 
Q 1541 3444 1722 3444 
Q 2006 3444 2228 3366 
Q 2450 3288 2611 3152 
Q 2772 3016 2872 2831 
Q 2972 2647 3013 2434 
L 2434 2391 
Q 2391 2672 2212 2837 
Q 2034 3003 1706 3003 
Q 1466 3003 1305 2923 
Q 1144 2844 1044 2683 
Q 944 2522 901 2278 
Q 859 2034 859 1706 
z
" transform="scale(0.015625)"/>
       </defs>
       <use xlink:href="#LiberationSans-55"/>
       <use xlink:href="#LiberationSans-6e" x="72.216797"/>
       <use xlink:href="#LiberationSans-63" x="127.832031"/>
       <use xlink:href="#LiberationSans-2e" x="177.832031"/>
      </g>
     </g>
    </g>
   </g>
   <g id="LineCollection_1">
    <path d="M 300.426046 151.485816 
L 300.426046 349.40633 
" clip-path="url(#p623b66cfa4)" style="fill: none; stroke: #808080; stroke-width: 3"/>
   </g>
   <g id="LineCollection_2">
    <path d="M 539.068846 151.485816 
L 539.068846 349.40633 
" clip-path="url(#p623b66cfa4)" style="fill: none; stroke: #808080; stroke-width: 3"/>
   </g>
   <g id="LineCollection_3">
    <path d="M 658.390247 151.485816 
L 658.390247 283.432825 
" clip-path="url(#p623b66cfa4)" style="fill: none; stroke: #808080; stroke-width: 3"/>
   </g>
   <g id="LineCollection_4">
    <path d="M 718.050947 283.432825 
L 718.050947 349.40633 
" clip-path="url(#p623b66cfa4)" style="fill: none; stroke: #808080; stroke-width: 3"/>
   </g>
   <g id="LineCollection_5">
    <path d="M 777.711647 151.485816 
L 777.711647 349.40633 
" clip-path="url(#p623b66cfa4)" style="fill: none; stroke: #808080; stroke-width: 3"/>
   </g>
   <g id="patch_9">
    <path d="M 250.311057 388.330698 
L 250.311057 112.561448 
" style="fill: none; stroke: #000000; stroke-width: 1.6; stroke-linejoin: miter; stroke-linecap: square"/>
   </g>
   <g id="PathCollection_10">
    <defs>
     <path id="m6c0c4daba9" d="M 0 5 
C 1.326016 5 2.597899 4.473168 3.535534 3.535534 
C 4.473168 2.597899 5 1.326016 5 0 
C 5 -1.326016 4.473168 -2.597899 3.535534 -3.535534 
C 2.597899 -4.473168 1.326016 -5 0 -5 
C -1.326016 -5 -2.597899 -4.473168 -3.535534 -3.535534 
C -4.473168 -2.597899 -5 -1.326016 -5 0 
C -5 1.326016 -4.473168 2.597899 -3.535534 3.535534 
C -2.597899 4.473168 -1.326016 5 0 5 
z
" style="stroke: #808080"/>
    </defs>
    <g clip-path="url(#p623b66cfa4)">
     <use xlink:href="#m6c0c4daba9" x="300.426046" y="151.485816" style="fill: #808080; stroke: #808080"/>
     <use xlink:href="#m6c0c4daba9" x="300.426046" y="349.40633" style="fill: #808080; stroke: #808080"/>
    </g>
   </g>
   <g id="PathCollection_11">
    <g clip-path="url(#p623b66cfa4)">
     <use xlink:href="#m6c0c4daba9" x="360.086746" y="283.432825" style="fill: #808080; stroke: #808080"/>
    </g>
   </g>
   <g id="PathCollection_12">
    <g clip-path="url(#p623b66cfa4)">
     <use xlink:href="#m6c0c4daba9" x="419.747446" y="151.485816" style="fill: #808080; stroke: #808080"/>
    </g>
   </g>
   <g id="PathCollection_13">
    <g clip-path="url(#p623b66cfa4)">
     <use xlink:href="#m6c0c4daba9" x="479.408146" y="349.40633" style="fill: #808080; stroke: #808080"/>
    </g>
   </g>
   <g id="PathCollection_14">
    <g clip-path="url(#p623b66cfa4)">
     <use xlink:href="#m6c0c4daba9" x="539.068846" y="151.485816" style="fill: #808080; stroke: #808080"/>
     <use xlink:href="#m6c0c4daba9" x="539.068846" y="283.432825" style="fill: #808080; stroke: #808080"/>
     <use xlink:href="#m6c0c4daba9" x="539.068846" y="349.40633" style="fill: #808080; stroke: #808080"/>
    </g>
   </g>
   <g id="PathCollection_15">
    <g clip-path="url(#p623b66cfa4)">
     <use xlink:href="#m6c0c4daba9" x="598.729546" y="217.45932" style="fill: #808080; stroke: #808080"/>
    </g>
   </g>
   <g id="PathCollection_16">
    <g clip-path="url(#p623b66cfa4)">
     <use xlink:href="#m6c0c4daba9" x="658.390247" y="151.485816" style="fill: #808080; stroke: #808080"/>
     <use xlink:href="#m6c0c4daba9" x="658.390247" y="283.432825" style="fill: #808080; stroke: #808080"/>
    </g>
   </g>
   <g id="PathCollection_17">
    <g clip-path="url(#p623b66cfa4)">
     <use xlink:href="#m6c0c4daba9" x="718.050947" y="283.432825" style="fill: #808080; stroke: #808080"/>
     <use xlink:href="#m6c0c4daba9" x="718.050947" y="349.40633" style="fill: #808080; stroke: #808080"/>
    </g>
   </g>
   <g id="PathCollection_18">
    <g clip-path="url(#p623b66cfa4)">
     <use xlink:href="#m6c0c4daba9" x="777.711647" y="151.485816" style="fill: #808080; stroke: #808080"/>
     <use xlink:href="#m6c0c4daba9" x="777.711647" y="217.45932" style="fill: #808080; stroke: #808080"/>
     <use xlink:href="#m6c0c4daba9" x="777.711647" y="349.40633" style="fill: #808080; stroke: #808080"/>
    </g>
   </g>
  </g>
  <g id="axes_3">
   <g id="patch_10">
    <path d="M 250.311057 94.923323 
L 827.826635 94.923323 
L 827.826635 3.00024 
L 250.311057 3.00024 
z
" style="fill: #ffffff"/>
   </g>
   <g id="patch_11">
    <path d="M 276.561766 94.923323 
L 324.290326 94.923323 
L 324.290326 11.356884 
L 276.561766 11.356884 
z
" clip-path="url(#pddef3cc42e)" style="opacity: 0.65"/>
   </g>
   <g id="patch_12">
    <path d="M 336.222466 94.923323 
L 383.951026 94.923323 
L 383.951026 54.590365 
L 336.222466 54.590365 
z
" clip-path="url(#pddef3cc42e)" style="opacity: 0.65"/>
   </g>
   <g id="patch_13">
    <path d="M 395.883166 94.923323 
L 443.611726 94.923323 
L 443.611726 58.118029 
L 395.883166 58.118029 
z
" clip-path="url(#pddef3cc42e)" style="opacity: 0.65"/>
   </g>
   <g id="patch_14">
    <path d="M 455.543866 94.923323 
L 503.272426 94.923323 
L 503.272426 59.68588 
L 455.543866 59.68588 
z
" clip-path="url(#pddef3cc42e)" style="opacity: 0.65"/>
   </g>
   <g id="patch_15">
    <path d="M 515.204566 94.923323 
L 562.933126 94.923323 
L 562.933126 66.623619 
L 515.204566 66.623619 
z
" clip-path="url(#pddef3cc42e)" style="opacity: 0.65"/>
   </g>
   <g id="patch_16">
    <path d="M 574.865266 94.923323 
L 622.593826 94.923323 
L 622.593826 80.146331 
L 574.865266 80.146331 
z
" clip-path="url(#pddef3cc42e)" style="opacity: 0.65"/>
   </g>
   <g id="patch_17">
    <path d="M 634.525966 94.923323 
L 682.254527 94.923323 
L 682.254527 87.593621 
L 634.525966 87.593621 
z
" clip-path="url(#pddef3cc42e)" style="opacity: 0.65"/>
   </g>
   <g id="patch_18">
    <path d="M 694.186667 94.923323 
L 741.915227 94.923323 
L 741.915227 88.534332 
L 694.186667 88.534332 
z
" clip-path="url(#pddef3cc42e)" style="opacity: 0.65"/>
   </g>
   <g id="patch_19">
    <path d="M 753.847367 94.923323 
L 801.575927 94.923323 
L 801.575927 91.905211 
L 753.847367 91.905211 
z
" clip-path="url(#pddef3cc42e)" style="opacity: 0.65"/>
   </g>
   <g id="matplotlib.axis_5"/>
   <g id="matplotlib.axis_6">
    <g id="ytick_9">
     <g id="line2d_5">
      <defs>
       <path id="m46540b9439" d="M 0 0 
L -5 0 
" style="stroke: #000000; stroke-width: 1.6"/>
      </defs>
      <g>
       <use xlink:href="#m46540b9439" x="250.311057" y="94.923323" style="stroke: #000000; stroke-width: 1.6"/>
      </g>
     </g>
     <g id="text_10">
      <!-- 0 -->
      <g transform="translate(235.137932 99.271448) scale(0.12 -0.12)">
       <use xlink:href="#LiberationSans-30"/>
      </g>
     </g>
    </g>
    <g id="ytick_10">
     <g id="line2d_6">
      <g>
       <use xlink:href="#m46540b9439" x="250.311057" y="42.016203" style="stroke: #000000; stroke-width: 1.6"/>
      </g>
     </g>
     <g id="text_11">
      <!-- 20 -->
      <g transform="translate(228.464807 46.364328) scale(0.12 -0.12)">
       <use xlink:href="#LiberationSans-32"/>
       <use xlink:href="#LiberationSans-30" x="55.615234"/>
      </g>
     </g>
    </g>
    <g id="text_12">
     <!-- % of Ripples -->
     <g transform="translate(218.352307 91.063735) rotate(-90) scale(0.15 -0.15)">
      <defs>
       <path id="LiberationSans-52" d="M 3638 0 
L 2494 1828 
L 1122 1828 
L 1122 0 
L 525 0 
L 525 4403 
L 2597 4403 
Q 2972 4403 3261 4317 
Q 3550 4231 3747 4068 
Q 3944 3906 4047 3672 
Q 4150 3438 4150 3144 
Q 4150 2934 4089 2731 
Q 4028 2528 3897 2359 
Q 3766 2191 3562 2069 
Q 3359 1947 3075 1897 
L 4325 0 
L 3638 0 
z
M 3550 3138 
Q 3550 3338 3481 3484 
Q 3413 3631 3281 3729 
Q 3150 3828 2962 3876 
Q 2775 3925 2538 3925 
L 1122 3925 
L 1122 2300 
L 2563 2300 
Q 2819 2300 3006 2364 
Q 3194 2428 3314 2540 
Q 3434 2653 3492 2806 
Q 3550 2959 3550 3138 
z
" transform="scale(0.015625)"/>
       <path id="LiberationSans-70" d="M 3291 1706 
Q 3291 1322 3228 997 
Q 3166 672 3020 437 
Q 2875 203 2636 70 
Q 2397 -63 2047 -63 
Q 1684 -63 1412 75 
Q 1141 213 997 525 
L 981 525 
Q 984 519 986 469 
Q 988 419 989 344 
Q 991 269 992 176 
Q 994 84 994 -6 
L 994 -1328 
L 431 -1328 
L 431 2691 
Q 431 2813 429 2925 
Q 428 3038 425 3130 
Q 422 3222 419 3287 
Q 416 3353 413 3381 
L 956 3381 
Q 959 3372 964 3315 
Q 969 3259 973 3179 
Q 978 3100 983 3009 
Q 988 2919 988 2838 
L 1000 2838 
Q 1078 3000 1178 3114 
Q 1278 3228 1406 3301 
Q 1534 3375 1692 3408 
Q 1850 3441 2047 3441 
Q 2397 3441 2636 3316 
Q 2875 3191 3020 2964 
Q 3166 2738 3228 2417 
Q 3291 2097 3291 1706 
z
M 2700 1694 
Q 2700 2006 2662 2250 
Q 2625 2494 2533 2662 
Q 2441 2831 2287 2918 
Q 2134 3006 1903 3006 
Q 1716 3006 1550 2953 
Q 1384 2900 1261 2750 
Q 1138 2600 1066 2336 
Q 994 2072 994 1650 
Q 994 1291 1053 1042 
Q 1113 794 1227 641 
Q 1341 488 1509 420 
Q 1678 353 1897 353 
Q 2131 353 2286 443 
Q 2441 534 2533 706 
Q 2625 878 2662 1126 
Q 2700 1375 2700 1694 
z
" transform="scale(0.015625)"/>
       <path id="LiberationSans-73" d="M 2969 934 
Q 2969 697 2876 511 
Q 2784 325 2609 198 
Q 2434 72 2179 4 
Q 1925 -63 1597 -63 
Q 1303 -63 1067 -17 
Q 831 28 653 128 
Q 475 228 354 392 
Q 234 556 178 794 
L 675 891 
Q 747 619 972 492 
Q 1197 366 1597 366 
Q 1778 366 1929 391 
Q 2081 416 2190 477 
Q 2300 538 2361 639 
Q 2422 741 2422 891 
Q 2422 1044 2350 1142 
Q 2278 1241 2150 1306 
Q 2022 1372 1839 1420 
Q 1656 1469 1438 1528 
Q 1234 1581 1034 1647 
Q 834 1713 673 1820 
Q 513 1928 413 2087 
Q 313 2247 313 2488 
Q 313 2950 642 3192 
Q 972 3434 1603 3434 
Q 2163 3434 2492 3237 
Q 2822 3041 2909 2606 
L 2403 2544 
Q 2375 2675 2300 2764 
Q 2225 2853 2119 2908 
Q 2013 2963 1880 2986 
Q 1747 3009 1603 3009 
Q 1222 3009 1040 2893 
Q 859 2778 859 2544 
Q 859 2406 926 2317 
Q 994 2228 1114 2167 
Q 1234 2106 1403 2061 
Q 1572 2016 1775 1966 
Q 1909 1931 2050 1892 
Q 2191 1853 2323 1798 
Q 2456 1744 2573 1670 
Q 2691 1597 2778 1494 
Q 2866 1391 2917 1253 
Q 2969 1116 2969 934 
z
" transform="scale(0.015625)"/>
      </defs>
      <use xlink:href="#LiberationSans-25"/>
      <use xlink:href="#LiberationSans-20" x="88.916016"/>
      <use xlink:href="#LiberationSans-6f" x="116.699219"/>
      <use xlink:href="#LiberationSans-66" x="172.314453"/>
      <use xlink:href="#LiberationSans-20" x="200.097656"/>
      <use xlink:href="#LiberationSans-52" x="227.880859"/>
      <use xlink:href="#LiberationSans-69" x="300.097656"/>
      <use xlink:href="#LiberationSans-70" x="322.314453"/>
      <use xlink:href="#LiberationSans-70" x="377.929688"/>
      <use xlink:href="#LiberationSans-6c" x="433.544922"/>
      <use xlink:href="#LiberationSans-65" x="455.761719"/>
      <use xlink:href="#LiberationSans-73" x="511.376953"/>
     </g>
    </g>
   </g>
   <g id="patch_20">
    <path d="M 250.311057 94.923323 
L 250.311057 3.00024 
" style="fill: none; stroke: #000000; stroke-width: 1.6; stroke-linejoin: miter; stroke-linecap: square"/>
   </g>
   <g id="patch_21">
    <path d="M 250.311057 94.923323 
L 827.826635 94.923323 
" style="fill: none; stroke: #000000; stroke-width: 1.6; stroke-linejoin: miter; stroke-linecap: square"/>
   </g>
  </g>
 </g>
 <defs>
  <clipPath id="p0da511e281">
   <rect x="3.00024" y="112.561448" width="192.505192" height="275.769249"/>
  </clipPath>
  <clipPath id="p623b66cfa4">
   <rect x="250.311057" y="112.561448" width="577.515577" height="275.769249"/>
  </clipPath>
  <clipPath id="pddef3cc42e">
   <rect x="250.311057" y="3.00024" width="577.515577" height="91.923083"/>
  </clipPath>
 </defs>
</svg>
