<?xml version="1.0" encoding="utf-8" standalone="no"?>
<!DOCTYPE svg PUBLIC "-//W3C//DTD SVG 1.1//EN"
  "http://www.w3.org/Graphics/SVG/1.1/DTD/svg11.dtd">
<svg xmlns:xlink="http://www.w3.org/1999/xlink" width="864pt" height="576pt" viewBox="0 0 864 576" xmlns="http://www.w3.org/2000/svg" version="1.1">
 <metadata>
  <rdf:RDF xmlns:dc="http://purl.org/dc/elements/1.1/" xmlns:cc="http://creativecommons.org/ns#" xmlns:rdf="http://www.w3.org/1999/02/22-rdf-syntax-ns#">
   <cc:Work>
    <dc:type rdf:resource="http://purl.org/dc/dcmitype/StillImage"/>
    <dc:date>2025-08-01T13:17:41.295353</dc:date>
    <dc:format>image/svg+xml</dc:format>
    <dc:creator>
     <cc:Agent>
      <dc:title>Matplotlib v3.7.2, https://matplotlib.org/</dc:title>
     </cc:Agent>
    </dc:creator>
   </cc:Work>
  </rdf:RDF>
 </metadata>
 <defs>
  <style type="text/css">*{stroke-linejoin: round; stroke-linecap: butt}</style>
 </defs>
 <g id="figure_1">
  <g id="patch_1">
   <path d="M 0 576 
L 864 576 
L 864 0 
L 0 0 
z
" style="fill: #ffffff"/>
  </g>
  <g id="axes_1">
   <g id="patch_2">
    <path d="M 28.18024 265.31351 
L 274.990073 265.31351 
L 274.990073 4.768673 
L 28.18024 4.768673 
z
" style="fill: #ffffff"/>
   </g>
   <g id="matplotlib.axis_1">
    <g id="xtick_1">
     <g id="line2d_1">
      <defs>
       <path id="m17bfece2dc" d="M 0 0 
L 0 5 
" style="stroke: #000000; stroke-width: 1.6"/>
      </defs>
      <g>
       <use xlink:href="#m17bfece2dc" x="28.18024" y="265.31351" style="stroke: #000000; stroke-width: 1.6"/>
      </g>
     </g>
     <g id="text_1">
      <!-- 0 -->
      <g transform="translate(24.843677 282.50976) scale(0.12 -0.12)">
       <defs>
        <path id="LiberationSans-30" d="M 3309 2203 
Q 3309 1569 3189 1136 
Q 3069 703 2861 436 
Q 2653 169 2372 53 
Q 2091 -63 1772 -63 
Q 1450 -63 1172 53 
Q 894 169 689 434 
Q 484 700 367 1133 
Q 250 1566 250 2203 
Q 250 2869 367 3305 
Q 484 3741 690 4000 
Q 897 4259 1178 4364 
Q 1459 4469 1791 4469 
Q 2106 4469 2382 4364 
Q 2659 4259 2865 4000 
Q 3072 3741 3190 3305 
Q 3309 2869 3309 2203 
z
M 2738 2203 
Q 2738 2728 2675 3076 
Q 2613 3425 2491 3633 
Q 2369 3841 2192 3927 
Q 2016 4013 1791 4013 
Q 1553 4013 1372 3925 
Q 1191 3838 1067 3630 
Q 944 3422 881 3073 
Q 819 2725 819 2203 
Q 819 1697 883 1350 
Q 947 1003 1070 792 
Q 1194 581 1372 489 
Q 1550 397 1778 397 
Q 2000 397 2178 489 
Q 2356 581 2479 792 
Q 2603 1003 2670 1350 
Q 2738 1697 2738 2203 
z
" transform="scale(0.015625)"/>
       </defs>
       <use xlink:href="#LiberationSans-30"/>
      </g>
     </g>
    </g>
    <g id="xtick_2">
     <g id="line2d_2">
      <g>
       <use xlink:href="#m17bfece2dc" x="151.585156" y="265.31351" style="stroke: #000000; stroke-width: 1.6"/>
      </g>
     </g>
     <g id="text_2">
      <!-- 100 -->
      <g transform="translate(141.575469 282.50976) scale(0.12 -0.12)">
       <defs>
        <path id="LiberationSans-31" d="M 488 0 
L 488 478 
L 1609 478 
L 1609 3866 
L 616 3156 
L 616 3688 
L 1656 4403 
L 2175 4403 
L 2175 478 
L 3247 478 
L 3247 0 
L 488 0 
z
" transform="scale(0.015625)"/>
       </defs>
       <use xlink:href="#LiberationSans-31"/>
       <use xlink:href="#LiberationSans-30" x="55.615234"/>
       <use xlink:href="#LiberationSans-30" x="111.230469"/>
      </g>
     </g>
    </g>
    <g id="xtick_3">
     <g id="line2d_3">
      <g>
       <use xlink:href="#m17bfece2dc" x="274.990073" y="265.31351" style="stroke: #000000; stroke-width: 1.6"/>
      </g>
     </g>
     <g id="text_3">
      <!-- 200 -->
      <g transform="translate(264.980385 282.50976) scale(0.12 -0.12)">
       <defs>
        <path id="LiberationSans-32" d="M 322 0 
L 322 397 
Q 481 763 711 1042 
Q 941 1322 1194 1548 
Q 1447 1775 1695 1969 
Q 1944 2163 2144 2356 
Q 2344 2550 2467 2762 
Q 2591 2975 2591 3244 
Q 2591 3431 2534 3573 
Q 2478 3716 2372 3812 
Q 2266 3909 2117 3957 
Q 1969 4006 1788 4006 
Q 1619 4006 1470 3959 
Q 1322 3913 1206 3819 
Q 1091 3725 1017 3586 
Q 944 3447 922 3263 
L 347 3316 
Q 375 3553 478 3762 
Q 581 3972 762 4130 
Q 944 4288 1198 4378 
Q 1453 4469 1788 4469 
Q 2116 4469 2372 4391 
Q 2628 4313 2804 4159 
Q 2981 4006 3075 3781 
Q 3169 3556 3169 3263 
Q 3169 3041 3089 2841 
Q 3009 2641 2876 2459 
Q 2744 2278 2569 2109 
Q 2394 1941 2203 1780 
Q 2013 1619 1819 1461 
Q 1625 1303 1454 1143 
Q 1284 984 1150 820 
Q 1016 656 941 478 
L 3238 478 
L 3238 0 
L 322 0 
z
" transform="scale(0.015625)"/>
       </defs>
       <use xlink:href="#LiberationSans-32"/>
       <use xlink:href="#LiberationSans-30" x="55.615234"/>
       <use xlink:href="#LiberationSans-30" x="111.230469"/>
      </g>
     </g>
    </g>
   </g>
   <g id="matplotlib.axis_2">
    <g id="ytick_1">
     <g id="line2d_4">
      <defs>
       <path id="mec2ff83325" d="M 0 0 
L -5 0 
" style="stroke: #000000; stroke-width: 1.6"/>
      </defs>
      <g>
       <use xlink:href="#mec2ff83325" x="28.18024" y="265.31351" style="stroke: #000000; stroke-width: 1.6"/>
      </g>
     </g>
     <g id="text_4">
      <!-- 0.0 -->
      <g transform="translate(3.00024 269.661635) scale(0.12 -0.12)">
       <defs>
        <path id="LiberationSans-2e" d="M 584 0 
L 584 684 
L 1194 684 
L 1194 0 
L 584 0 
z
" transform="scale(0.015625)"/>
       </defs>
       <use xlink:href="#LiberationSans-30"/>
       <use xlink:href="#LiberationSans-2e" x="55.615234"/>
       <use xlink:href="#LiberationSans-30" x="83.398438"/>
      </g>
     </g>
    </g>
    <g id="ytick_2">
     <g id="line2d_5">
      <g>
       <use xlink:href="#mec2ff83325" x="28.18024" y="136.330917" style="stroke: #000000; stroke-width: 1.6"/>
      </g>
     </g>
     <g id="text_5">
      <!-- 0.5 -->
      <g transform="translate(3.00024 140.679042) scale(0.12 -0.12)">
       <defs>
        <path id="LiberationSans-35" d="M 3291 1434 
Q 3291 1103 3191 828 
Q 3091 553 2894 354 
Q 2697 156 2405 46 
Q 2113 -63 1728 -63 
Q 1381 -63 1123 18 
Q 866 100 687 242 
Q 509 384 404 575 
Q 300 766 256 984 
L 825 1050 
Q 859 925 921 808 
Q 984 691 1092 598 
Q 1200 506 1358 451 
Q 1516 397 1741 397 
Q 1959 397 2137 464 
Q 2316 531 2442 662 
Q 2569 794 2637 984 
Q 2706 1175 2706 1422 
Q 2706 1625 2640 1795 
Q 2575 1966 2453 2089 
Q 2331 2213 2154 2281 
Q 1978 2350 1753 2350 
Q 1613 2350 1494 2325 
Q 1375 2300 1273 2256 
Q 1172 2213 1089 2155 
Q 1006 2097 934 2034 
L 384 2034 
L 531 4403 
L 3034 4403 
L 3034 3925 
L 1044 3925 
L 959 2528 
Q 1109 2644 1334 2726 
Q 1559 2809 1869 2809 
Q 2197 2809 2459 2709 
Q 2722 2609 2906 2426 
Q 3091 2244 3191 1991 
Q 3291 1738 3291 1434 
z
" transform="scale(0.015625)"/>
       </defs>
       <use xlink:href="#LiberationSans-30"/>
       <use xlink:href="#LiberationSans-2e" x="55.615234"/>
       <use xlink:href="#LiberationSans-35" x="83.398438"/>
      </g>
     </g>
    </g>
    <g id="ytick_3">
     <g id="line2d_6">
      <g>
       <use xlink:href="#mec2ff83325" x="28.18024" y="7.348324" style="stroke: #000000; stroke-width: 1.6"/>
      </g>
     </g>
     <g id="text_6">
      <!-- 1.0 -->
      <g transform="translate(3.00024 11.696449) scale(0.12 -0.12)">
       <use xlink:href="#LiberationSans-31"/>
       <use xlink:href="#LiberationSans-2e" x="55.615234"/>
       <use xlink:href="#LiberationSans-30" x="83.398438"/>
      </g>
     </g>
    </g>
   </g>
   <g id="line2d_7">
    <path d="M 28.18024 212.090291 
L 29.42049 162.365913 
L 30.660741 121.813559 
L 31.900991 92.91758 
L 33.141242 74.864138 
L 34.381492 64.841988 
L 35.621742 59.660304 
L 36.861993 56.812604 
L 39.342494 52.954423 
L 41.822995 49.541101 
L 43.063245 48.226419 
L 44.303495 47.274925 
L 45.543746 46.630779 
L 49.264497 45.196879 
L 51.744998 43.729753 
L 54.225499 42.124381 
L 55.465749 41.497779 
L 56.706 41.03834 
L 61.667001 39.733149 
L 64.147502 38.585702 
L 66.628003 37.33717 
L 67.868253 36.854185 
L 70.348754 36.248765 
L 72.829255 35.796953 
L 75.309756 35.065327 
L 79.030507 33.606865 
L 81.511008 32.959532 
L 86.472009 32.047941 
L 88.95251 31.186699 
L 91.433011 30.27004 
L 93.913512 29.660833 
L 97.634263 29.035393 
L 100.114764 28.272935 
L 103.835515 26.781539 
L 106.316016 26.130891 
L 110.036767 25.434288 
L 112.517268 24.566234 
L 116.238019 22.892753 
L 118.71852 22.180187 
L 122.439272 21.487905 
L 124.919772 20.683213 
L 128.640524 19.163354 
L 131.121024 18.538868 
L 137.322276 17.619683 
L 141.043028 16.804242 
L 143.523529 16.464433 
L 147.24428 16.102588 
L 149.724781 15.661181 
L 153.445532 14.84963 
L 155.926033 14.521309 
L 160.887034 14.077968 
L 168.328537 13.071501 
L 174.529789 12.601798 
L 179.490791 12.059402 
L 186.932293 11.566931 
L 191.893295 11.073806 
L 209.256801 10.079236 
L 212.977552 9.636217 
L 216.698303 9.232756 
L 221.659305 9.052448 
L 247.704563 8.138384 
L 255.146066 7.720183 
L 274.990073 7.348324 
L 274.990073 7.348324 
" clip-path="url(#pcdf8173b0d)" style="fill: none; stroke: #56b4e9; stroke-width: 2.5; stroke-linecap: square"/>
   </g>
   <g id="line2d_8">
    <path d="M 28.18024 198.181511 
L 29.42049 137.343651 
L 30.660741 92.062275 
L 31.900991 64.374934 
L 33.141242 50.441108 
L 34.381492 44.59363 
L 35.621742 42.36615 
L 39.342494 38.964836 
L 41.822995 36.41916 
L 43.063245 35.531643 
L 44.303495 34.988214 
L 46.783996 34.512376 
L 48.024247 34.298097 
L 49.264497 33.940748 
L 50.504747 33.381349 
L 54.225499 31.14689 
L 55.465749 30.630894 
L 56.706 30.317763 
L 62.907252 29.375197 
L 66.628003 28.085692 
L 67.868253 27.793578 
L 70.348754 27.521547 
L 74.069505 27.217976 
L 76.550006 26.689179 
L 79.030507 26.098047 
L 81.511008 25.778316 
L 85.231759 25.486619 
L 86.472009 25.237876 
L 88.95251 24.361277 
L 91.433011 23.398818 
L 92.673262 23.081535 
L 95.153762 22.781346 
L 97.634263 22.532936 
L 98.874514 22.264975 
L 101.355014 21.337844 
L 103.835515 20.338998 
L 105.075766 20.014555 
L 107.556267 19.70961 
L 110.036767 19.449326 
L 111.277018 19.168932 
L 113.757519 18.212854 
L 116.238019 17.201936 
L 117.47827 16.878738 
L 119.958771 16.583047 
L 122.439272 16.36157 
L 123.679522 16.132306 
L 126.160023 15.363631 
L 128.640524 14.5661 
L 131.121024 14.170332 
L 136.082026 13.822535 
L 143.523529 12.717654 
L 147.24428 12.533673 
L 149.724781 12.17085 
L 153.445532 11.428919 
L 155.926033 11.199656 
L 162.127285 10.877863 
L 167.088286 10.413256 
L 175.770039 10.034276 
L 179.490791 9.794334 
L 189.412794 9.450631 
L 194.373796 9.316324 
L 198.094547 9.183117 
L 205.536049 8.678136 
L 212.977552 8.467159 
L 217.938553 8.314819 
L 226.620306 8.146798 
L 258.866817 7.512688 
L 274.990073 7.348324 
L 274.990073 7.348324 
" clip-path="url(#pcdf8173b0d)" style="fill: none; stroke: #808080; stroke-width: 2.5; stroke-linecap: square"/>
   </g>
   <g id="patch_3">
    <path d="M 28.18024 265.31351 
L 28.18024 4.768673 
" style="fill: none; stroke: #000000; stroke-width: 1.6; stroke-linejoin: miter; stroke-linecap: square"/>
   </g>
   <g id="patch_4">
    <path d="M 28.18024 265.31351 
L 274.990073 265.31351 
" style="fill: none; stroke: #000000; stroke-width: 1.6; stroke-linejoin: miter; stroke-linecap: square"/>
   </g>
  </g>
  <g id="axes_2">
   <g id="patch_5">
    <path d="M 316.18024 265.31351 
L 562.990073 265.31351 
L 562.990073 4.768673 
L 316.18024 4.768673 
z
" style="fill: #ffffff"/>
   </g>
   <g id="matplotlib.axis_3">
    <g id="xtick_4">
     <g id="line2d_9">
      <g>
       <use xlink:href="#m17bfece2dc" x="316.18024" y="265.31351" style="stroke: #000000; stroke-width: 1.6"/>
      </g>
     </g>
     <g id="text_7">
      <!-- 0 -->
      <g transform="translate(312.843678 282.50976) scale(0.12 -0.12)">
       <use xlink:href="#LiberationSans-30"/>
      </g>
     </g>
    </g>
    <g id="xtick_5">
     <g id="line2d_10">
      <g>
       <use xlink:href="#m17bfece2dc" x="439.585156" y="265.31351" style="stroke: #000000; stroke-width: 1.6"/>
      </g>
     </g>
     <g id="text_8">
      <!-- 100 -->
      <g transform="translate(429.575469 282.50976) scale(0.12 -0.12)">
       <use xlink:href="#LiberationSans-31"/>
       <use xlink:href="#LiberationSans-30" x="55.615234"/>
       <use xlink:href="#LiberationSans-30" x="111.230469"/>
      </g>
     </g>
    </g>
    <g id="xtick_6">
     <g id="line2d_11">
      <g>
       <use xlink:href="#m17bfece2dc" x="562.990073" y="265.31351" style="stroke: #000000; stroke-width: 1.6"/>
      </g>
     </g>
     <g id="text_9">
      <!-- 200 -->
      <g transform="translate(552.980385 282.50976) scale(0.12 -0.12)">
       <use xlink:href="#LiberationSans-32"/>
       <use xlink:href="#LiberationSans-30" x="55.615234"/>
       <use xlink:href="#LiberationSans-30" x="111.230469"/>
      </g>
     </g>
    </g>
   </g>
   <g id="matplotlib.axis_4">
    <g id="ytick_4">
     <g id="line2d_12">
      <g>
       <use xlink:href="#mec2ff83325" x="316.18024" y="265.31351" style="stroke: #000000; stroke-width: 1.6"/>
      </g>
     </g>
     <g id="text_10">
      <!-- 0.0 -->
      <g transform="translate(291.00024 269.661635) scale(0.12 -0.12)">
       <use xlink:href="#LiberationSans-30"/>
       <use xlink:href="#LiberationSans-2e" x="55.615234"/>
       <use xlink:href="#LiberationSans-30" x="83.398438"/>
      </g>
     </g>
    </g>
    <g id="ytick_5">
     <g id="line2d_13">
      <g>
       <use xlink:href="#mec2ff83325" x="316.18024" y="136.330917" style="stroke: #000000; stroke-width: 1.6"/>
      </g>
     </g>
     <g id="text_11">
      <!-- 0.5 -->
      <g transform="translate(291.00024 140.679042) scale(0.12 -0.12)">
       <use xlink:href="#LiberationSans-30"/>
       <use xlink:href="#LiberationSans-2e" x="55.615234"/>
       <use xlink:href="#LiberationSans-35" x="83.398438"/>
      </g>
     </g>
    </g>
    <g id="ytick_6">
     <g id="line2d_14">
      <g>
       <use xlink:href="#mec2ff83325" x="316.18024" y="7.348324" style="stroke: #000000; stroke-width: 1.6"/>
      </g>
     </g>
     <g id="text_12">
      <!-- 1.0 -->
      <g transform="translate(291.00024 11.696449) scale(0.12 -0.12)">
       <use xlink:href="#LiberationSans-31"/>
       <use xlink:href="#LiberationSans-2e" x="55.615234"/>
       <use xlink:href="#LiberationSans-30" x="83.398438"/>
      </g>
     </g>
    </g>
   </g>
   <g id="line2d_15">
    <path d="M 316.18024 212.090291 
L 317.42049 162.365913 
L 318.660741 121.813559 
L 319.900991 92.91758 
L 321.141242 74.864138 
L 322.381492 64.841988 
L 323.621742 59.660304 
L 324.861993 56.812604 
L 327.342494 52.954423 
L 329.822995 49.541101 
L 331.063245 48.226419 
L 332.303495 47.274925 
L 333.543746 46.630779 
L 337.264497 45.196879 
L 339.744998 43.729753 
L 342.225499 42.124381 
L 343.465749 41.497779 
L 344.706 41.03834 
L 349.667001 39.733149 
L 352.147502 38.585702 
L 354.628003 37.33717 
L 355.868253 36.854185 
L 358.348754 36.248765 
L 360.829255 35.796953 
L 363.309756 35.065327 
L 367.030507 33.606865 
L 369.511008 32.959532 
L 374.472009 32.047941 
L 376.95251 31.186699 
L 379.433011 30.27004 
L 381.913512 29.660833 
L 385.634263 29.035393 
L 388.114764 28.272935 
L 391.835515 26.781539 
L 394.316016 26.130891 
L 398.036767 25.434288 
L 400.517268 24.566234 
L 404.238019 22.892753 
L 406.71852 22.180187 
L 410.439272 21.487905 
L 412.919772 20.683213 
L 416.640524 19.163354 
L 419.121024 18.538868 
L 425.322276 17.619683 
L 429.043028 16.804242 
L 431.523529 16.464433 
L 435.24428 16.102588 
L 437.724781 15.661181 
L 441.445532 14.84963 
L 443.926033 14.521309 
L 448.887034 14.077968 
L 456.328537 13.071501 
L 462.529789 12.601798 
L 467.490791 12.059402 
L 474.932293 11.566931 
L 479.893295 11.073806 
L 497.256801 10.079236 
L 500.977552 9.636217 
L 504.698303 9.232756 
L 509.659305 9.052448 
L 535.704563 8.138384 
L 543.146066 7.720183 
L 562.990073 7.348324 
L 562.990073 7.348324 
" clip-path="url(#p3eb1a3e305)" style="fill: none; stroke: #56b4e9; stroke-width: 2.5; stroke-linecap: square"/>
   </g>
   <g id="line2d_16">
    <path d="M 316.18024 213.512804 
L 317.42049 165.10341 
L 318.660741 125.588761 
L 319.900991 97.387759 
L 321.141242 79.721407 
L 322.381492 69.863654 
L 323.621742 64.707121 
L 324.861993 61.802094 
L 327.342494 57.70009 
L 329.822995 54.003601 
L 331.063245 52.573207 
L 332.303495 51.529165 
L 333.543746 50.804523 
L 336.024247 49.683078 
L 337.264497 48.971994 
L 338.504747 48.053284 
L 342.225499 44.759501 
L 343.465749 43.901755 
L 344.706 43.280114 
L 347.1865 42.533153 
L 349.667001 41.82401 
L 352.147502 40.732142 
L 354.628003 39.550709 
L 355.868253 39.094451 
L 358.348754 38.532087 
L 362.069505 37.904854 
L 364.550006 37.206778 
L 367.030507 36.456012 
L 369.511008 35.93627 
L 371.991509 35.535993 
L 373.231759 35.245026 
L 374.472009 34.826018 
L 376.95251 33.612539 
L 379.433011 32.316954 
L 380.673262 31.821012 
L 383.153762 31.171879 
L 385.634263 30.560949 
L 386.874514 30.09018 
L 389.355014 28.756349 
L 391.835515 27.354484 
L 393.075766 26.825184 
L 395.556267 26.154375 
L 398.036767 25.584779 
L 399.277018 25.164969 
L 401.757519 23.994659 
L 404.238019 22.782075 
L 405.47827 22.329247 
L 407.958771 21.763107 
L 410.439272 21.297031 
L 412.919772 20.526367 
L 416.640524 19.077045 
L 419.121024 18.473522 
L 424.082026 17.694237 
L 431.523529 15.902086 
L 436.48453 15.321242 
L 443.926033 13.980359 
L 448.887034 13.509132 
L 456.328537 12.403743 
L 462.529789 11.901407 
L 467.490791 11.327986 
L 476.172543 10.727294 
L 479.893295 10.405723 
L 488.575048 9.890667 
L 492.295799 9.613171 
L 531.983812 8.080566 
L 539.425315 7.842688 
L 553.068069 7.503655 
L 562.990073 7.348324 
L 562.990073 7.348324 
" clip-path="url(#p3eb1a3e305)" style="fill: none; stroke: #808080; stroke-width: 2.5; stroke-linecap: square"/>
   </g>
   <g id="patch_6">
    <path d="M 316.18024 265.31351 
L 316.18024 4.768673 
" style="fill: none; stroke: #000000; stroke-width: 1.6; stroke-linejoin: miter; stroke-linecap: square"/>
   </g>
   <g id="patch_7">
    <path d="M 316.18024 265.31351 
L 562.990073 265.31351 
" style="fill: none; stroke: #000000; stroke-width: 1.6; stroke-linejoin: miter; stroke-linecap: square"/>
   </g>
  </g>
  <g id="axes_3">
   <g id="patch_8">
    <path d="M 604.18024 265.31351 
L 850.990072 265.31351 
L 850.990072 4.768673 
L 604.18024 4.768673 
z
" style="fill: #ffffff"/>
   </g>
   <g id="matplotlib.axis_5">
    <g id="xtick_7">
     <g id="line2d_17">
      <g>
       <use xlink:href="#m17bfece2dc" x="604.18024" y="265.31351" style="stroke: #000000; stroke-width: 1.6"/>
      </g>
     </g>
     <g id="text_13">
      <!-- 0 -->
      <g transform="translate(600.843678 282.50976) scale(0.12 -0.12)">
       <use xlink:href="#LiberationSans-30"/>
      </g>
     </g>
    </g>
    <g id="xtick_8">
     <g id="line2d_18">
      <g>
       <use xlink:href="#m17bfece2dc" x="727.585156" y="265.31351" style="stroke: #000000; stroke-width: 1.6"/>
      </g>
     </g>
     <g id="text_14">
      <!-- 100 -->
      <g transform="translate(717.575469 282.50976) scale(0.12 -0.12)">
       <use xlink:href="#LiberationSans-31"/>
       <use xlink:href="#LiberationSans-30" x="55.615234"/>
       <use xlink:href="#LiberationSans-30" x="111.230469"/>
      </g>
     </g>
    </g>
    <g id="xtick_9">
     <g id="line2d_19">
      <g>
       <use xlink:href="#m17bfece2dc" x="850.990072" y="265.31351" style="stroke: #000000; stroke-width: 1.6"/>
      </g>
     </g>
     <g id="text_15">
      <!-- 200 -->
      <g transform="translate(840.980385 282.50976) scale(0.12 -0.12)">
       <use xlink:href="#LiberationSans-32"/>
       <use xlink:href="#LiberationSans-30" x="55.615234"/>
       <use xlink:href="#LiberationSans-30" x="111.230469"/>
      </g>
     </g>
    </g>
   </g>
   <g id="matplotlib.axis_6">
    <g id="ytick_7">
     <g id="line2d_20">
      <g>
       <use xlink:href="#mec2ff83325" x="604.18024" y="265.31351" style="stroke: #000000; stroke-width: 1.6"/>
      </g>
     </g>
     <g id="text_16">
      <!-- 0.0 -->
      <g transform="translate(579.00024 269.661635) scale(0.12 -0.12)">
       <use xlink:href="#LiberationSans-30"/>
       <use xlink:href="#LiberationSans-2e" x="55.615234"/>
       <use xlink:href="#LiberationSans-30" x="83.398438"/>
      </g>
     </g>
    </g>
    <g id="ytick_8">
     <g id="line2d_21">
      <g>
       <use xlink:href="#mec2ff83325" x="604.18024" y="136.330917" style="stroke: #000000; stroke-width: 1.6"/>
      </g>
     </g>
     <g id="text_17">
      <!-- 0.5 -->
      <g transform="translate(579.00024 140.679042) scale(0.12 -0.12)">
       <use xlink:href="#LiberationSans-30"/>
       <use xlink:href="#LiberationSans-2e" x="55.615234"/>
       <use xlink:href="#LiberationSans-35" x="83.398438"/>
      </g>
     </g>
    </g>
    <g id="ytick_9">
     <g id="line2d_22">
      <g>
       <use xlink:href="#mec2ff83325" x="604.18024" y="7.348324" style="stroke: #000000; stroke-width: 1.6"/>
      </g>
     </g>
     <g id="text_18">
      <!-- 1.0 -->
      <g transform="translate(579.00024 11.696449) scale(0.12 -0.12)">
       <use xlink:href="#LiberationSans-31"/>
       <use xlink:href="#LiberationSans-2e" x="55.615234"/>
       <use xlink:href="#LiberationSans-30" x="83.398438"/>
      </g>
     </g>
    </g>
   </g>
   <g id="line2d_23">
    <path d="M 604.18024 212.090291 
L 605.42049 162.365913 
L 606.660741 121.813559 
L 607.900991 92.91758 
L 609.141242 74.864138 
L 610.381492 64.841988 
L 611.621742 59.660304 
L 612.861993 56.812604 
L 615.342494 52.954423 
L 617.822995 49.541101 
L 619.063245 48.226419 
L 620.303495 47.274925 
L 621.543746 46.630779 
L 625.264497 45.196879 
L 627.744998 43.729753 
L 630.225499 42.124381 
L 631.465749 41.497779 
L 632.706 41.03834 
L 637.667001 39.733149 
L 640.147502 38.585702 
L 642.628003 37.33717 
L 643.868253 36.854185 
L 646.348754 36.248765 
L 648.829255 35.796953 
L 651.309756 35.065327 
L 655.030507 33.606865 
L 657.511008 32.959532 
L 662.472009 32.047941 
L 664.95251 31.186699 
L 667.433011 30.27004 
L 669.913512 29.660833 
L 673.634263 29.035393 
L 676.114764 28.272935 
L 679.835515 26.781539 
L 682.316016 26.130891 
L 686.036767 25.434288 
L 688.517268 24.566234 
L 692.238019 22.892753 
L 694.71852 22.180187 
L 698.439272 21.487905 
L 700.919772 20.683213 
L 704.640524 19.163354 
L 707.121024 18.538868 
L 713.322276 17.619683 
L 717.043028 16.804242 
L 719.523529 16.464433 
L 723.24428 16.102588 
L 725.724781 15.661181 
L 729.445532 14.84963 
L 731.926033 14.521309 
L 736.887034 14.077968 
L 744.328537 13.071501 
L 750.529789 12.601798 
L 755.490791 12.059402 
L 762.932293 11.566931 
L 767.893295 11.073806 
L 785.256801 10.079236 
L 788.977552 9.636217 
L 792.698303 9.232756 
L 797.659305 9.052448 
L 823.704563 8.138384 
L 831.146066 7.720183 
L 850.990072 7.348324 
L 850.990072 7.348324 
" clip-path="url(#p3ee5b953c2)" style="fill: none; stroke: #56b4e9; stroke-width: 2.5; stroke-linecap: square"/>
   </g>
   <g id="line2d_24">
    <path d="M 604.18024 216.884769 
L 605.42049 171.309466 
L 606.660741 133.321875 
L 607.900991 105.245002 
L 609.141242 86.771586 
L 610.381492 75.812385 
L 611.621742 69.717128 
L 612.861993 66.212072 
L 614.102243 63.802812 
L 616.582744 59.835813 
L 617.822995 58.112352 
L 619.063245 56.686409 
L 620.303495 55.603748 
L 621.543746 54.811594 
L 625.264497 52.832455 
L 626.504747 51.935424 
L 630.225499 48.816638 
L 631.465749 47.98069 
L 632.706 47.346905 
L 635.1865 46.515785 
L 637.667001 45.724641 
L 640.147502 44.599485 
L 642.628003 43.399083 
L 645.108504 42.556562 
L 651.309756 41.195859 
L 656.270757 39.670796 
L 661.231759 38.580195 
L 662.472009 38.121893 
L 664.95251 36.856748 
L 667.433011 35.514507 
L 669.913512 34.565085 
L 673.634263 33.512451 
L 674.874514 33.002376 
L 677.355014 31.628011 
L 679.835515 30.192733 
L 681.075766 29.629546 
L 683.556267 28.857508 
L 686.036767 28.175331 
L 688.517268 27.124472 
L 692.238019 25.181696 
L 694.71852 24.305222 
L 699.679522 23.045442 
L 702.160023 22.023792 
L 704.640524 20.983864 
L 707.121024 20.281845 
L 712.082026 19.303757 
L 718.283278 17.453145 
L 720.763779 17.057915 
L 724.48453 16.505234 
L 731.926033 14.990691 
L 736.887034 14.403473 
L 744.328537 13.135818 
L 750.529789 12.52419 
L 755.490791 11.873977 
L 765.412794 11.022164 
L 769.133545 10.7262 
L 775.334797 10.337573 
L 780.295799 9.921561 
L 810.061809 8.581254 
L 832.386316 7.765644 
L 850.990072 7.348324 
L 850.990072 7.348324 
" clip-path="url(#p3ee5b953c2)" style="fill: none; stroke: #808080; stroke-width: 2.5; stroke-linecap: square"/>
   </g>
   <g id="patch_9">
    <path d="M 604.18024 265.31351 
L 604.18024 4.768673 
" style="fill: none; stroke: #000000; stroke-width: 1.6; stroke-linejoin: miter; stroke-linecap: square"/>
   </g>
   <g id="patch_10">
    <path d="M 604.18024 265.31351 
L 850.990072 265.31351 
" style="fill: none; stroke: #000000; stroke-width: 1.6; stroke-linejoin: miter; stroke-linecap: square"/>
   </g>
  </g>
  <g id="axes_4">
   <g id="patch_11">
    <path d="M 28.18024 553.31351 
L 274.990073 553.31351 
L 274.990073 292.768673 
L 28.18024 292.768673 
z
" style="fill: #ffffff"/>
   </g>
   <g id="matplotlib.axis_7">
    <g id="xtick_10">
     <g id="line2d_25">
      <g>
       <use xlink:href="#m17bfece2dc" x="28.18024" y="553.31351" style="stroke: #000000; stroke-width: 1.6"/>
      </g>
     </g>
     <g id="text_19">
      <!-- 0 -->
      <g transform="translate(24.843677 570.50976) scale(0.12 -0.12)">
       <use xlink:href="#LiberationSans-30"/>
      </g>
     </g>
    </g>
    <g id="xtick_11">
     <g id="line2d_26">
      <g>
       <use xlink:href="#m17bfece2dc" x="151.585156" y="553.31351" style="stroke: #000000; stroke-width: 1.6"/>
      </g>
     </g>
     <g id="text_20">
      <!-- 100 -->
      <g transform="translate(141.575469 570.50976) scale(0.12 -0.12)">
       <use xlink:href="#LiberationSans-31"/>
       <use xlink:href="#LiberationSans-30" x="55.615234"/>
       <use xlink:href="#LiberationSans-30" x="111.230469"/>
      </g>
     </g>
    </g>
    <g id="xtick_12">
     <g id="line2d_27">
      <g>
       <use xlink:href="#m17bfece2dc" x="274.990073" y="553.31351" style="stroke: #000000; stroke-width: 1.6"/>
      </g>
     </g>
     <g id="text_21">
      <!-- 200 -->
      <g transform="translate(264.980385 570.50976) scale(0.12 -0.12)">
       <use xlink:href="#LiberationSans-32"/>
       <use xlink:href="#LiberationSans-30" x="55.615234"/>
       <use xlink:href="#LiberationSans-30" x="111.230469"/>
      </g>
     </g>
    </g>
   </g>
   <g id="matplotlib.axis_8">
    <g id="ytick_10">
     <g id="line2d_28">
      <g>
       <use xlink:href="#mec2ff83325" x="28.18024" y="553.31351" style="stroke: #000000; stroke-width: 1.6"/>
      </g>
     </g>
     <g id="text_22">
      <!-- 0.0 -->
      <g transform="translate(3.00024 557.661635) scale(0.12 -0.12)">
       <use xlink:href="#LiberationSans-30"/>
       <use xlink:href="#LiberationSans-2e" x="55.615234"/>
       <use xlink:href="#LiberationSans-30" x="83.398438"/>
      </g>
     </g>
    </g>
    <g id="ytick_11">
     <g id="line2d_29">
      <g>
       <use xlink:href="#mec2ff83325" x="28.18024" y="424.330917" style="stroke: #000000; stroke-width: 1.6"/>
      </g>
     </g>
     <g id="text_23">
      <!-- 0.5 -->
      <g transform="translate(3.00024 428.679042) scale(0.12 -0.12)">
       <use xlink:href="#LiberationSans-30"/>
       <use xlink:href="#LiberationSans-2e" x="55.615234"/>
       <use xlink:href="#LiberationSans-35" x="83.398438"/>
      </g>
     </g>
    </g>
    <g id="ytick_12">
     <g id="line2d_30">
      <g>
       <use xlink:href="#mec2ff83325" x="28.18024" y="295.348324" style="stroke: #000000; stroke-width: 1.6"/>
      </g>
     </g>
     <g id="text_24">
      <!-- 1.0 -->
      <g transform="translate(3.00024 299.696449) scale(0.12 -0.12)">
       <use xlink:href="#LiberationSans-31"/>
       <use xlink:href="#LiberationSans-2e" x="55.615234"/>
       <use xlink:href="#LiberationSans-30" x="83.398438"/>
      </g>
     </g>
    </g>
   </g>
   <g id="line2d_31">
    <path d="M 28.18024 528.252114 
L 30.660741 480.301631 
L 31.900991 459.024838 
L 33.141242 440.306388 
L 34.381492 424.414592 
L 35.621742 411.37853 
L 36.861993 401.027615 
L 38.102243 393.050514 
L 39.342494 387.059529 
L 40.582744 382.648511 
L 41.822995 379.436648 
L 43.063245 377.095382 
L 44.303495 375.359832 
L 45.543746 374.028553 
L 46.783996 372.95626 
L 49.264497 371.226125 
L 52.985248 369.047116 
L 56.706 367.128245 
L 60.426751 365.472984 
L 65.387752 363.576212 
L 70.348754 361.923389 
L 81.511008 358.371782 
L 85.231759 356.943024 
L 88.95251 355.291211 
L 95.153762 352.25744 
L 101.355014 348.991025 
L 123.679522 336.893488 
L 132.361275 332.535629 
L 142.283278 327.847664 
L 148.48453 325.229399 
L 157.166283 321.832955 
L 170.809038 316.735695 
L 179.490791 313.835216 
L 186.932293 311.619924 
L 194.373796 309.579759 
L 205.536049 306.793298 
L 216.698303 304.314752 
L 230.341058 301.572235 
L 242.743562 299.304932 
L 250.185064 298.250787 
L 260.107068 297.095452 
L 274.990073 295.348324 
L 274.990073 295.348324 
" clip-path="url(#p96fe0590a3)" style="fill: none; stroke: #d55e00; stroke-width: 2.5; stroke-linecap: square"/>
   </g>
   <g id="line2d_32">
    <path d="M 28.18024 510.303068 
L 29.42049 468.966296 
L 30.660741 432.28187 
L 31.900991 402.201633 
L 33.141242 379.380618 
L 34.381492 363.312859 
L 35.621742 352.745603 
L 36.861993 346.166318 
L 38.102243 342.188373 
L 39.342494 339.755691 
L 40.582744 338.179204 
L 41.822995 337.068438 
L 43.063245 336.226787 
L 45.543746 335.00339 
L 52.985248 331.963142 
L 55.465749 330.972514 
L 57.94625 330.212492 
L 70.348754 327.158239 
L 76.550006 326.01763 
L 82.751258 324.825263 
L 86.472009 324.017299 
L 102.595265 319.377177 
L 106.316016 318.258319 
L 111.277018 316.946721 
L 118.71852 314.591958 
L 126.160023 312.745601 
L 129.880774 311.761771 
L 144.763779 308.645521 
L 149.724781 307.743249 
L 154.685782 306.734719 
L 173.289539 303.803879 
L 180.731041 302.763688 
L 188.172543 301.9077 
L 193.133545 301.336299 
L 201.815298 300.443458 
L 208.01655 299.888736 
L 225.380056 298.326331 
L 231.581308 297.814671 
L 258.866817 296.143849 
L 274.990073 295.348324 
L 274.990073 295.348324 
" clip-path="url(#p96fe0590a3)" style="fill: none; stroke: #808080; stroke-width: 2.5; stroke-linecap: square"/>
   </g>
   <g id="patch_12">
    <path d="M 28.18024 553.31351 
L 28.18024 292.768673 
" style="fill: none; stroke: #000000; stroke-width: 1.6; stroke-linejoin: miter; stroke-linecap: square"/>
   </g>
   <g id="patch_13">
    <path d="M 28.18024 553.31351 
L 274.990073 553.31351 
" style="fill: none; stroke: #000000; stroke-width: 1.6; stroke-linejoin: miter; stroke-linecap: square"/>
   </g>
  </g>
  <g id="axes_5">
   <g id="patch_14">
    <path d="M 316.18024 553.31351 
L 562.990073 553.31351 
L 562.990073 292.768673 
L 316.18024 292.768673 
z
" style="fill: #ffffff"/>
   </g>
   <g id="matplotlib.axis_9">
    <g id="xtick_13">
     <g id="line2d_33">
      <g>
       <use xlink:href="#m17bfece2dc" x="316.18024" y="553.31351" style="stroke: #000000; stroke-width: 1.6"/>
      </g>
     </g>
     <g id="text_25">
      <!-- 0 -->
      <g transform="translate(312.843678 570.50976) scale(0.12 -0.12)">
       <use xlink:href="#LiberationSans-30"/>
      </g>
     </g>
    </g>
    <g id="xtick_14">
     <g id="line2d_34">
      <g>
       <use xlink:href="#m17bfece2dc" x="439.585156" y="553.31351" style="stroke: #000000; stroke-width: 1.6"/>
      </g>
     </g>
     <g id="text_26">
      <!-- 100 -->
      <g transform="translate(429.575469 570.50976) scale(0.12 -0.12)">
       <use xlink:href="#LiberationSans-31"/>
       <use xlink:href="#LiberationSans-30" x="55.615234"/>
       <use xlink:href="#LiberationSans-30" x="111.230469"/>
      </g>
     </g>
    </g>
    <g id="xtick_15">
     <g id="line2d_35">
      <g>
       <use xlink:href="#m17bfece2dc" x="562.990073" y="553.31351" style="stroke: #000000; stroke-width: 1.6"/>
      </g>
     </g>
     <g id="text_27">
      <!-- 200 -->
      <g transform="translate(552.980385 570.50976) scale(0.12 -0.12)">
       <use xlink:href="#LiberationSans-32"/>
       <use xlink:href="#LiberationSans-30" x="55.615234"/>
       <use xlink:href="#LiberationSans-30" x="111.230469"/>
      </g>
     </g>
    </g>
   </g>
   <g id="matplotlib.axis_10">
    <g id="ytick_13">
     <g id="line2d_36">
      <g>
       <use xlink:href="#mec2ff83325" x="316.18024" y="553.31351" style="stroke: #000000; stroke-width: 1.6"/>
      </g>
     </g>
     <g id="text_28">
      <!-- 0.0 -->
      <g transform="translate(291.00024 557.661635) scale(0.12 -0.12)">
       <use xlink:href="#LiberationSans-30"/>
       <use xlink:href="#LiberationSans-2e" x="55.615234"/>
       <use xlink:href="#LiberationSans-30" x="83.398438"/>
      </g>
     </g>
    </g>
    <g id="ytick_14">
     <g id="line2d_37">
      <g>
       <use xlink:href="#mec2ff83325" x="316.18024" y="424.330917" style="stroke: #000000; stroke-width: 1.6"/>
      </g>
     </g>
     <g id="text_29">
      <!-- 0.5 -->
      <g transform="translate(291.00024 428.679042) scale(0.12 -0.12)">
       <use xlink:href="#LiberationSans-30"/>
       <use xlink:href="#LiberationSans-2e" x="55.615234"/>
       <use xlink:href="#LiberationSans-35" x="83.398438"/>
      </g>
     </g>
    </g>
    <g id="ytick_15">
     <g id="line2d_38">
      <g>
       <use xlink:href="#mec2ff83325" x="316.18024" y="295.348324" style="stroke: #000000; stroke-width: 1.6"/>
      </g>
     </g>
     <g id="text_30">
      <!-- 1.0 -->
      <g transform="translate(291.00024 299.696449) scale(0.12 -0.12)">
       <use xlink:href="#LiberationSans-31"/>
       <use xlink:href="#LiberationSans-2e" x="55.615234"/>
       <use xlink:href="#LiberationSans-30" x="83.398438"/>
      </g>
     </g>
    </g>
   </g>
   <g id="line2d_39">
    <path d="M 316.18024 528.252114 
L 318.660741 480.301631 
L 319.900991 459.024838 
L 321.141242 440.306388 
L 322.381492 424.414592 
L 323.621742 411.37853 
L 324.861993 401.027615 
L 326.102243 393.050514 
L 327.342494 387.059529 
L 328.582744 382.648511 
L 329.822995 379.436648 
L 331.063245 377.095382 
L 332.303495 375.359832 
L 333.543746 374.028553 
L 334.783996 372.95626 
L 337.264497 371.226125 
L 340.985248 369.047116 
L 344.706 367.128245 
L 348.426751 365.472984 
L 353.387752 363.576212 
L 358.348754 361.923389 
L 369.511008 358.371782 
L 373.231759 356.943024 
L 376.95251 355.291211 
L 383.153762 352.25744 
L 389.355014 348.991025 
L 411.679522 336.893488 
L 420.361275 332.535629 
L 430.283278 327.847664 
L 436.48453 325.229399 
L 445.166283 321.832955 
L 458.809038 316.735695 
L 467.490791 313.835216 
L 474.932293 311.619924 
L 482.373796 309.579759 
L 493.536049 306.793298 
L 504.698303 304.314752 
L 518.341058 301.572235 
L 530.743562 299.304932 
L 538.185064 298.250787 
L 548.107068 297.095452 
L 562.990073 295.348324 
L 562.990073 295.348324 
" clip-path="url(#p4382a47e28)" style="fill: none; stroke: #d55e00; stroke-width: 2.5; stroke-linecap: square"/>
   </g>
   <g id="line2d_40">
    <path d="M 316.18024 505.753606 
L 317.42049 460.756059 
L 318.660741 422.646369 
L 319.900991 393.722118 
L 321.141242 373.983658 
L 322.381492 361.753095 
L 323.621742 354.680529 
L 324.861993 350.60158 
L 326.102243 347.979632 
L 327.342494 345.959839 
L 328.582744 344.202486 
L 329.822995 342.656181 
L 331.063245 341.366473 
L 332.303495 340.357096 
L 333.543746 339.584574 
L 337.264497 337.61122 
L 339.744998 335.81589 
L 342.225499 333.906826 
L 343.465749 333.123242 
L 344.706 332.509784 
L 347.1865 331.665712 
L 349.667001 330.892699 
L 352.147502 329.874811 
L 354.628003 328.804268 
L 357.108504 328.021179 
L 364.550006 326.310622 
L 368.270757 325.263047 
L 373.231759 324.209066 
L 375.71226 323.305316 
L 380.673262 321.145914 
L 383.153762 320.455916 
L 385.634263 319.791047 
L 388.114764 318.800588 
L 391.835515 316.988226 
L 394.316016 316.119607 
L 399.277018 314.821324 
L 402.997769 313.32433 
L 405.47827 312.444533 
L 407.958771 311.863203 
L 410.439272 311.337219 
L 412.919772 310.586513 
L 416.640524 309.253601 
L 419.121024 308.629573 
L 424.082026 307.696046 
L 431.523529 305.818266 
L 436.48453 305.089935 
L 443.926033 303.649606 
L 450.127285 302.872472 
L 455.088286 302.065063 
L 463.770039 301.07645 
L 467.490791 300.573451 
L 493.536049 298.349596 
L 499.737301 297.985074 
L 505.938553 297.560862 
L 513.380056 297.162557 
L 518.341058 296.892957 
L 527.02281 296.508061 
L 534.464313 296.259909 
L 555.54857 295.544277 
L 562.990073 295.348324 
L 562.990073 295.348324 
" clip-path="url(#p4382a47e28)" style="fill: none; stroke: #808080; stroke-width: 2.5; stroke-linecap: square"/>
   </g>
   <g id="patch_15">
    <path d="M 316.18024 553.31351 
L 316.18024 292.768673 
" style="fill: none; stroke: #000000; stroke-width: 1.6; stroke-linejoin: miter; stroke-linecap: square"/>
   </g>
   <g id="patch_16">
    <path d="M 316.18024 553.31351 
L 562.990073 553.31351 
" style="fill: none; stroke: #000000; stroke-width: 1.6; stroke-linejoin: miter; stroke-linecap: square"/>
   </g>
  </g>
  <g id="axes_6">
   <g id="patch_17">
    <path d="M 604.18024 553.31351 
L 850.990072 553.31351 
L 850.990072 292.768673 
L 604.18024 292.768673 
z
" style="fill: #ffffff"/>
   </g>
   <g id="matplotlib.axis_11">
    <g id="xtick_16">
     <g id="line2d_41">
      <g>
       <use xlink:href="#m17bfece2dc" x="604.18024" y="553.31351" style="stroke: #000000; stroke-width: 1.6"/>
      </g>
     </g>
     <g id="text_31">
      <!-- 0 -->
      <g transform="translate(600.843678 570.50976) scale(0.12 -0.12)">
       <use xlink:href="#LiberationSans-30"/>
      </g>
     </g>
    </g>
    <g id="xtick_17">
     <g id="line2d_42">
      <g>
       <use xlink:href="#m17bfece2dc" x="727.585156" y="553.31351" style="stroke: #000000; stroke-width: 1.6"/>
      </g>
     </g>
     <g id="text_32">
      <!-- 100 -->
      <g transform="translate(717.575469 570.50976) scale(0.12 -0.12)">
       <use xlink:href="#LiberationSans-31"/>
       <use xlink:href="#LiberationSans-30" x="55.615234"/>
       <use xlink:href="#LiberationSans-30" x="111.230469"/>
      </g>
     </g>
    </g>
    <g id="xtick_18">
     <g id="line2d_43">
      <g>
       <use xlink:href="#m17bfece2dc" x="850.990072" y="553.31351" style="stroke: #000000; stroke-width: 1.6"/>
      </g>
     </g>
     <g id="text_33">
      <!-- 200 -->
      <g transform="translate(840.980385 570.50976) scale(0.12 -0.12)">
       <use xlink:href="#LiberationSans-32"/>
       <use xlink:href="#LiberationSans-30" x="55.615234"/>
       <use xlink:href="#LiberationSans-30" x="111.230469"/>
      </g>
     </g>
    </g>
   </g>
   <g id="matplotlib.axis_12">
    <g id="ytick_16">
     <g id="line2d_44">
      <g>
       <use xlink:href="#mec2ff83325" x="604.18024" y="553.31351" style="stroke: #000000; stroke-width: 1.6"/>
      </g>
     </g>
     <g id="text_34">
      <!-- 0.0 -->
      <g transform="translate(579.00024 557.661635) scale(0.12 -0.12)">
       <use xlink:href="#LiberationSans-30"/>
       <use xlink:href="#LiberationSans-2e" x="55.615234"/>
       <use xlink:href="#LiberationSans-30" x="83.398438"/>
      </g>
     </g>
    </g>
    <g id="ytick_17">
     <g id="line2d_45">
      <g>
       <use xlink:href="#mec2ff83325" x="604.18024" y="424.330917" style="stroke: #000000; stroke-width: 1.6"/>
      </g>
     </g>
     <g id="text_35">
      <!-- 0.5 -->
      <g transform="translate(579.00024 428.679042) scale(0.12 -0.12)">
       <use xlink:href="#LiberationSans-30"/>
       <use xlink:href="#LiberationSans-2e" x="55.615234"/>
       <use xlink:href="#LiberationSans-35" x="83.398438"/>
      </g>
     </g>
    </g>
    <g id="ytick_18">
     <g id="line2d_46">
      <g>
       <use xlink:href="#mec2ff83325" x="604.18024" y="295.348324" style="stroke: #000000; stroke-width: 1.6"/>
      </g>
     </g>
     <g id="text_36">
      <!-- 1.0 -->
      <g transform="translate(579.00024 299.696449) scale(0.12 -0.12)">
       <use xlink:href="#LiberationSans-31"/>
       <use xlink:href="#LiberationSans-2e" x="55.615234"/>
       <use xlink:href="#LiberationSans-30" x="83.398438"/>
      </g>
     </g>
    </g>
   </g>
   <g id="line2d_47">
    <path d="M 604.18024 528.252114 
L 606.660741 480.301631 
L 607.900991 459.024838 
L 609.141242 440.306388 
L 610.381492 424.414592 
L 611.621742 411.37853 
L 612.861993 401.027615 
L 614.102243 393.050514 
L 615.342494 387.059529 
L 616.582744 382.648511 
L 617.822995 379.436648 
L 619.063245 377.095382 
L 620.303495 375.359832 
L 621.543746 374.028553 
L 622.783996 372.95626 
L 625.264497 371.226125 
L 628.985248 369.047116 
L 632.706 367.128245 
L 636.426751 365.472984 
L 641.387752 363.576212 
L 646.348754 361.923389 
L 657.511008 358.371782 
L 661.231759 356.943024 
L 664.95251 355.291211 
L 671.153762 352.25744 
L 677.355014 348.991025 
L 699.679522 336.893488 
L 708.361275 332.535629 
L 718.283278 327.847664 
L 724.48453 325.229399 
L 733.166283 321.832955 
L 746.809038 316.735695 
L 755.490791 313.835216 
L 762.932293 311.619924 
L 770.373796 309.579759 
L 781.536049 306.793298 
L 792.698303 304.314752 
L 806.341058 301.572235 
L 818.743562 299.304932 
L 826.185064 298.250787 
L 836.107068 297.095452 
L 850.990072 295.348324 
L 850.990072 295.348324 
" clip-path="url(#pa6f65df00d)" style="fill: none; stroke: #d55e00; stroke-width: 2.5; stroke-linecap: square"/>
   </g>
   <g id="line2d_48">
    <path d="M 604.18024 509.61728 
L 605.42049 467.942763 
L 606.660741 431.796003 
L 607.900991 403.250691 
L 609.141242 382.666481 
L 610.381492 369.012368 
L 611.621742 360.531221 
L 612.861993 355.402552 
L 614.102243 352.173325 
L 615.342494 349.905276 
L 616.582744 348.114412 
L 617.822995 346.616559 
L 619.063245 345.369541 
L 620.303495 344.360121 
L 622.783996 342.857802 
L 625.264497 341.49625 
L 627.744998 339.86228 
L 630.225499 338.170915 
L 632.706 336.857013 
L 635.1865 335.960862 
L 638.907252 334.660723 
L 643.868253 332.688969 
L 646.348754 332.02764 
L 651.309756 330.858278 
L 656.270757 329.429938 
L 661.231759 328.190813 
L 663.71226 327.213877 
L 668.673262 324.944766 
L 672.394013 323.752975 
L 674.874514 322.849291 
L 678.595265 321.031974 
L 681.075766 319.923259 
L 683.556267 319.109834 
L 687.277018 317.924203 
L 694.71852 314.948871 
L 699.679522 313.554482 
L 707.121024 310.916205 
L 713.322276 309.411431 
L 718.283278 307.969374 
L 722.004029 307.281753 
L 725.724781 306.518335 
L 730.685782 305.375733 
L 745.568787 302.981629 
L 750.529789 302.305951 
L 755.490791 301.514157 
L 771.614046 299.786858 
L 776.575048 299.296292 
L 781.536049 298.839911 
L 788.977552 298.282078 
L 793.938553 297.910723 
L 802.620306 297.359893 
L 808.821558 297.043104 
L 841.068069 295.634428 
L 850.990072 295.348324 
L 850.990072 295.348324 
" clip-path="url(#pa6f65df00d)" style="fill: none; stroke: #808080; stroke-width: 2.5; stroke-linecap: square"/>
   </g>
   <g id="patch_18">
    <path d="M 604.18024 553.31351 
L 604.18024 292.768673 
" style="fill: none; stroke: #000000; stroke-width: 1.6; stroke-linejoin: miter; stroke-linecap: square"/>
   </g>
   <g id="patch_19">
    <path d="M 604.18024 553.31351 
L 850.990072 553.31351 
" style="fill: none; stroke: #000000; stroke-width: 1.6; stroke-linejoin: miter; stroke-linecap: square"/>
   </g>
  </g>
  <g id="axes_7">
   <g id="patch_20">
    <path d="M 169.06614 237.269923 
L 267.790073 237.269923 
L 267.790073 146.07923 
L 169.06614 146.07923 
z
" style="fill: #ffffff"/>
   </g>
   <g id="matplotlib.axis_13">
    <g id="xtick_19">
     <g id="line2d_49">
      <g>
       <use xlink:href="#m17bfece2dc" x="169.06614" y="237.269923" style="stroke: #000000; stroke-width: 1.6"/>
      </g>
     </g>
     <g id="text_37">
      <!-- 0 -->
      <g transform="translate(165.729577 254.466173) scale(0.12 -0.12)">
       <use xlink:href="#LiberationSans-30"/>
      </g>
     </g>
    </g>
    <g id="xtick_20">
     <g id="line2d_50">
      <g>
       <use xlink:href="#m17bfece2dc" x="218.428106" y="237.269923" style="stroke: #000000; stroke-width: 1.6"/>
      </g>
     </g>
     <g id="text_38">
      <!-- 100 -->
      <g transform="translate(208.418419 254.466173) scale(0.12 -0.12)">
       <use xlink:href="#LiberationSans-31"/>
       <use xlink:href="#LiberationSans-30" x="55.615234"/>
       <use xlink:href="#LiberationSans-30" x="111.230469"/>
      </g>
     </g>
    </g>
    <g id="xtick_21">
     <g id="line2d_51">
      <g>
       <use xlink:href="#m17bfece2dc" x="267.790073" y="237.269923" style="stroke: #000000; stroke-width: 1.6"/>
      </g>
     </g>
     <g id="text_39">
      <!-- 200 -->
      <g transform="translate(257.780385 254.466173) scale(0.12 -0.12)">
       <use xlink:href="#LiberationSans-32"/>
       <use xlink:href="#LiberationSans-30" x="55.615234"/>
       <use xlink:href="#LiberationSans-30" x="111.230469"/>
      </g>
     </g>
    </g>
   </g>
   <g id="matplotlib.axis_14">
    <g id="ytick_19">
     <g id="line2d_52">
      <g>
       <use xlink:href="#mec2ff83325" x="169.06614" y="222.105113" style="stroke: #000000; stroke-width: 1.6"/>
      </g>
     </g>
     <g id="text_40">
      <!-- −0.10 -->
      <g transform="translate(130.204265 226.453238) scale(0.12 -0.12)">
       <defs>
        <path id="LiberationSans-2212" d="M 316 1900 
L 316 2356 
L 3425 2356 
L 3425 1900 
L 316 1900 
z
" transform="scale(0.015625)"/>
       </defs>
       <use xlink:href="#LiberationSans-2212"/>
       <use xlink:href="#LiberationSans-30" x="58.398438"/>
       <use xlink:href="#LiberationSans-2e" x="114.013672"/>
       <use xlink:href="#LiberationSans-31" x="141.796875"/>
       <use xlink:href="#LiberationSans-30" x="197.412109"/>
      </g>
     </g>
    </g>
    <g id="ytick_20">
     <g id="line2d_53">
      <g>
       <use xlink:href="#mec2ff83325" x="169.06614" y="186.164687" style="stroke: #000000; stroke-width: 1.6"/>
      </g>
     </g>
     <g id="text_41">
      <!-- −0.05 -->
      <g transform="translate(130.204265 190.512812) scale(0.12 -0.12)">
       <use xlink:href="#LiberationSans-2212"/>
       <use xlink:href="#LiberationSans-30" x="58.398438"/>
       <use xlink:href="#LiberationSans-2e" x="114.013672"/>
       <use xlink:href="#LiberationSans-30" x="141.796875"/>
       <use xlink:href="#LiberationSans-35" x="197.412109"/>
      </g>
     </g>
    </g>
    <g id="ytick_21">
     <g id="line2d_54">
      <g>
       <use xlink:href="#mec2ff83325" x="169.06614" y="150.224261" style="stroke: #000000; stroke-width: 1.6"/>
      </g>
     </g>
     <g id="text_42">
      <!-- 0.00 -->
      <g transform="translate(137.213015 154.572386) scale(0.12 -0.12)">
       <use xlink:href="#LiberationSans-30"/>
       <use xlink:href="#LiberationSans-2e" x="55.615234"/>
       <use xlink:href="#LiberationSans-30" x="83.398438"/>
       <use xlink:href="#LiberationSans-30" x="139.013672"/>
      </g>
     </g>
    </g>
   </g>
   <g id="line2d_55">
    <path d="M 169.06614 188.980459 
L 169.56224 219.947682 
L 170.05834 233.124891 
L 170.55444 229.757075 
L 171.54664 206.64541 
L 172.04274 198.413651 
L 172.538841 193.565858 
L 173.034941 190.857134 
L 173.531041 189.205623 
L 175.515442 184.460635 
L 176.507642 182.69036 
L 177.499842 181.588968 
L 177.995942 181.274457 
L 179.980343 180.504353 
L 181.468644 179.186624 
L 183.453044 177.081311 
L 185.933545 174.542266 
L 187.421846 173.244397 
L 190.398447 170.234401 
L 191.390647 169.585289 
L 192.382847 169.200203 
L 193.375048 169.242994 
L 194.367248 169.370614 
L 195.359448 169.087267 
L 197.343849 168.169554 
L 198.336049 168.141167 
L 199.32825 168.176114 
L 200.32045 167.805094 
L 202.800951 166.446273 
L 204.289251 166.08147 
L 205.281452 165.524792 
L 208.754153 163.32771 
L 211.730754 161.671302 
L 213.219054 161.240848 
L 214.707355 160.837533 
L 217.187856 160.038249 
L 220.660557 159.325837 
L 223.141058 158.446378 
L 225.621558 157.617937 
L 232.070861 155.895579 
L 235.047462 154.895628 
L 236.535762 154.6977 
L 238.024063 154.732952 
L 239.512363 154.73611 
L 241.000664 154.463119 
L 241.992864 154.053636 
L 244.473365 152.735829 
L 245.465565 152.492767 
L 247.946066 152.25358 
L 256.379769 151.548634 
L 260.34857 150.715727 
L 262.829071 150.690709 
L 265.309572 150.641308 
L 266.797872 150.435577 
L 267.790073 150.224261 
L 267.790073 150.224261 
" clip-path="url(#pb1dd0f5dae)" style="fill: none; stroke: #006400; stroke-width: 2.5; stroke-linecap: square"/>
   </g>
   <g id="patch_21">
    <path d="M 169.06614 237.269923 
L 169.06614 146.07923 
" style="fill: none; stroke: #000000; stroke-width: 1.6; stroke-linejoin: miter; stroke-linecap: square"/>
   </g>
   <g id="patch_22">
    <path d="M 169.06614 237.269923 
L 267.790073 237.269923 
" style="fill: none; stroke: #000000; stroke-width: 1.6; stroke-linejoin: miter; stroke-linecap: square"/>
   </g>
  </g>
  <g id="axes_8">
   <g id="patch_23">
    <path d="M 457.06614 237.269923 
L 555.790073 237.269923 
L 555.790073 146.07923 
L 457.06614 146.07923 
z
" style="fill: #ffffff"/>
   </g>
   <g id="matplotlib.axis_15">
    <g id="xtick_22">
     <g id="line2d_56">
      <g>
       <use xlink:href="#m17bfece2dc" x="457.06614" y="237.269923" style="stroke: #000000; stroke-width: 1.6"/>
      </g>
     </g>
     <g id="text_43">
      <!-- 0 -->
      <g transform="translate(453.729577 254.466173) scale(0.12 -0.12)">
       <use xlink:href="#LiberationSans-30"/>
      </g>
     </g>
    </g>
    <g id="xtick_23">
     <g id="line2d_57">
      <g>
       <use xlink:href="#m17bfece2dc" x="506.428106" y="237.269923" style="stroke: #000000; stroke-width: 1.6"/>
      </g>
     </g>
     <g id="text_44">
      <!-- 100 -->
      <g transform="translate(496.418419 254.466173) scale(0.12 -0.12)">
       <use xlink:href="#LiberationSans-31"/>
       <use xlink:href="#LiberationSans-30" x="55.615234"/>
       <use xlink:href="#LiberationSans-30" x="111.230469"/>
      </g>
     </g>
    </g>
    <g id="xtick_24">
     <g id="line2d_58">
      <g>
       <use xlink:href="#m17bfece2dc" x="555.790073" y="237.269923" style="stroke: #000000; stroke-width: 1.6"/>
      </g>
     </g>
     <g id="text_45">
      <!-- 200 -->
      <g transform="translate(545.780385 254.466173) scale(0.12 -0.12)">
       <use xlink:href="#LiberationSans-32"/>
       <use xlink:href="#LiberationSans-30" x="55.615234"/>
       <use xlink:href="#LiberationSans-30" x="111.230469"/>
      </g>
     </g>
    </g>
   </g>
   <g id="matplotlib.axis_16">
    <g id="ytick_22">
     <g id="line2d_59">
      <g>
       <use xlink:href="#mec2ff83325" x="457.06614" y="222.580788" style="stroke: #000000; stroke-width: 1.6"/>
      </g>
     </g>
     <g id="text_46">
      <!-- 0.00 -->
      <g transform="translate(425.213015 226.928913) scale(0.12 -0.12)">
       <use xlink:href="#LiberationSans-30"/>
       <use xlink:href="#LiberationSans-2e" x="55.615234"/>
       <use xlink:href="#LiberationSans-30" x="83.398438"/>
       <use xlink:href="#LiberationSans-30" x="139.013672"/>
      </g>
     </g>
    </g>
    <g id="ytick_23">
     <g id="line2d_60">
      <g>
       <use xlink:href="#mec2ff83325" x="457.06614" y="185.596161" style="stroke: #000000; stroke-width: 1.6"/>
      </g>
     </g>
     <g id="text_47">
      <!-- 0.01 -->
      <g transform="translate(425.213015 189.944286) scale(0.12 -0.12)">
       <use xlink:href="#LiberationSans-30"/>
       <use xlink:href="#LiberationSans-2e" x="55.615234"/>
       <use xlink:href="#LiberationSans-30" x="83.398438"/>
       <use xlink:href="#LiberationSans-31" x="139.013672"/>
      </g>
     </g>
    </g>
    <g id="ytick_24">
     <g id="line2d_61">
      <g>
       <use xlink:href="#mec2ff83325" x="457.06614" y="148.611534" style="stroke: #000000; stroke-width: 1.6"/>
      </g>
     </g>
     <g id="text_48">
      <!-- 0.02 -->
      <g transform="translate(425.213015 152.959659) scale(0.12 -0.12)">
       <use xlink:href="#LiberationSans-30"/>
       <use xlink:href="#LiberationSans-2e" x="55.615234"/>
       <use xlink:href="#LiberationSans-30" x="83.398438"/>
       <use xlink:href="#LiberationSans-32" x="139.013672"/>
      </g>
     </g>
    </g>
   </g>
   <g id="line2d_62">
    <path d="M 457.06614 202.186132 
L 458.05834 168.455483 
L 458.55444 158.491557 
L 459.05054 152.941824 
L 459.54664 150.584851 
L 460.04274 150.224261 
L 460.538841 151.046163 
L 461.034941 152.586405 
L 463.019341 160.260628 
L 465.003742 165.83583 
L 465.499842 168.456727 
L 466.492043 176.226031 
L 467.484243 184.800909 
L 467.980343 188.114831 
L 468.476443 190.440333 
L 468.972543 191.843766 
L 469.468644 192.532916 
L 469.964744 192.730208 
L 470.460844 192.603987 
L 471.453044 191.807133 
L 472.941345 190.461944 
L 474.429645 189.433464 
L 474.925745 188.787835 
L 475.421846 187.807142 
L 476.414046 184.879359 
L 477.406246 181.7324 
L 477.902346 180.590652 
L 478.398447 179.903117 
L 478.894547 179.719965 
L 479.390647 180.089179 
L 479.886747 181.081226 
L 480.382847 182.751316 
L 481.375048 187.801359 
L 482.367248 193.234048 
L 482.863348 195.322929 
L 483.855548 198.083384 
L 484.351649 199.245653 
L 484.847749 200.708798 
L 485.343849 202.723688 
L 486.336049 208.408517 
L 487.32825 214.366427 
L 487.82435 216.594035 
L 488.32045 218.157162 
L 488.81655 219.171458 
L 491.793151 223.425783 
L 492.785351 224.746485 
L 493.281452 225.134909 
L 493.777552 225.34313 
L 494.273652 225.396615 
L 494.769752 225.317362 
L 495.761952 224.829502 
L 497.250253 223.818212 
L 497.746353 223.606391 
L 498.242453 223.517657 
L 498.738553 223.579171 
L 499.234654 223.828791 
L 499.730754 224.312522 
L 500.226854 225.059803 
L 501.219054 227.188916 
L 502.211255 229.347271 
L 502.707355 230.124243 
L 503.203455 230.643204 
L 503.699555 230.937377 
L 504.195655 231.063929 
L 505.187856 231.007812 
L 508.164457 230.336434 
L 509.156657 230.411013 
L 510.148857 230.736232 
L 513.125458 232.154468 
L 518.58256 233.124891 
L 519.57476 233.024681 
L 521.063061 232.578304 
L 522.551361 232.15913 
L 523.543562 232.086251 
L 524.535762 232.174648 
L 526.520163 232.680581 
L 527.512363 232.845754 
L 528.008463 232.822571 
L 528.504563 232.675967 
L 529.000664 232.347015 
L 529.496764 231.776296 
L 529.992864 230.936686 
L 531.977265 226.570758 
L 532.473365 225.864093 
L 532.969465 225.417342 
L 533.465565 225.180932 
L 534.457765 225.092852 
L 535.946066 225.350139 
L 537.434366 225.606435 
L 539.914867 225.718056 
L 542.891468 225.707089 
L 543.883669 225.434331 
L 544.875869 224.71354 
L 546.86027 222.626229 
L 547.35637 222.317605 
L 547.85247 222.149712 
L 548.34857 222.112661 
L 548.84467 222.196625 
L 549.836871 222.70089 
L 551.821271 224.201935 
L 552.813472 224.51059 
L 553.309572 224.489699 
L 553.805672 224.342561 
L 554.301772 224.059996 
L 555.293972 223.132396 
L 555.790073 222.580788 
L 555.790073 222.580788 
" clip-path="url(#pf1f65ce1c8)" style="fill: none; stroke: #006400; stroke-width: 2.5; stroke-linecap: square"/>
   </g>
   <g id="patch_24">
    <path d="M 457.06614 237.269923 
L 457.06614 146.07923 
" style="fill: none; stroke: #000000; stroke-width: 1.6; stroke-linejoin: miter; stroke-linecap: square"/>
   </g>
   <g id="patch_25">
    <path d="M 457.06614 237.269923 
L 555.790073 237.269923 
" style="fill: none; stroke: #000000; stroke-width: 1.6; stroke-linejoin: miter; stroke-linecap: square"/>
   </g>
  </g>
  <g id="axes_9">
   <g id="patch_26">
    <path d="M 745.06614 237.269923 
L 843.790072 237.269923 
L 843.790072 146.07923 
L 745.06614 146.07923 
z
" style="fill: #ffffff"/>
   </g>
   <g id="matplotlib.axis_17">
    <g id="xtick_25">
     <g id="line2d_63">
      <g>
       <use xlink:href="#m17bfece2dc" x="745.06614" y="237.269923" style="stroke: #000000; stroke-width: 1.6"/>
      </g>
     </g>
     <g id="text_49">
      <!-- 0 -->
      <g transform="translate(741.729577 254.466173) scale(0.12 -0.12)">
       <use xlink:href="#LiberationSans-30"/>
      </g>
     </g>
    </g>
    <g id="xtick_26">
     <g id="line2d_64">
      <g>
       <use xlink:href="#m17bfece2dc" x="794.428106" y="237.269923" style="stroke: #000000; stroke-width: 1.6"/>
      </g>
     </g>
     <g id="text_50">
      <!-- 100 -->
      <g transform="translate(784.418419 254.466173) scale(0.12 -0.12)">
       <use xlink:href="#LiberationSans-31"/>
       <use xlink:href="#LiberationSans-30" x="55.615234"/>
       <use xlink:href="#LiberationSans-30" x="111.230469"/>
      </g>
     </g>
    </g>
    <g id="xtick_27">
     <g id="line2d_65">
      <g>
       <use xlink:href="#m17bfece2dc" x="843.790072" y="237.269923" style="stroke: #000000; stroke-width: 1.6"/>
      </g>
     </g>
     <g id="text_51">
      <!-- 200 -->
      <g transform="translate(833.780385 254.466173) scale(0.12 -0.12)">
       <use xlink:href="#LiberationSans-32"/>
       <use xlink:href="#LiberationSans-30" x="55.615234"/>
       <use xlink:href="#LiberationSans-30" x="111.230469"/>
      </g>
     </g>
    </g>
   </g>
   <g id="matplotlib.axis_18">
    <g id="ytick_25">
     <g id="line2d_66">
      <g>
       <use xlink:href="#mec2ff83325" x="745.06614" y="230.423523" style="stroke: #000000; stroke-width: 1.6"/>
      </g>
     </g>
     <g id="text_52">
      <!-- 0.00 -->
      <g transform="translate(713.213015 234.771648) scale(0.12 -0.12)">
       <use xlink:href="#LiberationSans-30"/>
       <use xlink:href="#LiberationSans-2e" x="55.615234"/>
       <use xlink:href="#LiberationSans-30" x="83.398438"/>
       <use xlink:href="#LiberationSans-30" x="139.013672"/>
      </g>
     </g>
    </g>
    <g id="ytick_26">
     <g id="line2d_67">
      <g>
       <use xlink:href="#mec2ff83325" x="745.06614" y="196.858325" style="stroke: #000000; stroke-width: 1.6"/>
      </g>
     </g>
     <g id="text_53">
      <!-- 0.02 -->
      <g transform="translate(713.213015 201.20645) scale(0.12 -0.12)">
       <use xlink:href="#LiberationSans-30"/>
       <use xlink:href="#LiberationSans-2e" x="55.615234"/>
       <use xlink:href="#LiberationSans-30" x="83.398438"/>
       <use xlink:href="#LiberationSans-32" x="139.013672"/>
      </g>
     </g>
    </g>
    <g id="ytick_27">
     <g id="line2d_68">
      <g>
       <use xlink:href="#mec2ff83325" x="745.06614" y="163.293127" style="stroke: #000000; stroke-width: 1.6"/>
      </g>
     </g>
     <g id="text_54">
      <!-- 0.04 -->
      <g transform="translate(713.213015 167.641252) scale(0.12 -0.12)">
       <defs>
        <path id="LiberationSans-34" d="M 2753 997 
L 2753 0 
L 2222 0 
L 2222 997 
L 147 997 
L 147 1434 
L 2163 4403 
L 2753 4403 
L 2753 1441 
L 3372 1441 
L 3372 997 
L 2753 997 
z
M 2222 3769 
Q 2216 3753 2191 3708 
Q 2166 3663 2134 3606 
Q 2103 3550 2070 3492 
Q 2038 3434 2013 3397 
L 884 1734 
Q 869 1709 839 1668 
Q 809 1628 778 1586 
Q 747 1544 715 1503 
Q 684 1463 666 1441 
L 2222 1441 
L 2222 3769 
z
" transform="scale(0.015625)"/>
       </defs>
       <use xlink:href="#LiberationSans-30"/>
       <use xlink:href="#LiberationSans-2e" x="55.615234"/>
       <use xlink:href="#LiberationSans-30" x="83.398438"/>
       <use xlink:href="#LiberationSans-34" x="139.013672"/>
      </g>
     </g>
    </g>
   </g>
   <g id="line2d_69">
    <path d="M 745.06614 199.231796 
L 745.56224 172.238904 
L 746.05834 155.553168 
L 746.55444 150.224261 
L 747.05054 152.956512 
L 748.04274 164.996225 
L 748.538841 169.272833 
L 749.034941 171.827508 
L 749.531041 173.207602 
L 750.523241 174.661012 
L 751.515442 176.238186 
L 752.507642 178.258815 
L 753.499842 180.748287 
L 756.476443 189.381505 
L 756.972543 190.257035 
L 757.468644 190.87858 
L 757.964744 191.26729 
L 758.460844 191.444311 
L 758.956944 191.436895 
L 760.941345 190.958338 
L 762.925745 191.18345 
L 763.421846 190.960511 
L 763.917946 190.539746 
L 765.406246 188.858441 
L 765.902346 188.546043 
L 766.398447 188.481892 
L 766.894547 188.681123 
L 767.390647 189.149756 
L 767.886747 189.894358 
L 768.878947 192.148953 
L 770.863348 197.497056 
L 772.351649 200.306545 
L 773.343849 202.466868 
L 774.832149 206.817308 
L 775.82435 209.462394 
L 776.81655 211.290526 
L 778.304851 213.187894 
L 781.281452 216.598552 
L 782.273652 217.439379 
L 783.265852 218.004176 
L 784.754153 218.423386 
L 785.746353 218.798382 
L 786.738553 219.438579 
L 787.730754 220.417123 
L 788.722954 221.843131 
L 790.211255 224.269421 
L 791.203455 225.44524 
L 792.195655 226.140089 
L 793.187856 226.544706 
L 796.660557 227.566109 
L 798.148857 228.305867 
L 801.125458 230.005087 
L 804.102059 231.11164 
L 806.08646 231.772495 
L 807.57476 232.056415 
L 809.559161 232.134605 
L 811.047462 232.263776 
L 814.520163 232.905916 
L 816.008463 233.124891 
L 817.000664 233.041659 
L 817.496764 232.851279 
L 818.488964 232.119227 
L 819.977265 230.817927 
L 820.969465 230.419752 
L 821.961665 230.378894 
L 823.946066 230.66517 
L 826.426567 231.006432 
L 828.907068 231.075761 
L 832.379769 230.967299 
L 833.868069 230.441672 
L 834.86027 230.104413 
L 835.85247 229.979329 
L 836.84467 230.062875 
L 838.332971 230.505664 
L 839.821271 231.033715 
L 840.813472 231.206237 
L 841.805672 231.167146 
L 842.797872 230.882427 
L 843.790072 230.423523 
L 843.790072 230.423523 
" clip-path="url(#pc4e1392766)" style="fill: none; stroke: #006400; stroke-width: 2.5; stroke-linecap: square"/>
   </g>
   <g id="patch_27">
    <path d="M 745.06614 237.269923 
L 745.06614 146.07923 
" style="fill: none; stroke: #000000; stroke-width: 1.6; stroke-linejoin: miter; stroke-linecap: square"/>
   </g>
   <g id="patch_28">
    <path d="M 745.06614 237.269923 
L 843.790072 237.269923 
" style="fill: none; stroke: #000000; stroke-width: 1.6; stroke-linejoin: miter; stroke-linecap: square"/>
   </g>
  </g>
  <g id="axes_10">
   <g id="patch_29">
    <path d="M 169.06614 525.269923 
L 267.790073 525.269923 
L 267.790073 434.07923 
L 169.06614 434.07923 
z
" style="fill: #ffffff"/>
   </g>
   <g id="matplotlib.axis_19">
    <g id="xtick_28">
     <g id="line2d_70">
      <g>
       <use xlink:href="#m17bfece2dc" x="169.06614" y="525.269923" style="stroke: #000000; stroke-width: 1.6"/>
      </g>
     </g>
     <g id="text_55">
      <!-- 0 -->
      <g transform="translate(165.729577 542.466173) scale(0.12 -0.12)">
       <use xlink:href="#LiberationSans-30"/>
      </g>
     </g>
    </g>
    <g id="xtick_29">
     <g id="line2d_71">
      <g>
       <use xlink:href="#m17bfece2dc" x="218.428106" y="525.269923" style="stroke: #000000; stroke-width: 1.6"/>
      </g>
     </g>
     <g id="text_56">
      <!-- 100 -->
      <g transform="translate(208.418419 542.466173) scale(0.12 -0.12)">
       <use xlink:href="#LiberationSans-31"/>
       <use xlink:href="#LiberationSans-30" x="55.615234"/>
       <use xlink:href="#LiberationSans-30" x="111.230469"/>
      </g>
     </g>
    </g>
    <g id="xtick_30">
     <g id="line2d_72">
      <g>
       <use xlink:href="#m17bfece2dc" x="267.790073" y="525.269923" style="stroke: #000000; stroke-width: 1.6"/>
      </g>
     </g>
     <g id="text_57">
      <!-- 200 -->
      <g transform="translate(257.780385 542.466173) scale(0.12 -0.12)">
       <use xlink:href="#LiberationSans-32"/>
       <use xlink:href="#LiberationSans-30" x="55.615234"/>
       <use xlink:href="#LiberationSans-30" x="111.230469"/>
      </g>
     </g>
    </g>
   </g>
   <g id="matplotlib.axis_20">
    <g id="ytick_28">
     <g id="line2d_73">
      <g>
       <use xlink:href="#mec2ff83325" x="169.06614" y="508.223836" style="stroke: #000000; stroke-width: 1.6"/>
      </g>
     </g>
     <g id="text_58">
      <!-- −0.2 -->
      <g transform="translate(136.87739 512.571961) scale(0.12 -0.12)">
       <use xlink:href="#LiberationSans-2212"/>
       <use xlink:href="#LiberationSans-30" x="58.398438"/>
       <use xlink:href="#LiberationSans-2e" x="114.013672"/>
       <use xlink:href="#LiberationSans-32" x="141.796875"/>
      </g>
     </g>
    </g>
    <g id="ytick_29">
     <g id="line2d_74">
      <g>
       <use xlink:href="#mec2ff83325" x="169.06614" y="473.224049" style="stroke: #000000; stroke-width: 1.6"/>
      </g>
     </g>
     <g id="text_59">
      <!-- −0.1 -->
      <g transform="translate(136.87739 477.572174) scale(0.12 -0.12)">
       <use xlink:href="#LiberationSans-2212"/>
       <use xlink:href="#LiberationSans-30" x="58.398438"/>
       <use xlink:href="#LiberationSans-2e" x="114.013672"/>
       <use xlink:href="#LiberationSans-31" x="141.796875"/>
      </g>
     </g>
    </g>
    <g id="ytick_30">
     <g id="line2d_75">
      <g>
       <use xlink:href="#mec2ff83325" x="169.06614" y="438.224261" style="stroke: #000000; stroke-width: 1.6"/>
      </g>
     </g>
     <g id="text_60">
      <!-- 0.0 -->
      <g transform="translate(143.88614 442.572386) scale(0.12 -0.12)">
       <use xlink:href="#LiberationSans-30"/>
       <use xlink:href="#LiberationSans-2e" x="55.615234"/>
       <use xlink:href="#LiberationSans-30" x="83.398438"/>
      </g>
     </g>
    </g>
   </g>
   <g id="line2d_76">
    <path d="M 169.06614 462.576881 
L 170.05834 503.375744 
L 170.55444 515.31994 
L 171.05054 520.886152 
L 171.54664 521.124891 
L 172.04274 517.775305 
L 173.531041 502.404405 
L 174.027141 498.558616 
L 174.523241 495.707922 
L 175.019341 493.673299 
L 175.515442 492.226201 
L 176.011542 491.172198 
L 177.003742 489.777581 
L 177.995942 488.98966 
L 183.949144 486.119282 
L 185.437445 485.615821 
L 188.910146 484.166016 
L 190.398447 483.439544 
L 195.359448 480.292886 
L 197.839949 478.169033 
L 199.82435 476.699875 
L 203.297051 473.586336 
L 204.785351 472.446063 
L 208.754153 468.878737 
L 210.242453 467.587994 
L 212.722954 465.259989 
L 216.195655 462.380956 
L 217.683956 461.270355 
L 220.164457 459.62353 
L 222.644957 457.773054 
L 225.125458 456.09021 
L 227.605959 454.287254 
L 234.055261 450.40664 
L 238.520163 448.051896 
L 245.961665 444.686559 
L 248.442166 443.782299 
L 250.922667 442.788958 
L 253.403168 441.86301 
L 257.371969 440.598417 
L 267.790073 438.224261 
L 267.790073 438.224261 
" clip-path="url(#p5192df989a)" style="fill: none; stroke: #006400; stroke-width: 2.5; stroke-linecap: square"/>
   </g>
   <g id="patch_30">
    <path d="M 169.06614 525.269923 
L 169.06614 434.07923 
" style="fill: none; stroke: #000000; stroke-width: 1.6; stroke-linejoin: miter; stroke-linecap: square"/>
   </g>
   <g id="patch_31">
    <path d="M 169.06614 525.269923 
L 267.790073 525.269923 
" style="fill: none; stroke: #000000; stroke-width: 1.6; stroke-linejoin: miter; stroke-linecap: square"/>
   </g>
  </g>
  <g id="axes_11">
   <g id="patch_32">
    <path d="M 457.06614 525.269923 
L 555.790073 525.269923 
L 555.790073 434.07923 
L 457.06614 434.07923 
z
" style="fill: #ffffff"/>
   </g>
   <g id="matplotlib.axis_21">
    <g id="xtick_31">
     <g id="line2d_77">
      <g>
       <use xlink:href="#m17bfece2dc" x="457.06614" y="525.269923" style="stroke: #000000; stroke-width: 1.6"/>
      </g>
     </g>
     <g id="text_61">
      <!-- 0 -->
      <g transform="translate(453.729577 542.466173) scale(0.12 -0.12)">
       <use xlink:href="#LiberationSans-30"/>
      </g>
     </g>
    </g>
    <g id="xtick_32">
     <g id="line2d_78">
      <g>
       <use xlink:href="#m17bfece2dc" x="506.428106" y="525.269923" style="stroke: #000000; stroke-width: 1.6"/>
      </g>
     </g>
     <g id="text_62">
      <!-- 100 -->
      <g transform="translate(496.418419 542.466173) scale(0.12 -0.12)">
       <use xlink:href="#LiberationSans-31"/>
       <use xlink:href="#LiberationSans-30" x="55.615234"/>
       <use xlink:href="#LiberationSans-30" x="111.230469"/>
      </g>
     </g>
    </g>
    <g id="xtick_33">
     <g id="line2d_79">
      <g>
       <use xlink:href="#m17bfece2dc" x="555.790073" y="525.269923" style="stroke: #000000; stroke-width: 1.6"/>
      </g>
     </g>
     <g id="text_63">
      <!-- 200 -->
      <g transform="translate(545.780385 542.466173) scale(0.12 -0.12)">
       <use xlink:href="#LiberationSans-32"/>
       <use xlink:href="#LiberationSans-30" x="55.615234"/>
       <use xlink:href="#LiberationSans-30" x="111.230469"/>
      </g>
     </g>
    </g>
   </g>
   <g id="matplotlib.axis_22">
    <g id="ytick_31">
     <g id="line2d_80">
      <g>
       <use xlink:href="#mec2ff83325" x="457.06614" y="502.713393" style="stroke: #000000; stroke-width: 1.6"/>
      </g>
     </g>
     <g id="text_64">
      <!-- −0.2 -->
      <g transform="translate(424.87739 507.061518) scale(0.12 -0.12)">
       <use xlink:href="#LiberationSans-2212"/>
       <use xlink:href="#LiberationSans-30" x="58.398438"/>
       <use xlink:href="#LiberationSans-2e" x="114.013672"/>
       <use xlink:href="#LiberationSans-32" x="141.796875"/>
      </g>
     </g>
    </g>
    <g id="ytick_32">
     <g id="line2d_81">
      <g>
       <use xlink:href="#mec2ff83325" x="457.06614" y="470.468827" style="stroke: #000000; stroke-width: 1.6"/>
      </g>
     </g>
     <g id="text_65">
      <!-- −0.1 -->
      <g transform="translate(424.87739 474.816952) scale(0.12 -0.12)">
       <use xlink:href="#LiberationSans-2212"/>
       <use xlink:href="#LiberationSans-30" x="58.398438"/>
       <use xlink:href="#LiberationSans-2e" x="114.013672"/>
       <use xlink:href="#LiberationSans-31" x="141.796875"/>
      </g>
     </g>
    </g>
    <g id="ytick_33">
     <g id="line2d_82">
      <g>
       <use xlink:href="#mec2ff83325" x="457.06614" y="438.224261" style="stroke: #000000; stroke-width: 1.6"/>
      </g>
     </g>
     <g id="text_66">
      <!-- 0.0 -->
      <g transform="translate(431.88614 442.572386) scale(0.12 -0.12)">
       <use xlink:href="#LiberationSans-30"/>
       <use xlink:href="#LiberationSans-2e" x="55.615234"/>
       <use xlink:href="#LiberationSans-30" x="83.398438"/>
      </g>
     </g>
    </g>
   </g>
   <g id="line2d_83">
    <path d="M 457.06614 466.346452 
L 457.56224 491.80407 
L 458.05834 510.29092 
L 458.55444 519.849921 
L 459.05054 521.124891 
L 459.54664 516.548502 
L 461.034941 494.560973 
L 461.531041 489.597149 
L 462.027141 486.280179 
L 462.523241 484.198302 
L 463.019341 482.883899 
L 464.011542 481.27779 
L 464.507642 480.734138 
L 465.003742 480.373871 
L 465.499842 480.241481 
L 465.995942 480.344832 
L 467.980343 481.491924 
L 468.476443 481.495885 
L 469.468644 481.137559 
L 470.460844 480.821168 
L 471.453044 480.910414 
L 472.445245 481.145843 
L 473.437445 481.093664 
L 475.917946 480.36756 
L 477.406246 480.280107 
L 478.398447 479.933347 
L 479.886747 479.140335 
L 480.878947 478.920785 
L 482.367248 478.841189 
L 483.359448 478.358724 
L 485.343849 476.954447 
L 486.336049 476.726233 
L 487.32825 476.528278 
L 488.32045 475.919982 
L 490.304851 474.14873 
L 491.297051 473.645539 
L 492.289251 473.182495 
L 493.281452 472.412531 
L 495.265852 470.595065 
L 496.258053 470.0836 
L 497.250253 469.610612 
L 498.242453 468.85847 
L 500.226854 467.038367 
L 503.699555 464.627883 
L 505.187856 463.397746 
L 508.164457 461.542629 
L 510.644957 459.555133 
L 512.629358 458.220185 
L 515.605959 455.960389 
L 518.08646 454.457356 
L 520.070861 453.105679 
L 529.992864 447.703921 
L 543.883669 441.509355 
L 545.868069 440.914818 
L 553.805672 438.807369 
L 555.790073 438.224261 
L 555.790073 438.224261 
" clip-path="url(#pa8c8a58d31)" style="fill: none; stroke: #006400; stroke-width: 2.5; stroke-linecap: square"/>
   </g>
   <g id="patch_33">
    <path d="M 457.06614 525.269923 
L 457.06614 434.07923 
" style="fill: none; stroke: #000000; stroke-width: 1.6; stroke-linejoin: miter; stroke-linecap: square"/>
   </g>
   <g id="patch_34">
    <path d="M 457.06614 525.269923 
L 555.790073 525.269923 
" style="fill: none; stroke: #000000; stroke-width: 1.6; stroke-linejoin: miter; stroke-linecap: square"/>
   </g>
  </g>
  <g id="axes_12">
   <g id="patch_35">
    <path d="M 745.06614 525.269923 
L 843.790072 525.269923 
L 843.790072 434.07923 
L 745.06614 434.07923 
z
" style="fill: #ffffff"/>
   </g>
   <g id="matplotlib.axis_23">
    <g id="xtick_34">
     <g id="line2d_84">
      <g>
       <use xlink:href="#m17bfece2dc" x="745.06614" y="525.269923" style="stroke: #000000; stroke-width: 1.6"/>
      </g>
     </g>
     <g id="text_67">
      <!-- 0 -->
      <g transform="translate(741.729577 542.466173) scale(0.12 -0.12)">
       <use xlink:href="#LiberationSans-30"/>
      </g>
     </g>
    </g>
    <g id="xtick_35">
     <g id="line2d_85">
      <g>
       <use xlink:href="#m17bfece2dc" x="794.428106" y="525.269923" style="stroke: #000000; stroke-width: 1.6"/>
      </g>
     </g>
     <g id="text_68">
      <!-- 100 -->
      <g transform="translate(784.418419 542.466173) scale(0.12 -0.12)">
       <use xlink:href="#LiberationSans-31"/>
       <use xlink:href="#LiberationSans-30" x="55.615234"/>
       <use xlink:href="#LiberationSans-30" x="111.230469"/>
      </g>
     </g>
    </g>
    <g id="xtick_36">
     <g id="line2d_86">
      <g>
       <use xlink:href="#m17bfece2dc" x="843.790072" y="525.269923" style="stroke: #000000; stroke-width: 1.6"/>
      </g>
     </g>
     <g id="text_69">
      <!-- 200 -->
      <g transform="translate(833.780385 542.466173) scale(0.12 -0.12)">
       <use xlink:href="#LiberationSans-32"/>
       <use xlink:href="#LiberationSans-30" x="55.615234"/>
       <use xlink:href="#LiberationSans-30" x="111.230469"/>
      </g>
     </g>
    </g>
   </g>
   <g id="matplotlib.axis_24">
    <g id="ytick_34">
     <g id="line2d_87">
      <g>
       <use xlink:href="#mec2ff83325" x="745.06614" y="512.427977" style="stroke: #000000; stroke-width: 1.6"/>
      </g>
     </g>
     <g id="text_70">
      <!-- −0.2 -->
      <g transform="translate(712.87739 516.776102) scale(0.12 -0.12)">
       <use xlink:href="#LiberationSans-2212"/>
       <use xlink:href="#LiberationSans-30" x="58.398438"/>
       <use xlink:href="#LiberationSans-2e" x="114.013672"/>
       <use xlink:href="#LiberationSans-32" x="141.796875"/>
      </g>
     </g>
    </g>
    <g id="ytick_35">
     <g id="line2d_88">
      <g>
       <use xlink:href="#mec2ff83325" x="745.06614" y="475.326119" style="stroke: #000000; stroke-width: 1.6"/>
      </g>
     </g>
     <g id="text_71">
      <!-- −0.1 -->
      <g transform="translate(712.87739 479.674244) scale(0.12 -0.12)">
       <use xlink:href="#LiberationSans-2212"/>
       <use xlink:href="#LiberationSans-30" x="58.398438"/>
       <use xlink:href="#LiberationSans-2e" x="114.013672"/>
       <use xlink:href="#LiberationSans-31" x="141.796875"/>
      </g>
     </g>
    </g>
    <g id="ytick_36">
     <g id="line2d_89">
      <g>
       <use xlink:href="#mec2ff83325" x="745.06614" y="438.224261" style="stroke: #000000; stroke-width: 1.6"/>
      </g>
     </g>
     <g id="text_72">
      <!-- 0.0 -->
      <g transform="translate(719.88614 442.572386) scale(0.12 -0.12)">
       <use xlink:href="#LiberationSans-30"/>
       <use xlink:href="#LiberationSans-2e" x="55.615234"/>
       <use xlink:href="#LiberationSans-30" x="83.398438"/>
      </g>
     </g>
    </g>
   </g>
   <g id="line2d_90">
    <path d="M 745.06614 465.025822 
L 745.56224 489.539003 
L 746.05834 507.98751 
L 746.55444 518.441461 
L 747.05054 521.124891 
L 747.54664 517.906542 
L 749.531041 491.661388 
L 750.027141 487.89295 
L 750.523241 485.427774 
L 751.019341 483.853972 
L 751.515442 482.809613 
L 752.507642 481.513386 
L 753.003742 481.148201 
L 753.499842 480.983271 
L 753.995942 481.015535 
L 755.980343 481.785043 
L 756.476443 481.761879 
L 758.956944 481.125458 
L 760.941345 481.421619 
L 761.933545 481.221839 
L 763.421846 480.771442 
L 765.902346 480.470301 
L 768.382847 479.460282 
L 770.863348 479.286414 
L 771.855548 478.679878 
L 772.847749 477.986809 
L 773.839949 477.605777 
L 775.32825 477.3327 
L 776.32045 476.755653 
L 778.304851 475.097643 
L 779.297051 474.639335 
L 780.289251 474.21896 
L 781.281452 473.501255 
L 783.265852 471.791601 
L 784.258053 471.325132 
L 785.250253 470.895184 
L 786.242453 470.18443 
L 788.226854 468.3942 
L 791.699555 465.950376 
L 793.187856 464.722284 
L 796.164457 462.865645 
L 798.644957 460.843319 
L 800.629358 459.469248 
L 803.605959 457.14245 
L 806.08646 455.591863 
L 808.070861 454.199168 
L 818.985064 448.052058 
L 821.465565 446.788392 
L 823.449966 445.77678 
L 826.426567 444.321075 
L 828.907068 443.111909 
L 832.875869 441.46603 
L 838.332971 439.909181 
L 840.813472 439.222596 
L 843.790072 438.224261 
L 843.790072 438.224261 
" clip-path="url(#p2617ed2c79)" style="fill: none; stroke: #006400; stroke-width: 2.5; stroke-linecap: square"/>
   </g>
   <g id="patch_36">
    <path d="M 745.06614 525.269923 
L 745.06614 434.07923 
" style="fill: none; stroke: #000000; stroke-width: 1.6; stroke-linejoin: miter; stroke-linecap: square"/>
   </g>
   <g id="patch_37">
    <path d="M 745.06614 525.269923 
L 843.790072 525.269923 
" style="fill: none; stroke: #000000; stroke-width: 1.6; stroke-linejoin: miter; stroke-linecap: square"/>
   </g>
  </g>
 </g>
 <defs>
  <clipPath id="pcdf8173b0d">
   <rect x="28.18024" y="4.768673" width="246.809833" height="260.544837"/>
  </clipPath>
  <clipPath id="p3eb1a3e305">
   <rect x="316.18024" y="4.768673" width="246.809833" height="260.544837"/>
  </clipPath>
  <clipPath id="p3ee5b953c2">
   <rect x="604.18024" y="4.768673" width="246.809832" height="260.544837"/>
  </clipPath>
  <clipPath id="p96fe0590a3">
   <rect x="28.18024" y="292.768673" width="246.809833" height="260.544837"/>
  </clipPath>
  <clipPath id="p4382a47e28">
   <rect x="316.18024" y="292.768673" width="246.809833" height="260.544837"/>
  </clipPath>
  <clipPath id="pa6f65df00d">
   <rect x="604.18024" y="292.768673" width="246.809832" height="260.544837"/>
  </clipPath>
  <clipPath id="pb1dd0f5dae">
   <rect x="169.06614" y="146.07923" width="98.723933" height="91.190693"/>
  </clipPath>
  <clipPath id="pf1f65ce1c8">
   <rect x="457.06614" y="146.07923" width="98.723933" height="91.190693"/>
  </clipPath>
  <clipPath id="pc4e1392766">
   <rect x="745.06614" y="146.07923" width="98.723933" height="91.190693"/>
  </clipPath>
  <clipPath id="p5192df989a">
   <rect x="169.06614" y="434.07923" width="98.723933" height="91.190693"/>
  </clipPath>
  <clipPath id="pa8c8a58d31">
   <rect x="457.06614" y="434.07923" width="98.723933" height="91.190693"/>
  </clipPath>
  <clipPath id="p2617ed2c79">
   <rect x="745.06614" y="434.07923" width="98.723933" height="91.190693"/>
  </clipPath>
 </defs>
</svg>
