<?xml version="1.0" encoding="utf-8" standalone="no"?>
<!DOCTYPE svg PUBLIC "-//W3C//DTD SVG 1.1//EN"
  "http://www.w3.org/Graphics/SVG/1.1/DTD/svg11.dtd">
<svg xmlns:xlink="http://www.w3.org/1999/xlink" width="864pt" height="288pt" viewBox="0 0 864 288" xmlns="http://www.w3.org/2000/svg" version="1.1">
 <metadata>
  <rdf:RDF xmlns:dc="http://purl.org/dc/elements/1.1/" xmlns:cc="http://creativecommons.org/ns#" xmlns:rdf="http://www.w3.org/1999/02/22-rdf-syntax-ns#">
   <cc:Work>
    <dc:type rdf:resource="http://purl.org/dc/dcmitype/StillImage"/>
    <dc:date>2025-07-30T17:12:37.484787</dc:date>
    <dc:format>image/svg+xml</dc:format>
    <dc:creator>
     <cc:Agent>
      <dc:title>Matplotlib v3.7.2, https://matplotlib.org/</dc:title>
     </cc:Agent>
    </dc:creator>
   </cc:Work>
  </rdf:RDF>
 </metadata>
 <defs>
  <style type="text/css">*{stroke-linejoin: round; stroke-linecap: butt}</style>
 </defs>
 <g id="figure_1">
  <g id="patch_1">
   <path d="M 0 288 
L 864 288 
L 864 0 
L 0 0 
z
" style="fill: #ffffff"/>
  </g>
  <g id="axes_1">
   <g id="patch_2">
    <path d="M 108 256.32 
L 304.941176 256.32 
L 304.941176 34.56 
L 108 34.56 
z
" style="fill: #ffffff"/>
   </g>
   <g id="patch_3">
    <path d="M 116.951872 256.32 
L 121.427807 256.32 
L 121.427807 256.20912 
L 116.951872 256.20912 
z
" clip-path="url(#pe806864163)" style="fill: #6e98ec; stroke: #ffffff; stroke-linejoin: miter"/>
   </g>
   <g id="patch_4">
    <path d="M 121.427807 256.32 
L 125.903743 256.32 
L 125.903743 256.20912 
L 121.427807 256.20912 
z
" clip-path="url(#pe806864163)" style="fill: #6e98ec; stroke: #ffffff; stroke-linejoin: miter"/>
   </g>
   <g id="patch_5">
    <path d="M 125.903743 256.32 
L 130.379679 256.32 
L 130.379679 256.09824 
L 125.903743 256.09824 
z
" clip-path="url(#pe806864163)" style="fill: #6e98ec; stroke: #ffffff; stroke-linejoin: miter"/>
   </g>
   <g id="patch_6">
    <path d="M 130.379679 256.32 
L 134.855615 256.32 
L 134.855615 254.87856 
L 130.379679 254.87856 
z
" clip-path="url(#pe806864163)" style="fill: #6e98ec; stroke: #ffffff; stroke-linejoin: miter"/>
   </g>
   <g id="patch_7">
    <path d="M 134.855615 256.32 
L 139.331551 256.32 
L 139.331551 250.55424 
L 134.855615 250.55424 
z
" clip-path="url(#pe806864163)" style="fill: #6e98ec; stroke: #ffffff; stroke-linejoin: miter"/>
   </g>
   <g id="patch_8">
    <path d="M 139.331551 256.32 
L 143.807487 256.32 
L 143.807487 241.3512 
L 139.331551 241.3512 
z
" clip-path="url(#pe806864163)" style="fill: #6e98ec; stroke: #ffffff; stroke-linejoin: miter"/>
   </g>
   <g id="patch_9">
    <path d="M 143.807487 256.32 
L 148.283422 256.32 
L 148.283422 66.438 
L 143.807487 66.438 
z
" clip-path="url(#pe806864163)" style="fill: #6e98ec; stroke: #ffffff; stroke-linejoin: miter"/>
   </g>
   <g id="patch_10">
    <path d="M 148.283422 256.32 
L 152.759358 256.32 
L 152.759358 62.94528 
L 148.283422 62.94528 
z
" clip-path="url(#pe806864163)" style="fill: #6e98ec; stroke: #ffffff; stroke-linejoin: miter"/>
   </g>
   <g id="patch_11">
    <path d="M 152.759358 256.32 
L 157.235294 256.32 
L 157.235294 177.318 
L 152.759358 177.318 
z
" clip-path="url(#pe806864163)" style="fill: #6e98ec; stroke: #ffffff; stroke-linejoin: miter"/>
   </g>
   <g id="patch_12">
    <path d="M 157.235294 256.32 
L 161.71123 256.32 
L 161.71123 189.95832 
L 157.235294 189.95832 
z
" clip-path="url(#pe806864163)" style="fill: #6e98ec; stroke: #ffffff; stroke-linejoin: miter"/>
   </g>
   <g id="patch_13">
    <path d="M 161.71123 256.32 
L 166.187166 256.32 
L 166.187166 200.0484 
L 161.71123 200.0484 
z
" clip-path="url(#pe806864163)" style="fill: #6e98ec; stroke: #ffffff; stroke-linejoin: miter"/>
   </g>
   <g id="patch_14">
    <path d="M 166.187166 256.32 
L 170.663102 256.32 
L 170.663102 210.41568 
L 166.187166 210.41568 
z
" clip-path="url(#pe806864163)" style="fill: #6e98ec; stroke: #ffffff; stroke-linejoin: miter"/>
   </g>
   <g id="patch_15">
    <path d="M 170.663102 256.32 
L 175.139037 256.32 
L 175.139037 217.45656 
L 170.663102 217.45656 
z
" clip-path="url(#pe806864163)" style="fill: #6e98ec; stroke: #ffffff; stroke-linejoin: miter"/>
   </g>
   <g id="patch_16">
    <path d="M 175.139037 256.32 
L 179.614973 256.32 
L 179.614973 222.55704 
L 175.139037 222.55704 
z
" clip-path="url(#pe806864163)" style="fill: #6e98ec; stroke: #ffffff; stroke-linejoin: miter"/>
   </g>
   <g id="patch_17">
    <path d="M 179.614973 256.32 
L 184.090909 256.32 
L 184.090909 229.59792 
L 179.614973 229.59792 
z
" clip-path="url(#pe806864163)" style="fill: #6e98ec; stroke: #ffffff; stroke-linejoin: miter"/>
   </g>
   <g id="patch_18">
    <path d="M 184.090909 256.32 
L 188.566845 256.32 
L 188.566845 232.81344 
L 184.090909 232.81344 
z
" clip-path="url(#pe806864163)" style="fill: #6e98ec; stroke: #ffffff; stroke-linejoin: miter"/>
   </g>
   <g id="patch_19">
    <path d="M 188.566845 256.32 
L 193.042781 256.32 
L 193.042781 236.52792 
L 188.566845 236.52792 
z
" clip-path="url(#pe806864163)" style="fill: #6e98ec; stroke: #ffffff; stroke-linejoin: miter"/>
   </g>
   <g id="patch_20">
    <path d="M 193.042781 256.32 
L 197.518717 256.32 
L 197.518717 240.63048 
L 193.042781 240.63048 
z
" clip-path="url(#pe806864163)" style="fill: #6e98ec; stroke: #ffffff; stroke-linejoin: miter"/>
   </g>
   <g id="patch_21">
    <path d="M 197.518717 256.32 
L 201.994652 256.32 
L 201.994652 242.68176 
L 197.518717 242.68176 
z
" clip-path="url(#pe806864163)" style="fill: #6e98ec; stroke: #ffffff; stroke-linejoin: miter"/>
   </g>
   <g id="patch_22">
    <path d="M 201.994652 256.32 
L 206.470588 256.32 
L 206.470588 245.39832 
L 201.994652 245.39832 
z
" clip-path="url(#pe806864163)" style="fill: #6e98ec; stroke: #ffffff; stroke-linejoin: miter"/>
   </g>
   <g id="patch_23">
    <path d="M 206.470588 256.32 
L 210.946524 256.32 
L 210.946524 246.50712 
L 206.470588 246.50712 
z
" clip-path="url(#pe806864163)" style="fill: #6e98ec; stroke: #ffffff; stroke-linejoin: miter"/>
   </g>
   <g id="patch_24">
    <path d="M 210.946524 256.32 
L 215.42246 256.32 
L 215.42246 247.56048 
L 210.946524 247.56048 
z
" clip-path="url(#pe806864163)" style="fill: #6e98ec; stroke: #ffffff; stroke-linejoin: miter"/>
   </g>
   <g id="patch_25">
    <path d="M 215.42246 256.32 
L 219.898396 256.32 
L 219.898396 249.00192 
L 215.42246 249.00192 
z
" clip-path="url(#pe806864163)" style="fill: #6e98ec; stroke: #ffffff; stroke-linejoin: miter"/>
   </g>
   <g id="patch_26">
    <path d="M 219.898396 256.32 
L 224.374332 256.32 
L 224.374332 249.99984 
L 219.898396 249.99984 
z
" clip-path="url(#pe806864163)" style="fill: #6e98ec; stroke: #ffffff; stroke-linejoin: miter"/>
   </g>
   <g id="patch_27">
    <path d="M 224.374332 256.32 
L 228.850267 256.32 
L 228.850267 249.00192 
L 224.374332 249.00192 
z
" clip-path="url(#pe806864163)" style="fill: #6e98ec; stroke: #ffffff; stroke-linejoin: miter"/>
   </g>
   <g id="patch_28">
    <path d="M 228.850267 256.32 
L 233.326203 256.32 
L 233.326203 249.99984 
L 228.850267 249.99984 
z
" clip-path="url(#pe806864163)" style="fill: #6e98ec; stroke: #ffffff; stroke-linejoin: miter"/>
   </g>
   <g id="patch_29">
    <path d="M 233.326203 256.32 
L 237.802139 256.32 
L 237.802139 251.38584 
L 233.326203 251.38584 
z
" clip-path="url(#pe806864163)" style="fill: #6e98ec; stroke: #ffffff; stroke-linejoin: miter"/>
   </g>
   <g id="patch_30">
    <path d="M 237.802139 256.32 
L 242.278075 256.32 
L 242.278075 251.8848 
L 237.802139 251.8848 
z
" clip-path="url(#pe806864163)" style="fill: #6e98ec; stroke: #ffffff; stroke-linejoin: miter"/>
   </g>
   <g id="patch_31">
    <path d="M 242.278075 256.32 
L 246.754011 256.32 
L 246.754011 252.60552 
L 242.278075 252.60552 
z
" clip-path="url(#pe806864163)" style="fill: #6e98ec; stroke: #ffffff; stroke-linejoin: miter"/>
   </g>
   <g id="patch_32">
    <path d="M 246.754011 256.32 
L 251.229947 256.32 
L 251.229947 253.60344 
L 246.754011 253.60344 
z
" clip-path="url(#pe806864163)" style="fill: #6e98ec; stroke: #ffffff; stroke-linejoin: miter"/>
   </g>
   <g id="patch_33">
    <path d="M 251.229947 256.32 
L 255.705882 256.32 
L 255.705882 254.1024 
L 251.229947 254.1024 
z
" clip-path="url(#pe806864163)" style="fill: #6e98ec; stroke: #ffffff; stroke-linejoin: miter"/>
   </g>
   <g id="patch_34">
    <path d="M 255.705882 256.32 
L 260.181818 256.32 
L 260.181818 254.1024 
L 255.705882 254.1024 
z
" clip-path="url(#pe806864163)" style="fill: #6e98ec; stroke: #ffffff; stroke-linejoin: miter"/>
   </g>
   <g id="patch_35">
    <path d="M 260.181818 256.32 
L 264.657754 256.32 
L 264.657754 254.43504 
L 260.181818 254.43504 
z
" clip-path="url(#pe806864163)" style="fill: #6e98ec; stroke: #ffffff; stroke-linejoin: miter"/>
   </g>
   <g id="patch_36">
    <path d="M 264.657754 256.32 
L 269.13369 256.32 
L 269.13369 254.71224 
L 264.657754 254.71224 
z
" clip-path="url(#pe806864163)" style="fill: #6e98ec; stroke: #ffffff; stroke-linejoin: miter"/>
   </g>
   <g id="patch_37">
    <path d="M 269.13369 256.32 
L 273.609626 256.32 
L 273.609626 254.71224 
L 269.13369 254.71224 
z
" clip-path="url(#pe806864163)" style="fill: #6e98ec; stroke: #ffffff; stroke-linejoin: miter"/>
   </g>
   <g id="patch_38">
    <path d="M 273.609626 256.32 
L 278.085561 256.32 
L 278.085561 255.37752 
L 273.609626 255.37752 
z
" clip-path="url(#pe806864163)" style="fill: #6e98ec; stroke: #ffffff; stroke-linejoin: miter"/>
   </g>
   <g id="patch_39">
    <path d="M 278.085561 256.32 
L 282.561497 256.32 
L 282.561497 255.10032 
L 278.085561 255.10032 
z
" clip-path="url(#pe806864163)" style="fill: #6e98ec; stroke: #ffffff; stroke-linejoin: miter"/>
   </g>
   <g id="patch_40">
    <path d="M 282.561497 256.32 
L 287.037433 256.32 
L 287.037433 255.71016 
L 282.561497 255.71016 
z
" clip-path="url(#pe806864163)" style="fill: #6e98ec; stroke: #ffffff; stroke-linejoin: miter"/>
   </g>
   <g id="patch_41">
    <path d="M 287.037433 256.32 
L 291.513369 256.32 
L 291.513369 254.98944 
L 287.037433 254.98944 
z
" clip-path="url(#pe806864163)" style="fill: #6e98ec; stroke: #ffffff; stroke-linejoin: miter"/>
   </g>
   <g id="patch_42">
    <path d="M 291.513369 256.32 
L 295.989305 256.32 
L 295.989305 255.93192 
L 291.513369 255.93192 
z
" clip-path="url(#pe806864163)" style="fill: #6e98ec; stroke: #ffffff; stroke-linejoin: miter"/>
   </g>
   <g id="matplotlib.axis_1">
    <g id="xtick_1">
     <g id="line2d_1">
      <defs>
       <path id="mfa29ea6182" d="M 0 0 
L 0 5 
" style="stroke: #000000; stroke-width: 1.6"/>
      </defs>
      <g>
       <use xlink:href="#mfa29ea6182" x="157.092784" y="256.32" style="stroke: #000000; stroke-width: 1.6"/>
      </g>
     </g>
     <g id="text_1">
      <!-- 0 -->
      <g transform="translate(153.756222 273.51625) scale(0.12 -0.12)">
       <defs>
        <path id="LiberationSans-30" d="M 3309 2203 
Q 3309 1569 3189 1136 
Q 3069 703 2861 436 
Q 2653 169 2372 53 
Q 2091 -63 1772 -63 
Q 1450 -63 1172 53 
Q 894 169 689 434 
Q 484 700 367 1133 
Q 250 1566 250 2203 
Q 250 2869 367 3305 
Q 484 3741 690 4000 
Q 897 4259 1178 4364 
Q 1459 4469 1791 4469 
Q 2106 4469 2382 4364 
Q 2659 4259 2865 4000 
Q 3072 3741 3190 3305 
Q 3309 2869 3309 2203 
z
M 2738 2203 
Q 2738 2728 2675 3076 
Q 2613 3425 2491 3633 
Q 2369 3841 2192 3927 
Q 2016 4013 1791 4013 
Q 1553 4013 1372 3925 
Q 1191 3838 1067 3630 
Q 944 3422 881 3073 
Q 819 2725 819 2203 
Q 819 1697 883 1350 
Q 947 1003 1070 792 
Q 1194 581 1372 489 
Q 1550 397 1778 397 
Q 2000 397 2178 489 
Q 2356 581 2479 792 
Q 2603 1003 2670 1350 
Q 2738 1697 2738 2203 
z
" transform="scale(0.015625)"/>
       </defs>
       <use xlink:href="#LiberationSans-30"/>
      </g>
     </g>
    </g>
    <g id="xtick_2">
     <g id="line2d_2">
      <g>
       <use xlink:href="#mfa29ea6182" x="212.651393" y="256.32" style="stroke: #000000; stroke-width: 1.6"/>
      </g>
     </g>
     <g id="text_2">
      <!-- 20 -->
      <g transform="translate(205.978268 273.51625) scale(0.12 -0.12)">
       <defs>
        <path id="LiberationSans-32" d="M 322 0 
L 322 397 
Q 481 763 711 1042 
Q 941 1322 1194 1548 
Q 1447 1775 1695 1969 
Q 1944 2163 2144 2356 
Q 2344 2550 2467 2762 
Q 2591 2975 2591 3244 
Q 2591 3431 2534 3573 
Q 2478 3716 2372 3812 
Q 2266 3909 2117 3957 
Q 1969 4006 1788 4006 
Q 1619 4006 1470 3959 
Q 1322 3913 1206 3819 
Q 1091 3725 1017 3586 
Q 944 3447 922 3263 
L 347 3316 
Q 375 3553 478 3762 
Q 581 3972 762 4130 
Q 944 4288 1198 4378 
Q 1453 4469 1788 4469 
Q 2116 4469 2372 4391 
Q 2628 4313 2804 4159 
Q 2981 4006 3075 3781 
Q 3169 3556 3169 3263 
Q 3169 3041 3089 2841 
Q 3009 2641 2876 2459 
Q 2744 2278 2569 2109 
Q 2394 1941 2203 1780 
Q 2013 1619 1819 1461 
Q 1625 1303 1454 1143 
Q 1284 984 1150 820 
Q 1016 656 941 478 
L 3238 478 
L 3238 0 
L 322 0 
z
" transform="scale(0.015625)"/>
       </defs>
       <use xlink:href="#LiberationSans-32"/>
       <use xlink:href="#LiberationSans-30" x="55.615234"/>
      </g>
     </g>
    </g>
    <g id="xtick_3">
     <g id="line2d_3">
      <g>
       <use xlink:href="#mfa29ea6182" x="268.210001" y="256.32" style="stroke: #000000; stroke-width: 1.6"/>
      </g>
     </g>
     <g id="text_3">
      <!-- 40 -->
      <g transform="translate(261.536876 273.51625) scale(0.12 -0.12)">
       <defs>
        <path id="LiberationSans-34" d="M 2753 997 
L 2753 0 
L 2222 0 
L 2222 997 
L 147 997 
L 147 1434 
L 2163 4403 
L 2753 4403 
L 2753 1441 
L 3372 1441 
L 3372 997 
L 2753 997 
z
M 2222 3769 
Q 2216 3753 2191 3708 
Q 2166 3663 2134 3606 
Q 2103 3550 2070 3492 
Q 2038 3434 2013 3397 
L 884 1734 
Q 869 1709 839 1668 
Q 809 1628 778 1586 
Q 747 1544 715 1503 
Q 684 1463 666 1441 
L 2222 1441 
L 2222 3769 
z
" transform="scale(0.015625)"/>
       </defs>
       <use xlink:href="#LiberationSans-34"/>
       <use xlink:href="#LiberationSans-30" x="55.615234"/>
      </g>
     </g>
    </g>
    <g id="text_4">
     <!-- $\Delta$Log-likelihood -->
     <g transform="translate(155.020588 293.95625) scale(0.15 -0.15)">
      <defs>
       <path id="DejaVuSans-394" d="M 2188 4044 
L 906 525 
L 3472 525 
L 2188 4044 
z
M 50 0 
L 1831 4666 
L 2547 4666 
L 4325 0 
L 50 0 
z
" transform="scale(0.015625)"/>
       <path id="LiberationSans-4c" d="M 525 0 
L 525 4403 
L 1122 4403 
L 1122 488 
L 3347 488 
L 3347 0 
L 525 0 
z
" transform="scale(0.015625)"/>
       <path id="LiberationSans-6f" d="M 3291 1694 
Q 3291 806 2900 371 
Q 2509 -63 1766 -63 
Q 1413 -63 1134 43 
Q 856 150 664 369 
Q 472 588 370 917 
Q 269 1247 269 1694 
Q 269 3444 1784 3444 
Q 2178 3444 2464 3334 
Q 2750 3225 2933 3006 
Q 3116 2788 3203 2459 
Q 3291 2131 3291 1694 
z
M 2700 1694 
Q 2700 2088 2639 2344 
Q 2578 2600 2461 2753 
Q 2344 2906 2175 2967 
Q 2006 3028 1794 3028 
Q 1578 3028 1404 2964 
Q 1231 2900 1109 2745 
Q 988 2591 923 2334 
Q 859 2078 859 1694 
Q 859 1300 928 1042 
Q 997 784 1117 631 
Q 1238 478 1402 415 
Q 1566 353 1759 353 
Q 1975 353 2150 414 
Q 2325 475 2447 628 
Q 2569 781 2634 1040 
Q 2700 1300 2700 1694 
z
" transform="scale(0.015625)"/>
       <path id="LiberationSans-67" d="M 1713 -1328 
Q 1422 -1328 1197 -1268 
Q 972 -1209 812 -1098 
Q 653 -988 553 -834 
Q 453 -681 409 -494 
L 975 -413 
Q 1031 -647 1223 -773 
Q 1416 -900 1728 -900 
Q 1919 -900 2075 -847 
Q 2231 -794 2340 -676 
Q 2450 -559 2509 -371 
Q 2569 -184 2569 84 
L 2569 628 
L 2563 628 
Q 2500 500 2408 383 
Q 2316 266 2183 175 
Q 2050 84 1875 29 
Q 1700 -25 1475 -25 
Q 1153 -25 923 83 
Q 694 191 548 406 
Q 403 622 336 942 
Q 269 1263 269 1684 
Q 269 2091 336 2416 
Q 403 2741 554 2967 
Q 706 3194 948 3314 
Q 1191 3434 1538 3434 
Q 1897 3434 2161 3270 
Q 2425 3106 2569 2803 
L 2575 2803 
Q 2575 2881 2579 2978 
Q 2584 3075 2589 3161 
Q 2594 3247 2600 3309 
Q 2606 3372 2613 3381 
L 3147 3381 
Q 3144 3353 3141 3286 
Q 3138 3219 3134 3125 
Q 3131 3031 3129 2917 
Q 3128 2803 3128 2681 
L 3128 97 
Q 3128 -613 2779 -970 
Q 2431 -1328 1713 -1328 
z
M 2569 1691 
Q 2569 2044 2492 2295 
Q 2416 2547 2291 2706 
Q 2166 2866 2005 2941 
Q 1844 3016 1675 3016 
Q 1459 3016 1304 2941 
Q 1150 2866 1048 2705 
Q 947 2544 898 2292 
Q 850 2041 850 1691 
Q 850 1325 898 1076 
Q 947 828 1047 675 
Q 1147 522 1300 456 
Q 1453 391 1666 391 
Q 1834 391 1995 462 
Q 2156 534 2284 690 
Q 2413 847 2491 1094 
Q 2569 1341 2569 1691 
z
" transform="scale(0.015625)"/>
       <path id="LiberationSans-2d" d="M 284 1450 
L 284 1950 
L 1847 1950 
L 1847 1450 
L 284 1450 
z
" transform="scale(0.015625)"/>
       <path id="LiberationSans-6c" d="M 431 0 
L 431 4638 
L 994 4638 
L 994 0 
L 431 0 
z
" transform="scale(0.015625)"/>
       <path id="LiberationSans-69" d="M 428 4100 
L 428 4638 
L 991 4638 
L 991 4100 
L 428 4100 
z
M 428 0 
L 428 3381 
L 991 3381 
L 991 0 
L 428 0 
z
" transform="scale(0.015625)"/>
       <path id="LiberationSans-6b" d="M 2550 0 
L 1406 1544 
L 994 1203 
L 994 0 
L 431 0 
L 431 4638 
L 994 4638 
L 994 1741 
L 2478 3381 
L 3138 3381 
L 1766 1928 
L 3209 0 
L 2550 0 
z
" transform="scale(0.015625)"/>
       <path id="LiberationSans-65" d="M 863 1572 
Q 863 1306 917 1082 
Q 972 859 1086 698 
Q 1200 538 1378 448 
Q 1556 359 1806 359 
Q 2172 359 2392 506 
Q 2613 653 2691 878 
L 3184 738 
Q 3131 597 3036 455 
Q 2941 313 2781 198 
Q 2622 84 2383 10 
Q 2144 -63 1806 -63 
Q 1056 -63 664 384 
Q 272 831 272 1713 
Q 272 2188 390 2517 
Q 509 2847 715 3053 
Q 922 3259 1197 3351 
Q 1472 3444 1784 3444 
Q 2209 3444 2495 3306 
Q 2781 3169 2954 2926 
Q 3128 2684 3201 2356 
Q 3275 2028 3275 1647 
L 3275 1572 
L 863 1572 
z
M 2694 2003 
Q 2647 2538 2422 2783 
Q 2197 3028 1775 3028 
Q 1634 3028 1479 2983 
Q 1325 2938 1194 2822 
Q 1063 2706 972 2507 
Q 881 2309 869 2003 
L 2694 2003 
z
" transform="scale(0.015625)"/>
       <path id="LiberationSans-68" d="M 991 2803 
Q 1084 2975 1193 3095 
Q 1303 3216 1434 3294 
Q 1566 3372 1722 3408 
Q 1878 3444 2072 3444 
Q 2397 3444 2605 3356 
Q 2813 3269 2933 3111 
Q 3053 2953 3098 2734 
Q 3144 2516 3144 2253 
L 3144 0 
L 2578 0 
L 2578 2144 
Q 2578 2359 2551 2521 
Q 2525 2684 2450 2792 
Q 2375 2900 2237 2954 
Q 2100 3009 1881 3009 
Q 1681 3009 1520 2937 
Q 1359 2866 1245 2734 
Q 1131 2603 1068 2415 
Q 1006 2228 1006 1994 
L 1006 0 
L 444 0 
L 444 4638 
L 1006 4638 
L 1006 3431 
Q 1006 3328 1003 3225 
Q 1000 3122 995 3034 
Q 991 2947 987 2886 
Q 984 2825 981 2803 
L 991 2803 
z
" transform="scale(0.015625)"/>
       <path id="LiberationSans-64" d="M 2566 544 
Q 2409 219 2151 78 
Q 1894 -63 1513 -63 
Q 872 -63 570 368 
Q 269 800 269 1675 
Q 269 3444 1513 3444 
Q 1897 3444 2153 3303 
Q 2409 3163 2566 2856 
L 2572 2856 
Q 2572 2888 2570 2955 
Q 2569 3022 2567 3095 
Q 2566 3169 2566 3234 
Q 2566 3300 2566 3328 
L 2566 4638 
L 3128 4638 
L 3128 697 
Q 3128 575 3129 462 
Q 3131 350 3134 256 
Q 3138 163 3141 95 
Q 3144 28 3147 0 
L 2609 0 
Q 2603 31 2598 89 
Q 2594 147 2589 222 
Q 2584 297 2581 380 
Q 2578 463 2578 544 
L 2566 544 
z
M 859 1694 
Q 859 1344 903 1094 
Q 947 844 1044 683 
Q 1141 522 1291 447 
Q 1441 372 1656 372 
Q 1878 372 2048 444 
Q 2219 516 2333 677 
Q 2447 838 2506 1097 
Q 2566 1356 2566 1731 
Q 2566 2091 2506 2339 
Q 2447 2588 2331 2741 
Q 2216 2894 2048 2961 
Q 1881 3028 1663 3028 
Q 1456 3028 1306 2956 
Q 1156 2884 1056 2725 
Q 956 2566 907 2311 
Q 859 2056 859 1694 
z
" transform="scale(0.015625)"/>
      </defs>
      <use xlink:href="#DejaVuSans-394" transform="translate(0 0.09375)"/>
      <use xlink:href="#LiberationSans-4c" transform="translate(68.408203 0.09375)"/>
      <use xlink:href="#LiberationSans-6f" transform="translate(124.023438 0.09375)"/>
      <use xlink:href="#LiberationSans-67" transform="translate(179.638672 0.09375)"/>
      <use xlink:href="#LiberationSans-2d" transform="translate(235.253906 0.09375)"/>
      <use xlink:href="#LiberationSans-6c" transform="translate(268.554688 0.09375)"/>
      <use xlink:href="#LiberationSans-69" transform="translate(290.771484 0.09375)"/>
      <use xlink:href="#LiberationSans-6b" transform="translate(312.988281 0.09375)"/>
      <use xlink:href="#LiberationSans-65" transform="translate(362.988281 0.09375)"/>
      <use xlink:href="#LiberationSans-6c" transform="translate(418.603516 0.09375)"/>
      <use xlink:href="#LiberationSans-69" transform="translate(440.820312 0.09375)"/>
      <use xlink:href="#LiberationSans-68" transform="translate(463.037109 0.09375)"/>
      <use xlink:href="#LiberationSans-6f" transform="translate(518.652344 0.09375)"/>
      <use xlink:href="#LiberationSans-6f" transform="translate(574.267578 0.09375)"/>
      <use xlink:href="#LiberationSans-64" transform="translate(629.882812 0.09375)"/>
     </g>
    </g>
   </g>
   <g id="matplotlib.axis_2">
    <g id="ytick_1">
     <g id="line2d_4">
      <defs>
       <path id="m5b8935e679" d="M 0 0 
L -5 0 
" style="stroke: #000000; stroke-width: 1.6"/>
      </defs>
      <g>
       <use xlink:href="#m5b8935e679" x="108" y="256.32" style="stroke: #000000; stroke-width: 1.6"/>
      </g>
     </g>
     <g id="text_5">
      <!-- $\mathdefault{0}$ -->
      <g transform="translate(92.78 260.668125) scale(0.12 -0.12)">
       <use xlink:href="#LiberationSans-30" transform="translate(0 0.171875)"/>
      </g>
     </g>
    </g>
    <g id="ytick_2">
     <g id="line2d_5">
      <g>
       <use xlink:href="#m5b8935e679" x="108" y="200.88" style="stroke: #000000; stroke-width: 1.6"/>
      </g>
     </g>
     <g id="text_6">
      <!-- $\mathdefault{1}$ -->
      <g transform="translate(92.78 205.228125) scale(0.12 -0.12)">
       <defs>
        <path id="LiberationSans-31" d="M 488 0 
L 488 478 
L 1609 478 
L 1609 3866 
L 616 3156 
L 616 3688 
L 1656 4403 
L 2175 4403 
L 2175 478 
L 3247 478 
L 3247 0 
L 488 0 
z
" transform="scale(0.015625)"/>
       </defs>
       <use xlink:href="#LiberationSans-31" transform="translate(0 0.203125)"/>
      </g>
     </g>
    </g>
    <g id="ytick_3">
     <g id="line2d_6">
      <g>
       <use xlink:href="#m5b8935e679" x="108" y="145.44" style="stroke: #000000; stroke-width: 1.6"/>
      </g>
     </g>
     <g id="text_7">
      <!-- $\mathdefault{2}$ -->
      <g transform="translate(92.78 149.788125) scale(0.12 -0.12)">
       <use xlink:href="#LiberationSans-32" transform="translate(0 0.171875)"/>
      </g>
     </g>
    </g>
    <g id="ytick_4">
     <g id="line2d_7">
      <g>
       <use xlink:href="#m5b8935e679" x="108" y="90" style="stroke: #000000; stroke-width: 1.6"/>
      </g>
     </g>
     <g id="text_8">
      <!-- $\mathdefault{3}$ -->
      <g transform="translate(92.78 94.348125) scale(0.12 -0.12)">
       <defs>
        <path id="LiberationSans-33" d="M 3278 1216 
Q 3278 913 3179 675 
Q 3081 438 2892 273 
Q 2703 109 2423 23 
Q 2144 -63 1784 -63 
Q 1375 -63 1095 39 
Q 816 141 634 308 
Q 453 475 362 689 
Q 272 903 244 1131 
L 825 1184 
Q 850 1009 917 865 
Q 984 722 1100 619 
Q 1216 516 1384 459 
Q 1553 403 1784 403 
Q 2209 403 2451 612 
Q 2694 822 2694 1234 
Q 2694 1478 2586 1626 
Q 2478 1775 2317 1858 
Q 2156 1941 1967 1969 
Q 1778 1997 1619 1997 
L 1300 1997 
L 1300 2484 
L 1606 2484 
Q 1766 2484 1937 2517 
Q 2109 2550 2251 2636 
Q 2394 2722 2486 2869 
Q 2578 3016 2578 3244 
Q 2578 3597 2370 3801 
Q 2163 4006 1753 4006 
Q 1381 4006 1151 3815 
Q 922 3625 884 3278 
L 319 3322 
Q 353 3613 478 3828 
Q 603 4044 795 4186 
Q 988 4328 1234 4398 
Q 1481 4469 1759 4469 
Q 2128 4469 2393 4376 
Q 2659 4284 2828 4126 
Q 2997 3969 3076 3756 
Q 3156 3544 3156 3303 
Q 3156 3109 3103 2940 
Q 3050 2772 2937 2637 
Q 2825 2503 2651 2406 
Q 2478 2309 2234 2259 
L 2234 2247 
Q 2500 2219 2697 2126 
Q 2894 2034 3022 1896 
Q 3150 1759 3214 1584 
Q 3278 1409 3278 1216 
z
" transform="scale(0.015625)"/>
       </defs>
       <use xlink:href="#LiberationSans-33" transform="translate(0 0.171875)"/>
      </g>
     </g>
    </g>
    <g id="ytick_5">
     <g id="line2d_8">
      <g>
       <use xlink:href="#m5b8935e679" x="108" y="34.56" style="stroke: #000000; stroke-width: 1.6"/>
      </g>
     </g>
     <g id="text_9">
      <!-- $\mathdefault{4}$ -->
      <g transform="translate(92.78 38.908125) scale(0.12 -0.12)">
       <use xlink:href="#LiberationSans-34" transform="translate(0 0.203125)"/>
      </g>
     </g>
    </g>
    <g id="text_10">
     <!-- # Ripples -->
     <g transform="translate(82.6675 176.705625) rotate(-90) scale(0.15 -0.15)">
      <defs>
       <path id="LiberationSans-23" d="M 2800 2766 
L 2556 1613 
L 3369 1613 
L 3369 1275 
L 2484 1275 
L 2209 0 
L 1866 0 
L 2134 1275 
L 1000 1275 
L 738 0 
L 394 0 
L 656 1275 
L 28 1275 
L 28 1613 
L 731 1613 
L 975 2766 
L 188 2766 
L 188 3103 
L 1044 3103 
L 1322 4378 
L 1666 4378 
L 1391 3103 
L 2525 3103 
L 2800 4378 
L 3144 4378 
L 2869 3103 
L 3528 3103 
L 3528 2766 
L 2800 2766 
z
M 1328 2766 
L 1078 1613 
L 2209 1613 
L 2453 2766 
L 1328 2766 
z
" transform="scale(0.015625)"/>
       <path id="LiberationSans-20" transform="scale(0.015625)"/>
       <path id="LiberationSans-52" d="M 3638 0 
L 2494 1828 
L 1122 1828 
L 1122 0 
L 525 0 
L 525 4403 
L 2597 4403 
Q 2972 4403 3261 4317 
Q 3550 4231 3747 4068 
Q 3944 3906 4047 3672 
Q 4150 3438 4150 3144 
Q 4150 2934 4089 2731 
Q 4028 2528 3897 2359 
Q 3766 2191 3562 2069 
Q 3359 1947 3075 1897 
L 4325 0 
L 3638 0 
z
M 3550 3138 
Q 3550 3338 3481 3484 
Q 3413 3631 3281 3729 
Q 3150 3828 2962 3876 
Q 2775 3925 2538 3925 
L 1122 3925 
L 1122 2300 
L 2563 2300 
Q 2819 2300 3006 2364 
Q 3194 2428 3314 2540 
Q 3434 2653 3492 2806 
Q 3550 2959 3550 3138 
z
" transform="scale(0.015625)"/>
       <path id="LiberationSans-70" d="M 3291 1706 
Q 3291 1322 3228 997 
Q 3166 672 3020 437 
Q 2875 203 2636 70 
Q 2397 -63 2047 -63 
Q 1684 -63 1412 75 
Q 1141 213 997 525 
L 981 525 
Q 984 519 986 469 
Q 988 419 989 344 
Q 991 269 992 176 
Q 994 84 994 -6 
L 994 -1328 
L 431 -1328 
L 431 2691 
Q 431 2813 429 2925 
Q 428 3038 425 3130 
Q 422 3222 419 3287 
Q 416 3353 413 3381 
L 956 3381 
Q 959 3372 964 3315 
Q 969 3259 973 3179 
Q 978 3100 983 3009 
Q 988 2919 988 2838 
L 1000 2838 
Q 1078 3000 1178 3114 
Q 1278 3228 1406 3301 
Q 1534 3375 1692 3408 
Q 1850 3441 2047 3441 
Q 2397 3441 2636 3316 
Q 2875 3191 3020 2964 
Q 3166 2738 3228 2417 
Q 3291 2097 3291 1706 
z
M 2700 1694 
Q 2700 2006 2662 2250 
Q 2625 2494 2533 2662 
Q 2441 2831 2287 2918 
Q 2134 3006 1903 3006 
Q 1716 3006 1550 2953 
Q 1384 2900 1261 2750 
Q 1138 2600 1066 2336 
Q 994 2072 994 1650 
Q 994 1291 1053 1042 
Q 1113 794 1227 641 
Q 1341 488 1509 420 
Q 1678 353 1897 353 
Q 2131 353 2286 443 
Q 2441 534 2533 706 
Q 2625 878 2662 1126 
Q 2700 1375 2700 1694 
z
" transform="scale(0.015625)"/>
       <path id="LiberationSans-73" d="M 2969 934 
Q 2969 697 2876 511 
Q 2784 325 2609 198 
Q 2434 72 2179 4 
Q 1925 -63 1597 -63 
Q 1303 -63 1067 -17 
Q 831 28 653 128 
Q 475 228 354 392 
Q 234 556 178 794 
L 675 891 
Q 747 619 972 492 
Q 1197 366 1597 366 
Q 1778 366 1929 391 
Q 2081 416 2190 477 
Q 2300 538 2361 639 
Q 2422 741 2422 891 
Q 2422 1044 2350 1142 
Q 2278 1241 2150 1306 
Q 2022 1372 1839 1420 
Q 1656 1469 1438 1528 
Q 1234 1581 1034 1647 
Q 834 1713 673 1820 
Q 513 1928 413 2087 
Q 313 2247 313 2488 
Q 313 2950 642 3192 
Q 972 3434 1603 3434 
Q 2163 3434 2492 3237 
Q 2822 3041 2909 2606 
L 2403 2544 
Q 2375 2675 2300 2764 
Q 2225 2853 2119 2908 
Q 2013 2963 1880 2986 
Q 1747 3009 1603 3009 
Q 1222 3009 1040 2893 
Q 859 2778 859 2544 
Q 859 2406 926 2317 
Q 994 2228 1114 2167 
Q 1234 2106 1403 2061 
Q 1572 2016 1775 1966 
Q 1909 1931 2050 1892 
Q 2191 1853 2323 1798 
Q 2456 1744 2573 1670 
Q 2691 1597 2778 1494 
Q 2866 1391 2917 1253 
Q 2969 1116 2969 934 
z
" transform="scale(0.015625)"/>
      </defs>
      <use xlink:href="#LiberationSans-23"/>
      <use xlink:href="#LiberationSans-20" x="55.615234"/>
      <use xlink:href="#LiberationSans-52" x="83.398438"/>
      <use xlink:href="#LiberationSans-69" x="155.615234"/>
      <use xlink:href="#LiberationSans-70" x="177.832031"/>
      <use xlink:href="#LiberationSans-70" x="233.447266"/>
      <use xlink:href="#LiberationSans-6c" x="289.0625"/>
      <use xlink:href="#LiberationSans-65" x="311.279297"/>
      <use xlink:href="#LiberationSans-73" x="366.894531"/>
     </g>
    </g>
    <g id="text_11">
     <!-- $\times\mathdefault{10^{3}}\mathdefault{}$ -->
     <g transform="translate(108 31.56) scale(0.12 -0.12)">
      <defs>
       <path id="DejaVuSans-d7" d="M 4488 3438 
L 3059 2003 
L 4488 575 
L 4116 197 
L 2681 1631 
L 1247 197 
L 878 575 
L 2303 2003 
L 878 3438 
L 1247 3816 
L 2681 2381 
L 4116 3816 
L 4488 3438 
z
" transform="scale(0.015625)"/>
      </defs>
      <use xlink:href="#DejaVuSans-d7" transform="translate(0 0.140625)"/>
      <use xlink:href="#LiberationSans-31" transform="translate(83.789062 0.140625)"/>
      <use xlink:href="#LiberationSans-30" transform="translate(139.404297 0.140625)"/>
      <use xlink:href="#LiberationSans-33" transform="translate(195.944023 37.120312) scale(0.7)"/>
     </g>
    </g>
   </g>
   <g id="line2d_9">
    <path d="M 157.092784 256.32 
L 157.092784 34.56 
" clip-path="url(#pe806864163)" style="fill: none; stroke-dasharray: 11.1,4.8; stroke-dashoffset: 0; stroke: #d62728; stroke-opacity: 0.5; stroke-width: 3"/>
   </g>
   <g id="patch_43">
    <path d="M 108 256.32 
L 108 34.56 
" style="fill: none; stroke: #000000; stroke-width: 1.6; stroke-linejoin: miter; stroke-linecap: square"/>
   </g>
   <g id="patch_44">
    <path d="M 108 256.32 
L 304.941176 256.32 
" style="fill: none; stroke: #000000; stroke-width: 1.6; stroke-linejoin: miter; stroke-linecap: square"/>
   </g>
  </g>
  <g id="axes_2">
   <g id="patch_45">
    <path d="M 344.329412 256.32 
L 541.270588 256.32 
L 541.270588 34.56 
L 344.329412 34.56 
z
" style="fill: #ffffff"/>
   </g>
   <g id="patch_46">
    <path d="M 353.281283 256.32 
L 357.757219 256.32 
L 357.757219 256.216749 
L 353.281283 256.216749 
z
" clip-path="url(#p50ec27694e)" style="fill: #6e98ec; stroke: #ffffff; stroke-linejoin: miter"/>
   </g>
   <g id="patch_47">
    <path d="M 357.757219 256.32 
L 362.233155 256.32 
L 362.233155 256.216749 
L 357.757219 256.216749 
z
" clip-path="url(#p50ec27694e)" style="fill: #6e98ec; stroke: #ffffff; stroke-linejoin: miter"/>
   </g>
   <g id="patch_48">
    <path d="M 362.233155 256.32 
L 366.709091 256.32 
L 366.709091 256.165123 
L 362.233155 256.165123 
z
" clip-path="url(#p50ec27694e)" style="fill: #6e98ec; stroke: #ffffff; stroke-linejoin: miter"/>
   </g>
   <g id="patch_49">
    <path d="M 366.709091 256.32 
L 371.185027 256.32 
L 371.185027 255.752119 
L 366.709091 255.752119 
z
" clip-path="url(#p50ec27694e)" style="fill: #6e98ec; stroke: #ffffff; stroke-linejoin: miter"/>
   </g>
   <g id="patch_50">
    <path d="M 371.185027 256.32 
L 375.660963 256.32 
L 375.660963 255.493992 
L 371.185027 255.493992 
z
" clip-path="url(#p50ec27694e)" style="fill: #6e98ec; stroke: #ffffff; stroke-linejoin: miter"/>
   </g>
   <g id="patch_51">
    <path d="M 375.660963 256.32 
L 380.136898 256.32 
L 380.136898 249.453806 
L 375.660963 249.453806 
z
" clip-path="url(#p50ec27694e)" style="fill: #6e98ec; stroke: #ffffff; stroke-linejoin: miter"/>
   </g>
   <g id="patch_52">
    <path d="M 380.136898 256.32 
L 384.612834 256.32 
L 384.612834 234.947035 
L 380.136898 234.947035 
z
" clip-path="url(#p50ec27694e)" style="fill: #6e98ec; stroke: #ffffff; stroke-linejoin: miter"/>
   </g>
   <g id="patch_53">
    <path d="M 384.612834 256.32 
L 389.08877 256.32 
L 389.08877 126.172066 
L 384.612834 126.172066 
z
" clip-path="url(#p50ec27694e)" style="fill: #6e98ec; stroke: #ffffff; stroke-linejoin: miter"/>
   </g>
   <g id="patch_54">
    <path d="M 389.08877 256.32 
L 393.564706 256.32 
L 393.564706 104.127969 
L 389.08877 104.127969 
z
" clip-path="url(#p50ec27694e)" style="fill: #6e98ec; stroke: #ffffff; stroke-linejoin: miter"/>
   </g>
   <g id="patch_55">
    <path d="M 393.564706 256.32 
L 398.040642 256.32 
L 398.040642 45.12 
L 393.564706 45.12 
z
" clip-path="url(#p50ec27694e)" style="fill: #6e98ec; stroke: #ffffff; stroke-linejoin: miter"/>
   </g>
   <g id="patch_56">
    <path d="M 398.040642 256.32 
L 402.516578 256.32 
L 402.516578 164.116822 
L 398.040642 164.116822 
z
" clip-path="url(#p50ec27694e)" style="fill: #6e98ec; stroke: #ffffff; stroke-linejoin: miter"/>
   </g>
   <g id="patch_57">
    <path d="M 402.516578 256.32 
L 406.992513 256.32 
L 406.992513 199.377052 
L 402.516578 199.377052 
z
" clip-path="url(#p50ec27694e)" style="fill: #6e98ec; stroke: #ffffff; stroke-linejoin: miter"/>
   </g>
   <g id="patch_58">
    <path d="M 406.992513 256.32 
L 411.468449 256.32 
L 411.468449 215.690716 
L 406.992513 215.690716 
z
" clip-path="url(#p50ec27694e)" style="fill: #6e98ec; stroke: #ffffff; stroke-linejoin: miter"/>
   </g>
   <g id="patch_59">
    <path d="M 411.468449 256.32 
L 415.944385 256.32 
L 415.944385 228.545471 
L 411.468449 228.545471 
z
" clip-path="url(#p50ec27694e)" style="fill: #6e98ec; stroke: #ffffff; stroke-linejoin: miter"/>
   </g>
   <g id="patch_60">
    <path d="M 415.944385 256.32 
L 420.420321 256.32 
L 420.420321 235.566541 
L 415.944385 235.566541 
z
" clip-path="url(#p50ec27694e)" style="fill: #6e98ec; stroke: #ffffff; stroke-linejoin: miter"/>
   </g>
   <g id="patch_61">
    <path d="M 420.420321 256.32 
L 424.896257 256.32 
L 424.896257 241.968106 
L 420.420321 241.968106 
z
" clip-path="url(#p50ec27694e)" style="fill: #6e98ec; stroke: #ffffff; stroke-linejoin: miter"/>
   </g>
   <g id="patch_62">
    <path d="M 424.896257 256.32 
L 429.372193 256.32 
L 429.372193 244.755884 
L 424.896257 244.755884 
z
" clip-path="url(#p50ec27694e)" style="fill: #6e98ec; stroke: #ffffff; stroke-linejoin: miter"/>
   </g>
   <g id="patch_63">
    <path d="M 429.372193 256.32 
L 433.848128 256.32 
L 433.848128 247.233909 
L 429.372193 247.233909 
z
" clip-path="url(#p50ec27694e)" style="fill: #6e98ec; stroke: #ffffff; stroke-linejoin: miter"/>
   </g>
   <g id="patch_64">
    <path d="M 433.848128 256.32 
L 438.324064 256.32 
L 438.324064 249.195678 
L 433.848128 249.195678 
z
" clip-path="url(#p50ec27694e)" style="fill: #6e98ec; stroke: #ffffff; stroke-linejoin: miter"/>
   </g>
   <g id="patch_65">
    <path d="M 438.324064 256.32 
L 442.8 256.32 
L 442.8 249.608682 
L 438.324064 249.608682 
z
" clip-path="url(#p50ec27694e)" style="fill: #6e98ec; stroke: #ffffff; stroke-linejoin: miter"/>
   </g>
   <g id="patch_66">
    <path d="M 442.8 256.32 
L 447.275936 256.32 
L 447.275936 250.692818 
L 442.8 250.692818 
z
" clip-path="url(#p50ec27694e)" style="fill: #6e98ec; stroke: #ffffff; stroke-linejoin: miter"/>
   </g>
   <g id="patch_67">
    <path d="M 447.275936 256.32 
L 451.751872 256.32 
L 451.751872 251.312325 
L 447.275936 251.312325 
z
" clip-path="url(#p50ec27694e)" style="fill: #6e98ec; stroke: #ffffff; stroke-linejoin: miter"/>
   </g>
   <g id="patch_68">
    <path d="M 451.751872 256.32 
L 456.227807 256.32 
L 456.227807 252.241584 
L 451.751872 252.241584 
z
" clip-path="url(#p50ec27694e)" style="fill: #6e98ec; stroke: #ffffff; stroke-linejoin: miter"/>
   </g>
   <g id="patch_69">
    <path d="M 456.227807 256.32 
L 460.703743 256.32 
L 460.703743 252.757839 
L 456.227807 252.757839 
z
" clip-path="url(#p50ec27694e)" style="fill: #6e98ec; stroke: #ffffff; stroke-linejoin: miter"/>
   </g>
   <g id="patch_70">
    <path d="M 460.703743 256.32 
L 465.179679 256.32 
L 465.179679 253.428971 
L 460.703743 253.428971 
z
" clip-path="url(#p50ec27694e)" style="fill: #6e98ec; stroke: #ffffff; stroke-linejoin: miter"/>
   </g>
   <g id="patch_71">
    <path d="M 465.179679 256.32 
L 469.655615 256.32 
L 469.655615 253.32572 
L 465.179679 253.32572 
z
" clip-path="url(#p50ec27694e)" style="fill: #6e98ec; stroke: #ffffff; stroke-linejoin: miter"/>
   </g>
   <g id="patch_72">
    <path d="M 469.655615 256.32 
L 474.131551 256.32 
L 474.131551 254.409856 
L 469.655615 254.409856 
z
" clip-path="url(#p50ec27694e)" style="fill: #6e98ec; stroke: #ffffff; stroke-linejoin: miter"/>
   </g>
   <g id="patch_73">
    <path d="M 474.131551 256.32 
L 478.607487 256.32 
L 478.607487 255.080988 
L 474.131551 255.080988 
z
" clip-path="url(#p50ec27694e)" style="fill: #6e98ec; stroke: #ffffff; stroke-linejoin: miter"/>
   </g>
   <g id="patch_74">
    <path d="M 478.607487 256.32 
L 483.083422 256.32 
L 483.083422 254.771234 
L 478.607487 254.771234 
z
" clip-path="url(#p50ec27694e)" style="fill: #6e98ec; stroke: #ffffff; stroke-linejoin: miter"/>
   </g>
   <g id="patch_75">
    <path d="M 483.083422 256.32 
L 487.559358 256.32 
L 487.559358 254.409856 
L 483.083422 254.409856 
z
" clip-path="url(#p50ec27694e)" style="fill: #6e98ec; stroke: #ffffff; stroke-linejoin: miter"/>
   </g>
   <g id="patch_76">
    <path d="M 487.559358 256.32 
L 492.035294 256.32 
L 492.035294 254.874485 
L 487.559358 254.874485 
z
" clip-path="url(#p50ec27694e)" style="fill: #6e98ec; stroke: #ffffff; stroke-linejoin: miter"/>
   </g>
   <g id="patch_77">
    <path d="M 492.035294 256.32 
L 496.51123 256.32 
L 496.51123 255.029362 
L 492.035294 255.029362 
z
" clip-path="url(#p50ec27694e)" style="fill: #6e98ec; stroke: #ffffff; stroke-linejoin: miter"/>
   </g>
   <g id="patch_78">
    <path d="M 496.51123 256.32 
L 500.987166 256.32 
L 500.987166 255.339115 
L 496.51123 255.339115 
z
" clip-path="url(#p50ec27694e)" style="fill: #6e98ec; stroke: #ffffff; stroke-linejoin: miter"/>
   </g>
   <g id="patch_79">
    <path d="M 500.987166 256.32 
L 505.463102 256.32 
L 505.463102 254.874485 
L 500.987166 254.874485 
z
" clip-path="url(#p50ec27694e)" style="fill: #6e98ec; stroke: #ffffff; stroke-linejoin: miter"/>
   </g>
   <g id="patch_80">
    <path d="M 505.463102 256.32 
L 509.939037 256.32 
L 509.939037 255.700494 
L 505.463102 255.700494 
z
" clip-path="url(#p50ec27694e)" style="fill: #6e98ec; stroke: #ffffff; stroke-linejoin: miter"/>
   </g>
   <g id="patch_81">
    <path d="M 509.939037 256.32 
L 514.414973 256.32 
L 514.414973 255.85537 
L 509.939037 255.85537 
z
" clip-path="url(#p50ec27694e)" style="fill: #6e98ec; stroke: #ffffff; stroke-linejoin: miter"/>
   </g>
   <g id="patch_82">
    <path d="M 514.414973 256.32 
L 518.890909 256.32 
L 518.890909 255.597243 
L 514.414973 255.597243 
z
" clip-path="url(#p50ec27694e)" style="fill: #6e98ec; stroke: #ffffff; stroke-linejoin: miter"/>
   </g>
   <g id="patch_83">
    <path d="M 518.890909 256.32 
L 523.366845 256.32 
L 523.366845 255.648868 
L 518.890909 255.648868 
z
" clip-path="url(#p50ec27694e)" style="fill: #6e98ec; stroke: #ffffff; stroke-linejoin: miter"/>
   </g>
   <g id="patch_84">
    <path d="M 523.366845 256.32 
L 527.842781 256.32 
L 527.842781 255.958621 
L 523.366845 255.958621 
z
" clip-path="url(#p50ec27694e)" style="fill: #6e98ec; stroke: #ffffff; stroke-linejoin: miter"/>
   </g>
   <g id="patch_85">
    <path d="M 527.842781 256.32 
L 532.318717 256.32 
L 532.318717 255.803745 
L 527.842781 255.803745 
z
" clip-path="url(#p50ec27694e)" style="fill: #6e98ec; stroke: #ffffff; stroke-linejoin: miter"/>
   </g>
   <g id="matplotlib.axis_3">
    <g id="xtick_4">
     <g id="line2d_10">
      <g>
       <use xlink:href="#mfa29ea6182" x="353.02156" y="256.32" style="stroke: #000000; stroke-width: 1.6"/>
      </g>
     </g>
     <g id="text_12">
      <!-- −5 -->
      <g transform="translate(346.180623 273.51625) scale(0.12 -0.12)">
       <defs>
        <path id="LiberationSans-2212" d="M 316 1900 
L 316 2356 
L 3425 2356 
L 3425 1900 
L 316 1900 
z
" transform="scale(0.015625)"/>
        <path id="LiberationSans-35" d="M 3291 1434 
Q 3291 1103 3191 828 
Q 3091 553 2894 354 
Q 2697 156 2405 46 
Q 2113 -63 1728 -63 
Q 1381 -63 1123 18 
Q 866 100 687 242 
Q 509 384 404 575 
Q 300 766 256 984 
L 825 1050 
Q 859 925 921 808 
Q 984 691 1092 598 
Q 1200 506 1358 451 
Q 1516 397 1741 397 
Q 1959 397 2137 464 
Q 2316 531 2442 662 
Q 2569 794 2637 984 
Q 2706 1175 2706 1422 
Q 2706 1625 2640 1795 
Q 2575 1966 2453 2089 
Q 2331 2213 2154 2281 
Q 1978 2350 1753 2350 
Q 1613 2350 1494 2325 
Q 1375 2300 1273 2256 
Q 1172 2213 1089 2155 
Q 1006 2097 934 2034 
L 384 2034 
L 531 4403 
L 3034 4403 
L 3034 3925 
L 1044 3925 
L 959 2528 
Q 1109 2644 1334 2726 
Q 1559 2809 1869 2809 
Q 2197 2809 2459 2709 
Q 2722 2609 2906 2426 
Q 3091 2244 3191 1991 
Q 3291 1738 3291 1434 
z
" transform="scale(0.015625)"/>
       </defs>
       <use xlink:href="#LiberationSans-2212"/>
       <use xlink:href="#LiberationSans-35" x="58.398438"/>
      </g>
     </g>
    </g>
    <g id="xtick_5">
     <g id="line2d_11">
      <g>
       <use xlink:href="#mfa29ea6182" x="412.787279" y="256.32" style="stroke: #000000; stroke-width: 1.6"/>
      </g>
     </g>
     <g id="text_13">
      <!-- 0 -->
      <g transform="translate(409.450717 273.51625) scale(0.12 -0.12)">
       <use xlink:href="#LiberationSans-30"/>
      </g>
     </g>
    </g>
    <g id="xtick_6">
     <g id="line2d_12">
      <g>
       <use xlink:href="#mfa29ea6182" x="472.552998" y="256.32" style="stroke: #000000; stroke-width: 1.6"/>
      </g>
     </g>
     <g id="text_14">
      <!-- 5 -->
      <g transform="translate(469.216435 273.51625) scale(0.12 -0.12)">
       <use xlink:href="#LiberationSans-35"/>
      </g>
     </g>
    </g>
    <g id="xtick_7">
     <g id="line2d_13">
      <g>
       <use xlink:href="#mfa29ea6182" x="532.318717" y="256.32" style="stroke: #000000; stroke-width: 1.6"/>
      </g>
     </g>
     <g id="text_15">
      <!-- 10 -->
      <g transform="translate(525.645592 273.51625) scale(0.12 -0.12)">
       <use xlink:href="#LiberationSans-31"/>
       <use xlink:href="#LiberationSans-30" x="55.615234"/>
      </g>
     </g>
    </g>
    <g id="text_16">
     <!-- $\Delta$Log-likelihood -->
     <g transform="translate(391.35 293.95625) scale(0.15 -0.15)">
      <use xlink:href="#DejaVuSans-394" transform="translate(0 0.09375)"/>
      <use xlink:href="#LiberationSans-4c" transform="translate(68.408203 0.09375)"/>
      <use xlink:href="#LiberationSans-6f" transform="translate(124.023438 0.09375)"/>
      <use xlink:href="#LiberationSans-67" transform="translate(179.638672 0.09375)"/>
      <use xlink:href="#LiberationSans-2d" transform="translate(235.253906 0.09375)"/>
      <use xlink:href="#LiberationSans-6c" transform="translate(268.554688 0.09375)"/>
      <use xlink:href="#LiberationSans-69" transform="translate(290.771484 0.09375)"/>
      <use xlink:href="#LiberationSans-6b" transform="translate(312.988281 0.09375)"/>
      <use xlink:href="#LiberationSans-65" transform="translate(362.988281 0.09375)"/>
      <use xlink:href="#LiberationSans-6c" transform="translate(418.603516 0.09375)"/>
      <use xlink:href="#LiberationSans-69" transform="translate(440.820312 0.09375)"/>
      <use xlink:href="#LiberationSans-68" transform="translate(463.037109 0.09375)"/>
      <use xlink:href="#LiberationSans-6f" transform="translate(518.652344 0.09375)"/>
      <use xlink:href="#LiberationSans-6f" transform="translate(574.267578 0.09375)"/>
      <use xlink:href="#LiberationSans-64" transform="translate(629.882812 0.09375)"/>
     </g>
    </g>
   </g>
   <g id="matplotlib.axis_4">
    <g id="ytick_6">
     <g id="line2d_14">
      <g>
       <use xlink:href="#m5b8935e679" x="344.329412" y="256.32" style="stroke: #000000; stroke-width: 1.6"/>
      </g>
     </g>
     <g id="text_17">
      <!-- $\mathdefault{0}$ -->
      <g transform="translate(329.109412 260.668125) scale(0.12 -0.12)">
       <use xlink:href="#LiberationSans-30" transform="translate(0 0.171875)"/>
      </g>
     </g>
    </g>
    <g id="ytick_7">
     <g id="line2d_15">
      <g>
       <use xlink:href="#m5b8935e679" x="344.329412" y="204.694481" style="stroke: #000000; stroke-width: 1.6"/>
      </g>
     </g>
     <g id="text_18">
      <!-- $\mathdefault{1}$ -->
      <g transform="translate(329.109412 209.042606) scale(0.12 -0.12)">
       <use xlink:href="#LiberationSans-31" transform="translate(0 0.203125)"/>
      </g>
     </g>
    </g>
    <g id="ytick_8">
     <g id="line2d_16">
      <g>
       <use xlink:href="#m5b8935e679" x="344.329412" y="153.068961" style="stroke: #000000; stroke-width: 1.6"/>
      </g>
     </g>
     <g id="text_19">
      <!-- $\mathdefault{2}$ -->
      <g transform="translate(329.109412 157.417086) scale(0.12 -0.12)">
       <use xlink:href="#LiberationSans-32" transform="translate(0 0.171875)"/>
      </g>
     </g>
    </g>
    <g id="ytick_9">
     <g id="line2d_17">
      <g>
       <use xlink:href="#m5b8935e679" x="344.329412" y="101.443442" style="stroke: #000000; stroke-width: 1.6"/>
      </g>
     </g>
     <g id="text_20">
      <!-- $\mathdefault{3}$ -->
      <g transform="translate(329.109412 105.791567) scale(0.12 -0.12)">
       <use xlink:href="#LiberationSans-33" transform="translate(0 0.171875)"/>
      </g>
     </g>
    </g>
    <g id="ytick_10">
     <g id="line2d_18">
      <g>
       <use xlink:href="#m5b8935e679" x="344.329412" y="49.817922" style="stroke: #000000; stroke-width: 1.6"/>
      </g>
     </g>
     <g id="text_21">
      <!-- $\mathdefault{4}$ -->
      <g transform="translate(329.109412 54.166047) scale(0.12 -0.12)">
       <use xlink:href="#LiberationSans-34" transform="translate(0 0.203125)"/>
      </g>
     </g>
    </g>
    <g id="text_22">
     <!-- # Ripples -->
     <g transform="translate(318.996912 176.705625) rotate(-90) scale(0.15 -0.15)">
      <use xlink:href="#LiberationSans-23"/>
      <use xlink:href="#LiberationSans-20" x="55.615234"/>
      <use xlink:href="#LiberationSans-52" x="83.398438"/>
      <use xlink:href="#LiberationSans-69" x="155.615234"/>
      <use xlink:href="#LiberationSans-70" x="177.832031"/>
      <use xlink:href="#LiberationSans-70" x="233.447266"/>
      <use xlink:href="#LiberationSans-6c" x="289.0625"/>
      <use xlink:href="#LiberationSans-65" x="311.279297"/>
      <use xlink:href="#LiberationSans-73" x="366.894531"/>
     </g>
    </g>
    <g id="text_23">
     <!-- $\times\mathdefault{10^{3}}\mathdefault{}$ -->
     <g transform="translate(344.329412 31.56) scale(0.12 -0.12)">
      <use xlink:href="#DejaVuSans-d7" transform="translate(0 0.140625)"/>
      <use xlink:href="#LiberationSans-31" transform="translate(83.789062 0.140625)"/>
      <use xlink:href="#LiberationSans-30" transform="translate(139.404297 0.140625)"/>
      <use xlink:href="#LiberationSans-33" transform="translate(195.944023 37.120312) scale(0.7)"/>
     </g>
    </g>
   </g>
   <g id="line2d_19">
    <path d="M 412.787279 256.32 
L 412.787279 34.56 
" clip-path="url(#p50ec27694e)" style="fill: none; stroke-dasharray: 11.1,4.8; stroke-dashoffset: 0; stroke: #d62728; stroke-opacity: 0.5; stroke-width: 3"/>
   </g>
   <g id="patch_86">
    <path d="M 344.329412 256.32 
L 344.329412 34.56 
" style="fill: none; stroke: #000000; stroke-width: 1.6; stroke-linejoin: miter; stroke-linecap: square"/>
   </g>
   <g id="patch_87">
    <path d="M 344.329412 256.32 
L 541.270588 256.32 
" style="fill: none; stroke: #000000; stroke-width: 1.6; stroke-linejoin: miter; stroke-linecap: square"/>
   </g>
  </g>
  <g id="axes_3">
   <g id="patch_88">
    <path d="M 580.658824 256.32 
L 777.6 256.32 
L 777.6 34.56 
L 580.658824 34.56 
z
" style="fill: #ffffff"/>
   </g>
   <g id="patch_89">
    <path d="M 589.610695 256.32 
L 594.086631 256.32 
L 594.086631 137.23488 
L 589.610695 137.23488 
z
" clip-path="url(#pa6f07906e9)" style="fill: #6e98ec; stroke: #ffffff; stroke-linejoin: miter"/>
   </g>
   <g id="patch_90">
    <path d="M 594.086631 256.32 
L 598.562567 256.32 
L 598.562567 156.97152 
L 594.086631 156.97152 
z
" clip-path="url(#pa6f07906e9)" style="fill: #6e98ec; stroke: #ffffff; stroke-linejoin: miter"/>
   </g>
   <g id="patch_91">
    <path d="M 598.562567 256.32 
L 603.038503 256.32 
L 603.038503 161.77632 
L 598.562567 161.77632 
z
" clip-path="url(#pa6f07906e9)" style="fill: #6e98ec; stroke: #ffffff; stroke-linejoin: miter"/>
   </g>
   <g id="patch_92">
    <path d="M 603.038503 256.32 
L 607.514439 256.32 
L 607.514439 171.90336 
L 603.038503 171.90336 
z
" clip-path="url(#pa6f07906e9)" style="fill: #6e98ec; stroke: #ffffff; stroke-linejoin: miter"/>
   </g>
   <g id="patch_93">
    <path d="M 607.514439 256.32 
L 611.990374 256.32 
L 611.990374 184.46976 
L 607.514439 184.46976 
z
" clip-path="url(#pa6f07906e9)" style="fill: #6e98ec; stroke: #ffffff; stroke-linejoin: miter"/>
   </g>
   <g id="patch_94">
    <path d="M 611.990374 256.32 
L 616.46631 256.32 
L 616.46631 194.37504 
L 611.990374 194.37504 
z
" clip-path="url(#pa6f07906e9)" style="fill: #6e98ec; stroke: #ffffff; stroke-linejoin: miter"/>
   </g>
   <g id="patch_95">
    <path d="M 616.46631 256.32 
L 620.942246 256.32 
L 620.942246 204.87168 
L 616.46631 204.87168 
z
" clip-path="url(#pa6f07906e9)" style="fill: #6e98ec; stroke: #ffffff; stroke-linejoin: miter"/>
   </g>
   <g id="patch_96">
    <path d="M 620.942246 256.32 
L 625.418182 256.32 
L 625.418182 215.88576 
L 620.942246 215.88576 
z
" clip-path="url(#pa6f07906e9)" style="fill: #6e98ec; stroke: #ffffff; stroke-linejoin: miter"/>
   </g>
   <g id="patch_97">
    <path d="M 625.418182 256.32 
L 629.894118 256.32 
L 629.894118 222.24288 
L 625.418182 222.24288 
z
" clip-path="url(#pa6f07906e9)" style="fill: #6e98ec; stroke: #ffffff; stroke-linejoin: miter"/>
   </g>
   <g id="patch_98">
    <path d="M 629.894118 256.32 
L 634.370053 256.32 
L 634.370053 230.15232 
L 629.894118 230.15232 
z
" clip-path="url(#pa6f07906e9)" style="fill: #6e98ec; stroke: #ffffff; stroke-linejoin: miter"/>
   </g>
   <g id="patch_99">
    <path d="M 634.370053 256.32 
L 638.845989 256.32 
L 638.845989 233.0352 
L 634.370053 233.0352 
z
" clip-path="url(#pa6f07906e9)" style="fill: #6e98ec; stroke: #ffffff; stroke-linejoin: miter"/>
   </g>
   <g id="patch_100">
    <path d="M 638.845989 256.32 
L 643.321925 256.32 
L 643.321925 237.17472 
L 638.845989 237.17472 
z
" clip-path="url(#pa6f07906e9)" style="fill: #6e98ec; stroke: #ffffff; stroke-linejoin: miter"/>
   </g>
   <g id="patch_101">
    <path d="M 643.321925 256.32 
L 647.797861 256.32 
L 647.797861 239.61408 
L 643.321925 239.61408 
z
" clip-path="url(#pa6f07906e9)" style="fill: #6e98ec; stroke: #ffffff; stroke-linejoin: miter"/>
   </g>
   <g id="patch_102">
    <path d="M 647.797861 256.32 
L 652.273797 256.32 
L 652.273797 243.45792 
L 647.797861 243.45792 
z
" clip-path="url(#pa6f07906e9)" style="fill: #6e98ec; stroke: #ffffff; stroke-linejoin: miter"/>
   </g>
   <g id="patch_103">
    <path d="M 652.273797 256.32 
L 656.749733 256.32 
L 656.749733 244.78848 
L 652.273797 244.78848 
z
" clip-path="url(#pa6f07906e9)" style="fill: #6e98ec; stroke: #ffffff; stroke-linejoin: miter"/>
   </g>
   <g id="patch_104">
    <path d="M 656.749733 256.32 
L 661.225668 256.32 
L 661.225668 248.04096 
L 656.749733 248.04096 
z
" clip-path="url(#pa6f07906e9)" style="fill: #6e98ec; stroke: #ffffff; stroke-linejoin: miter"/>
   </g>
   <g id="patch_105">
    <path d="M 661.225668 256.32 
L 665.701604 256.32 
L 665.701604 249.22368 
L 661.225668 249.22368 
z
" clip-path="url(#pa6f07906e9)" style="fill: #6e98ec; stroke: #ffffff; stroke-linejoin: miter"/>
   </g>
   <g id="patch_106">
    <path d="M 665.701604 256.32 
L 670.17754 256.32 
L 670.17754 249.2976 
L 665.701604 249.2976 
z
" clip-path="url(#pa6f07906e9)" style="fill: #6e98ec; stroke: #ffffff; stroke-linejoin: miter"/>
   </g>
   <g id="patch_107">
    <path d="M 670.17754 256.32 
L 674.653476 256.32 
L 674.653476 249.37152 
L 670.17754 249.37152 
z
" clip-path="url(#pa6f07906e9)" style="fill: #6e98ec; stroke: #ffffff; stroke-linejoin: miter"/>
   </g>
   <g id="patch_108">
    <path d="M 674.653476 256.32 
L 679.129412 256.32 
L 679.129412 251.21952 
L 674.653476 251.21952 
z
" clip-path="url(#pa6f07906e9)" style="fill: #6e98ec; stroke: #ffffff; stroke-linejoin: miter"/>
   </g>
   <g id="patch_109">
    <path d="M 679.129412 256.32 
L 683.605348 256.32 
L 683.605348 250.55424 
L 679.129412 250.55424 
z
" clip-path="url(#pa6f07906e9)" style="fill: #6e98ec; stroke: #ffffff; stroke-linejoin: miter"/>
   </g>
   <g id="patch_110">
    <path d="M 683.605348 256.32 
L 688.081283 256.32 
L 688.081283 252.624 
L 683.605348 252.624 
z
" clip-path="url(#pa6f07906e9)" style="fill: #6e98ec; stroke: #ffffff; stroke-linejoin: miter"/>
   </g>
   <g id="patch_111">
    <path d="M 688.081283 256.32 
L 692.557219 256.32 
L 692.557219 252.2544 
L 688.081283 252.2544 
z
" clip-path="url(#pa6f07906e9)" style="fill: #6e98ec; stroke: #ffffff; stroke-linejoin: miter"/>
   </g>
   <g id="patch_112">
    <path d="M 692.557219 256.32 
L 697.033155 256.32 
L 697.033155 253.14144 
L 692.557219 253.14144 
z
" clip-path="url(#pa6f07906e9)" style="fill: #6e98ec; stroke: #ffffff; stroke-linejoin: miter"/>
   </g>
   <g id="patch_113">
    <path d="M 697.033155 256.32 
L 701.509091 256.32 
L 701.509091 254.32416 
L 697.033155 254.32416 
z
" clip-path="url(#pa6f07906e9)" style="fill: #6e98ec; stroke: #ffffff; stroke-linejoin: miter"/>
   </g>
   <g id="patch_114">
    <path d="M 701.509091 256.32 
L 705.985027 256.32 
L 705.985027 253.51104 
L 701.509091 253.51104 
z
" clip-path="url(#pa6f07906e9)" style="fill: #6e98ec; stroke: #ffffff; stroke-linejoin: miter"/>
   </g>
   <g id="patch_115">
    <path d="M 705.985027 256.32 
L 710.460963 256.32 
L 710.460963 254.1024 
L 705.985027 254.1024 
z
" clip-path="url(#pa6f07906e9)" style="fill: #6e98ec; stroke: #ffffff; stroke-linejoin: miter"/>
   </g>
   <g id="patch_116">
    <path d="M 710.460963 256.32 
L 714.936898 256.32 
L 714.936898 254.54592 
L 710.460963 254.54592 
z
" clip-path="url(#pa6f07906e9)" style="fill: #6e98ec; stroke: #ffffff; stroke-linejoin: miter"/>
   </g>
   <g id="patch_117">
    <path d="M 714.936898 256.32 
L 719.412834 256.32 
L 719.412834 254.98944 
L 714.936898 254.98944 
z
" clip-path="url(#pa6f07906e9)" style="fill: #6e98ec; stroke: #ffffff; stroke-linejoin: miter"/>
   </g>
   <g id="patch_118">
    <path d="M 719.412834 256.32 
L 723.88877 256.32 
L 723.88877 254.91552 
L 719.412834 254.91552 
z
" clip-path="url(#pa6f07906e9)" style="fill: #6e98ec; stroke: #ffffff; stroke-linejoin: miter"/>
   </g>
   <g id="patch_119">
    <path d="M 723.88877 256.32 
L 728.364706 256.32 
L 728.364706 255.35904 
L 723.88877 255.35904 
z
" clip-path="url(#pa6f07906e9)" style="fill: #6e98ec; stroke: #ffffff; stroke-linejoin: miter"/>
   </g>
   <g id="patch_120">
    <path d="M 728.364706 256.32 
L 732.840642 256.32 
L 732.840642 255.43296 
L 728.364706 255.43296 
z
" clip-path="url(#pa6f07906e9)" style="fill: #6e98ec; stroke: #ffffff; stroke-linejoin: miter"/>
   </g>
   <g id="patch_121">
    <path d="M 732.840642 256.32 
L 737.316578 256.32 
L 737.316578 255.43296 
L 732.840642 255.43296 
z
" clip-path="url(#pa6f07906e9)" style="fill: #6e98ec; stroke: #ffffff; stroke-linejoin: miter"/>
   </g>
   <g id="patch_122">
    <path d="M 737.316578 256.32 
L 741.792513 256.32 
L 741.792513 255.72864 
L 737.316578 255.72864 
z
" clip-path="url(#pa6f07906e9)" style="fill: #6e98ec; stroke: #ffffff; stroke-linejoin: miter"/>
   </g>
   <g id="patch_123">
    <path d="M 741.792513 256.32 
L 746.268449 256.32 
L 746.268449 255.50688 
L 741.792513 255.50688 
z
" clip-path="url(#pa6f07906e9)" style="fill: #6e98ec; stroke: #ffffff; stroke-linejoin: miter"/>
   </g>
   <g id="patch_124">
    <path d="M 746.268449 256.32 
L 750.744385 256.32 
L 750.744385 255.80256 
L 746.268449 255.80256 
z
" clip-path="url(#pa6f07906e9)" style="fill: #6e98ec; stroke: #ffffff; stroke-linejoin: miter"/>
   </g>
   <g id="patch_125">
    <path d="M 750.744385 256.32 
L 755.220321 256.32 
L 755.220321 255.80256 
L 750.744385 255.80256 
z
" clip-path="url(#pa6f07906e9)" style="fill: #6e98ec; stroke: #ffffff; stroke-linejoin: miter"/>
   </g>
   <g id="patch_126">
    <path d="M 755.220321 256.32 
L 759.696257 256.32 
L 759.696257 255.50688 
L 755.220321 255.50688 
z
" clip-path="url(#pa6f07906e9)" style="fill: #6e98ec; stroke: #ffffff; stroke-linejoin: miter"/>
   </g>
   <g id="patch_127">
    <path d="M 759.696257 256.32 
L 764.172193 256.32 
L 764.172193 255.9504 
L 759.696257 255.9504 
z
" clip-path="url(#pa6f07906e9)" style="fill: #6e98ec; stroke: #ffffff; stroke-linejoin: miter"/>
   </g>
   <g id="patch_128">
    <path d="M 764.172193 256.32 
L 768.648128 256.32 
L 768.648128 255.72864 
L 764.172193 255.72864 
z
" clip-path="url(#pa6f07906e9)" style="fill: #6e98ec; stroke: #ffffff; stroke-linejoin: miter"/>
   </g>
   <g id="matplotlib.axis_5">
    <g id="xtick_8">
     <g id="line2d_20">
      <g>
       <use xlink:href="#mfa29ea6182" x="620.368118" y="256.32" style="stroke: #000000; stroke-width: 1.6"/>
      </g>
     </g>
     <g id="text_24">
      <!-- 0 -->
      <g transform="translate(617.031556 273.51625) scale(0.12 -0.12)">
       <use xlink:href="#LiberationSans-30"/>
      </g>
     </g>
    </g>
    <g id="xtick_9">
     <g id="line2d_21">
      <g>
       <use xlink:href="#mfa29ea6182" x="682.151456" y="256.32" style="stroke: #000000; stroke-width: 1.6"/>
      </g>
     </g>
     <g id="text_25">
      <!-- 10 -->
      <g transform="translate(675.478331 273.51625) scale(0.12 -0.12)">
       <use xlink:href="#LiberationSans-31"/>
       <use xlink:href="#LiberationSans-30" x="55.615234"/>
      </g>
     </g>
    </g>
    <g id="xtick_10">
     <g id="line2d_22">
      <g>
       <use xlink:href="#mfa29ea6182" x="743.934793" y="256.32" style="stroke: #000000; stroke-width: 1.6"/>
      </g>
     </g>
     <g id="text_26">
      <!-- 20 -->
      <g transform="translate(737.261668 273.51625) scale(0.12 -0.12)">
       <use xlink:href="#LiberationSans-32"/>
       <use xlink:href="#LiberationSans-30" x="55.615234"/>
      </g>
     </g>
    </g>
    <g id="text_27">
     <!-- $\Delta$Log-likelihood -->
     <g transform="translate(627.679412 293.95625) scale(0.15 -0.15)">
      <use xlink:href="#DejaVuSans-394" transform="translate(0 0.09375)"/>
      <use xlink:href="#LiberationSans-4c" transform="translate(68.408203 0.09375)"/>
      <use xlink:href="#LiberationSans-6f" transform="translate(124.023438 0.09375)"/>
      <use xlink:href="#LiberationSans-67" transform="translate(179.638672 0.09375)"/>
      <use xlink:href="#LiberationSans-2d" transform="translate(235.253906 0.09375)"/>
      <use xlink:href="#LiberationSans-6c" transform="translate(268.554688 0.09375)"/>
      <use xlink:href="#LiberationSans-69" transform="translate(290.771484 0.09375)"/>
      <use xlink:href="#LiberationSans-6b" transform="translate(312.988281 0.09375)"/>
      <use xlink:href="#LiberationSans-65" transform="translate(362.988281 0.09375)"/>
      <use xlink:href="#LiberationSans-6c" transform="translate(418.603516 0.09375)"/>
      <use xlink:href="#LiberationSans-69" transform="translate(440.820312 0.09375)"/>
      <use xlink:href="#LiberationSans-68" transform="translate(463.037109 0.09375)"/>
      <use xlink:href="#LiberationSans-6f" transform="translate(518.652344 0.09375)"/>
      <use xlink:href="#LiberationSans-6f" transform="translate(574.267578 0.09375)"/>
      <use xlink:href="#LiberationSans-64" transform="translate(629.882812 0.09375)"/>
     </g>
    </g>
   </g>
   <g id="matplotlib.axis_6">
    <g id="ytick_11">
     <g id="line2d_23">
      <g>
       <use xlink:href="#m5b8935e679" x="580.658824" y="256.32" style="stroke: #000000; stroke-width: 1.6"/>
      </g>
     </g>
     <g id="text_28">
      <!-- $\mathdefault{0}$ -->
      <g transform="translate(565.438824 260.668125) scale(0.12 -0.12)">
       <use xlink:href="#LiberationSans-30" transform="translate(0 0.171875)"/>
      </g>
     </g>
    </g>
    <g id="ytick_12">
     <g id="line2d_24">
      <g>
       <use xlink:href="#m5b8935e679" x="580.658824" y="182.4" style="stroke: #000000; stroke-width: 1.6"/>
      </g>
     </g>
     <g id="text_29">
      <!-- $\mathdefault{1}$ -->
      <g transform="translate(565.438824 186.748125) scale(0.12 -0.12)">
       <use xlink:href="#LiberationSans-31" transform="translate(0 0.203125)"/>
      </g>
     </g>
    </g>
    <g id="ytick_13">
     <g id="line2d_25">
      <g>
       <use xlink:href="#m5b8935e679" x="580.658824" y="108.48" style="stroke: #000000; stroke-width: 1.6"/>
      </g>
     </g>
     <g id="text_30">
      <!-- $\mathdefault{2}$ -->
      <g transform="translate(565.438824 112.828125) scale(0.12 -0.12)">
       <use xlink:href="#LiberationSans-32" transform="translate(0 0.171875)"/>
      </g>
     </g>
    </g>
    <g id="ytick_14">
     <g id="line2d_26">
      <g>
       <use xlink:href="#m5b8935e679" x="580.658824" y="34.56" style="stroke: #000000; stroke-width: 1.6"/>
      </g>
     </g>
     <g id="text_31">
      <!-- $\mathdefault{3}$ -->
      <g transform="translate(565.438824 38.908125) scale(0.12 -0.12)">
       <use xlink:href="#LiberationSans-33" transform="translate(0 0.171875)"/>
      </g>
     </g>
    </g>
    <g id="text_32">
     <!-- # Ripples -->
     <g transform="translate(555.326324 176.705625) rotate(-90) scale(0.15 -0.15)">
      <use xlink:href="#LiberationSans-23"/>
      <use xlink:href="#LiberationSans-20" x="55.615234"/>
      <use xlink:href="#LiberationSans-52" x="83.398438"/>
      <use xlink:href="#LiberationSans-69" x="155.615234"/>
      <use xlink:href="#LiberationSans-70" x="177.832031"/>
      <use xlink:href="#LiberationSans-70" x="233.447266"/>
      <use xlink:href="#LiberationSans-6c" x="289.0625"/>
      <use xlink:href="#LiberationSans-65" x="311.279297"/>
      <use xlink:href="#LiberationSans-73" x="366.894531"/>
     </g>
    </g>
    <g id="text_33">
     <!-- $\times\mathdefault{10^{3}}\mathdefault{}$ -->
     <g transform="translate(580.658824 31.56) scale(0.12 -0.12)">
      <use xlink:href="#DejaVuSans-d7" transform="translate(0 0.140625)"/>
      <use xlink:href="#LiberationSans-31" transform="translate(83.789062 0.140625)"/>
      <use xlink:href="#LiberationSans-30" transform="translate(139.404297 0.140625)"/>
      <use xlink:href="#LiberationSans-33" transform="translate(195.944023 37.120312) scale(0.7)"/>
     </g>
    </g>
   </g>
   <g id="line2d_27">
    <path d="M 620.368118 256.32 
L 620.368118 34.56 
" clip-path="url(#pa6f07906e9)" style="fill: none; stroke-dasharray: 11.1,4.8; stroke-dashoffset: 0; stroke: #d62728; stroke-opacity: 0.5; stroke-width: 3"/>
   </g>
   <g id="patch_129">
    <path d="M 580.658824 256.32 
L 580.658824 34.56 
" style="fill: none; stroke: #000000; stroke-width: 1.6; stroke-linejoin: miter; stroke-linecap: square"/>
   </g>
   <g id="patch_130">
    <path d="M 580.658824 256.32 
L 777.6 256.32 
" style="fill: none; stroke: #000000; stroke-width: 1.6; stroke-linejoin: miter; stroke-linecap: square"/>
   </g>
  </g>
 </g>
 <defs>
  <clipPath id="pe806864163">
   <rect x="108" y="34.56" width="196.941176" height="221.76"/>
  </clipPath>
  <clipPath id="p50ec27694e">
   <rect x="344.329412" y="34.56" width="196.941176" height="221.76"/>
  </clipPath>
  <clipPath id="pa6f07906e9">
   <rect x="580.658824" y="34.56" width="196.941176" height="221.76"/>
  </clipPath>
 </defs>
</svg>
