<?xml version="1.0" encoding="utf-8" standalone="no"?>
<!DOCTYPE svg PUBLIC "-//W3C//DTD SVG 1.1//EN"
  "http://www.w3.org/Graphics/SVG/1.1/DTD/svg11.dtd">
<svg xmlns:xlink="http://www.w3.org/1999/xlink" width="576pt" height="288pt" viewBox="0 0 576 288" xmlns="http://www.w3.org/2000/svg" version="1.1">
 <metadata>
  <rdf:RDF xmlns:dc="http://purl.org/dc/elements/1.1/" xmlns:cc="http://creativecommons.org/ns#" xmlns:rdf="http://www.w3.org/1999/02/22-rdf-syntax-ns#">
   <cc:Work>
    <dc:type rdf:resource="http://purl.org/dc/dcmitype/StillImage"/>
    <dc:date>2025-08-01T13:45:19.456144</dc:date>
    <dc:format>image/svg+xml</dc:format>
    <dc:creator>
     <cc:Agent>
      <dc:title>Matplotlib v3.7.2, https://matplotlib.org/</dc:title>
     </cc:Agent>
    </dc:creator>
   </cc:Work>
  </rdf:RDF>
 </metadata>
 <defs>
  <style type="text/css">*{stroke-linejoin: round; stroke-linecap: butt}</style>
 </defs>
 <g id="figure_1">
  <g id="patch_1">
   <path d="M 0 288 
L 576 288 
L 576 0 
L 0 0 
z
" style="fill: #ffffff"/>
  </g>
  <g id="axes_1">
   <g id="patch_2">
    <path d="M 28.18024 265.31351 
L 284.99976 265.31351 
L 284.99976 4.768673 
L 28.18024 4.768673 
z
" style="fill: #ffffff"/>
   </g>
   <g id="matplotlib.axis_1">
    <g id="xtick_1">
     <g id="line2d_1">
      <defs>
       <path id="me79fa44b8c" d="M 0 0 
L 0 5 
" style="stroke: #000000; stroke-width: 1.6"/>
      </defs>
      <g>
       <use xlink:href="#me79fa44b8c" x="28.18024" y="265.31351" style="stroke: #000000; stroke-width: 1.6"/>
      </g>
     </g>
     <g id="text_1">
      <!-- 0 -->
      <g transform="translate(24.843677 282.50976) scale(0.12 -0.12)">
       <defs>
        <path id="LiberationSans-30" d="M 3309 2203 
Q 3309 1569 3189 1136 
Q 3069 703 2861 436 
Q 2653 169 2372 53 
Q 2091 -63 1772 -63 
Q 1450 -63 1172 53 
Q 894 169 689 434 
Q 484 700 367 1133 
Q 250 1566 250 2203 
Q 250 2869 367 3305 
Q 484 3741 690 4000 
Q 897 4259 1178 4364 
Q 1459 4469 1791 4469 
Q 2106 4469 2382 4364 
Q 2659 4259 2865 4000 
Q 3072 3741 3190 3305 
Q 3309 2869 3309 2203 
z
M 2738 2203 
Q 2738 2728 2675 3076 
Q 2613 3425 2491 3633 
Q 2369 3841 2192 3927 
Q 2016 4013 1791 4013 
Q 1553 4013 1372 3925 
Q 1191 3838 1067 3630 
Q 944 3422 881 3073 
Q 819 2725 819 2203 
Q 819 1697 883 1350 
Q 947 1003 1070 792 
Q 1194 581 1372 489 
Q 1550 397 1778 397 
Q 2000 397 2178 489 
Q 2356 581 2479 792 
Q 2603 1003 2670 1350 
Q 2738 1697 2738 2203 
z
" transform="scale(0.015625)"/>
       </defs>
       <use xlink:href="#LiberationSans-30"/>
      </g>
     </g>
    </g>
    <g id="xtick_2">
     <g id="line2d_2">
      <g>
       <use xlink:href="#me79fa44b8c" x="77.098244" y="265.31351" style="stroke: #000000; stroke-width: 1.6"/>
      </g>
     </g>
     <g id="text_2">
      <!-- 3 -->
      <g transform="translate(73.761681 282.50976) scale(0.12 -0.12)">
       <defs>
        <path id="LiberationSans-33" d="M 3278 1216 
Q 3278 913 3179 675 
Q 3081 438 2892 273 
Q 2703 109 2423 23 
Q 2144 -63 1784 -63 
Q 1375 -63 1095 39 
Q 816 141 634 308 
Q 453 475 362 689 
Q 272 903 244 1131 
L 825 1184 
Q 850 1009 917 865 
Q 984 722 1100 619 
Q 1216 516 1384 459 
Q 1553 403 1784 403 
Q 2209 403 2451 612 
Q 2694 822 2694 1234 
Q 2694 1478 2586 1626 
Q 2478 1775 2317 1858 
Q 2156 1941 1967 1969 
Q 1778 1997 1619 1997 
L 1300 1997 
L 1300 2484 
L 1606 2484 
Q 1766 2484 1937 2517 
Q 2109 2550 2251 2636 
Q 2394 2722 2486 2869 
Q 2578 3016 2578 3244 
Q 2578 3597 2370 3801 
Q 2163 4006 1753 4006 
Q 1381 4006 1151 3815 
Q 922 3625 884 3278 
L 319 3322 
Q 353 3613 478 3828 
Q 603 4044 795 4186 
Q 988 4328 1234 4398 
Q 1481 4469 1759 4469 
Q 2128 4469 2393 4376 
Q 2659 4284 2828 4126 
Q 2997 3969 3076 3756 
Q 3156 3544 3156 3303 
Q 3156 3109 3103 2940 
Q 3050 2772 2937 2637 
Q 2825 2503 2651 2406 
Q 2478 2309 2234 2259 
L 2234 2247 
Q 2500 2219 2697 2126 
Q 2894 2034 3022 1896 
Q 3150 1759 3214 1584 
Q 3278 1409 3278 1216 
z
" transform="scale(0.015625)"/>
       </defs>
       <use xlink:href="#LiberationSans-33"/>
      </g>
     </g>
    </g>
    <g id="xtick_3">
     <g id="line2d_3">
      <g>
       <use xlink:href="#me79fa44b8c" x="126.016248" y="265.31351" style="stroke: #000000; stroke-width: 1.6"/>
      </g>
     </g>
     <g id="text_3">
      <!-- 6 -->
      <g transform="translate(122.679685 282.50976) scale(0.12 -0.12)">
       <defs>
        <path id="LiberationSans-36" d="M 3278 1441 
Q 3278 1109 3186 832 
Q 3094 556 2914 357 
Q 2734 159 2468 48 
Q 2203 -63 1856 -63 
Q 1472 -63 1184 84 
Q 897 231 706 507 
Q 516 784 420 1186 
Q 325 1588 325 2100 
Q 325 2688 433 3131 
Q 541 3575 744 3872 
Q 947 4169 1239 4319 
Q 1531 4469 1900 4469 
Q 2125 4469 2322 4422 
Q 2519 4375 2680 4270 
Q 2841 4166 2962 3994 
Q 3084 3822 3156 3572 
L 2619 3475 
Q 2531 3759 2339 3886 
Q 2147 4013 1894 4013 
Q 1663 4013 1475 3903 
Q 1288 3794 1156 3576 
Q 1025 3359 954 3031 
Q 884 2703 884 2266 
Q 1038 2550 1316 2698 
Q 1594 2847 1953 2847 
Q 2253 2847 2497 2750 
Q 2741 2653 2914 2470 
Q 3088 2288 3183 2027 
Q 3278 1766 3278 1441 
z
M 2706 1416 
Q 2706 1644 2650 1828 
Q 2594 2013 2481 2142 
Q 2369 2272 2203 2342 
Q 2038 2413 1819 2413 
Q 1666 2413 1509 2367 
Q 1353 2322 1226 2220 
Q 1100 2119 1020 1953 
Q 941 1788 941 1550 
Q 941 1306 1003 1095 
Q 1066 884 1183 728 
Q 1300 572 1465 481 
Q 1631 391 1838 391 
Q 2041 391 2202 461 
Q 2363 531 2475 664 
Q 2588 797 2647 987 
Q 2706 1178 2706 1416 
z
" transform="scale(0.015625)"/>
       </defs>
       <use xlink:href="#LiberationSans-36"/>
      </g>
     </g>
    </g>
    <g id="xtick_4">
     <g id="line2d_4">
      <g>
       <use xlink:href="#me79fa44b8c" x="174.934251" y="265.31351" style="stroke: #000000; stroke-width: 1.6"/>
      </g>
     </g>
     <g id="text_4">
      <!-- 9 -->
      <g transform="translate(171.597689 282.50976) scale(0.12 -0.12)">
       <defs>
        <path id="LiberationSans-39" d="M 3256 2291 
Q 3256 1703 3145 1261 
Q 3034 819 2828 525 
Q 2622 231 2326 84 
Q 2031 -63 1663 -63 
Q 1409 -63 1206 -11 
Q 1003 41 843 150 
Q 684 259 571 434 
Q 459 609 391 856 
L 928 941 
Q 1016 656 1202 523 
Q 1388 391 1672 391 
Q 1900 391 2089 498 
Q 2278 606 2411 822 
Q 2544 1038 2619 1363 
Q 2694 1688 2700 2125 
Q 2634 1978 2520 1862 
Q 2406 1747 2261 1667 
Q 2116 1588 1947 1545 
Q 1778 1503 1606 1503 
Q 1306 1503 1064 1611 
Q 822 1719 653 1912 
Q 484 2106 392 2379 
Q 300 2653 300 2988 
Q 300 3328 398 3603 
Q 497 3878 684 4070 
Q 872 4263 1145 4366 
Q 1419 4469 1766 4469 
Q 2500 4469 2878 3925 
Q 3256 3381 3256 2291 
z
M 2644 2834 
Q 2644 3078 2586 3293 
Q 2528 3509 2414 3668 
Q 2300 3828 2133 3920 
Q 1966 4013 1747 4013 
Q 1544 4013 1381 3941 
Q 1219 3869 1106 3736 
Q 994 3603 933 3412 
Q 872 3222 872 2988 
Q 872 2766 926 2575 
Q 981 2384 1090 2245 
Q 1200 2106 1362 2026 
Q 1525 1947 1741 1947 
Q 1897 1947 2058 2000 
Q 2219 2053 2348 2162 
Q 2478 2272 2561 2439 
Q 2644 2606 2644 2834 
z
" transform="scale(0.015625)"/>
       </defs>
       <use xlink:href="#LiberationSans-39"/>
      </g>
     </g>
    </g>
    <g id="xtick_5">
     <g id="line2d_5">
      <g>
       <use xlink:href="#me79fa44b8c" x="223.852255" y="265.31351" style="stroke: #000000; stroke-width: 1.6"/>
      </g>
     </g>
     <g id="text_5">
      <!-- 12 -->
      <g transform="translate(217.17913 282.50976) scale(0.12 -0.12)">
       <defs>
        <path id="LiberationSans-31" d="M 488 0 
L 488 478 
L 1609 478 
L 1609 3866 
L 616 3156 
L 616 3688 
L 1656 4403 
L 2175 4403 
L 2175 478 
L 3247 478 
L 3247 0 
L 488 0 
z
" transform="scale(0.015625)"/>
        <path id="LiberationSans-32" d="M 322 0 
L 322 397 
Q 481 763 711 1042 
Q 941 1322 1194 1548 
Q 1447 1775 1695 1969 
Q 1944 2163 2144 2356 
Q 2344 2550 2467 2762 
Q 2591 2975 2591 3244 
Q 2591 3431 2534 3573 
Q 2478 3716 2372 3812 
Q 2266 3909 2117 3957 
Q 1969 4006 1788 4006 
Q 1619 4006 1470 3959 
Q 1322 3913 1206 3819 
Q 1091 3725 1017 3586 
Q 944 3447 922 3263 
L 347 3316 
Q 375 3553 478 3762 
Q 581 3972 762 4130 
Q 944 4288 1198 4378 
Q 1453 4469 1788 4469 
Q 2116 4469 2372 4391 
Q 2628 4313 2804 4159 
Q 2981 4006 3075 3781 
Q 3169 3556 3169 3263 
Q 3169 3041 3089 2841 
Q 3009 2641 2876 2459 
Q 2744 2278 2569 2109 
Q 2394 1941 2203 1780 
Q 2013 1619 1819 1461 
Q 1625 1303 1454 1143 
Q 1284 984 1150 820 
Q 1016 656 941 478 
L 3238 478 
L 3238 0 
L 322 0 
z
" transform="scale(0.015625)"/>
       </defs>
       <use xlink:href="#LiberationSans-31"/>
       <use xlink:href="#LiberationSans-32" x="55.615234"/>
      </g>
     </g>
    </g>
    <g id="xtick_6">
     <g id="line2d_6">
      <g>
       <use xlink:href="#me79fa44b8c" x="272.770259" y="265.31351" style="stroke: #000000; stroke-width: 1.6"/>
      </g>
     </g>
     <g id="text_6">
      <!-- 15 -->
      <g transform="translate(266.097134 282.50976) scale(0.12 -0.12)">
       <defs>
        <path id="LiberationSans-35" d="M 3291 1434 
Q 3291 1103 3191 828 
Q 3091 553 2894 354 
Q 2697 156 2405 46 
Q 2113 -63 1728 -63 
Q 1381 -63 1123 18 
Q 866 100 687 242 
Q 509 384 404 575 
Q 300 766 256 984 
L 825 1050 
Q 859 925 921 808 
Q 984 691 1092 598 
Q 1200 506 1358 451 
Q 1516 397 1741 397 
Q 1959 397 2137 464 
Q 2316 531 2442 662 
Q 2569 794 2637 984 
Q 2706 1175 2706 1422 
Q 2706 1625 2640 1795 
Q 2575 1966 2453 2089 
Q 2331 2213 2154 2281 
Q 1978 2350 1753 2350 
Q 1613 2350 1494 2325 
Q 1375 2300 1273 2256 
Q 1172 2213 1089 2155 
Q 1006 2097 934 2034 
L 384 2034 
L 531 4403 
L 3034 4403 
L 3034 3925 
L 1044 3925 
L 959 2528 
Q 1109 2644 1334 2726 
Q 1559 2809 1869 2809 
Q 2197 2809 2459 2709 
Q 2722 2609 2906 2426 
Q 3091 2244 3191 1991 
Q 3291 1738 3291 1434 
z
" transform="scale(0.015625)"/>
       </defs>
       <use xlink:href="#LiberationSans-31"/>
       <use xlink:href="#LiberationSans-35" x="55.615234"/>
      </g>
     </g>
    </g>
   </g>
   <g id="matplotlib.axis_2">
    <g id="ytick_1">
     <g id="line2d_7">
      <defs>
       <path id="mc81c40e3c3" d="M 0 0 
L -5 0 
" style="stroke: #000000; stroke-width: 1.6"/>
      </defs>
      <g>
       <use xlink:href="#mc81c40e3c3" x="28.18024" y="265.31351" style="stroke: #000000; stroke-width: 1.6"/>
      </g>
     </g>
     <g id="text_7">
      <!-- 0.0 -->
      <g transform="translate(3.00024 269.661635) scale(0.12 -0.12)">
       <defs>
        <path id="LiberationSans-2e" d="M 584 0 
L 584 684 
L 1194 684 
L 1194 0 
L 584 0 
z
" transform="scale(0.015625)"/>
       </defs>
       <use xlink:href="#LiberationSans-30"/>
       <use xlink:href="#LiberationSans-2e" x="55.615234"/>
       <use xlink:href="#LiberationSans-30" x="83.398438"/>
      </g>
     </g>
    </g>
    <g id="ytick_2">
     <g id="line2d_8">
      <g>
       <use xlink:href="#mc81c40e3c3" x="28.18024" y="136.330917" style="stroke: #000000; stroke-width: 1.6"/>
      </g>
     </g>
     <g id="text_8">
      <!-- 0.5 -->
      <g transform="translate(3.00024 140.679042) scale(0.12 -0.12)">
       <use xlink:href="#LiberationSans-30"/>
       <use xlink:href="#LiberationSans-2e" x="55.615234"/>
       <use xlink:href="#LiberationSans-35" x="83.398438"/>
      </g>
     </g>
    </g>
    <g id="ytick_3">
     <g id="line2d_9">
      <g>
       <use xlink:href="#mc81c40e3c3" x="28.18024" y="7.348324" style="stroke: #000000; stroke-width: 1.6"/>
      </g>
     </g>
     <g id="text_9">
      <!-- 1.0 -->
      <g transform="translate(3.00024 11.696449) scale(0.12 -0.12)">
       <use xlink:href="#LiberationSans-31"/>
       <use xlink:href="#LiberationSans-2e" x="55.615234"/>
       <use xlink:href="#LiberationSans-30" x="83.398438"/>
      </g>
     </g>
    </g>
   </g>
   <g id="line2d_10">
    <path d="M 28.18024 264.142234 
L 29.409336 262.770691 
L 30.638431 261.196977 
L 33.096622 257.464308 
L 35.554813 253.030936 
L 38.013005 248.017942 
L 40.471196 242.525961 
L 42.929387 236.599889 
L 45.387578 230.230692 
L 47.845769 223.38973 
L 50.30396 216.070535 
L 53.991247 204.277548 
L 57.678534 191.691851 
L 67.511298 157.396039 
L 69.969489 150.009291 
L 72.427681 143.504556 
L 74.885872 137.789448 
L 77.344063 132.62251 
L 82.260445 122.96378 
L 87.176828 113.738113 
L 89.635019 109.50007 
L 92.09321 105.648148 
L 94.551401 102.207892 
L 97.009592 99.147409 
L 99.467783 96.409763 
L 101.925974 93.937653 
L 105.613261 90.617029 
L 109.300548 87.618955 
L 119.133312 79.859058 
L 122.820599 76.523386 
L 130.195173 69.461384 
L 132.653364 67.455779 
L 135.111555 65.823039 
L 137.569746 64.582603 
L 140.027937 63.67434 
L 143.715224 62.686253 
L 148.631606 61.440567 
L 151.089797 60.639112 
L 153.547988 59.635705 
L 156.00618 58.397071 
L 158.464371 56.925322 
L 162.151657 54.408534 
L 167.06804 51.072316 
L 169.526231 49.655211 
L 171.984422 48.456503 
L 175.671709 46.980233 
L 185.504473 43.406079 
L 189.19176 41.803253 
L 194.108142 39.398962 
L 200.25362 36.346369 
L 206.399098 33.641418 
L 210.086385 31.907968 
L 212.544576 30.560348 
L 216.231863 28.239804 
L 223.606436 23.336918 
L 226.064627 21.902341 
L 228.522818 20.656177 
L 230.98101 19.619995 
L 233.439201 18.788282 
L 237.126487 17.843992 
L 244.501061 16.377597 
L 251.875634 14.805997 
L 256.792017 13.565679 
L 260.479303 12.438825 
L 264.16659 11.084338 
L 269.082972 8.960358 
L 272.770259 7.348324 
L 272.770259 7.348324 
" clip-path="url(#p7caf61b8b4)" style="fill: none; stroke: #56b4e9; stroke-width: 2.5; stroke-linecap: square"/>
   </g>
   <g id="line2d_11">
    <path d="M 28.18024 263.710904 
L 29.409336 261.835703 
L 30.638431 259.689943 
L 33.096622 254.638306 
L 35.554813 248.724296 
L 38.013005 242.168868 
L 41.700291 231.545367 
L 45.387578 220.248097 
L 49.074865 208.328922 
L 57.678534 179.843668 
L 60.136725 172.345521 
L 62.594916 165.341538 
L 65.053107 158.842682 
L 67.511298 152.852678 
L 69.969489 147.377716 
L 72.427681 142.395205 
L 74.885872 137.821369 
L 79.802254 129.319223 
L 90.864114 110.650025 
L 94.551401 105.158326 
L 98.238688 100.242949 
L 101.925974 95.84722 
L 105.613261 91.902964 
L 117.904217 79.347482 
L 125.27879 71.322356 
L 128.966077 67.659232 
L 132.653364 64.328903 
L 136.34065 61.312804 
L 140.027937 58.558 
L 151.089797 50.778012 
L 156.00618 47.47748 
L 159.693466 45.254835 
L 163.380753 43.259886 
L 168.297135 40.908107 
L 174.442613 38.300334 
L 179.358995 36.167511 
L 185.504473 33.198135 
L 191.649951 30.288398 
L 196.566334 28.238437 
L 201.482716 26.480997 
L 216.231863 21.631373 
L 222.377341 19.491527 
L 227.293723 18.00085 
L 233.439201 16.34955 
L 240.813774 14.595687 
L 246.959252 13.361602 
L 254.333825 12.155604 
L 261.708399 10.932728 
L 265.395686 10.04876 
L 267.853877 9.260655 
L 272.770259 7.348324 
L 272.770259 7.348324 
" clip-path="url(#p7caf61b8b4)" style="fill: none; stroke: #d55e00; stroke-width: 2.5; stroke-linecap: square"/>
   </g>
   <g id="patch_3">
    <path d="M 28.18024 265.31351 
L 28.18024 4.768673 
" style="fill: none; stroke: #000000; stroke-width: 1.6; stroke-linejoin: miter; stroke-linecap: square"/>
   </g>
   <g id="patch_4">
    <path d="M 28.18024 265.31351 
L 284.99976 265.31351 
" style="fill: none; stroke: #000000; stroke-width: 1.6; stroke-linejoin: miter; stroke-linecap: square"/>
   </g>
  </g>
  <g id="axes_2">
   <g id="patch_5">
    <path d="M 316.18024 265.31351 
L 572.99976 265.31351 
L 572.99976 4.768673 
L 316.18024 4.768673 
z
" style="fill: #ffffff"/>
   </g>
   <g id="matplotlib.axis_3">
    <g id="xtick_7">
     <g id="line2d_12">
      <g>
       <use xlink:href="#me79fa44b8c" x="316.18024" y="265.31351" style="stroke: #000000; stroke-width: 1.6"/>
      </g>
     </g>
     <g id="text_10">
      <!-- 0.1 -->
      <g transform="translate(307.84024 282.50976) scale(0.12 -0.12)">
       <use xlink:href="#LiberationSans-30"/>
       <use xlink:href="#LiberationSans-2e" x="55.615234"/>
       <use xlink:href="#LiberationSans-31" x="83.398438"/>
      </g>
     </g>
    </g>
    <g id="xtick_8">
     <g id="line2d_13">
      <g>
       <use xlink:href="#me79fa44b8c" x="370.533578" y="265.31351" style="stroke: #000000; stroke-width: 1.6"/>
      </g>
     </g>
     <g id="text_11">
      <!-- 0.3 -->
      <g transform="translate(362.193578 282.50976) scale(0.12 -0.12)">
       <use xlink:href="#LiberationSans-30"/>
       <use xlink:href="#LiberationSans-2e" x="55.615234"/>
       <use xlink:href="#LiberationSans-33" x="83.398438"/>
      </g>
     </g>
    </g>
    <g id="xtick_9">
     <g id="line2d_14">
      <g>
       <use xlink:href="#me79fa44b8c" x="424.886915" y="265.31351" style="stroke: #000000; stroke-width: 1.6"/>
      </g>
     </g>
     <g id="text_12">
      <!-- 0.5 -->
      <g transform="translate(416.546915 282.50976) scale(0.12 -0.12)">
       <use xlink:href="#LiberationSans-30"/>
       <use xlink:href="#LiberationSans-2e" x="55.615234"/>
       <use xlink:href="#LiberationSans-35" x="83.398438"/>
      </g>
     </g>
    </g>
    <g id="xtick_10">
     <g id="line2d_15">
      <g>
       <use xlink:href="#me79fa44b8c" x="479.240253" y="265.31351" style="stroke: #000000; stroke-width: 1.6"/>
      </g>
     </g>
     <g id="text_13">
      <!-- 0.7 -->
      <g transform="translate(470.900253 282.50976) scale(0.12 -0.12)">
       <defs>
        <path id="LiberationSans-37" d="M 3238 3947 
Q 2906 3441 2628 2973 
Q 2350 2506 2150 2032 
Q 1950 1559 1839 1061 
Q 1728 563 1728 0 
L 1141 0 
Q 1141 528 1266 1036 
Q 1391 1544 1603 2033 
Q 1816 2522 2097 2994 
Q 2378 3466 2694 3925 
L 328 3925 
L 328 4403 
L 3238 4403 
L 3238 3947 
z
" transform="scale(0.015625)"/>
       </defs>
       <use xlink:href="#LiberationSans-30"/>
       <use xlink:href="#LiberationSans-2e" x="55.615234"/>
       <use xlink:href="#LiberationSans-37" x="83.398438"/>
      </g>
     </g>
    </g>
    <g id="xtick_11">
     <g id="line2d_16">
      <g>
       <use xlink:href="#me79fa44b8c" x="533.59359" y="265.31351" style="stroke: #000000; stroke-width: 1.6"/>
      </g>
     </g>
     <g id="text_14">
      <!-- 0.9 -->
      <g transform="translate(525.25359 282.50976) scale(0.12 -0.12)">
       <use xlink:href="#LiberationSans-30"/>
       <use xlink:href="#LiberationSans-2e" x="55.615234"/>
       <use xlink:href="#LiberationSans-39" x="83.398438"/>
      </g>
     </g>
    </g>
   </g>
   <g id="matplotlib.axis_4">
    <g id="ytick_4">
     <g id="line2d_17">
      <g>
       <use xlink:href="#mc81c40e3c3" x="316.18024" y="265.31351" style="stroke: #000000; stroke-width: 1.6"/>
      </g>
     </g>
     <g id="text_15">
      <!-- 0.0 -->
      <g transform="translate(291.00024 269.661635) scale(0.12 -0.12)">
       <use xlink:href="#LiberationSans-30"/>
       <use xlink:href="#LiberationSans-2e" x="55.615234"/>
       <use xlink:href="#LiberationSans-30" x="83.398438"/>
      </g>
     </g>
    </g>
    <g id="ytick_5">
     <g id="line2d_18">
      <g>
       <use xlink:href="#mc81c40e3c3" x="316.18024" y="136.330917" style="stroke: #000000; stroke-width: 1.6"/>
      </g>
     </g>
     <g id="text_16">
      <!-- 0.5 -->
      <g transform="translate(291.00024 140.679042) scale(0.12 -0.12)">
       <use xlink:href="#LiberationSans-30"/>
       <use xlink:href="#LiberationSans-2e" x="55.615234"/>
       <use xlink:href="#LiberationSans-35" x="83.398438"/>
      </g>
     </g>
    </g>
    <g id="ytick_6">
     <g id="line2d_19">
      <g>
       <use xlink:href="#mc81c40e3c3" x="316.18024" y="7.348324" style="stroke: #000000; stroke-width: 1.6"/>
      </g>
     </g>
     <g id="text_17">
      <!-- 1.0 -->
      <g transform="translate(291.00024 11.696449) scale(0.12 -0.12)">
       <use xlink:href="#LiberationSans-31"/>
       <use xlink:href="#LiberationSans-2e" x="55.615234"/>
       <use xlink:href="#LiberationSans-30" x="83.398438"/>
      </g>
     </g>
    </g>
   </g>
   <g id="line2d_20">
    <path d="M 316.18024 241.398307 
L 318.638431 193.504251 
L 319.867527 171.250765 
L 321.096622 151.054279 
L 322.325718 133.35114 
L 323.554813 118.345415 
L 324.783909 106.028153 
L 326.013005 96.220674 
L 327.2421 88.629698 
L 328.471196 82.902859 
L 329.700291 78.676185 
L 330.929387 75.609021 
L 332.158482 73.405417 
L 333.387578 71.823556 
L 334.616674 70.67613 
L 335.845769 69.824877 
L 337.074865 69.17215 
L 339.533056 68.219918 
L 343.220343 67.220116 
L 350.594916 65.492084 
L 354.282203 64.313208 
L 359.198585 62.363339 
L 366.573158 59.422594 
L 391.15507 50.015084 
L 393.613261 49.388401 
L 397.300548 48.691741 
L 403.446026 47.647959 
L 407.133312 46.763494 
L 409.591504 45.98259 
L 413.27879 44.540945 
L 419.424268 42.038997 
L 421.882459 41.270002 
L 424.34065 40.694335 
L 428.027937 40.092209 
L 432.944319 39.275287 
L 435.402511 38.666996 
L 439.089797 37.463693 
L 451.380753 33.035455 
L 453.838944 32.382137 
L 456.297135 31.893928 
L 459.984422 31.462415 
L 466.1299 31.150974 
L 472.275378 30.743865 
L 482.108142 30.005813 
L 489.482716 29.467109 
L 499.31548 28.466243 
L 503.002767 27.831045 
L 506.690054 26.948235 
L 512.835532 25.404151 
L 518.98101 24.150478 
L 527.584679 22.372049 
L 530.04287 21.687392 
L 532.501061 20.805505 
L 534.959252 19.700075 
L 538.646539 17.722192 
L 544.792017 14.286111 
L 548.479303 12.456145 
L 553.395686 10.327582 
L 560.770259 7.348324 
L 560.770259 7.348324 
" clip-path="url(#pfb40b39fa2)" style="fill: none; stroke: #56b4e9; stroke-width: 2.5; stroke-linecap: square"/>
   </g>
   <g id="line2d_21">
    <path d="M 316.18024 243.360827 
L 318.638431 198.826191 
L 319.867527 178.032096 
L 321.096622 159.181992 
L 322.325718 142.719408 
L 323.554813 128.841614 
L 324.783909 117.525582 
L 326.013005 108.579152 
L 327.2421 101.70204 
L 328.471196 96.543759 
L 329.700291 92.750202 
L 330.929387 89.995611 
L 332.158482 88.000451 
L 333.387578 86.537902 
L 334.616674 85.43249 
L 337.074865 83.810341 
L 343.220343 80.568789 
L 354.282203 74.715164 
L 376.405923 63.86322 
L 383.780497 60.530385 
L 387.467783 58.658406 
L 392.384166 55.836542 
L 398.529643 52.227834 
L 402.21693 50.289017 
L 407.133312 47.957617 
L 418.195173 42.819454 
L 430.486128 36.811995 
L 436.631606 34.220822 
L 442.777084 31.807805 
L 446.464371 30.603949 
L 450.151657 29.650635 
L 458.755326 27.818786 
L 471.046282 25.139803 
L 475.962665 23.825917 
L 483.337238 21.536022 
L 489.482716 19.727243 
L 495.628194 18.219047 
L 501.773672 16.893517 
L 506.690054 16.046005 
L 514.064627 15.079981 
L 532.501061 12.678016 
L 539.875634 11.707312 
L 552.16659 10.277051 
L 554.624781 9.68809 
L 557.082972 8.864992 
L 560.770259 7.348324 
L 560.770259 7.348324 
" clip-path="url(#pfb40b39fa2)" style="fill: none; stroke: #d55e00; stroke-width: 2.5; stroke-linecap: square"/>
   </g>
   <g id="patch_6">
    <path d="M 316.18024 265.31351 
L 316.18024 4.768673 
" style="fill: none; stroke: #000000; stroke-width: 1.6; stroke-linejoin: miter; stroke-linecap: square"/>
   </g>
   <g id="patch_7">
    <path d="M 316.18024 265.31351 
L 572.99976 265.31351 
" style="fill: none; stroke: #000000; stroke-width: 1.6; stroke-linejoin: miter; stroke-linecap: square"/>
   </g>
   <g id="legend_1">
    <g id="line2d_22">
     <path d="M 326.98024 230.63726 
L 338.98024 230.63726 
L 350.98024 230.63726 
" style="fill: none; stroke: #56b4e9; stroke-width: 2.5; stroke-linecap: square"/>
    </g>
    <g id="text_18">
     <!-- Preplay -->
     <g transform="translate(360.58024 234.83726) scale(0.12 -0.12)">
      <defs>
       <path id="LiberationSans-50" d="M 3931 3078 
Q 3931 2791 3836 2542 
Q 3741 2294 3552 2111 
Q 3363 1928 3078 1822 
Q 2794 1716 2416 1716 
L 1122 1716 
L 1122 0 
L 525 0 
L 525 4403 
L 2378 4403 
Q 2769 4403 3059 4308 
Q 3350 4213 3544 4039 
Q 3738 3866 3834 3620 
Q 3931 3375 3931 3078 
z
M 3331 3072 
Q 3331 3491 3075 3708 
Q 2819 3925 2306 3925 
L 1122 3925 
L 1122 2188 
L 2331 2188 
Q 2847 2188 3089 2416 
Q 3331 2644 3331 3072 
z
" transform="scale(0.015625)"/>
       <path id="LiberationSans-72" d="M 444 0 
L 444 2594 
Q 444 2700 442 2811 
Q 441 2922 437 3025 
Q 434 3128 431 3218 
Q 428 3309 425 3381 
L 956 3381 
Q 959 3309 964 3217 
Q 969 3125 973 3028 
Q 978 2931 979 2842 
Q 981 2753 981 2691 
L 994 2691 
Q 1053 2884 1120 3026 
Q 1188 3169 1278 3261 
Q 1369 3353 1494 3398 
Q 1619 3444 1797 3444 
Q 1866 3444 1928 3433 
Q 1991 3422 2025 3413 
L 2025 2897 
Q 1969 2913 1894 2920 
Q 1819 2928 1725 2928 
Q 1531 2928 1395 2840 
Q 1259 2753 1173 2598 
Q 1088 2444 1047 2230 
Q 1006 2016 1006 1763 
L 1006 0 
L 444 0 
z
" transform="scale(0.015625)"/>
       <path id="LiberationSans-65" d="M 863 1572 
Q 863 1306 917 1082 
Q 972 859 1086 698 
Q 1200 538 1378 448 
Q 1556 359 1806 359 
Q 2172 359 2392 506 
Q 2613 653 2691 878 
L 3184 738 
Q 3131 597 3036 455 
Q 2941 313 2781 198 
Q 2622 84 2383 10 
Q 2144 -63 1806 -63 
Q 1056 -63 664 384 
Q 272 831 272 1713 
Q 272 2188 390 2517 
Q 509 2847 715 3053 
Q 922 3259 1197 3351 
Q 1472 3444 1784 3444 
Q 2209 3444 2495 3306 
Q 2781 3169 2954 2926 
Q 3128 2684 3201 2356 
Q 3275 2028 3275 1647 
L 3275 1572 
L 863 1572 
z
M 2694 2003 
Q 2647 2538 2422 2783 
Q 2197 3028 1775 3028 
Q 1634 3028 1479 2983 
Q 1325 2938 1194 2822 
Q 1063 2706 972 2507 
Q 881 2309 869 2003 
L 2694 2003 
z
" transform="scale(0.015625)"/>
       <path id="LiberationSans-70" d="M 3291 1706 
Q 3291 1322 3228 997 
Q 3166 672 3020 437 
Q 2875 203 2636 70 
Q 2397 -63 2047 -63 
Q 1684 -63 1412 75 
Q 1141 213 997 525 
L 981 525 
Q 984 519 986 469 
Q 988 419 989 344 
Q 991 269 992 176 
Q 994 84 994 -6 
L 994 -1328 
L 431 -1328 
L 431 2691 
Q 431 2813 429 2925 
Q 428 3038 425 3130 
Q 422 3222 419 3287 
Q 416 3353 413 3381 
L 956 3381 
Q 959 3372 964 3315 
Q 969 3259 973 3179 
Q 978 3100 983 3009 
Q 988 2919 988 2838 
L 1000 2838 
Q 1078 3000 1178 3114 
Q 1278 3228 1406 3301 
Q 1534 3375 1692 3408 
Q 1850 3441 2047 3441 
Q 2397 3441 2636 3316 
Q 2875 3191 3020 2964 
Q 3166 2738 3228 2417 
Q 3291 2097 3291 1706 
z
M 2700 1694 
Q 2700 2006 2662 2250 
Q 2625 2494 2533 2662 
Q 2441 2831 2287 2918 
Q 2134 3006 1903 3006 
Q 1716 3006 1550 2953 
Q 1384 2900 1261 2750 
Q 1138 2600 1066 2336 
Q 994 2072 994 1650 
Q 994 1291 1053 1042 
Q 1113 794 1227 641 
Q 1341 488 1509 420 
Q 1678 353 1897 353 
Q 2131 353 2286 443 
Q 2441 534 2533 706 
Q 2625 878 2662 1126 
Q 2700 1375 2700 1694 
z
" transform="scale(0.015625)"/>
       <path id="LiberationSans-6c" d="M 431 0 
L 431 4638 
L 994 4638 
L 994 0 
L 431 0 
z
" transform="scale(0.015625)"/>
       <path id="LiberationSans-61" d="M 1294 -63 
Q 784 -63 528 206 
Q 272 475 272 944 
Q 272 1278 398 1492 
Q 525 1706 729 1828 
Q 934 1950 1196 1997 
Q 1459 2044 1731 2050 
L 2491 2063 
L 2491 2247 
Q 2491 2456 2447 2603 
Q 2403 2750 2312 2840 
Q 2222 2931 2086 2973 
Q 1950 3016 1766 3016 
Q 1603 3016 1472 2992 
Q 1341 2969 1244 2908 
Q 1147 2847 1087 2742 
Q 1028 2638 1009 2478 
L 422 2531 
Q 453 2731 540 2898 
Q 628 3066 789 3187 
Q 950 3309 1192 3376 
Q 1434 3444 1778 3444 
Q 2416 3444 2737 3151 
Q 3059 2859 3059 2306 
L 3059 850 
Q 3059 600 3125 473 
Q 3191 347 3375 347 
Q 3422 347 3469 353 
Q 3516 359 3559 369 
L 3559 19 
Q 3453 -6 3348 -18 
Q 3244 -31 3125 -31 
Q 2966 -31 2852 11 
Q 2738 53 2666 139 
Q 2594 225 2556 351 
Q 2519 478 2509 647 
L 2491 647 
Q 2400 484 2292 353 
Q 2184 222 2040 130 
Q 1897 38 1714 -12 
Q 1531 -63 1294 -63 
z
M 1422 359 
Q 1691 359 1892 457 
Q 2094 556 2226 709 
Q 2359 863 2425 1044 
Q 2491 1225 2491 1391 
L 2491 1669 
L 1875 1656 
Q 1669 1653 1483 1626 
Q 1297 1600 1156 1522 
Q 1016 1444 933 1303 
Q 850 1163 850 934 
Q 850 659 998 509 
Q 1147 359 1422 359 
z
" transform="scale(0.015625)"/>
       <path id="LiberationSans-79" d="M 1888 0 
Q 1769 -306 1645 -551 
Q 1522 -797 1369 -970 
Q 1216 -1144 1028 -1236 
Q 841 -1328 597 -1328 
Q 491 -1328 400 -1322 
Q 309 -1316 209 -1294 
L 209 -872 
Q 269 -881 344 -886 
Q 419 -891 472 -891 
Q 719 -891 931 -706 
Q 1144 -522 1303 -119 
L 1356 16 
L 16 3381 
L 616 3381 
L 1328 1513 
Q 1359 1428 1407 1287 
Q 1456 1147 1504 1006 
Q 1553 866 1590 753 
Q 1628 641 1634 613 
Q 1644 647 1680 748 
Q 1716 850 1761 975 
Q 1806 1100 1853 1228 
Q 1900 1356 1931 1450 
L 2594 3381 
L 3188 3381 
L 1888 0 
z
" transform="scale(0.015625)"/>
      </defs>
      <use xlink:href="#LiberationSans-50"/>
      <use xlink:href="#LiberationSans-72" x="66.699219"/>
      <use xlink:href="#LiberationSans-65" x="100"/>
      <use xlink:href="#LiberationSans-70" x="155.615234"/>
      <use xlink:href="#LiberationSans-6c" x="211.230469"/>
      <use xlink:href="#LiberationSans-61" x="233.447266"/>
      <use xlink:href="#LiberationSans-79" x="289.0625"/>
     </g>
    </g>
    <g id="line2d_23">
     <path d="M 326.98024 247.82351 
L 338.98024 247.82351 
L 350.98024 247.82351 
" style="fill: none; stroke: #d55e00; stroke-width: 2.5; stroke-linecap: square"/>
    </g>
    <g id="text_19">
     <!-- Replay -->
     <g transform="translate(360.58024 252.02351) scale(0.12 -0.12)">
      <defs>
       <path id="LiberationSans-52" d="M 3638 0 
L 2494 1828 
L 1122 1828 
L 1122 0 
L 525 0 
L 525 4403 
L 2597 4403 
Q 2972 4403 3261 4317 
Q 3550 4231 3747 4068 
Q 3944 3906 4047 3672 
Q 4150 3438 4150 3144 
Q 4150 2934 4089 2731 
Q 4028 2528 3897 2359 
Q 3766 2191 3562 2069 
Q 3359 1947 3075 1897 
L 4325 0 
L 3638 0 
z
M 3550 3138 
Q 3550 3338 3481 3484 
Q 3413 3631 3281 3729 
Q 3150 3828 2962 3876 
Q 2775 3925 2538 3925 
L 1122 3925 
L 1122 2300 
L 2563 2300 
Q 2819 2300 3006 2364 
Q 3194 2428 3314 2540 
Q 3434 2653 3492 2806 
Q 3550 2959 3550 3138 
z
" transform="scale(0.015625)"/>
      </defs>
      <use xlink:href="#LiberationSans-52"/>
      <use xlink:href="#LiberationSans-65" x="72.216797"/>
      <use xlink:href="#LiberationSans-70" x="127.832031"/>
      <use xlink:href="#LiberationSans-6c" x="183.447266"/>
      <use xlink:href="#LiberationSans-61" x="205.664062"/>
      <use xlink:href="#LiberationSans-79" x="261.279297"/>
     </g>
    </g>
   </g>
  </g>
  <g id="axes_3">
   <g id="patch_8">
    <path d="M 175.071952 237.269923 
L 277.79976 237.269923 
L 277.79976 146.07923 
L 175.071952 146.07923 
z
" style="fill: #ffffff"/>
   </g>
   <g id="matplotlib.axis_5">
    <g id="xtick_12">
     <g id="line2d_24">
      <g>
       <use xlink:href="#me79fa44b8c" x="175.071952" y="237.269923" style="stroke: #000000; stroke-width: 1.6"/>
      </g>
     </g>
     <g id="text_20">
      <!-- 0 -->
      <g transform="translate(171.73539 254.466173) scale(0.12 -0.12)">
       <use xlink:href="#LiberationSans-30"/>
      </g>
     </g>
    </g>
    <g id="xtick_13">
     <g id="line2d_25">
      <g>
       <use xlink:href="#me79fa44b8c" x="207.683955" y="237.269923" style="stroke: #000000; stroke-width: 1.6"/>
      </g>
     </g>
     <g id="text_21">
      <!-- 5 -->
      <g transform="translate(204.347392 254.466173) scale(0.12 -0.12)">
       <use xlink:href="#LiberationSans-35"/>
      </g>
     </g>
    </g>
    <g id="xtick_14">
     <g id="line2d_26">
      <g>
       <use xlink:href="#me79fa44b8c" x="240.295957" y="237.269923" style="stroke: #000000; stroke-width: 1.6"/>
      </g>
     </g>
     <g id="text_22">
      <!-- 10 -->
      <g transform="translate(233.622832 254.466173) scale(0.12 -0.12)">
       <use xlink:href="#LiberationSans-31"/>
       <use xlink:href="#LiberationSans-30" x="55.615234"/>
      </g>
     </g>
    </g>
    <g id="xtick_15">
     <g id="line2d_27">
      <g>
       <use xlink:href="#me79fa44b8c" x="272.90796" y="237.269923" style="stroke: #000000; stroke-width: 1.6"/>
      </g>
     </g>
     <g id="text_23">
      <!-- 15 -->
      <g transform="translate(266.234835 254.466173) scale(0.12 -0.12)">
       <use xlink:href="#LiberationSans-31"/>
       <use xlink:href="#LiberationSans-35" x="55.615234"/>
      </g>
     </g>
    </g>
   </g>
   <g id="matplotlib.axis_6">
    <g id="ytick_7">
     <g id="line2d_28">
      <g>
       <use xlink:href="#mc81c40e3c3" x="175.071952" y="235.634262" style="stroke: #000000; stroke-width: 1.6"/>
      </g>
     </g>
     <g id="text_24">
      <!-- −0.050 -->
      <g transform="translate(129.536952 239.982387) scale(0.12 -0.12)">
       <defs>
        <path id="LiberationSans-2212" d="M 316 1900 
L 316 2356 
L 3425 2356 
L 3425 1900 
L 316 1900 
z
" transform="scale(0.015625)"/>
       </defs>
       <use xlink:href="#LiberationSans-2212"/>
       <use xlink:href="#LiberationSans-30" x="58.398438"/>
       <use xlink:href="#LiberationSans-2e" x="114.013672"/>
       <use xlink:href="#LiberationSans-30" x="141.796875"/>
       <use xlink:href="#LiberationSans-35" x="197.412109"/>
       <use xlink:href="#LiberationSans-30" x="253.027344"/>
      </g>
     </g>
    </g>
    <g id="ytick_8">
     <g id="line2d_29">
      <g>
       <use xlink:href="#mc81c40e3c3" x="175.071952" y="201.263206" style="stroke: #000000; stroke-width: 1.6"/>
      </g>
     </g>
     <g id="text_25">
      <!-- −0.025 -->
      <g transform="translate(129.536952 205.611331) scale(0.12 -0.12)">
       <use xlink:href="#LiberationSans-2212"/>
       <use xlink:href="#LiberationSans-30" x="58.398438"/>
       <use xlink:href="#LiberationSans-2e" x="114.013672"/>
       <use xlink:href="#LiberationSans-30" x="141.796875"/>
       <use xlink:href="#LiberationSans-32" x="197.412109"/>
       <use xlink:href="#LiberationSans-35" x="253.027344"/>
      </g>
     </g>
    </g>
    <g id="ytick_9">
     <g id="line2d_30">
      <g>
       <use xlink:href="#mc81c40e3c3" x="175.071952" y="166.89215" style="stroke: #000000; stroke-width: 1.6"/>
      </g>
     </g>
     <g id="text_26">
      <!-- 0.000 -->
      <g transform="translate(136.545702 171.240275) scale(0.12 -0.12)">
       <use xlink:href="#LiberationSans-30"/>
       <use xlink:href="#LiberationSans-2e" x="55.615234"/>
       <use xlink:href="#LiberationSans-30" x="83.398438"/>
       <use xlink:href="#LiberationSans-30" x="139.013672"/>
       <use xlink:href="#LiberationSans-30" x="194.628906"/>
      </g>
     </g>
    </g>
   </g>
   <g id="line2d_31">
    <path d="M 175.071952 169.190948 
L 176.055228 174.923986 
L 177.038505 181.953513 
L 179.496696 202.134086 
L 180.971611 213.530026 
L 182.446525 223.002278 
L 183.429802 227.967726 
L 184.413078 231.537769 
L 184.904717 232.627832 
L 185.396355 233.124891 
L 185.887993 232.920888 
L 186.379631 231.916322 
L 186.87127 230.037808 
L 187.362908 227.254772 
L 188.346184 219.134313 
L 189.329461 208.450984 
L 191.296014 185.778843 
L 192.27929 176.587915 
L 193.262566 169.536581 
L 194.245843 164.282138 
L 195.229119 160.215033 
L 196.212396 156.863209 
L 197.195672 154.075698 
L 198.178949 151.949745 
L 198.670587 151.18581 
L 199.162225 150.64099 
L 199.653863 150.321033 
L 200.145502 150.224261 
L 200.63714 150.342609 
L 201.128778 150.662862 
L 201.620416 151.167622 
L 202.603693 152.643326 
L 204.078608 155.62517 
L 207.028437 162.352232 
L 208.011713 164.951035 
L 208.99499 168.010483 
L 212.436457 179.671092 
L 212.928096 180.697567 
L 213.419734 181.440501 
L 213.911372 181.920438 
L 214.40301 182.189827 
L 215.877925 182.608634 
L 216.369563 182.955218 
L 216.861201 183.557039 
L 217.35284 184.475605 
L 217.844478 185.745514 
L 218.827754 189.345301 
L 219.811031 194.160018 
L 221.285946 202.76906 
L 223.252498 214.505816 
L 224.235775 219.447525 
L 225.219051 223.106222 
L 225.71069 224.322353 
L 226.202328 225.088819 
L 226.693966 225.402094 
L 227.185604 225.283366 
L 227.677243 224.778127 
L 228.168881 223.953177 
L 229.152157 221.68456 
L 230.627072 218.088531 
L 231.610348 216.394881 
L 232.101987 215.871291 
L 232.593625 215.572176 
L 233.085263 215.488638 
L 233.576901 215.604372 
L 234.06854 215.899029 
L 235.051816 216.932446 
L 236.526731 219.164046 
L 238.001645 221.296047 
L 238.493284 221.788832 
L 238.984922 222.118266 
L 239.47656 222.266952 
L 239.968198 222.229219 
L 240.459836 222.010374 
L 240.951475 221.625041 
L 241.934751 220.447611 
L 243.409666 218.100099 
L 247.342772 211.318622 
L 248.326048 208.886708 
L 249.309325 205.807995 
L 250.784239 200.081424 
L 253.734069 187.548532 
L 254.717345 184.22885 
L 255.700622 181.786288 
L 256.19226 180.92457 
L 256.683898 180.29777 
L 257.175536 179.889529 
L 257.667175 179.674477 
L 258.158813 179.619778 
L 259.142089 179.83537 
L 261.108642 180.47049 
L 262.091919 180.44449 
L 263.075195 180.088974 
L 264.058471 179.423896 
L 265.041748 178.46395 
L 266.025024 177.18957 
L 267.008301 175.578462 
L 268.483216 172.655057 
L 269.95813 169.727873 
L 270.941407 168.234527 
L 271.924683 167.30655 
L 272.90796 166.89215 
L 272.90796 166.89215 
" clip-path="url(#p9957c5cbde)" style="fill: none; stroke: #006400; stroke-width: 2.5; stroke-linecap: square"/>
   </g>
   <g id="line2d_32">
    <path d="M 175.071952 166.89215 
L 277.79976 166.89215 
" clip-path="url(#p9957c5cbde)" style="fill: none; stroke-dasharray: 7.4,3.2; stroke-dashoffset: 0; stroke: #808080; stroke-width: 2"/>
   </g>
   <g id="patch_9">
    <path d="M 175.071952 237.269923 
L 175.071952 146.07923 
" style="fill: none; stroke: #000000; stroke-width: 1.6; stroke-linejoin: miter; stroke-linecap: square"/>
   </g>
   <g id="patch_10">
    <path d="M 175.071952 237.269923 
L 277.79976 237.269923 
" style="fill: none; stroke: #000000; stroke-width: 1.6; stroke-linejoin: miter; stroke-linecap: square"/>
   </g>
  </g>
  <g id="axes_4">
   <g id="patch_11">
    <path d="M 463.071952 237.269923 
L 565.79976 237.269923 
L 565.79976 146.07923 
L 463.071952 146.07923 
z
" style="fill: #ffffff"/>
   </g>
   <g id="matplotlib.axis_7">
    <g id="xtick_16">
     <g id="line2d_33">
      <g>
       <use xlink:href="#me79fa44b8c" x="463.071952" y="237.269923" style="stroke: #000000; stroke-width: 1.6"/>
      </g>
     </g>
     <g id="text_27">
      <!-- 0.1 -->
      <g transform="translate(454.731952 254.466173) scale(0.12 -0.12)">
       <use xlink:href="#LiberationSans-30"/>
       <use xlink:href="#LiberationSans-2e" x="55.615234"/>
       <use xlink:href="#LiberationSans-31" x="83.398438"/>
      </g>
     </g>
    </g>
    <g id="xtick_17">
     <g id="line2d_34">
      <g>
       <use xlink:href="#me79fa44b8c" x="506.554622" y="237.269923" style="stroke: #000000; stroke-width: 1.6"/>
      </g>
     </g>
     <g id="text_28">
      <!-- 0.5 -->
      <g transform="translate(498.214622 254.466173) scale(0.12 -0.12)">
       <use xlink:href="#LiberationSans-30"/>
       <use xlink:href="#LiberationSans-2e" x="55.615234"/>
       <use xlink:href="#LiberationSans-35" x="83.398438"/>
      </g>
     </g>
    </g>
    <g id="xtick_18">
     <g id="line2d_35">
      <g>
       <use xlink:href="#me79fa44b8c" x="550.037292" y="237.269923" style="stroke: #000000; stroke-width: 1.6"/>
      </g>
     </g>
     <g id="text_29">
      <!-- 0.9 -->
      <g transform="translate(541.697292 254.466173) scale(0.12 -0.12)">
       <use xlink:href="#LiberationSans-30"/>
       <use xlink:href="#LiberationSans-2e" x="55.615234"/>
       <use xlink:href="#LiberationSans-39" x="83.398438"/>
      </g>
     </g>
    </g>
   </g>
   <g id="matplotlib.axis_8">
    <g id="ytick_10">
     <g id="line2d_36">
      <g>
       <use xlink:href="#mc81c40e3c3" x="463.071952" y="197.390811" style="stroke: #000000; stroke-width: 1.6"/>
      </g>
     </g>
     <g id="text_30">
      <!-- 0.00 -->
      <g transform="translate(431.218827 201.738936) scale(0.12 -0.12)">
       <use xlink:href="#LiberationSans-30"/>
       <use xlink:href="#LiberationSans-2e" x="55.615234"/>
       <use xlink:href="#LiberationSans-30" x="83.398438"/>
       <use xlink:href="#LiberationSans-30" x="139.013672"/>
      </g>
     </g>
    </g>
    <g id="ytick_11">
     <g id="line2d_37">
      <g>
       <use xlink:href="#mc81c40e3c3" x="463.071952" y="156.16341" style="stroke: #000000; stroke-width: 1.6"/>
      </g>
     </g>
     <g id="text_31">
      <!-- 0.05 -->
      <g transform="translate(431.218827 160.511535) scale(0.12 -0.12)">
       <use xlink:href="#LiberationSans-30"/>
       <use xlink:href="#LiberationSans-2e" x="55.615234"/>
       <use xlink:href="#LiberationSans-30" x="83.398438"/>
       <use xlink:href="#LiberationSans-35" x="139.013672"/>
      </g>
     </g>
    </g>
   </g>
   <g id="line2d_38">
    <path d="M 463.071952 191.117904 
L 464.055228 180.380009 
L 465.038505 171.411765 
L 466.021781 163.841245 
L 467.005058 157.888741 
L 467.988334 153.789666 
L 468.479973 152.405274 
L 468.971611 151.406179 
L 469.463249 150.739917 
L 469.954887 150.358552 
L 470.446525 150.224261 
L 470.938164 150.310852 
L 471.429802 150.601971 
L 471.92144 151.087238 
L 472.904717 152.600851 
L 473.887993 154.723726 
L 476.837822 161.900078 
L 477.821099 163.540534 
L 478.804375 164.618451 
L 479.787652 165.315959 
L 481.262566 166.2686 
L 482.737481 167.607589 
L 484.704034 169.486022 
L 486.178949 170.454642 
L 488.63714 171.657262 
L 490.112055 172.394235 
L 491.095331 173.152804 
L 492.078608 174.437506 
L 493.061884 176.443687 
L 494.04516 179.141143 
L 497.486628 189.698872 
L 498.469905 191.923625 
L 499.453181 193.573972 
L 500.436457 194.638443 
L 501.419734 195.213081 
L 503.386287 195.977297 
L 503.877925 196.343208 
L 504.369563 196.852397 
L 505.35284 198.361263 
L 506.336116 200.485452 
L 509.285946 207.758826 
L 510.269222 209.402242 
L 511.252498 210.429685 
L 512.235775 210.944021 
L 513.219051 211.078022 
L 514.202328 210.902628 
L 515.185604 210.442401 
L 517.643795 208.841497 
L 518.135434 208.68727 
L 518.627072 208.65811 
L 519.11871 208.766753 
L 519.610348 209.013302 
L 520.593625 209.865942 
L 522.06854 211.694507 
L 526.984922 218.498418 
L 528.459836 221.208729 
L 531.409666 226.99407 
L 532.884581 229.195665 
L 534.359495 230.967668 
L 535.83441 232.413939 
L 536.817686 233.008485 
L 537.309325 233.124891 
L 537.800963 233.099992 
L 538.292601 232.932926 
L 539.275878 232.238195 
L 542.225707 229.530719 
L 544.19226 228.328614 
L 547.142089 226.514692 
L 548.125366 225.645407 
L 549.108642 224.297703 
L 550.091919 222.250661 
L 551.075195 219.47318 
L 552.55011 214.376952 
L 555.008301 205.633892 
L 556.483216 201.310752 
L 557.466492 199.181906 
L 558.449768 197.823245 
L 558.941407 197.441147 
L 559.433045 197.239043 
L 559.924683 197.188749 
L 560.90796 197.390811 
L 560.90796 197.390811 
" clip-path="url(#pf413ba61d7)" style="fill: none; stroke: #006400; stroke-width: 2.5; stroke-linecap: square"/>
   </g>
   <g id="line2d_39">
    <path d="M 463.071952 197.390811 
L 565.79976 197.390811 
" clip-path="url(#pf413ba61d7)" style="fill: none; stroke-dasharray: 7.4,3.2; stroke-dashoffset: 0; stroke: #808080; stroke-width: 2"/>
   </g>
   <g id="patch_12">
    <path d="M 463.071952 237.269923 
L 463.071952 146.07923 
" style="fill: none; stroke: #000000; stroke-width: 1.6; stroke-linejoin: miter; stroke-linecap: square"/>
   </g>
   <g id="patch_13">
    <path d="M 463.071952 237.269923 
L 565.79976 237.269923 
" style="fill: none; stroke: #000000; stroke-width: 1.6; stroke-linejoin: miter; stroke-linecap: square"/>
   </g>
  </g>
 </g>
 <defs>
  <clipPath id="p7caf61b8b4">
   <rect x="28.18024" y="4.768673" width="256.81952" height="260.544837"/>
  </clipPath>
  <clipPath id="pfb40b39fa2">
   <rect x="316.18024" y="4.768673" width="256.81952" height="260.544837"/>
  </clipPath>
  <clipPath id="p9957c5cbde">
   <rect x="175.071952" y="146.07923" width="102.727808" height="91.190693"/>
  </clipPath>
  <clipPath id="pf413ba61d7">
   <rect x="463.071952" y="146.07923" width="102.727808" height="91.190693"/>
  </clipPath>
 </defs>
</svg>
