<?xml version="1.0" encoding="utf-8" standalone="no"?>
<!DOCTYPE svg PUBLIC "-//W3C//DTD SVG 1.1//EN"
  "http://www.w3.org/Graphics/SVG/1.1/DTD/svg11.dtd">
<svg xmlns:xlink="http://www.w3.org/1999/xlink" width="252pt" height="288pt" viewBox="0 0 252 288" xmlns="http://www.w3.org/2000/svg" version="1.1">
 <metadata>
  <rdf:RDF xmlns:dc="http://purl.org/dc/elements/1.1/" xmlns:cc="http://creativecommons.org/ns#" xmlns:rdf="http://www.w3.org/1999/02/22-rdf-syntax-ns#">
   <cc:Work>
    <dc:type rdf:resource="http://purl.org/dc/dcmitype/StillImage"/>
    <dc:date>2025-10-02T01:39:10.785650</dc:date>
    <dc:format>image/svg+xml</dc:format>
    <dc:creator>
     <cc:Agent>
      <dc:title>Matplotlib v3.7.2, https://matplotlib.org/</dc:title>
     </cc:Agent>
    </dc:creator>
   </cc:Work>
  </rdf:RDF>
 </metadata>
 <defs>
  <style type="text/css">*{stroke-linejoin: round; stroke-linecap: butt}</style>
 </defs>
 <g id="figure_1">
  <g id="patch_1">
   <path d="M 0 288 
L 252 288 
L 252 0 
L 0 0 
z
" style="fill: #ffffff"/>
  </g>
  <g id="axes_1">
   <g id="patch_2">
    <path d="M 31.5 256.32 
L 226.8 256.32 
L 226.8 34.56 
L 31.5 34.56 
z
" style="fill: #ffffff"/>
   </g>
   <g id="patch_3">
    <path d="M 31.5 256.32 
L 41.265 256.32 
L 41.265 45.12 
L 31.5 45.12 
z
" clip-path="url(#pd0ead4644f)" style="fill: #808080; stroke: #ffffff; stroke-width: 1.5; stroke-linejoin: miter"/>
   </g>
   <g id="patch_4">
    <path d="M 41.265 256.32 
L 51.03 256.32 
L 51.03 142.291005 
L 41.265 142.291005 
z
" clip-path="url(#pd0ead4644f)" style="fill: #808080; stroke: #ffffff; stroke-width: 1.5; stroke-linejoin: miter"/>
   </g>
   <g id="patch_5">
    <path d="M 51.03 256.32 
L 60.795 256.32 
L 60.795 191.052478 
L 51.03 191.052478 
z
" clip-path="url(#pd0ead4644f)" style="fill: #808080; stroke: #ffffff; stroke-width: 1.5; stroke-linejoin: miter"/>
   </g>
   <g id="patch_6">
    <path d="M 60.795 256.32 
L 70.56 256.32 
L 70.56 215.371625 
L 60.795 215.371625 
z
" clip-path="url(#pd0ead4644f)" style="fill: #808080; stroke: #ffffff; stroke-width: 1.5; stroke-linejoin: miter"/>
   </g>
   <g id="patch_7">
    <path d="M 70.56 256.32 
L 80.325 256.32 
L 80.325 229.431681 
L 70.56 229.431681 
z
" clip-path="url(#pd0ead4644f)" style="fill: #808080; stroke: #ffffff; stroke-width: 1.5; stroke-linejoin: miter"/>
   </g>
   <g id="patch_8">
    <path d="M 80.325 256.32 
L 90.09 256.32 
L 90.09 239.725966 
L 80.325 239.725966 
z
" clip-path="url(#pd0ead4644f)" style="fill: #808080; stroke: #ffffff; stroke-width: 1.5; stroke-linejoin: miter"/>
   </g>
   <g id="patch_9">
    <path d="M 90.09 256.32 
L 99.855 256.32 
L 99.855 245.849745 
L 90.09 245.849745 
z
" clip-path="url(#pd0ead4644f)" style="fill: #808080; stroke: #ffffff; stroke-width: 1.5; stroke-linejoin: miter"/>
   </g>
   <g id="patch_10">
    <path d="M 99.855 256.32 
L 109.62 256.32 
L 109.62 250.073041 
L 99.855 250.073041 
z
" clip-path="url(#pd0ead4644f)" style="fill: #808080; stroke: #ffffff; stroke-width: 1.5; stroke-linejoin: miter"/>
   </g>
   <g id="patch_11">
    <path d="M 109.62 256.32 
L 119.385 256.32 
L 119.385 251.867942 
L 109.62 251.867942 
z
" clip-path="url(#pd0ead4644f)" style="fill: #808080; stroke: #ffffff; stroke-width: 1.5; stroke-linejoin: miter"/>
   </g>
   <g id="patch_12">
    <path d="M 119.385 256.32 
L 129.15 256.32 
L 129.15 253.469275 
L 119.385 253.469275 
z
" clip-path="url(#pd0ead4644f)" style="fill: #808080; stroke: #ffffff; stroke-width: 1.5; stroke-linejoin: miter"/>
   </g>
   <g id="patch_13">
    <path d="M 129.15 256.32 
L 138.915 256.32 
L 138.915 254.683473 
L 129.15 254.683473 
z
" clip-path="url(#pd0ead4644f)" style="fill: #808080; stroke: #ffffff; stroke-width: 1.5; stroke-linejoin: miter"/>
   </g>
   <g id="patch_14">
    <path d="M 138.915 256.32 
L 148.68 256.32 
L 148.68 255.211385 
L 138.915 255.211385 
z
" clip-path="url(#pd0ead4644f)" style="fill: #808080; stroke: #ffffff; stroke-width: 1.5; stroke-linejoin: miter"/>
   </g>
   <g id="patch_15">
    <path d="M 148.68 256.32 
L 158.445 256.32 
L 158.445 255.651311 
L 148.68 255.651311 
z
" clip-path="url(#pd0ead4644f)" style="fill: #808080; stroke: #ffffff; stroke-width: 1.5; stroke-linejoin: miter"/>
   </g>
   <g id="patch_16">
    <path d="M 158.445 256.32 
L 168.21 256.32 
L 168.21 255.827282 
L 158.445 255.827282 
z
" clip-path="url(#pd0ead4644f)" style="fill: #808080; stroke: #ffffff; stroke-width: 1.5; stroke-linejoin: miter"/>
   </g>
   <g id="patch_17">
    <path d="M 168.21 256.32 
L 177.975 256.32 
L 177.975 256.038447 
L 168.21 256.038447 
z
" clip-path="url(#pd0ead4644f)" style="fill: #808080; stroke: #ffffff; stroke-width: 1.5; stroke-linejoin: miter"/>
   </g>
   <g id="patch_18">
    <path d="M 177.975 256.32 
L 187.74 256.32 
L 187.74 256.126432 
L 177.975 256.126432 
z
" clip-path="url(#pd0ead4644f)" style="fill: #808080; stroke: #ffffff; stroke-width: 1.5; stroke-linejoin: miter"/>
   </g>
   <g id="patch_19">
    <path d="M 187.74 256.32 
L 197.505 256.32 
L 197.505 256.284806 
L 187.74 256.284806 
z
" clip-path="url(#pd0ead4644f)" style="fill: #808080; stroke: #ffffff; stroke-width: 1.5; stroke-linejoin: miter"/>
   </g>
   <g id="patch_20">
    <path d="M 197.505 256.32 
L 207.27 256.32 
L 207.27 256.284806 
L 197.505 256.284806 
z
" clip-path="url(#pd0ead4644f)" style="fill: #808080; stroke: #ffffff; stroke-width: 1.5; stroke-linejoin: miter"/>
   </g>
   <g id="patch_21">
    <path d="M 207.27 256.32 
L 217.035 256.32 
L 217.035 256.302403 
L 207.27 256.302403 
z
" clip-path="url(#pd0ead4644f)" style="fill: #808080; stroke: #ffffff; stroke-width: 1.5; stroke-linejoin: miter"/>
   </g>
   <g id="patch_22">
    <path d="M 217.035 256.32 
L 226.8 256.32 
L 226.8 256.302403 
L 217.035 256.302403 
z
" clip-path="url(#pd0ead4644f)" style="fill: #808080; stroke: #ffffff; stroke-width: 1.5; stroke-linejoin: miter"/>
   </g>
   <g id="matplotlib.axis_1">
    <g id="xtick_1">
     <g id="line2d_1">
      <defs>
       <path id="m50c1fb92ce" d="M 0 0 
L 0 5 
" style="stroke: #000000; stroke-width: 1.6"/>
      </defs>
      <g>
       <use xlink:href="#m50c1fb92ce" x="31.5" y="256.32" style="stroke: #000000; stroke-width: 1.6"/>
      </g>
     </g>
     <g id="text_1">
      <!-- 0 -->
      <g transform="translate(28.163438 273.51625) scale(0.12 -0.12)">
       <defs>
        <path id="LiberationSans-30" d="M 3309 2203 
Q 3309 1569 3189 1136 
Q 3069 703 2861 436 
Q 2653 169 2372 53 
Q 2091 -63 1772 -63 
Q 1450 -63 1172 53 
Q 894 169 689 434 
Q 484 700 367 1133 
Q 250 1566 250 2203 
Q 250 2869 367 3305 
Q 484 3741 690 4000 
Q 897 4259 1178 4364 
Q 1459 4469 1791 4469 
Q 2106 4469 2382 4364 
Q 2659 4259 2865 4000 
Q 3072 3741 3190 3305 
Q 3309 2869 3309 2203 
z
M 2738 2203 
Q 2738 2728 2675 3076 
Q 2613 3425 2491 3633 
Q 2369 3841 2192 3927 
Q 2016 4013 1791 4013 
Q 1553 4013 1372 3925 
Q 1191 3838 1067 3630 
Q 944 3422 881 3073 
Q 819 2725 819 2203 
Q 819 1697 883 1350 
Q 947 1003 1070 792 
Q 1194 581 1372 489 
Q 1550 397 1778 397 
Q 2000 397 2178 489 
Q 2356 581 2479 792 
Q 2603 1003 2670 1350 
Q 2738 1697 2738 2203 
z
" transform="scale(0.015625)"/>
       </defs>
       <use xlink:href="#LiberationSans-30"/>
      </g>
     </g>
    </g>
    <g id="xtick_2">
     <g id="line2d_2">
      <g>
       <use xlink:href="#m50c1fb92ce" x="96.6" y="256.32" style="stroke: #000000; stroke-width: 1.6"/>
      </g>
     </g>
     <g id="text_2">
      <!-- 5 -->
      <g transform="translate(93.263438 273.51625) scale(0.12 -0.12)">
       <defs>
        <path id="LiberationSans-35" d="M 3291 1434 
Q 3291 1103 3191 828 
Q 3091 553 2894 354 
Q 2697 156 2405 46 
Q 2113 -63 1728 -63 
Q 1381 -63 1123 18 
Q 866 100 687 242 
Q 509 384 404 575 
Q 300 766 256 984 
L 825 1050 
Q 859 925 921 808 
Q 984 691 1092 598 
Q 1200 506 1358 451 
Q 1516 397 1741 397 
Q 1959 397 2137 464 
Q 2316 531 2442 662 
Q 2569 794 2637 984 
Q 2706 1175 2706 1422 
Q 2706 1625 2640 1795 
Q 2575 1966 2453 2089 
Q 2331 2213 2154 2281 
Q 1978 2350 1753 2350 
Q 1613 2350 1494 2325 
Q 1375 2300 1273 2256 
Q 1172 2213 1089 2155 
Q 1006 2097 934 2034 
L 384 2034 
L 531 4403 
L 3034 4403 
L 3034 3925 
L 1044 3925 
L 959 2528 
Q 1109 2644 1334 2726 
Q 1559 2809 1869 2809 
Q 2197 2809 2459 2709 
Q 2722 2609 2906 2426 
Q 3091 2244 3191 1991 
Q 3291 1738 3291 1434 
z
" transform="scale(0.015625)"/>
       </defs>
       <use xlink:href="#LiberationSans-35"/>
      </g>
     </g>
    </g>
    <g id="xtick_3">
     <g id="line2d_3">
      <g>
       <use xlink:href="#m50c1fb92ce" x="161.7" y="256.32" style="stroke: #000000; stroke-width: 1.6"/>
      </g>
     </g>
     <g id="text_3">
      <!-- 10 -->
      <g transform="translate(155.026875 273.51625) scale(0.12 -0.12)">
       <defs>
        <path id="LiberationSans-31" d="M 488 0 
L 488 478 
L 1609 478 
L 1609 3866 
L 616 3156 
L 616 3688 
L 1656 4403 
L 2175 4403 
L 2175 478 
L 3247 478 
L 3247 0 
L 488 0 
z
" transform="scale(0.015625)"/>
       </defs>
       <use xlink:href="#LiberationSans-31"/>
       <use xlink:href="#LiberationSans-30" x="55.615234"/>
      </g>
     </g>
    </g>
    <g id="xtick_4">
     <g id="line2d_4">
      <g>
       <use xlink:href="#m50c1fb92ce" x="226.8" y="256.32" style="stroke: #000000; stroke-width: 1.6"/>
      </g>
     </g>
     <g id="text_4">
      <!-- 15 -->
      <g transform="translate(220.126875 273.51625) scale(0.12 -0.12)">
       <use xlink:href="#LiberationSans-31"/>
       <use xlink:href="#LiberationSans-35" x="55.615234"/>
      </g>
     </g>
    </g>
   </g>
   <g id="matplotlib.axis_2">
    <g id="ytick_1">
     <g id="line2d_5">
      <defs>
       <path id="m3067d323cd" d="M 0 0 
L -5 0 
" style="stroke: #000000; stroke-width: 1.6"/>
      </defs>
      <g>
       <use xlink:href="#m3067d323cd" x="31.5" y="256.32" style="stroke: #000000; stroke-width: 1.6"/>
      </g>
     </g>
     <g id="text_5">
      <!-- 0.0 -->
      <g transform="translate(6.32 260.668125) scale(0.12 -0.12)">
       <defs>
        <path id="LiberationSans-2e" d="M 584 0 
L 584 684 
L 1194 684 
L 1194 0 
L 584 0 
z
" transform="scale(0.015625)"/>
       </defs>
       <use xlink:href="#LiberationSans-30"/>
       <use xlink:href="#LiberationSans-2e" x="55.615234"/>
       <use xlink:href="#LiberationSans-30" x="83.398438"/>
      </g>
     </g>
    </g>
    <g id="ytick_2">
     <g id="line2d_6">
      <g>
       <use xlink:href="#m3067d323cd" x="31.5" y="218.562413" style="stroke: #000000; stroke-width: 1.6"/>
      </g>
     </g>
     <g id="text_6">
      <!-- 0.1 -->
      <g transform="translate(6.32 222.910538) scale(0.12 -0.12)">
       <use xlink:href="#LiberationSans-30"/>
       <use xlink:href="#LiberationSans-2e" x="55.615234"/>
       <use xlink:href="#LiberationSans-31" x="83.398438"/>
      </g>
     </g>
    </g>
    <g id="ytick_3">
     <g id="line2d_7">
      <g>
       <use xlink:href="#m3067d323cd" x="31.5" y="180.804826" style="stroke: #000000; stroke-width: 1.6"/>
      </g>
     </g>
     <g id="text_7">
      <!-- 0.2 -->
      <g transform="translate(6.32 185.152951) scale(0.12 -0.12)">
       <defs>
        <path id="LiberationSans-32" d="M 322 0 
L 322 397 
Q 481 763 711 1042 
Q 941 1322 1194 1548 
Q 1447 1775 1695 1969 
Q 1944 2163 2144 2356 
Q 2344 2550 2467 2762 
Q 2591 2975 2591 3244 
Q 2591 3431 2534 3573 
Q 2478 3716 2372 3812 
Q 2266 3909 2117 3957 
Q 1969 4006 1788 4006 
Q 1619 4006 1470 3959 
Q 1322 3913 1206 3819 
Q 1091 3725 1017 3586 
Q 944 3447 922 3263 
L 347 3316 
Q 375 3553 478 3762 
Q 581 3972 762 4130 
Q 944 4288 1198 4378 
Q 1453 4469 1788 4469 
Q 2116 4469 2372 4391 
Q 2628 4313 2804 4159 
Q 2981 4006 3075 3781 
Q 3169 3556 3169 3263 
Q 3169 3041 3089 2841 
Q 3009 2641 2876 2459 
Q 2744 2278 2569 2109 
Q 2394 1941 2203 1780 
Q 2013 1619 1819 1461 
Q 1625 1303 1454 1143 
Q 1284 984 1150 820 
Q 1016 656 941 478 
L 3238 478 
L 3238 0 
L 322 0 
z
" transform="scale(0.015625)"/>
       </defs>
       <use xlink:href="#LiberationSans-30"/>
       <use xlink:href="#LiberationSans-2e" x="55.615234"/>
       <use xlink:href="#LiberationSans-32" x="83.398438"/>
      </g>
     </g>
    </g>
    <g id="ytick_4">
     <g id="line2d_8">
      <g>
       <use xlink:href="#m3067d323cd" x="31.5" y="143.047239" style="stroke: #000000; stroke-width: 1.6"/>
      </g>
     </g>
     <g id="text_8">
      <!-- 0.3 -->
      <g transform="translate(6.32 147.395364) scale(0.12 -0.12)">
       <defs>
        <path id="LiberationSans-33" d="M 3278 1216 
Q 3278 913 3179 675 
Q 3081 438 2892 273 
Q 2703 109 2423 23 
Q 2144 -63 1784 -63 
Q 1375 -63 1095 39 
Q 816 141 634 308 
Q 453 475 362 689 
Q 272 903 244 1131 
L 825 1184 
Q 850 1009 917 865 
Q 984 722 1100 619 
Q 1216 516 1384 459 
Q 1553 403 1784 403 
Q 2209 403 2451 612 
Q 2694 822 2694 1234 
Q 2694 1478 2586 1626 
Q 2478 1775 2317 1858 
Q 2156 1941 1967 1969 
Q 1778 1997 1619 1997 
L 1300 1997 
L 1300 2484 
L 1606 2484 
Q 1766 2484 1937 2517 
Q 2109 2550 2251 2636 
Q 2394 2722 2486 2869 
Q 2578 3016 2578 3244 
Q 2578 3597 2370 3801 
Q 2163 4006 1753 4006 
Q 1381 4006 1151 3815 
Q 922 3625 884 3278 
L 319 3322 
Q 353 3613 478 3828 
Q 603 4044 795 4186 
Q 988 4328 1234 4398 
Q 1481 4469 1759 4469 
Q 2128 4469 2393 4376 
Q 2659 4284 2828 4126 
Q 2997 3969 3076 3756 
Q 3156 3544 3156 3303 
Q 3156 3109 3103 2940 
Q 3050 2772 2937 2637 
Q 2825 2503 2651 2406 
Q 2478 2309 2234 2259 
L 2234 2247 
Q 2500 2219 2697 2126 
Q 2894 2034 3022 1896 
Q 3150 1759 3214 1584 
Q 3278 1409 3278 1216 
z
" transform="scale(0.015625)"/>
       </defs>
       <use xlink:href="#LiberationSans-30"/>
       <use xlink:href="#LiberationSans-2e" x="55.615234"/>
       <use xlink:href="#LiberationSans-33" x="83.398438"/>
      </g>
     </g>
    </g>
    <g id="ytick_5">
     <g id="line2d_9">
      <g>
       <use xlink:href="#m3067d323cd" x="31.5" y="105.289652" style="stroke: #000000; stroke-width: 1.6"/>
      </g>
     </g>
     <g id="text_9">
      <!-- 0.4 -->
      <g transform="translate(6.32 109.637777) scale(0.12 -0.12)">
       <defs>
        <path id="LiberationSans-34" d="M 2753 997 
L 2753 0 
L 2222 0 
L 2222 997 
L 147 997 
L 147 1434 
L 2163 4403 
L 2753 4403 
L 2753 1441 
L 3372 1441 
L 3372 997 
L 2753 997 
z
M 2222 3769 
Q 2216 3753 2191 3708 
Q 2166 3663 2134 3606 
Q 2103 3550 2070 3492 
Q 2038 3434 2013 3397 
L 884 1734 
Q 869 1709 839 1668 
Q 809 1628 778 1586 
Q 747 1544 715 1503 
Q 684 1463 666 1441 
L 2222 1441 
L 2222 3769 
z
" transform="scale(0.015625)"/>
       </defs>
       <use xlink:href="#LiberationSans-30"/>
       <use xlink:href="#LiberationSans-2e" x="55.615234"/>
       <use xlink:href="#LiberationSans-34" x="83.398438"/>
      </g>
     </g>
    </g>
    <g id="ytick_6">
     <g id="line2d_10">
      <g>
       <use xlink:href="#m3067d323cd" x="31.5" y="67.532065" style="stroke: #000000; stroke-width: 1.6"/>
      </g>
     </g>
     <g id="text_10">
      <!-- 0.5 -->
      <g transform="translate(6.32 71.88019) scale(0.12 -0.12)">
       <use xlink:href="#LiberationSans-30"/>
       <use xlink:href="#LiberationSans-2e" x="55.615234"/>
       <use xlink:href="#LiberationSans-35" x="83.398438"/>
      </g>
     </g>
    </g>
   </g>
   <g id="line2d_11">
    <path d="M 51.043803 256.32 
L 51.043803 34.56 
" clip-path="url(#pd0ead4644f)" style="fill: none; stroke-dasharray: 11.1,4.8; stroke-dashoffset: 0; stroke: #d62728; stroke-width: 3"/>
   </g>
   <g id="patch_23">
    <path d="M 31.5 256.32 
L 31.5 34.56 
" style="fill: none; stroke: #000000; stroke-width: 1.6; stroke-linejoin: miter; stroke-linecap: square"/>
   </g>
   <g id="patch_24">
    <path d="M 31.5 256.32 
L 226.8 256.32 
" style="fill: none; stroke: #000000; stroke-width: 1.6; stroke-linejoin: miter; stroke-linecap: square"/>
   </g>
  </g>
 </g>
 <defs>
  <clipPath id="pd0ead4644f">
   <rect x="31.5" y="34.56" width="195.3" height="221.76"/>
  </clipPath>
 </defs>
</svg>
