<?xml version="1.0" encoding="utf-8" standalone="no"?>
<!DOCTYPE svg PUBLIC "-//W3C//DTD SVG 1.1//EN"
  "http://www.w3.org/Graphics/SVG/1.1/DTD/svg11.dtd">
<svg xmlns:xlink="http://www.w3.org/1999/xlink" width="738.603125pt" height="359.999886pt" viewBox="0 0 738.603125 359.999886" xmlns="http://www.w3.org/2000/svg" version="1.1">
 <metadata>
  <rdf:RDF xmlns:dc="http://purl.org/dc/elements/1.1/" xmlns:cc="http://creativecommons.org/ns#" xmlns:rdf="http://www.w3.org/1999/02/22-rdf-syntax-ns#">
   <cc:Work>
    <dc:type rdf:resource="http://purl.org/dc/dcmitype/StillImage"/>
    <dc:date>2025-08-10T14:13:18.882500</dc:date>
    <dc:format>image/svg+xml</dc:format>
    <dc:creator>
     <cc:Agent>
      <dc:title>Matplotlib v3.7.2, https://matplotlib.org/</dc:title>
     </cc:Agent>
    </dc:creator>
   </cc:Work>
  </rdf:RDF>
 </metadata>
 <defs>
  <style type="text/css">*{stroke-linejoin: round; stroke-linecap: butt}</style>
 </defs>
 <g id="figure_1">
  <g id="patch_1">
   <path d="M 0 359.999886 
L 738.603125 359.999886 
L 738.603125 0 
L 0 0 
z
" style="fill: #ffffff"/>
  </g>
  <g id="axes_1">
   <g id="patch_2">
    <path d="M 61.803125 311.563636 
L 366.166761 311.563636 
L 366.166761 7.2 
L 61.803125 7.2 
z
" style="fill: #ffffff"/>
   </g>
   <g id="matplotlib.axis_1">
    <g id="xtick_1">
     <g id="line2d_1">
      <defs>
       <path id="m589d09bcfb" d="M 0 0 
L 0 5 
" style="stroke: #000000; stroke-width: 1.6"/>
      </defs>
      <g>
       <use xlink:href="#m589d09bcfb" x="67.656272" y="311.563636" style="stroke: #000000; stroke-width: 1.6"/>
      </g>
     </g>
     <g id="text_1">
      <!-- 0 -->
      <g transform="translate(64.319709 328.759886) scale(0.12 -0.12)">
       <defs>
        <path id="LiberationSans-30" d="M 3309 2203 
Q 3309 1569 3189 1136 
Q 3069 703 2861 436 
Q 2653 169 2372 53 
Q 2091 -63 1772 -63 
Q 1450 -63 1172 53 
Q 894 169 689 434 
Q 484 700 367 1133 
Q 250 1566 250 2203 
Q 250 2869 367 3305 
Q 484 3741 690 4000 
Q 897 4259 1178 4364 
Q 1459 4469 1791 4469 
Q 2106 4469 2382 4364 
Q 2659 4259 2865 4000 
Q 3072 3741 3190 3305 
Q 3309 2869 3309 2203 
z
M 2738 2203 
Q 2738 2728 2675 3076 
Q 2613 3425 2491 3633 
Q 2369 3841 2192 3927 
Q 2016 4013 1791 4013 
Q 1553 4013 1372 3925 
Q 1191 3838 1067 3630 
Q 944 3422 881 3073 
Q 819 2725 819 2203 
Q 819 1697 883 1350 
Q 947 1003 1070 792 
Q 1194 581 1372 489 
Q 1550 397 1778 397 
Q 2000 397 2178 489 
Q 2356 581 2479 792 
Q 2603 1003 2670 1350 
Q 2738 1697 2738 2203 
z
" transform="scale(0.015625)"/>
       </defs>
       <use xlink:href="#LiberationSans-30"/>
      </g>
     </g>
    </g>
    <g id="xtick_2">
     <g id="line2d_2">
      <g>
       <use xlink:href="#m589d09bcfb" x="126.18774" y="311.563636" style="stroke: #000000; stroke-width: 1.6"/>
      </g>
     </g>
     <g id="text_2">
      <!-- 20 -->
      <g transform="translate(119.514615 328.759886) scale(0.12 -0.12)">
       <defs>
        <path id="LiberationSans-32" d="M 322 0 
L 322 397 
Q 481 763 711 1042 
Q 941 1322 1194 1548 
Q 1447 1775 1695 1969 
Q 1944 2163 2144 2356 
Q 2344 2550 2467 2762 
Q 2591 2975 2591 3244 
Q 2591 3431 2534 3573 
Q 2478 3716 2372 3812 
Q 2266 3909 2117 3957 
Q 1969 4006 1788 4006 
Q 1619 4006 1470 3959 
Q 1322 3913 1206 3819 
Q 1091 3725 1017 3586 
Q 944 3447 922 3263 
L 347 3316 
Q 375 3553 478 3762 
Q 581 3972 762 4130 
Q 944 4288 1198 4378 
Q 1453 4469 1788 4469 
Q 2116 4469 2372 4391 
Q 2628 4313 2804 4159 
Q 2981 4006 3075 3781 
Q 3169 3556 3169 3263 
Q 3169 3041 3089 2841 
Q 3009 2641 2876 2459 
Q 2744 2278 2569 2109 
Q 2394 1941 2203 1780 
Q 2013 1619 1819 1461 
Q 1625 1303 1454 1143 
Q 1284 984 1150 820 
Q 1016 656 941 478 
L 3238 478 
L 3238 0 
L 322 0 
z
" transform="scale(0.015625)"/>
       </defs>
       <use xlink:href="#LiberationSans-32"/>
       <use xlink:href="#LiberationSans-30" x="55.615234"/>
      </g>
     </g>
    </g>
    <g id="xtick_3">
     <g id="line2d_3">
      <g>
       <use xlink:href="#m589d09bcfb" x="184.719209" y="311.563636" style="stroke: #000000; stroke-width: 1.6"/>
      </g>
     </g>
     <g id="text_3">
      <!-- 40 -->
      <g transform="translate(178.046084 328.759886) scale(0.12 -0.12)">
       <defs>
        <path id="LiberationSans-34" d="M 2753 997 
L 2753 0 
L 2222 0 
L 2222 997 
L 147 997 
L 147 1434 
L 2163 4403 
L 2753 4403 
L 2753 1441 
L 3372 1441 
L 3372 997 
L 2753 997 
z
M 2222 3769 
Q 2216 3753 2191 3708 
Q 2166 3663 2134 3606 
Q 2103 3550 2070 3492 
Q 2038 3434 2013 3397 
L 884 1734 
Q 869 1709 839 1668 
Q 809 1628 778 1586 
Q 747 1544 715 1503 
Q 684 1463 666 1441 
L 2222 1441 
L 2222 3769 
z
" transform="scale(0.015625)"/>
       </defs>
       <use xlink:href="#LiberationSans-34"/>
       <use xlink:href="#LiberationSans-30" x="55.615234"/>
      </g>
     </g>
    </g>
    <g id="xtick_4">
     <g id="line2d_4">
      <g>
       <use xlink:href="#m589d09bcfb" x="243.250677" y="311.563636" style="stroke: #000000; stroke-width: 1.6"/>
      </g>
     </g>
     <g id="text_4">
      <!-- 60 -->
      <g transform="translate(236.577552 328.759886) scale(0.12 -0.12)">
       <defs>
        <path id="LiberationSans-36" d="M 3278 1441 
Q 3278 1109 3186 832 
Q 3094 556 2914 357 
Q 2734 159 2468 48 
Q 2203 -63 1856 -63 
Q 1472 -63 1184 84 
Q 897 231 706 507 
Q 516 784 420 1186 
Q 325 1588 325 2100 
Q 325 2688 433 3131 
Q 541 3575 744 3872 
Q 947 4169 1239 4319 
Q 1531 4469 1900 4469 
Q 2125 4469 2322 4422 
Q 2519 4375 2680 4270 
Q 2841 4166 2962 3994 
Q 3084 3822 3156 3572 
L 2619 3475 
Q 2531 3759 2339 3886 
Q 2147 4013 1894 4013 
Q 1663 4013 1475 3903 
Q 1288 3794 1156 3576 
Q 1025 3359 954 3031 
Q 884 2703 884 2266 
Q 1038 2550 1316 2698 
Q 1594 2847 1953 2847 
Q 2253 2847 2497 2750 
Q 2741 2653 2914 2470 
Q 3088 2288 3183 2027 
Q 3278 1766 3278 1441 
z
M 2706 1416 
Q 2706 1644 2650 1828 
Q 2594 2013 2481 2142 
Q 2369 2272 2203 2342 
Q 2038 2413 1819 2413 
Q 1666 2413 1509 2367 
Q 1353 2322 1226 2220 
Q 1100 2119 1020 1953 
Q 941 1788 941 1550 
Q 941 1306 1003 1095 
Q 1066 884 1183 728 
Q 1300 572 1465 481 
Q 1631 391 1838 391 
Q 2041 391 2202 461 
Q 2363 531 2475 664 
Q 2588 797 2647 987 
Q 2706 1178 2706 1416 
z
" transform="scale(0.015625)"/>
       </defs>
       <use xlink:href="#LiberationSans-36"/>
       <use xlink:href="#LiberationSans-30" x="55.615234"/>
      </g>
     </g>
    </g>
    <g id="xtick_5">
     <g id="line2d_5">
      <g>
       <use xlink:href="#m589d09bcfb" x="301.782146" y="311.563636" style="stroke: #000000; stroke-width: 1.6"/>
      </g>
     </g>
     <g id="text_5">
      <!-- 80 -->
      <g transform="translate(295.109021 328.759886) scale(0.12 -0.12)">
       <defs>
        <path id="LiberationSans-38" d="M 3281 1228 
Q 3281 947 3192 711 
Q 3103 475 2920 303 
Q 2738 131 2453 34 
Q 2169 -63 1781 -63 
Q 1394 -63 1111 34 
Q 828 131 642 301 
Q 456 472 367 708 
Q 278 944 278 1222 
Q 278 1463 351 1650 
Q 425 1838 548 1973 
Q 672 2109 830 2192 
Q 988 2275 1156 2303 
L 1156 2316 
Q 972 2359 826 2456 
Q 681 2553 582 2689 
Q 484 2825 432 2990 
Q 381 3156 381 3341 
Q 381 3572 470 3776 
Q 559 3981 734 4136 
Q 909 4291 1168 4380 
Q 1428 4469 1769 4469 
Q 2128 4469 2392 4378 
Q 2656 4288 2829 4133 
Q 3003 3978 3087 3772 
Q 3172 3566 3172 3334 
Q 3172 3153 3120 2987 
Q 3069 2822 2970 2686 
Q 2872 2550 2726 2454 
Q 2581 2359 2391 2322 
L 2391 2309 
Q 2581 2278 2743 2195 
Q 2906 2113 3025 1977 
Q 3144 1841 3212 1653 
Q 3281 1466 3281 1228 
z
M 2588 3303 
Q 2588 3469 2545 3606 
Q 2503 3744 2406 3842 
Q 2309 3941 2153 3995 
Q 1997 4050 1769 4050 
Q 1547 4050 1394 3995 
Q 1241 3941 1142 3842 
Q 1044 3744 1000 3606 
Q 956 3469 956 3303 
Q 956 3172 990 3034 
Q 1025 2897 1115 2784 
Q 1206 2672 1365 2600 
Q 1525 2528 1775 2528 
Q 2041 2528 2202 2600 
Q 2363 2672 2448 2784 
Q 2534 2897 2561 3034 
Q 2588 3172 2588 3303 
z
M 2697 1281 
Q 2697 1441 2653 1589 
Q 2609 1738 2503 1852 
Q 2397 1966 2217 2036 
Q 2038 2106 1769 2106 
Q 1522 2106 1348 2036 
Q 1175 1966 1067 1850 
Q 959 1734 909 1582 
Q 859 1431 859 1269 
Q 859 1066 909 898 
Q 959 731 1068 611 
Q 1178 491 1356 425 
Q 1534 359 1788 359 
Q 2044 359 2219 425 
Q 2394 491 2500 611 
Q 2606 731 2651 901 
Q 2697 1072 2697 1281 
z
" transform="scale(0.015625)"/>
       </defs>
       <use xlink:href="#LiberationSans-38"/>
       <use xlink:href="#LiberationSans-30" x="55.615234"/>
      </g>
     </g>
    </g>
    <g id="xtick_6">
     <g id="line2d_6">
      <g>
       <use xlink:href="#m589d09bcfb" x="360.313615" y="311.563636" style="stroke: #000000; stroke-width: 1.6"/>
      </g>
     </g>
     <g id="text_6">
      <!-- 100 -->
      <g transform="translate(350.303927 328.759886) scale(0.12 -0.12)">
       <defs>
        <path id="LiberationSans-31" d="M 488 0 
L 488 478 
L 1609 478 
L 1609 3866 
L 616 3156 
L 616 3688 
L 1656 4403 
L 2175 4403 
L 2175 478 
L 3247 478 
L 3247 0 
L 488 0 
z
" transform="scale(0.015625)"/>
       </defs>
       <use xlink:href="#LiberationSans-31"/>
       <use xlink:href="#LiberationSans-30" x="55.615234"/>
       <use xlink:href="#LiberationSans-30" x="111.230469"/>
      </g>
     </g>
    </g>
    <g id="text_7">
     <!-- $\Delta t ~\mathrm{(ms)}$ -->
     <g transform="translate(186.384943 349.120199) scale(0.15 -0.15)">
      <defs>
       <path id="DejaVuSans-394" d="M 2188 4044 
L 906 525 
L 3472 525 
L 2188 4044 
z
M 50 0 
L 1831 4666 
L 2547 4666 
L 4325 0 
L 50 0 
z
" transform="scale(0.015625)"/>
       <path id="DejaVuSans-Oblique-74" d="M 2706 3500 
L 2619 3053 
L 1472 3053 
L 1100 1153 
Q 1081 1047 1072 975 
Q 1063 903 1063 863 
Q 1063 663 1183 572 
Q 1303 481 1569 481 
L 2150 481 
L 2053 0 
L 1503 0 
Q 991 0 739 200 
Q 488 400 488 806 
Q 488 878 497 964 
Q 506 1050 525 1153 
L 897 3053 
L 409 3053 
L 500 3500 
L 978 3500 
L 1172 4494 
L 1747 4494 
L 1556 3500 
L 2706 3500 
z
" transform="scale(0.015625)"/>
       <path id="DejaVuSans-28" d="M 1984 4856 
Q 1566 4138 1362 3434 
Q 1159 2731 1159 2009 
Q 1159 1288 1364 580 
Q 1569 -128 1984 -844 
L 1484 -844 
Q 1016 -109 783 600 
Q 550 1309 550 2009 
Q 550 2706 781 3412 
Q 1013 4119 1484 4856 
L 1984 4856 
z
" transform="scale(0.015625)"/>
       <path id="DejaVuSans-6d" d="M 3328 2828 
Q 3544 3216 3844 3400 
Q 4144 3584 4550 3584 
Q 5097 3584 5394 3201 
Q 5691 2819 5691 2113 
L 5691 0 
L 5113 0 
L 5113 2094 
Q 5113 2597 4934 2840 
Q 4756 3084 4391 3084 
Q 3944 3084 3684 2787 
Q 3425 2491 3425 1978 
L 3425 0 
L 2847 0 
L 2847 2094 
Q 2847 2600 2669 2842 
Q 2491 3084 2119 3084 
Q 1678 3084 1418 2786 
Q 1159 2488 1159 1978 
L 1159 0 
L 581 0 
L 581 3500 
L 1159 3500 
L 1159 2956 
Q 1356 3278 1631 3431 
Q 1906 3584 2284 3584 
Q 2666 3584 2933 3390 
Q 3200 3197 3328 2828 
z
" transform="scale(0.015625)"/>
       <path id="DejaVuSans-73" d="M 2834 3397 
L 2834 2853 
Q 2591 2978 2328 3040 
Q 2066 3103 1784 3103 
Q 1356 3103 1142 2972 
Q 928 2841 928 2578 
Q 928 2378 1081 2264 
Q 1234 2150 1697 2047 
L 1894 2003 
Q 2506 1872 2764 1633 
Q 3022 1394 3022 966 
Q 3022 478 2636 193 
Q 2250 -91 1575 -91 
Q 1294 -91 989 -36 
Q 684 19 347 128 
L 347 722 
Q 666 556 975 473 
Q 1284 391 1588 391 
Q 1994 391 2212 530 
Q 2431 669 2431 922 
Q 2431 1156 2273 1281 
Q 2116 1406 1581 1522 
L 1381 1569 
Q 847 1681 609 1914 
Q 372 2147 372 2553 
Q 372 3047 722 3315 
Q 1072 3584 1716 3584 
Q 2034 3584 2315 3537 
Q 2597 3491 2834 3397 
z
" transform="scale(0.015625)"/>
       <path id="DejaVuSans-29" d="M 513 4856 
L 1013 4856 
Q 1481 4119 1714 3412 
Q 1947 2706 1947 2009 
Q 1947 1309 1714 600 
Q 1481 -109 1013 -844 
L 513 -844 
Q 928 -128 1133 580 
Q 1338 1288 1338 2009 
Q 1338 2731 1133 3434 
Q 928 4138 513 4856 
z
" transform="scale(0.015625)"/>
      </defs>
      <use xlink:href="#DejaVuSans-394" transform="translate(0 0.125)"/>
      <use xlink:href="#DejaVuSans-Oblique-74" transform="translate(68.408203 0.125)"/>
      <use xlink:href="#DejaVuSans-28" transform="translate(140.087566 0.125)"/>
      <use xlink:href="#DejaVuSans-6d" transform="translate(179.101238 0.125)"/>
      <use xlink:href="#DejaVuSans-73" transform="translate(276.513347 0.125)"/>
      <use xlink:href="#DejaVuSans-29" transform="translate(328.612957 0.125)"/>
     </g>
    </g>
   </g>
   <g id="matplotlib.axis_2">
    <g id="ytick_1">
     <g id="line2d_7">
      <defs>
       <path id="m45bcc1c1ed" d="M 0 0 
L -5 0 
" style="stroke: #000000; stroke-width: 1.6"/>
      </defs>
      <g>
       <use xlink:href="#m45bcc1c1ed" x="61.803125" y="306.952066" style="stroke: #000000; stroke-width: 1.6"/>
      </g>
     </g>
     <g id="text_8">
      <!-- 0 -->
      <g transform="translate(46.63 311.300191) scale(0.12 -0.12)">
       <use xlink:href="#LiberationSans-30"/>
      </g>
     </g>
    </g>
    <g id="ytick_2">
     <g id="line2d_8">
      <g>
       <use xlink:href="#m45bcc1c1ed" x="61.803125" y="237.778512" style="stroke: #000000; stroke-width: 1.6"/>
      </g>
     </g>
     <g id="text_9">
      <!-- 0.12 -->
      <g transform="translate(29.95 242.126637) scale(0.12 -0.12)">
       <defs>
        <path id="LiberationSans-2e" d="M 584 0 
L 584 684 
L 1194 684 
L 1194 0 
L 584 0 
z
" transform="scale(0.015625)"/>
       </defs>
       <use xlink:href="#LiberationSans-30"/>
       <use xlink:href="#LiberationSans-2e" x="55.615234"/>
       <use xlink:href="#LiberationSans-31" x="83.398438"/>
       <use xlink:href="#LiberationSans-32" x="139.013672"/>
      </g>
     </g>
    </g>
    <g id="ytick_3">
     <g id="line2d_9">
      <g>
       <use xlink:href="#m45bcc1c1ed" x="61.803125" y="168.604959" style="stroke: #000000; stroke-width: 1.6"/>
      </g>
     </g>
     <g id="text_10">
      <!-- 0.24 -->
      <g transform="translate(29.95 172.953084) scale(0.12 -0.12)">
       <use xlink:href="#LiberationSans-30"/>
       <use xlink:href="#LiberationSans-2e" x="55.615234"/>
       <use xlink:href="#LiberationSans-32" x="83.398438"/>
       <use xlink:href="#LiberationSans-34" x="139.013672"/>
      </g>
     </g>
    </g>
    <g id="ytick_4">
     <g id="line2d_10">
      <g>
       <use xlink:href="#m45bcc1c1ed" x="61.803125" y="99.431405" style="stroke: #000000; stroke-width: 1.6"/>
      </g>
     </g>
     <g id="text_11">
      <!-- 0.36 -->
      <g transform="translate(29.95 103.77953) scale(0.12 -0.12)">
       <defs>
        <path id="LiberationSans-33" d="M 3278 1216 
Q 3278 913 3179 675 
Q 3081 438 2892 273 
Q 2703 109 2423 23 
Q 2144 -63 1784 -63 
Q 1375 -63 1095 39 
Q 816 141 634 308 
Q 453 475 362 689 
Q 272 903 244 1131 
L 825 1184 
Q 850 1009 917 865 
Q 984 722 1100 619 
Q 1216 516 1384 459 
Q 1553 403 1784 403 
Q 2209 403 2451 612 
Q 2694 822 2694 1234 
Q 2694 1478 2586 1626 
Q 2478 1775 2317 1858 
Q 2156 1941 1967 1969 
Q 1778 1997 1619 1997 
L 1300 1997 
L 1300 2484 
L 1606 2484 
Q 1766 2484 1937 2517 
Q 2109 2550 2251 2636 
Q 2394 2722 2486 2869 
Q 2578 3016 2578 3244 
Q 2578 3597 2370 3801 
Q 2163 4006 1753 4006 
Q 1381 4006 1151 3815 
Q 922 3625 884 3278 
L 319 3322 
Q 353 3613 478 3828 
Q 603 4044 795 4186 
Q 988 4328 1234 4398 
Q 1481 4469 1759 4469 
Q 2128 4469 2393 4376 
Q 2659 4284 2828 4126 
Q 2997 3969 3076 3756 
Q 3156 3544 3156 3303 
Q 3156 3109 3103 2940 
Q 3050 2772 2937 2637 
Q 2825 2503 2651 2406 
Q 2478 2309 2234 2259 
L 2234 2247 
Q 2500 2219 2697 2126 
Q 2894 2034 3022 1896 
Q 3150 1759 3214 1584 
Q 3278 1409 3278 1216 
z
" transform="scale(0.015625)"/>
       </defs>
       <use xlink:href="#LiberationSans-30"/>
       <use xlink:href="#LiberationSans-2e" x="55.615234"/>
       <use xlink:href="#LiberationSans-33" x="83.398438"/>
       <use xlink:href="#LiberationSans-36" x="139.013672"/>
      </g>
     </g>
    </g>
    <g id="ytick_5">
     <g id="line2d_11">
      <g>
       <use xlink:href="#m45bcc1c1ed" x="61.803125" y="30.257851" style="stroke: #000000; stroke-width: 1.6"/>
      </g>
     </g>
     <g id="text_12">
      <!-- 0.48 -->
      <g transform="translate(29.95 34.605976) scale(0.12 -0.12)">
       <use xlink:href="#LiberationSans-30"/>
       <use xlink:href="#LiberationSans-2e" x="55.615234"/>
       <use xlink:href="#LiberationSans-34" x="83.398438"/>
       <use xlink:href="#LiberationSans-38" x="139.013672"/>
      </g>
     </g>
    </g>
    <g id="text_13">
     <!-- $\langle \Delta z^2 \rangle ~\mathrm{(m^2)}$ -->
     <g transform="translate(19.8375 197.406818) rotate(-90) scale(0.15 -0.15)">
      <defs>
       <path id="DejaVuSans-27e8" d="M 572 2006 
L 1453 4856 
L 1984 4856 
L 1103 2006 
L 1984 -844 
L 1453 -844 
L 572 2006 
z
" transform="scale(0.015625)"/>
       <path id="DejaVuSans-Oblique-7a" d="M 744 3500 
L 3475 3500 
L 3372 2975 
L 738 459 
L 2913 459 
L 2822 0 
L -19 0 
L 84 525 
L 2719 3041 
L 653 3041 
L 744 3500 
z
" transform="scale(0.015625)"/>
       <path id="DejaVuSans-32" d="M 1228 531 
L 3431 531 
L 3431 0 
L 469 0 
L 469 531 
Q 828 903 1448 1529 
Q 2069 2156 2228 2338 
Q 2531 2678 2651 2914 
Q 2772 3150 2772 3378 
Q 2772 3750 2511 3984 
Q 2250 4219 1831 4219 
Q 1534 4219 1204 4116 
Q 875 4013 500 3803 
L 500 4441 
Q 881 4594 1212 4672 
Q 1544 4750 1819 4750 
Q 2544 4750 2975 4387 
Q 3406 4025 3406 3419 
Q 3406 3131 3298 2873 
Q 3191 2616 2906 2266 
Q 2828 2175 2409 1742 
Q 1991 1309 1228 531 
z
" transform="scale(0.015625)"/>
       <path id="DejaVuSans-27e9" d="M 1925 2006 
L 1044 -844 
L 513 -844 
L 1394 2006 
L 513 4856 
L 1044 4856 
L 1925 2006 
z
" transform="scale(0.015625)"/>
      </defs>
      <use xlink:href="#DejaVuSans-27e8" transform="translate(0 0.765625)"/>
      <use xlink:href="#DejaVuSans-394" transform="translate(39.013672 0.765625)"/>
      <use xlink:href="#DejaVuSans-Oblique-7a" transform="translate(107.421875 0.765625)"/>
      <use xlink:href="#DejaVuSans-32" transform="translate(164.378255 39.046875) scale(0.7)"/>
      <use xlink:href="#DejaVuSans-27e9" transform="translate(211.648763 0.765625)"/>
      <use xlink:href="#DejaVuSans-28" transform="translate(283.132813 0.765625)"/>
      <use xlink:href="#DejaVuSans-6d" transform="translate(322.146485 0.765625)"/>
      <use xlink:href="#DejaVuSans-32" transform="translate(420.515626 39.046875) scale(0.7)"/>
      <use xlink:href="#DejaVuSans-29" transform="translate(467.786134 0.765625)"/>
     </g>
    </g>
   </g>
   <g id="line2d_12">
    <path d="M 67.656272 306.952066 
L 96.922006 305.113274 
L 126.18774 303.134599 
L 155.453475 300.859195 
L 184.719209 298.289355 
L 213.984943 295.464779 
L 243.250677 292.369106 
L 272.516412 289.080413 
L 301.782146 285.386104 
L 331.04788 281.439335 
L 360.313615 277.274444 
" clip-path="url(#p29eef2e7b8)" style="fill: none; stroke: #8080ff; stroke-width: 2; stroke-linecap: square"/>
    <defs>
     <path id="mfe40497298" d="M 0 3 
C 0.795609 3 1.55874 2.683901 2.12132 2.12132 
C 2.683901 1.55874 3 0.795609 3 0 
C 3 -0.795609 2.683901 -1.55874 2.12132 -2.12132 
C 1.55874 -2.683901 0.795609 -3 0 -3 
C -0.795609 -3 -1.55874 -2.683901 -2.12132 -2.12132 
C -2.683901 -1.55874 -3 -0.795609 -3 0 
C -3 0.795609 -2.683901 1.55874 -2.12132 2.12132 
C -1.55874 2.683901 -0.795609 3 0 3 
z
" style="stroke: #8080ff"/>
    </defs>
    <g clip-path="url(#p29eef2e7b8)">
     <use xlink:href="#mfe40497298" x="67.656272" y="306.952066" style="fill: #8080ff; stroke: #8080ff"/>
     <use xlink:href="#mfe40497298" x="96.922006" y="305.113274" style="fill: #8080ff; stroke: #8080ff"/>
     <use xlink:href="#mfe40497298" x="126.18774" y="303.134599" style="fill: #8080ff; stroke: #8080ff"/>
     <use xlink:href="#mfe40497298" x="155.453475" y="300.859195" style="fill: #8080ff; stroke: #8080ff"/>
     <use xlink:href="#mfe40497298" x="184.719209" y="298.289355" style="fill: #8080ff; stroke: #8080ff"/>
     <use xlink:href="#mfe40497298" x="213.984943" y="295.464779" style="fill: #8080ff; stroke: #8080ff"/>
     <use xlink:href="#mfe40497298" x="243.250677" y="292.369106" style="fill: #8080ff; stroke: #8080ff"/>
     <use xlink:href="#mfe40497298" x="272.516412" y="289.080413" style="fill: #8080ff; stroke: #8080ff"/>
     <use xlink:href="#mfe40497298" x="301.782146" y="285.386104" style="fill: #8080ff; stroke: #8080ff"/>
     <use xlink:href="#mfe40497298" x="331.04788" y="281.439335" style="fill: #8080ff; stroke: #8080ff"/>
     <use xlink:href="#mfe40497298" x="360.313615" y="277.274444" style="fill: #8080ff; stroke: #8080ff"/>
    </g>
   </g>
   <g id="line2d_13">
    <path d="M 67.656272 306.952066 
L 96.922006 304.158274 
L 126.18774 299.809837 
L 155.453475 293.077621 
L 184.719209 284.126839 
L 213.984943 272.555284 
L 243.250677 258.602616 
L 272.516412 241.881689 
L 301.782146 222.783798 
L 331.04788 201.141647 
L 360.313615 177.375815 
" clip-path="url(#p29eef2e7b8)" style="fill: none; stroke: #8080ff; stroke-width: 2; stroke-linecap: square"/>
    <g clip-path="url(#p29eef2e7b8)">
     <use xlink:href="#mfe40497298" x="67.656272" y="306.952066" style="fill: #8080ff; stroke: #8080ff"/>
     <use xlink:href="#mfe40497298" x="96.922006" y="304.158274" style="fill: #8080ff; stroke: #8080ff"/>
     <use xlink:href="#mfe40497298" x="126.18774" y="299.809837" style="fill: #8080ff; stroke: #8080ff"/>
     <use xlink:href="#mfe40497298" x="155.453475" y="293.077621" style="fill: #8080ff; stroke: #8080ff"/>
     <use xlink:href="#mfe40497298" x="184.719209" y="284.126839" style="fill: #8080ff; stroke: #8080ff"/>
     <use xlink:href="#mfe40497298" x="213.984943" y="272.555284" style="fill: #8080ff; stroke: #8080ff"/>
     <use xlink:href="#mfe40497298" x="243.250677" y="258.602616" style="fill: #8080ff; stroke: #8080ff"/>
     <use xlink:href="#mfe40497298" x="272.516412" y="241.881689" style="fill: #8080ff; stroke: #8080ff"/>
     <use xlink:href="#mfe40497298" x="301.782146" y="222.783798" style="fill: #8080ff; stroke: #8080ff"/>
     <use xlink:href="#mfe40497298" x="331.04788" y="201.141647" style="fill: #8080ff; stroke: #8080ff"/>
     <use xlink:href="#mfe40497298" x="360.313615" y="177.375815" style="fill: #8080ff; stroke: #8080ff"/>
    </g>
   </g>
   <g id="line2d_14">
    <path d="M 67.656272 306.952066 
L 96.922006 303.465191 
L 126.18774 297.757959 
L 155.453475 289.571998 
L 184.719209 278.306882 
L 213.984943 263.83702 
L 243.250677 246.406817 
L 272.516412 226.924821 
L 301.782146 204.770225 
L 331.04788 180.880182 
L 360.313615 155.377225 
" clip-path="url(#p29eef2e7b8)" style="fill: none; stroke: #8080ff; stroke-width: 2; stroke-linecap: square"/>
    <g clip-path="url(#p29eef2e7b8)">
     <use xlink:href="#mfe40497298" x="67.656272" y="306.952066" style="fill: #8080ff; stroke: #8080ff"/>
     <use xlink:href="#mfe40497298" x="96.922006" y="303.465191" style="fill: #8080ff; stroke: #8080ff"/>
     <use xlink:href="#mfe40497298" x="126.18774" y="297.757959" style="fill: #8080ff; stroke: #8080ff"/>
     <use xlink:href="#mfe40497298" x="155.453475" y="289.571998" style="fill: #8080ff; stroke: #8080ff"/>
     <use xlink:href="#mfe40497298" x="184.719209" y="278.306882" style="fill: #8080ff; stroke: #8080ff"/>
     <use xlink:href="#mfe40497298" x="213.984943" y="263.83702" style="fill: #8080ff; stroke: #8080ff"/>
     <use xlink:href="#mfe40497298" x="243.250677" y="246.406817" style="fill: #8080ff; stroke: #8080ff"/>
     <use xlink:href="#mfe40497298" x="272.516412" y="226.924821" style="fill: #8080ff; stroke: #8080ff"/>
     <use xlink:href="#mfe40497298" x="301.782146" y="204.770225" style="fill: #8080ff; stroke: #8080ff"/>
     <use xlink:href="#mfe40497298" x="331.04788" y="180.880182" style="fill: #8080ff; stroke: #8080ff"/>
     <use xlink:href="#mfe40497298" x="360.313615" y="155.377225" style="fill: #8080ff; stroke: #8080ff"/>
    </g>
   </g>
   <g id="line2d_15">
    <path d="M 67.656272 306.952066 
L 96.922006 303.138832 
L 126.18774 295.941053 
L 155.453475 284.466152 
L 184.719209 268.939834 
L 213.984943 249.199909 
L 243.250677 225.284378 
L 272.516412 197.639259 
L 301.782146 166.611021 
L 331.04788 133.482836 
L 360.313615 98.794158 
" clip-path="url(#p29eef2e7b8)" style="fill: none; stroke: #8080ff; stroke-width: 2; stroke-linecap: square"/>
    <g clip-path="url(#p29eef2e7b8)">
     <use xlink:href="#mfe40497298" x="67.656272" y="306.952066" style="fill: #8080ff; stroke: #8080ff"/>
     <use xlink:href="#mfe40497298" x="96.922006" y="303.138832" style="fill: #8080ff; stroke: #8080ff"/>
     <use xlink:href="#mfe40497298" x="126.18774" y="295.941053" style="fill: #8080ff; stroke: #8080ff"/>
     <use xlink:href="#mfe40497298" x="155.453475" y="284.466152" style="fill: #8080ff; stroke: #8080ff"/>
     <use xlink:href="#mfe40497298" x="184.719209" y="268.939834" style="fill: #8080ff; stroke: #8080ff"/>
     <use xlink:href="#mfe40497298" x="213.984943" y="249.199909" style="fill: #8080ff; stroke: #8080ff"/>
     <use xlink:href="#mfe40497298" x="243.250677" y="225.284378" style="fill: #8080ff; stroke: #8080ff"/>
     <use xlink:href="#mfe40497298" x="272.516412" y="197.639259" style="fill: #8080ff; stroke: #8080ff"/>
     <use xlink:href="#mfe40497298" x="301.782146" y="166.611021" style="fill: #8080ff; stroke: #8080ff"/>
     <use xlink:href="#mfe40497298" x="331.04788" y="133.482836" style="fill: #8080ff; stroke: #8080ff"/>
     <use xlink:href="#mfe40497298" x="360.313615" y="98.794158" style="fill: #8080ff; stroke: #8080ff"/>
    </g>
   </g>
   <g id="line2d_16">
    <path d="M 67.656272 306.952066 
L 96.922006 302.215908 
L 126.18774 292.58471 
L 155.453475 276.893275 
L 184.719209 255.322292 
L 213.984943 227.894835 
L 243.250677 195.151008 
L 272.516412 157.260104 
L 301.782146 114.892492 
L 331.04788 70.110862 
L 360.313615 23.625166 
" clip-path="url(#p29eef2e7b8)" style="fill: none; stroke: #8080ff; stroke-width: 2; stroke-linecap: square"/>
    <g clip-path="url(#p29eef2e7b8)">
     <use xlink:href="#mfe40497298" x="67.656272" y="306.952066" style="fill: #8080ff; stroke: #8080ff"/>
     <use xlink:href="#mfe40497298" x="96.922006" y="302.215908" style="fill: #8080ff; stroke: #8080ff"/>
     <use xlink:href="#mfe40497298" x="126.18774" y="292.58471" style="fill: #8080ff; stroke: #8080ff"/>
     <use xlink:href="#mfe40497298" x="155.453475" y="276.893275" style="fill: #8080ff; stroke: #8080ff"/>
     <use xlink:href="#mfe40497298" x="184.719209" y="255.322292" style="fill: #8080ff; stroke: #8080ff"/>
     <use xlink:href="#mfe40497298" x="213.984943" y="227.894835" style="fill: #8080ff; stroke: #8080ff"/>
     <use xlink:href="#mfe40497298" x="243.250677" y="195.151008" style="fill: #8080ff; stroke: #8080ff"/>
     <use xlink:href="#mfe40497298" x="272.516412" y="157.260104" style="fill: #8080ff; stroke: #8080ff"/>
     <use xlink:href="#mfe40497298" x="301.782146" y="114.892492" style="fill: #8080ff; stroke: #8080ff"/>
     <use xlink:href="#mfe40497298" x="331.04788" y="70.110862" style="fill: #8080ff; stroke: #8080ff"/>
     <use xlink:href="#mfe40497298" x="360.313615" y="23.625166" style="fill: #8080ff; stroke: #8080ff"/>
    </g>
   </g>
   <g id="line2d_17">
    <path d="M 67.656272 306.952066 
L 96.922006 302.282629 
L 126.18774 297.57984 
L 155.453475 292.853463 
L 184.719209 288.212569 
L 213.984943 283.519202 
L 243.250677 278.961084 
L 272.516412 274.307031 
L 301.782146 269.596901 
L 331.04788 264.803346 
L 360.313615 259.897114 
" clip-path="url(#p29eef2e7b8)" style="fill: none; stroke: #808080; stroke-width: 2; stroke-linecap: square"/>
    <defs>
     <path id="m150107b682" d="M 0 3 
C 0.795609 3 1.55874 2.683901 2.12132 2.12132 
C 2.683901 1.55874 3 0.795609 3 0 
C 3 -0.795609 2.683901 -1.55874 2.12132 -2.12132 
C 1.55874 -2.683901 0.795609 -3 0 -3 
C -0.795609 -3 -1.55874 -2.683901 -2.12132 -2.12132 
C -2.683901 -1.55874 -3 -0.795609 -3 0 
C -3 0.795609 -2.683901 1.55874 -2.12132 2.12132 
C -1.55874 2.683901 -0.795609 3 0 3 
z
" style="stroke: #808080"/>
    </defs>
    <g clip-path="url(#p29eef2e7b8)">
     <use xlink:href="#m150107b682" x="67.656272" y="306.952066" style="fill: #808080; stroke: #808080"/>
     <use xlink:href="#m150107b682" x="96.922006" y="302.282629" style="fill: #808080; stroke: #808080"/>
     <use xlink:href="#m150107b682" x="126.18774" y="297.57984" style="fill: #808080; stroke: #808080"/>
     <use xlink:href="#m150107b682" x="155.453475" y="292.853463" style="fill: #808080; stroke: #808080"/>
     <use xlink:href="#m150107b682" x="184.719209" y="288.212569" style="fill: #808080; stroke: #808080"/>
     <use xlink:href="#m150107b682" x="213.984943" y="283.519202" style="fill: #808080; stroke: #808080"/>
     <use xlink:href="#m150107b682" x="243.250677" y="278.961084" style="fill: #808080; stroke: #808080"/>
     <use xlink:href="#m150107b682" x="272.516412" y="274.307031" style="fill: #808080; stroke: #808080"/>
     <use xlink:href="#m150107b682" x="301.782146" y="269.596901" style="fill: #808080; stroke: #808080"/>
     <use xlink:href="#m150107b682" x="331.04788" y="264.803346" style="fill: #808080; stroke: #808080"/>
     <use xlink:href="#m150107b682" x="360.313615" y="259.897114" style="fill: #808080; stroke: #808080"/>
    </g>
   </g>
   <g id="patch_3">
    <path d="M 61.803125 311.563636 
L 61.803125 7.2 
" style="fill: none; stroke: #000000; stroke-width: 1.6; stroke-linejoin: miter; stroke-linecap: square"/>
   </g>
   <g id="patch_4">
    <path d="M 61.803125 311.563636 
L 366.166761 311.563636 
" style="fill: none; stroke: #000000; stroke-width: 1.6; stroke-linejoin: miter; stroke-linecap: square"/>
   </g>
  </g>
  <g id="axes_2">
   <g id="patch_5">
    <path d="M 427.039489 311.563636 
L 731.403125 311.563636 
L 731.403125 7.2 
L 427.039489 7.2 
z
" style="fill: #ffffff"/>
   </g>
   <g id="matplotlib.axis_3">
    <g id="xtick_7">
     <g id="line2d_18">
      <g>
       <use xlink:href="#m589d09bcfb" x="440.874199" y="311.563636" style="stroke: #000000; stroke-width: 1.6"/>
      </g>
     </g>
     <g id="text_14">
      <!-- 1.0 -->
      <g transform="translate(432.534199 328.759886) scale(0.12 -0.12)">
       <use xlink:href="#LiberationSans-31"/>
       <use xlink:href="#LiberationSans-2e" x="55.615234"/>
       <use xlink:href="#LiberationSans-30" x="83.398438"/>
      </g>
     </g>
    </g>
    <g id="xtick_8">
     <g id="line2d_19">
      <g>
       <use xlink:href="#m589d09bcfb" x="496.213042" y="311.563636" style="stroke: #000000; stroke-width: 1.6"/>
      </g>
     </g>
     <g id="text_15">
      <!-- 1.2 -->
      <g transform="translate(487.873042 328.759886) scale(0.12 -0.12)">
       <use xlink:href="#LiberationSans-31"/>
       <use xlink:href="#LiberationSans-2e" x="55.615234"/>
       <use xlink:href="#LiberationSans-32" x="83.398438"/>
      </g>
     </g>
    </g>
    <g id="xtick_9">
     <g id="line2d_20">
      <g>
       <use xlink:href="#m589d09bcfb" x="551.551885" y="311.563636" style="stroke: #000000; stroke-width: 1.6"/>
      </g>
     </g>
     <g id="text_16">
      <!-- 1.4 -->
      <g transform="translate(543.211885 328.759886) scale(0.12 -0.12)">
       <use xlink:href="#LiberationSans-31"/>
       <use xlink:href="#LiberationSans-2e" x="55.615234"/>
       <use xlink:href="#LiberationSans-34" x="83.398438"/>
      </g>
     </g>
    </g>
    <g id="xtick_10">
     <g id="line2d_21">
      <g>
       <use xlink:href="#m589d09bcfb" x="606.890728" y="311.563636" style="stroke: #000000; stroke-width: 1.6"/>
      </g>
     </g>
     <g id="text_17">
      <!-- 1.6 -->
      <g transform="translate(598.550728 328.759886) scale(0.12 -0.12)">
       <use xlink:href="#LiberationSans-31"/>
       <use xlink:href="#LiberationSans-2e" x="55.615234"/>
       <use xlink:href="#LiberationSans-36" x="83.398438"/>
      </g>
     </g>
    </g>
    <g id="xtick_11">
     <g id="line2d_22">
      <g>
       <use xlink:href="#m589d09bcfb" x="662.229571" y="311.563636" style="stroke: #000000; stroke-width: 1.6"/>
      </g>
     </g>
     <g id="text_18">
      <!-- 1.8 -->
      <g transform="translate(653.889571 328.759886) scale(0.12 -0.12)">
       <use xlink:href="#LiberationSans-31"/>
       <use xlink:href="#LiberationSans-2e" x="55.615234"/>
       <use xlink:href="#LiberationSans-38" x="83.398438"/>
      </g>
     </g>
    </g>
    <g id="xtick_12">
     <g id="line2d_23">
      <g>
       <use xlink:href="#m589d09bcfb" x="717.568414" y="311.563636" style="stroke: #000000; stroke-width: 1.6"/>
      </g>
     </g>
     <g id="text_19">
      <!-- 2.0 -->
      <g transform="translate(709.228414 328.759886) scale(0.12 -0.12)">
       <use xlink:href="#LiberationSans-32"/>
       <use xlink:href="#LiberationSans-2e" x="55.615234"/>
       <use xlink:href="#LiberationSans-30" x="83.398438"/>
      </g>
     </g>
    </g>
    <g id="text_20">
     <!-- $\log_{10}(\Delta t)}$ -->
     <g transform="translate(545.621307 349.649886) scale(0.15 -0.15)">
      <defs>
       <path id="DejaVuSans-6c" d="M 603 4863 
L 1178 4863 
L 1178 0 
L 603 0 
L 603 4863 
z
" transform="scale(0.015625)"/>
       <path id="DejaVuSans-6f" d="M 1959 3097 
Q 1497 3097 1228 2736 
Q 959 2375 959 1747 
Q 959 1119 1226 758 
Q 1494 397 1959 397 
Q 2419 397 2687 759 
Q 2956 1122 2956 1747 
Q 2956 2369 2687 2733 
Q 2419 3097 1959 3097 
z
M 1959 3584 
Q 2709 3584 3137 3096 
Q 3566 2609 3566 1747 
Q 3566 888 3137 398 
Q 2709 -91 1959 -91 
Q 1206 -91 779 398 
Q 353 888 353 1747 
Q 353 2609 779 3096 
Q 1206 3584 1959 3584 
z
" transform="scale(0.015625)"/>
       <path id="DejaVuSans-67" d="M 2906 1791 
Q 2906 2416 2648 2759 
Q 2391 3103 1925 3103 
Q 1463 3103 1205 2759 
Q 947 2416 947 1791 
Q 947 1169 1205 825 
Q 1463 481 1925 481 
Q 2391 481 2648 825 
Q 2906 1169 2906 1791 
z
M 3481 434 
Q 3481 -459 3084 -895 
Q 2688 -1331 1869 -1331 
Q 1566 -1331 1297 -1286 
Q 1028 -1241 775 -1147 
L 775 -588 
Q 1028 -725 1275 -790 
Q 1522 -856 1778 -856 
Q 2344 -856 2625 -561 
Q 2906 -266 2906 331 
L 2906 616 
Q 2728 306 2450 153 
Q 2172 0 1784 0 
Q 1141 0 747 490 
Q 353 981 353 1791 
Q 353 2603 747 3093 
Q 1141 3584 1784 3584 
Q 2172 3584 2450 3431 
Q 2728 3278 2906 2969 
L 2906 3500 
L 3481 3500 
L 3481 434 
z
" transform="scale(0.015625)"/>
       <path id="DejaVuSans-31" d="M 794 531 
L 1825 531 
L 1825 4091 
L 703 3866 
L 703 4441 
L 1819 4666 
L 2450 4666 
L 2450 531 
L 3481 531 
L 3481 0 
L 794 0 
L 794 531 
z
" transform="scale(0.015625)"/>
       <path id="DejaVuSans-30" d="M 2034 4250 
Q 1547 4250 1301 3770 
Q 1056 3291 1056 2328 
Q 1056 1369 1301 889 
Q 1547 409 2034 409 
Q 2525 409 2770 889 
Q 3016 1369 3016 2328 
Q 3016 3291 2770 3770 
Q 2525 4250 2034 4250 
z
M 2034 4750 
Q 2819 4750 3233 4129 
Q 3647 3509 3647 2328 
Q 3647 1150 3233 529 
Q 2819 -91 2034 -91 
Q 1250 -91 836 529 
Q 422 1150 422 2328 
Q 422 3509 836 4129 
Q 1250 4750 2034 4750 
z
" transform="scale(0.015625)"/>
      </defs>
      <use xlink:href="#DejaVuSans-6c" transform="translate(0 0.015625)"/>
      <use xlink:href="#DejaVuSans-6f" transform="translate(27.783203 0.015625)"/>
      <use xlink:href="#DejaVuSans-67" transform="translate(88.964844 0.015625)"/>
      <use xlink:href="#DejaVuSans-31" transform="translate(153.398438 -16.390625) scale(0.7)"/>
      <use xlink:href="#DejaVuSans-30" transform="translate(197.93457 -16.390625) scale(0.7)"/>
      <use xlink:href="#DejaVuSans-28" transform="translate(261.440754 0.015625)"/>
      <use xlink:href="#DejaVuSans-394" transform="translate(300.454426 0.015625)"/>
      <use xlink:href="#DejaVuSans-Oblique-74" transform="translate(368.862629 0.015625)"/>
      <use xlink:href="#DejaVuSans-29" transform="translate(408.071614 0.015625)"/>
     </g>
    </g>
   </g>
   <g id="matplotlib.axis_4">
    <g id="ytick_6">
     <g id="line2d_24">
      <g>
       <use xlink:href="#m45bcc1c1ed" x="427.039489" y="285.558803" style="stroke: #000000; stroke-width: 1.6"/>
      </g>
     </g>
     <g id="text_21">
      <!-- 0.8 -->
      <g transform="translate(401.859489 289.906928) scale(0.12 -0.12)">
       <use xlink:href="#LiberationSans-30"/>
       <use xlink:href="#LiberationSans-2e" x="55.615234"/>
       <use xlink:href="#LiberationSans-38" x="83.398438"/>
      </g>
     </g>
    </g>
    <g id="ytick_7">
     <g id="line2d_25">
      <g>
       <use xlink:href="#m45bcc1c1ed" x="427.039489" y="234.969192" style="stroke: #000000; stroke-width: 1.6"/>
      </g>
     </g>
     <g id="text_22">
      <!-- 1.0 -->
      <g transform="translate(401.859489 239.317317) scale(0.12 -0.12)">
       <use xlink:href="#LiberationSans-31"/>
       <use xlink:href="#LiberationSans-2e" x="55.615234"/>
       <use xlink:href="#LiberationSans-30" x="83.398438"/>
      </g>
     </g>
    </g>
    <g id="ytick_8">
     <g id="line2d_26">
      <g>
       <use xlink:href="#m45bcc1c1ed" x="427.039489" y="184.379581" style="stroke: #000000; stroke-width: 1.6"/>
      </g>
     </g>
     <g id="text_23">
      <!-- 1.2 -->
      <g transform="translate(401.859489 188.727706) scale(0.12 -0.12)">
       <use xlink:href="#LiberationSans-31"/>
       <use xlink:href="#LiberationSans-2e" x="55.615234"/>
       <use xlink:href="#LiberationSans-32" x="83.398438"/>
      </g>
     </g>
    </g>
    <g id="ytick_9">
     <g id="line2d_27">
      <g>
       <use xlink:href="#m45bcc1c1ed" x="427.039489" y="133.78997" style="stroke: #000000; stroke-width: 1.6"/>
      </g>
     </g>
     <g id="text_24">
      <!-- 1.4 -->
      <g transform="translate(401.859489 138.138095) scale(0.12 -0.12)">
       <use xlink:href="#LiberationSans-31"/>
       <use xlink:href="#LiberationSans-2e" x="55.615234"/>
       <use xlink:href="#LiberationSans-34" x="83.398438"/>
      </g>
     </g>
    </g>
    <g id="ytick_10">
     <g id="line2d_28">
      <g>
       <use xlink:href="#m45bcc1c1ed" x="427.039489" y="83.200359" style="stroke: #000000; stroke-width: 1.6"/>
      </g>
     </g>
     <g id="text_25">
      <!-- 1.6 -->
      <g transform="translate(401.859489 87.548484) scale(0.12 -0.12)">
       <use xlink:href="#LiberationSans-31"/>
       <use xlink:href="#LiberationSans-2e" x="55.615234"/>
       <use xlink:href="#LiberationSans-36" x="83.398438"/>
      </g>
     </g>
    </g>
    <g id="ytick_11">
     <g id="line2d_29">
      <g>
       <use xlink:href="#m45bcc1c1ed" x="427.039489" y="32.610748" style="stroke: #000000; stroke-width: 1.6"/>
      </g>
     </g>
     <g id="text_26">
      <!-- 1.8 -->
      <g transform="translate(401.859489 36.958873) scale(0.12 -0.12)">
       <use xlink:href="#LiberationSans-31"/>
       <use xlink:href="#LiberationSans-2e" x="55.615234"/>
       <use xlink:href="#LiberationSans-38" x="83.398438"/>
      </g>
     </g>
    </g>
    <g id="text_27">
     <!-- $\log_{10}(\sqrt{\langle \Delta z^2 \rangle})$ -->
     <g transform="translate(391.709489 211.356818) rotate(-90) scale(0.15 -0.15)">
      <defs>
       <path id="STIXSizeOneSym-Regular-221a" d="M 6970 9933 
L 3373 -1888 
L 3104 -1888 
L 1626 2918 
Q 1555 3149 1465 3251 
Q 1376 3354 1229 3354 
Q 1011 3354 794 3181 
L 717 3309 
L 1766 4115 
L 1926 4115 
L 3379 -602 
L 3405 -602 
L 6605 9933 
L 6970 9933 
z
" transform="scale(0.015625)"/>
      </defs>
      <use xlink:href="#DejaVuSans-6c" transform="translate(0 0.53125)"/>
      <use xlink:href="#DejaVuSans-6f" transform="translate(27.783203 0.53125)"/>
      <use xlink:href="#DejaVuSans-67" transform="translate(88.964844 0.53125)"/>
      <use xlink:href="#DejaVuSans-31" transform="translate(153.398438 -15.875) scale(0.7)"/>
      <use xlink:href="#DejaVuSans-30" transform="translate(197.93457 -15.875) scale(0.7)"/>
      <use xlink:href="#DejaVuSans-28" transform="translate(261.440754 0.53125)"/>
      <use xlink:href="#STIXSizeOneSym-Regular-221a" transform="translate(300.454426 8.84375) scale(0.729126)"/>
      <use xlink:href="#DejaVuSans-27e8" transform="translate(390.016331 0.515625)"/>
      <use xlink:href="#DejaVuSans-394" transform="translate(429.030003 0.515625)"/>
      <use xlink:href="#DejaVuSans-Oblique-7a" transform="translate(497.438206 0.515625)"/>
      <use xlink:href="#DejaVuSans-32" transform="translate(554.394586 38.796875) scale(0.7)"/>
      <use xlink:href="#DejaVuSans-27e9" transform="translate(601.665094 0.515625)"/>
      <use xlink:href="#DejaVuSans-29" transform="translate(653.178766 0.53125)"/>
      <path d="M 377.516331 115.5 
L 377.516331 121.75 
L 653.178766 121.75 
L 653.178766 115.5 
L 377.516331 115.5 
z
"/>
     </g>
    </g>
   </g>
   <g id="line2d_30">
    <path d="M 440.874199 297.728926 
L 524.167458 257.605967 
L 572.89089 231.925827 
L 607.460716 212.59657 
L 634.275156 197.095455 
L 656.184149 183.989175 
L 674.707938 172.819112 
L 690.753974 162.498311 
L 704.907581 153.267209 
L 717.568414 144.961387 
" clip-path="url(#p27096349e9)" style="fill: none; stroke: #8080ff; stroke-width: 2; stroke-linecap: square"/>
    <g clip-path="url(#p27096349e9)">
     <use xlink:href="#mfe40497298" x="440.874199" y="297.728926" style="fill: #8080ff; stroke: #8080ff"/>
     <use xlink:href="#mfe40497298" x="524.167458" y="257.605967" style="fill: #8080ff; stroke: #8080ff"/>
     <use xlink:href="#mfe40497298" x="572.89089" y="231.925827" style="fill: #8080ff; stroke: #8080ff"/>
     <use xlink:href="#mfe40497298" x="607.460716" y="212.59657" style="fill: #8080ff; stroke: #8080ff"/>
     <use xlink:href="#mfe40497298" x="634.275156" y="197.095455" style="fill: #8080ff; stroke: #8080ff"/>
     <use xlink:href="#mfe40497298" x="656.184149" y="183.989175" style="fill: #8080ff; stroke: #8080ff"/>
     <use xlink:href="#mfe40497298" x="674.707938" y="172.819112" style="fill: #8080ff; stroke: #8080ff"/>
     <use xlink:href="#mfe40497298" x="690.753974" y="162.498311" style="fill: #8080ff; stroke: #8080ff"/>
     <use xlink:href="#mfe40497298" x="704.907581" y="153.267209" style="fill: #8080ff; stroke: #8080ff"/>
     <use xlink:href="#mfe40497298" x="717.568414" y="144.961387" style="fill: #8080ff; stroke: #8080ff"/>
    </g>
   </g>
   <g id="line2d_31">
    <path d="M 440.874199 274.753458 
L 524.167458 223.197633 
L 572.89089 186.724817 
L 607.460716 159.381198 
L 634.275156 136.85583 
L 656.184149 118.153645 
L 674.707938 101.839534 
L 690.753974 87.704156 
L 704.907581 75.135162 
L 717.568414 64.00583 
" clip-path="url(#p27096349e9)" style="fill: none; stroke: #8080ff; stroke-width: 2; stroke-linecap: square"/>
    <g clip-path="url(#p27096349e9)">
     <use xlink:href="#mfe40497298" x="440.874199" y="274.753458" style="fill: #8080ff; stroke: #8080ff"/>
     <use xlink:href="#mfe40497298" x="524.167458" y="223.197633" style="fill: #8080ff; stroke: #8080ff"/>
     <use xlink:href="#mfe40497298" x="572.89089" y="186.724817" style="fill: #8080ff; stroke: #8080ff"/>
     <use xlink:href="#mfe40497298" x="607.460716" y="159.381198" style="fill: #8080ff; stroke: #8080ff"/>
     <use xlink:href="#mfe40497298" x="634.275156" y="136.85583" style="fill: #8080ff; stroke: #8080ff"/>
     <use xlink:href="#mfe40497298" x="656.184149" y="118.153645" style="fill: #8080ff; stroke: #8080ff"/>
     <use xlink:href="#mfe40497298" x="674.707938" y="101.839534" style="fill: #8080ff; stroke: #8080ff"/>
     <use xlink:href="#mfe40497298" x="690.753974" y="87.704156" style="fill: #8080ff; stroke: #8080ff"/>
     <use xlink:href="#mfe40497298" x="704.907581" y="75.135162" style="fill: #8080ff; stroke: #8080ff"/>
     <use xlink:href="#mfe40497298" x="717.568414" y="64.00583" style="fill: #8080ff; stroke: #8080ff"/>
    </g>
   </g>
   <g id="line2d_32">
    <path d="M 440.874199 262.581305 
L 524.167458 209.326493 
L 572.89089 174.351123 
L 607.460716 146.90624 
L 634.275156 124.447332 
L 656.184149 105.798583 
L 674.707938 90.475269 
L 690.753974 77.051839 
L 704.907581 65.511777 
L 717.568414 55.392732 
" clip-path="url(#p27096349e9)" style="fill: none; stroke: #8080ff; stroke-width: 2; stroke-linecap: square"/>
    <g clip-path="url(#p27096349e9)">
     <use xlink:href="#mfe40497298" x="440.874199" y="262.581305" style="fill: #8080ff; stroke: #8080ff"/>
     <use xlink:href="#mfe40497298" x="524.167458" y="209.326493" style="fill: #8080ff; stroke: #8080ff"/>
     <use xlink:href="#mfe40497298" x="572.89089" y="174.351123" style="fill: #8080ff; stroke: #8080ff"/>
     <use xlink:href="#mfe40497298" x="607.460716" y="146.90624" style="fill: #8080ff; stroke: #8080ff"/>
     <use xlink:href="#mfe40497298" x="634.275156" y="124.447332" style="fill: #8080ff; stroke: #8080ff"/>
     <use xlink:href="#mfe40497298" x="656.184149" y="105.798583" style="fill: #8080ff; stroke: #8080ff"/>
     <use xlink:href="#mfe40497298" x="674.707938" y="90.475269" style="fill: #8080ff; stroke: #8080ff"/>
     <use xlink:href="#mfe40497298" x="690.753974" y="77.051839" style="fill: #8080ff; stroke: #8080ff"/>
     <use xlink:href="#mfe40497298" x="704.907581" y="65.511777" style="fill: #8080ff; stroke: #8080ff"/>
     <use xlink:href="#mfe40497298" x="717.568414" y="55.392732" style="fill: #8080ff; stroke: #8080ff"/>
    </g>
   </g>
   <g id="line2d_33">
    <path d="M 440.874199 257.666896 
L 524.167458 199.421337 
L 572.89089 160.203855 
L 607.460716 131.366155 
L 634.275156 108.392801 
L 656.184149 89.36073 
L 674.707938 73.346489 
L 690.753974 59.622329 
L 704.907581 47.981945 
L 717.568414 37.968937 
" clip-path="url(#p27096349e9)" style="fill: none; stroke: #8080ff; stroke-width: 2; stroke-linecap: square"/>
    <g clip-path="url(#p27096349e9)">
     <use xlink:href="#mfe40497298" x="440.874199" y="257.666896" style="fill: #8080ff; stroke: #8080ff"/>
     <use xlink:href="#mfe40497298" x="524.167458" y="199.421337" style="fill: #8080ff; stroke: #8080ff"/>
     <use xlink:href="#mfe40497298" x="572.89089" y="160.203855" style="fill: #8080ff; stroke: #8080ff"/>
     <use xlink:href="#mfe40497298" x="607.460716" y="131.366155" style="fill: #8080ff; stroke: #8080ff"/>
     <use xlink:href="#mfe40497298" x="634.275156" y="108.392801" style="fill: #8080ff; stroke: #8080ff"/>
     <use xlink:href="#mfe40497298" x="656.184149" y="89.36073" style="fill: #8080ff; stroke: #8080ff"/>
     <use xlink:href="#mfe40497298" x="674.707938" y="73.346489" style="fill: #8080ff; stroke: #8080ff"/>
     <use xlink:href="#mfe40497298" x="690.753974" y="59.622329" style="fill: #8080ff; stroke: #8080ff"/>
     <use xlink:href="#mfe40497298" x="704.907581" y="47.981945" style="fill: #8080ff; stroke: #8080ff"/>
     <use xlink:href="#mfe40497298" x="717.568414" y="37.968937" style="fill: #8080ff; stroke: #8080ff"/>
    </g>
   </g>
   <g id="line2d_34">
    <path d="M 440.874199 245.761551 
L 524.167458 184.807314 
L 572.89089 144.260417 
L 607.460716 114.548036 
L 634.275156 91.145109 
L 656.184149 72.110222 
L 674.707938 56.079314 
L 690.753974 42.390084 
L 704.907581 30.878254 
L 717.568414 21.034711 
" clip-path="url(#p27096349e9)" style="fill: none; stroke: #8080ff; stroke-width: 2; stroke-linecap: square"/>
    <g clip-path="url(#p27096349e9)">
     <use xlink:href="#mfe40497298" x="440.874199" y="245.761551" style="fill: #8080ff; stroke: #8080ff"/>
     <use xlink:href="#mfe40497298" x="524.167458" y="184.807314" style="fill: #8080ff; stroke: #8080ff"/>
     <use xlink:href="#mfe40497298" x="572.89089" y="144.260417" style="fill: #8080ff; stroke: #8080ff"/>
     <use xlink:href="#mfe40497298" x="607.460716" y="114.548036" style="fill: #8080ff; stroke: #8080ff"/>
     <use xlink:href="#mfe40497298" x="634.275156" y="91.145109" style="fill: #8080ff; stroke: #8080ff"/>
     <use xlink:href="#mfe40497298" x="656.184149" y="72.110222" style="fill: #8080ff; stroke: #8080ff"/>
     <use xlink:href="#mfe40497298" x="674.707938" y="56.079314" style="fill: #8080ff; stroke: #8080ff"/>
     <use xlink:href="#mfe40497298" x="690.753974" y="42.390084" style="fill: #8080ff; stroke: #8080ff"/>
     <use xlink:href="#mfe40497298" x="704.907581" y="30.878254" style="fill: #8080ff; stroke: #8080ff"/>
     <use xlink:href="#mfe40497298" x="717.568414" y="21.034711" style="fill: #8080ff; stroke: #8080ff"/>
    </g>
   </g>
   <g id="line2d_35">
    <path d="M 440.874199 246.540842 
L 524.167458 208.27256 
L 572.89089 185.844497 
L 607.460716 170.214605 
L 634.275156 157.938095 
L 656.184149 148.175215 
L 674.707938 139.726876 
L 690.753974 132.323906 
L 704.907581 125.692401 
L 717.568414 119.644293 
" clip-path="url(#p27096349e9)" style="fill: none; stroke: #808080; stroke-width: 2; stroke-linecap: square"/>
    <g clip-path="url(#p27096349e9)">
     <use xlink:href="#m150107b682" x="440.874199" y="246.540842" style="fill: #808080; stroke: #808080"/>
     <use xlink:href="#m150107b682" x="524.167458" y="208.27256" style="fill: #808080; stroke: #808080"/>
     <use xlink:href="#m150107b682" x="572.89089" y="185.844497" style="fill: #808080; stroke: #808080"/>
     <use xlink:href="#m150107b682" x="607.460716" y="170.214605" style="fill: #808080; stroke: #808080"/>
     <use xlink:href="#m150107b682" x="634.275156" y="157.938095" style="fill: #808080; stroke: #808080"/>
     <use xlink:href="#m150107b682" x="656.184149" y="148.175215" style="fill: #808080; stroke: #808080"/>
     <use xlink:href="#m150107b682" x="674.707938" y="139.726876" style="fill: #808080; stroke: #808080"/>
     <use xlink:href="#m150107b682" x="690.753974" y="132.323906" style="fill: #808080; stroke: #808080"/>
     <use xlink:href="#m150107b682" x="704.907581" y="125.692401" style="fill: #808080; stroke: #808080"/>
     <use xlink:href="#m150107b682" x="717.568414" y="119.644293" style="fill: #808080; stroke: #808080"/>
    </g>
   </g>
   <g id="patch_6">
    <path d="M 427.039489 311.563636 
L 427.039489 7.2 
" style="fill: none; stroke: #000000; stroke-width: 1.6; stroke-linejoin: miter; stroke-linecap: square"/>
   </g>
   <g id="patch_7">
    <path d="M 427.039489 311.563636 
L 731.403125 311.563636 
" style="fill: none; stroke: #000000; stroke-width: 1.6; stroke-linejoin: miter; stroke-linecap: square"/>
   </g>
  </g>
 </g>
 <defs>
  <clipPath id="p29eef2e7b8">
   <rect x="61.803125" y="7.2" width="304.363636" height="304.363636"/>
  </clipPath>
  <clipPath id="p27096349e9">
   <rect x="427.039489" y="7.2" width="304.363636" height="304.363636"/>
  </clipPath>
 </defs>
</svg>
